<svg xmlns="http://www.w3.org/2000/svg" viewBox="-4904.746 128.889 82.784 112.843"><defs><style>.a{fill:#e66c3e;}</style></defs><g transform="translate(-4904.771 128.934)"><path class="a" d="M66.01,4.74c0,.115-.115.115-.115.231a1.041,1.041,0,0,1-.577.115H64.74a2.717,2.717,0,0,1-.924-.231c-.924-.231-1.847,0-2.771-.462-.462-.231-.924-.346-1.385-.577a3.842,3.842,0,0,0-1.154-.693,1.63,1.63,0,0,0-1.039-.115h-.462c-.231,0-.346-.115-.577-.115h-.577c-.346,0-.577-.115-.924-.115H52.849c-.231,0-.346.115-.462.115L51,3.239a4.678,4.678,0,0,0-1.27,0,5.678,5.678,0,0,1-2.424.462,8.68,8.68,0,0,0-1.732,0c-.462,0-.808-.231-1.154-.231a12.49,12.49,0,0,0-2.078,0h-1.5a9.2,9.2,0,0,0-1.732.346,5.7,5.7,0,0,0-1.847.577,17.088,17.088,0,0,0-1.5.924c-.346.115-.808.462-1.27.693-.346.231-.808.346-1.154.577-.808.577-1.732.346-2.655.462a6.679,6.679,0,0,0-3.233,1.039,16.519,16.519,0,0,0-2.771,2.193c-.462.462-.924.808-1.385,1.27-.577.462-1.154,1.039-1.732,1.5a12.97,12.97,0,0,1-4.272,2.771,15.872,15.872,0,0,0-3.463,2.193,6.966,6.966,0,0,0-.924.924,5.554,5.554,0,0,0-1.27,1.039c-.231.231-.462.577-.693.808a9.374,9.374,0,0,1-1.154,1.039L8.4,22.865c-.808.577-.808,1.5-1.039,2.309a2.726,2.726,0,0,1-.693,1.039c-.115.115-1.039.924-1.154.693-.462-.693.577-1.732.808-2.424.115-.346,0-.808.115-1.154.115-1.27,1.154-1.963,1.847-2.886a7.765,7.765,0,0,0,.808-1.27,12.6,12.6,0,0,1,1.5-1.963c.577-.577,1.27-1.039,1.963-1.616.462-.462,1.154-.693,1.616-1.154.346-.346.808-.693,1.154-1.039.115-.115.231-.346.462-.462l.693-.346.693-.693c.231-.231.577-.346.808-.577a16.97,16.97,0,0,1,1.5-1.154,2.514,2.514,0,0,0,.924-.577c.462-.346.924-.577,1.385-.924a13.067,13.067,0,0,1,1.5-1.154,3.721,3.721,0,0,1,1.616-.924,3.4,3.4,0,0,0,1.5-.577,4.84,4.84,0,0,1,1.847-.462A4.766,4.766,0,0,0,29.99,4.74c.693-.346,1.385-.577,2.078-.924,1.27-.693,2.655-.577,4.041-.924a8.529,8.529,0,0,1,2.424,0,6.751,6.751,0,0,0,2.194-.462c.577-.115,1.154-.115,1.616-.231a10.927,10.927,0,0,1,2.078-.577,3.282,3.282,0,0,1,1.385-.462c1.27-.231,2.54,0,3.81-.231A13.012,13.012,0,0,0,51.695.584,10.1,10.1,0,0,0,53.542.353c.231-.115.346-.115.577-.231A7.018,7.018,0,0,1,56.312.007a4.678,4.678,0,0,1,1.27,0c.231,0,.346.231.462.346s.346.115.577.231c.346.115.577.231.924.346s.693.115.924.231h.693c.346,0,.577.346.924.462h.231a.875.875,0,0,1,.462.231c.231.115.577.346.808.462a4.68,4.68,0,0,1,1.039.577c.346.231.462.577.808.808.231.115.808,0,.924.231S66.125,4.625,66.01,4.74Z" transform="translate(0.83 0)"/><path class="a" d="M.227,64.2h0c.115,0,.231.231.231.346a1.861,1.861,0,0,0,.462.808,9.555,9.555,0,0,1,1.27,1.732,2.051,2.051,0,0,1,.462,1.154V68.7a4.679,4.679,0,0,0,.577,1.039c.231.462.577,1.039.808,1.5l1.732,3c.693,1.039,1.385,1.963,2.078,2.886A8.811,8.811,0,0,1,8.77,78.4v.346A1.388,1.388,0,0,0,9,79.67a3.376,3.376,0,0,0,1.385.808,12.02,12.02,0,0,1,2.886,2.54c.577.693,1.385,1.154,1.963,1.847.346.462.577,1.039,1.154,1.27.346.115.693.346,1.039.462l.693.346c.346.115.693.231,1.154.346a.694.694,0,0,1,.462.115,2.445,2.445,0,0,0,.346.808,2.628,2.628,0,0,0,.924,1.039,5.97,5.97,0,0,0,1.5.693,7.412,7.412,0,0,1,1.5,1.154c.693.693,1.732,1.27,2.424,1.963a12.269,12.269,0,0,0,1.039,1.27,3.194,3.194,0,0,0,1.847.577l1.732.346a5.97,5.97,0,0,1,1.5.693,6.305,6.305,0,0,0,2.078.693c.693.231,1.385.346,2.078.577a13.957,13.957,0,0,0,2.078.577,7.05,7.05,0,0,0,1.5.346,5,5,0,0,0,.577-.115c.231,0,.346.115.577.231.231.231.577.346.808.577a12.787,12.787,0,0,0,4.156.924l2.424.346a13.914,13.914,0,0,0,2.194,0h2.771a23.416,23.416,0,0,0,5.657-.462c.462-.115.924-.231,1.5-.346a6.757,6.757,0,0,0,1.5-.231c.462-.115.693-.462,1.154-.577a5,5,0,0,1,1.847-.115H65.8c.115,0,.231-.115.346-.231a2.523,2.523,0,0,1,.577-.346l.693-.346a3.669,3.669,0,0,1,1.039-.346h.577c.231,0,.346-.115.462-.115.231-.115.577-.231.808-.346a5,5,0,0,0,.577-.115,7.948,7.948,0,0,0,.924-.346c.693-.231,1.385-.693,2.078-.924.577-.231,1.154-.115,1.616-.346a4.265,4.265,0,0,0,1.616-.808,5.333,5.333,0,0,0,.808-.808,1.861,1.861,0,0,1,.808-.462,5.019,5.019,0,0,0,.808-.462.508.508,0,0,1,.577-.115c.115,0,.115,0,.115.115.231,0,.346-.115.577-.115.115-.115.231-.115.346-.231s.231-.346.346-.462c.231-.231.346-.462.577-.577a.521.521,0,0,1,.693,0c.231.346-.693.808-.924.924-.346.231-.693.346-.924.808a2.071,2.071,0,0,1-.577.808c-.231.231-.346.577-.577.693a2.523,2.523,0,0,0-.577.346c-.577.346-1.27.808-1.847,1.154-.462.231-.924.577-1.5.808a7.761,7.761,0,0,1-1.385.693c-.346.115-.577,0-.924.231a8.81,8.81,0,0,0-1.27.924l-.693.346a1.712,1.712,0,0,1-.808.115,2.757,2.757,0,0,0-1.039.231c-.231.115-.346.115-.577.231s-.462.115-.693.231a7.955,7.955,0,0,0-.924.346c-.231.115-.346.346-.577.577-.115.115-.231.346-.462.346a1.641,1.641,0,0,1-.693.231h-1.27a5.563,5.563,0,0,0-1.385,0,2.444,2.444,0,0,0-.808.346,4.4,4.4,0,0,1-1.154.346,1.041,1.041,0,0,0-.577.115,5.629,5.629,0,0,1-.808.346c-.346.115-.577.115-.924.231a3.415,3.415,0,0,1-1.154.231H55.642c-.462,0-.924.115-1.385.115-1.154,0-2.193.115-3.348.115s-2.424,0-3.579-.115a4.736,4.736,0,0,1-1.27-.115c-1.616-.115-3.117-.346-4.733-.577a14.846,14.846,0,0,1-2.194-.462,4.91,4.91,0,0,0-1.27-.231H35.785a10.949,10.949,0,0,1-2.655-.577l-1.039-.346c-.231-.115-.346-.231-.577-.231a3.879,3.879,0,0,1-1.616-.577,2.514,2.514,0,0,1-.924-.577c-.231-.115-.346-.346-.577-.577a2.32,2.32,0,0,0-.924-.462,6.8,6.8,0,0,1-.924-.462c-.346-.115-.462-.462-.577-.808a2.632,2.632,0,0,1-1.27-.346,10.234,10.234,0,0,0-1.963-.924c-.231-.115-.577-.231-.808-.346a10.15,10.15,0,0,0-1.154-.693,4.767,4.767,0,0,1-1.27-.808L18.468,92.6a6.4,6.4,0,0,1-.693-.924c-.115-.231-.231-.231-.462-.346a16.889,16.889,0,0,1-1.5-1.039,5.031,5.031,0,0,1-1.616-1.5,4.679,4.679,0,0,1-.577-1.039c.231-.231.231-.462-.115-.693s-.693-.346-1.039-.577c-.115-.115-.346-.115-.462-.231-.231-.231-.115-.577-.231-.808s-.462-.346-.693-.577A11.5,11.5,0,0,1,9.925,83.6C9,82.441,8.077,81.4,7.269,80.247a3.843,3.843,0,0,1-.693-1.154A3.611,3.611,0,0,0,6,77.938a2.778,2.778,0,0,0-.693-.924c-.231-.231-.693-.346-.924-.577A6.345,6.345,0,0,1,3.575,75.4a7.361,7.361,0,0,0-.924-1.616,2.631,2.631,0,0,1-.346-1.27,4.4,4.4,0,0,0,.115-1.732,3.027,3.027,0,0,0-.577-1.039,1.153,1.153,0,0,0-.577-.462L.92,68.587c-.231-.462-.346-1.039-.577-1.5a1.464,1.464,0,0,1-.115-.693c0-.231-.115-.462-.115-.693a1.967,1.967,0,0,1,0-1.154A.221.221,0,0,1,.227,64.2Z" transform="translate(0 9.924)"/><path class="a" d="M62.178,4.622h-.231a2.843,2.843,0,0,0-1.385-.115c-.346.115-.462.577-.462.924s.346.693.462.924c.115.115.231.231.346.231.231.115,0,0,.346.115s.808.346,1.154.462c.115,0,.231,0,.231.115l.115.115c.808.346,1.847-.231,2.54.577.231.346.462.693.808,1.154a2.4,2.4,0,0,0,1.154.693,3.657,3.657,0,0,1,1.732.693A9.309,9.309,0,0,1,70.606,11.9c.231.231.462.462.693.115a1.258,1.258,0,0,0-.231-1.27,3.513,3.513,0,0,0-.924-.924l-1.385-.693A4.692,4.692,0,0,1,67.6,8.085c-.462-.462-1.154-.693-1.732-1.154a2.421,2.421,0,0,0-1.27-.924,5.126,5.126,0,0,1-1.27-.924c-.115-.115-.115-.231-.231-.346A2.251,2.251,0,0,0,62.178,4.622Z" transform="translate(9.28 0.696)"/></g></svg>