<svg xmlns="http://www.w3.org/2000/svg" viewBox="6267.254 16.889 57.197 77.966"><defs><style>.a{fill:#fff;}</style></defs><g transform="translate(6267.229 16.934)"><path class="a" d="M47.277,3.261c0,.08-.08.08-.08.16a.719.719,0,0,1-.4.08h-.4a1.877,1.877,0,0,1-.638-.16,8.007,8.007,0,0,1-1.914-.319c-.319-.16-.638-.239-.957-.4a2.655,2.655,0,0,0-.8-.479,1.126,1.126,0,0,0-.718-.08h-.319c-.16,0-.239-.08-.4-.08h-.4c-.239,0-.4-.08-.638-.08H38.183c-.16,0-.239.08-.319.08l-.957.239a3.232,3.232,0,0,0-.877,0,3.923,3.923,0,0,1-1.675.319,6,6,0,0,0-1.2,0c-.319,0-.558-.16-.8-.16a8.63,8.63,0,0,0-1.436,0H29.888a6.359,6.359,0,0,0-1.2.239,3.94,3.94,0,0,0-1.276.4,11.807,11.807,0,0,0-1.037.638c-.239.08-.558.319-.877.479-.239.16-.558.239-.8.4-.558.4-1.2.239-1.835.319a4.615,4.615,0,0,0-2.233.718A11.414,11.414,0,0,0,18.721,7.09c-.319.319-.638.558-.957.877-.4.319-.8.718-1.2,1.037a8.961,8.961,0,0,1-2.951,1.914,10.966,10.966,0,0,0-2.393,1.516,4.813,4.813,0,0,0-.638.638,3.838,3.838,0,0,0-.877.718c-.16.16-.319.4-.479.558a6.477,6.477,0,0,1-.8.718l-.957.718c-.558.4-.558,1.037-.718,1.6a1.884,1.884,0,0,1-.479.718c-.08.08-.718.638-.8.479-.319-.479.4-1.2.558-1.675.08-.239,0-.558.08-.8.08-.877.8-1.356,1.276-1.994a5.365,5.365,0,0,0,.558-.877,8.708,8.708,0,0,1,1.037-1.356c.4-.4.877-.718,1.356-1.117.319-.319.8-.479,1.117-.8.239-.239.558-.479.8-.718.08-.08.16-.239.319-.319l.479-.239.479-.479c.16-.16.4-.239.558-.4a11.724,11.724,0,0,1,1.037-.8,1.737,1.737,0,0,0,.638-.4c.319-.239.638-.4.957-.638a9.028,9.028,0,0,1,1.037-.8,2.571,2.571,0,0,1,1.117-.638,2.351,2.351,0,0,0,1.037-.4,3.344,3.344,0,0,1,1.276-.319,3.293,3.293,0,0,0,1.2-.558c.479-.239.957-.4,1.436-.638a10.936,10.936,0,0,1,2.792-.638,5.893,5.893,0,0,1,1.675,0,4.664,4.664,0,0,0,1.516-.319c.4-.08.8-.08,1.117-.16a7.55,7.55,0,0,1,1.436-.4,2.267,2.267,0,0,1,.957-.319c.877-.16,1.755,0,2.632-.16A8.99,8.99,0,0,0,37.386.39,6.981,6.981,0,0,0,38.662.23c.16-.08.239-.08.4-.16a4.849,4.849,0,0,1,1.516-.08,3.232,3.232,0,0,1,.877,0c.16,0,.239.16.319.239s.239.08.4.16c.239.08.4.16.638.239s.479.08.638.16h.479c.239,0,.4.239.638.319h.16a.6.6,0,0,1,.319.16c.16.08.4.239.558.319a3.233,3.233,0,0,1,.718.4c.239.16.319.4.558.558.16.08.558,0,.638.16S47.356,3.182,47.277,3.261Z" transform="translate(-1.087)"/><path class="a" d="M.165,64.2h0c.08,0,.16.16.16.239A1.286,1.286,0,0,0,.643,65a6.6,6.6,0,0,1,.877,1.2,1.417,1.417,0,0,1,.319.8v.319a3.233,3.233,0,0,0,.4.718c.16.319.4.718.558,1.037l1.2,2.074c.479.718.957,1.356,1.436,1.994a6.088,6.088,0,0,1,.638.877v.239a.959.959,0,0,0,.16.638,2.333,2.333,0,0,0,.957.558A8.3,8.3,0,0,1,9.178,77.2c.4.479.957.8,1.356,1.276.239.319.4.718.8.877.239.08.479.239.718.319l.479.239c.239.08.479.16.8.239a.48.48,0,0,1,.319.08,1.689,1.689,0,0,0,.239.558,1.816,1.816,0,0,0,.638.718,4.125,4.125,0,0,0,1.037.479,5.121,5.121,0,0,1,1.037.8c.479.479,1.2.877,1.675,1.356a8.477,8.477,0,0,0,.718.877,2.207,2.207,0,0,0,1.276.4l1.2.239a4.125,4.125,0,0,1,1.037.479,4.356,4.356,0,0,0,1.436.479c.479.16.957.239,1.436.4a9.643,9.643,0,0,0,1.436.4,4.871,4.871,0,0,0,1.037.239,3.455,3.455,0,0,0,.4-.08c.16,0,.239.08.4.16.16.16.4.239.558.4a8.835,8.835,0,0,0,2.872.638l1.675.239a9.613,9.613,0,0,0,1.516,0h1.914a16.178,16.178,0,0,0,3.909-.319c.319-.08.638-.16,1.037-.239a4.668,4.668,0,0,0,1.037-.16c.319-.08.479-.319.8-.4a3.453,3.453,0,0,1,1.276-.08h.239c.08,0,.16-.08.239-.16a1.744,1.744,0,0,1,.4-.239l.479-.239a2.535,2.535,0,0,1,.718-.239h.4c.16,0,.239-.08.319-.08.16-.08.4-.16.558-.239a3.455,3.455,0,0,0,.4-.08,5.493,5.493,0,0,0,.638-.239c.479-.16.957-.479,1.436-.638.4-.16.8-.08,1.117-.239a2.947,2.947,0,0,0,1.117-.558,3.685,3.685,0,0,0,.558-.558,1.286,1.286,0,0,1,.558-.319,3.468,3.468,0,0,0,.558-.319.351.351,0,0,1,.4-.08c.08,0,.08,0,.08.08.16,0,.239-.08.4-.08.08-.08.16-.08.239-.16s.16-.239.239-.319c.16-.16.239-.319.4-.4a.36.36,0,0,1,.479,0c.16.239-.479.558-.638.638-.239.16-.479.239-.638.558a1.431,1.431,0,0,1-.4.558c-.16.16-.239.4-.4.479a1.743,1.743,0,0,0-.4.239c-.4.239-.877.558-1.276.8-.319.16-.638.4-1.037.558a5.362,5.362,0,0,1-.957.479c-.239.08-.4,0-.638.16a6.087,6.087,0,0,0-.877.638l-.479.239a1.183,1.183,0,0,1-.558.08,1.9,1.9,0,0,0-.718.16c-.16.08-.239.08-.4.16s-.319.08-.479.16a5.5,5.5,0,0,0-.638.239c-.16.08-.239.239-.4.4-.08.08-.16.239-.319.239a1.134,1.134,0,0,1-.479.16h-.877a3.844,3.844,0,0,0-.957,0,1.689,1.689,0,0,0-.558.239,3.039,3.039,0,0,1-.8.239.719.719,0,0,0-.4.08,3.89,3.89,0,0,1-.558.239c-.239.08-.4.08-.638.16a2.36,2.36,0,0,1-.8.16H38.452c-.319,0-.638.08-.957.08-.8,0-1.516.08-2.313.08s-1.675,0-2.473-.08a3.272,3.272,0,0,1-.877-.08c-1.117-.08-2.154-.239-3.27-.4a10.258,10.258,0,0,1-1.516-.319,3.392,3.392,0,0,0-.877-.16H24.732a7.565,7.565,0,0,1-1.835-.4l-.718-.239c-.16-.08-.239-.16-.4-.16a2.68,2.68,0,0,1-1.117-.4,1.737,1.737,0,0,1-.638-.4c-.16-.08-.239-.239-.4-.4a1.6,1.6,0,0,0-.638-.319,4.7,4.7,0,0,1-.638-.319c-.239-.08-.319-.319-.4-.558a1.818,1.818,0,0,1-.877-.239,7.072,7.072,0,0,0-1.356-.638c-.16-.08-.4-.16-.558-.239a7.015,7.015,0,0,0-.8-.479,3.294,3.294,0,0,1-.877-.558l-.718-.718a4.424,4.424,0,0,1-.479-.638c-.08-.16-.16-.16-.319-.239a11.669,11.669,0,0,1-1.037-.718A3.476,3.476,0,0,1,9.816,81.19a3.233,3.233,0,0,1-.4-.718c.16-.16.16-.319-.08-.479s-.479-.239-.718-.4c-.08-.08-.239-.08-.319-.16-.16-.16-.08-.4-.16-.558s-.319-.239-.479-.4a7.943,7.943,0,0,1-.8-.877c-.638-.8-1.276-1.516-1.835-2.313a2.655,2.655,0,0,1-.479-.8,2.5,2.5,0,0,0-.4-.8,1.92,1.92,0,0,0-.479-.638c-.16-.16-.479-.239-.638-.4a4.384,4.384,0,0,1-.558-.718,5.086,5.086,0,0,0-.638-1.117,1.818,1.818,0,0,1-.239-.877,3.041,3.041,0,0,0,.08-1.2,2.091,2.091,0,0,0-.4-.718.8.8,0,0,0-.4-.319l-.239-.479c-.16-.319-.239-.718-.4-1.037a1.012,1.012,0,0,1-.08-.479c0-.16-.08-.319-.08-.479a1.359,1.359,0,0,1,0-.8A.153.153,0,0,1,.165,64.2Z" transform="translate(0 -13)"/><path class="a" d="M61.536,4.571h-.16a1.964,1.964,0,0,0-.957-.08c-.239.08-.319.4-.319.638s.239.479.319.638c.08.08.16.16.239.16.16.08,0,0,.239.08s.558.239.8.319c.08,0,.16,0,.16.08l.08.08c.558.239,1.276-.16,1.755.4.16.239.319.479.558.8a1.655,1.655,0,0,0,.8.479,2.527,2.527,0,0,1,1.2.479,6.432,6.432,0,0,1,1.117.957c.16.16.319.319.479.08a.869.869,0,0,0-.16-.877,2.428,2.428,0,0,0-.638-.638l-.957-.479a3.242,3.242,0,0,1-.8-.718c-.319-.319-.8-.479-1.2-.8a1.673,1.673,0,0,0-.877-.638,3.542,3.542,0,0,1-.877-.638c-.08-.08-.08-.16-.16-.239A1.555,1.555,0,0,0,61.536,4.571Z" transform="translate(-12.156 -0.911)"/></g></svg>