<?xml version="1.0" encoding="utf-8"?>
<!-- Generator: Adobe Illustrator 21.0.2, SVG Export Plug-In . SVG Version: 6.00 Build 0)  -->
<svg version="1.1" id="Calque_1" xmlns="http://www.w3.org/2000/svg" xmlns:xlink="http://www.w3.org/1999/xlink" x="0px" y="0px"
	 viewBox="0 0 933.9 11.1" style="enable-background:new 0 0 933.9 11.1;" xml:space="preserve">
<style type="text/css">
	.st0{fill:#FFFFFF;}
</style>
<g>
	<path class="st0" d="M370.2,2.6c-0.3,0.1-0.5,0.1-0.5,0.2C370.1,2.8,370.2,2.7,370.2,2.6z"/>
	<path class="st0" d="M362.5,1.7c0.1,0,0.3,0.1,0.4,0.1C362.8,1.7,362.6,1.7,362.5,1.7z"/>
	<path class="st0" d="M412.5,3.4l-1.2-0.3C411.3,3.4,411.9,3.3,412.5,3.4z"/>
	<path class="st0" d="M432,2.2l-0.6,0.4h0.3C431.8,2.4,431.9,2.3,432,2.2z"/>
	<path class="st0" d="M420.9,2.1c0,0.1,0,0.2,0.1,0.3C421,2.3,421,2.2,420.9,2.1z"/>
	<path class="st0" d="M0.3,4L0.1,4.5l0.2-0.1C0.3,4.2,0.3,4.1,0.3,4z"/>
	<path class="st0" d="M349.1,0.7L349.1,0.7C349.6,0.6,349.4,0.6,349.1,0.7z"/>
	<path class="st0" d="M294.8,2.5l-0.6-0.1c0.1,0.1,0.2,0.1,0.2,0.2C294.5,2.6,294.6,2.5,294.8,2.5z"/>
	<path class="st0" d="M304.4,2.9L304.4,2.9C304.4,3,304.4,2.9,304.4,2.9z"/>
	<path class="st0" d="M46.7,2.9c-0.1-0.1-0.2-0.1-0.3-0.1C46.5,2.8,46.6,2.9,46.7,2.9z"/>
	<path class="st0" d="M340.6,2.7l-0.3,0.2C340.5,2.8,340.9,2.8,340.6,2.7z"/>
	<path class="st0" d="M448,2.8c1.2-0.2,0-0.5,0.1-0.6C447.3,2.5,447.1,2.6,448,2.8z"/>
	<polygon class="st0" points="382.1,1.3 380.5,1.6 381.7,1.4 	"/>
	<polygon class="st0" points="149.7,0.8 148.3,1 148.9,1.1 	"/>
	<path class="st0" d="M934.1,5.9L934.1,5.9L933,5.9c0.1-0.1,0.2-0.1,0.2-0.2c-0.9-0.8-2.1-0.8-3.3-0.2c-0.2-0.2,0-0.5,0.1-0.6
		c-0.5,0.2-0.9,0.6-1.2,1h-1.3c0.1-0.1,0.2-0.1,0.2-0.2c0-0.1-0.4-0.1-0.7-0.2c0.1,0.1,0.1,0.2,0,0.3h-2.1c0,0-0.1-0.1-0.1-0.2
		l0.9-0.2c-0.9-1.7-3.6,0.3-5.4,0.2l0.8-1.2l-1.9,1c-0.4-0.3-0.6-1,0.2-1.2c-1.3-0.6-1.2,0.4-2.3-0.2c-0.1-0.1-0.1-0.2,0.1-0.2
		l-1.3,0.3c0.2-0.2-0.2-0.9,0.6-0.7c-2.3-0.7-3.7,0.9-4.5,0l0.2-0.1c-3.1,0.4-0.3,0.9-2.7,1.9L907.9,3l-0.3,1
		c-0.3-0.1-1-0.1-0.9-0.5c-1.2,0.6,0.2,0.4-0.5,1c-1.6-0.8-4.3,0.4-4.7-1c-0.6,0.7,1.5,0.5-0.2,1c-0.5-1.5-1.9,0.2-3.4-0.5
		c0.5-0.8,1.8-0.3,0.3-1c-0.8,1.3-2.7-0.2-3.9-0.1c0-0.2-0.1-0.4-0.2-0.6c-0.3,0-0.4,0.8-0.5,1.1c-0.9,0.2-2.6,0-4.1,0.3
		c0.1-0.3-3.8-0.6-5.7-1l0.1-0.2c-0.3,1-2.3,0.9-3.7,1.1c0.1-0.6,0.3-0.9,1-1.2h-1.3c-0.3,0.3-0.8,0.5-1.6,0.6l0.3-0.8
		c-1.7,0.1-3.5,0.9-5.8,0.4c-0.1,0.8,1.8,2.1-0.6,2.6c-0.1-0.4-0.2-1.1,0.5-1.3c-0.2,0.1-0.8,0.3-1.2,0.2l1-0.7
		c-1-0.3-0.5,0.6-1.4,0.5c0-0.6-0.6-0.4-0.5-0.9c0.2-0.1,0.7,0.2,1,0c-0.9-0.1-2-0.5-2.4-0.9c0.1,0.3,0,0.8-0.7,0.9
		c-1.7,0.1-0.6-0.7-1.6-1c-0.4,0.4-1.6,0-1.6,0.9c-0.5,0-0.6-0.4-0.8-0.6c-0.9,0.4-4.3,0.1-3.3,1l0.1,0c0,0,0.1,0,0.1,0.1
		c0,0-0.1,0-0.1,0c-3,0.9-6.2-0.5-9.2-0.1V3.2c-1.8,0.3-4,0.2-5.2,0.8c-0.5,0-1.2-0.5-1-0.9c-1.3,0.2-1.5,0.5-3.5,0.1
		c1.3-0.5-0.5-0.5,1.4-0.3c-1.7-0.2-2.2-0.7-4.1,0.1c0.6-0.8-1.3-0.9-2.2-0.7l1.2,0.5c-0.9,0.1-1.7,0.1-2.6,0l0.6-1
		c-3.6-1.2-6.5,2-9.2,0.1c-0.9,0.7,2,0.5,1.1,1.3c-1.7-0.1-3.4-1.5-3.9-1.5c-2.3-0.5-2.2,1.4-4.5,1c0.3,0.3,0.6,1.3-1.2,1.6
		c-1.7-0.1-2-1.5-1-1.7c0.4,0,0.6,0.1,0.6,0.2c0.5-0.1,1.2-0.3,0.6-0.6l-0.3,0.3C818.4,2,816,2,816.6,1.5c-1.3,0.3-0.5,0.6,0.4,0.8
		c-2.2-0.5-3.3,0-5.5-0.3c0.3,0.2,0.7,0.6,0.3,0.6c-3.2-0.4-1.4,0.6-3.6,0.8c-1.2-0.5,0.5-1.3-1.7-0.8c-1.3-0.3-0.3-0.9,0.2-1.2
		c-2,0.6-3.7-0.5-4.9-0.6l1-0.3c-0.6,0.1-1.1,0.2-1.7,0.2l0.6,0.7c-0.6-0.1-1.2-0.1-1.1-0.4c-0.6,0.5,0.5,1.2-0.8,1.7
		c-0.8-0.3-2.5,0.3-2.8-0.5c2.4,0.3,0.2-0.7,1.5-1c0,0,0,0,0,0c0.2,0,0.3-0.1,0.5-0.1c-0.2,0-0.3,0-0.5,0.1c-0.4,0-0.7,0-1.1-0.1
		c-0.1-0.1,0.1-0.2,0.2-0.2c-2.5-0.8-1.2,1-3.7,1c0.3-0.5-0.6-1-1-0.9c1,0,0.5,0.9-0.5,1.3c-1.6-0.4-1.8,0.3-2.7,0.2l1,0.2
		c-0.3,0.5-1.2,0.5-2.3,0.6c-0.1-0.1,0.1-0.2,0.2-0.2c-1.2,0.3-2.6-1.1-4.2-0.5c-0.8-0.3-0.1-1-0.8-1.2c-2,0.7-2.2-0.7-4.2-0.2
		c0.6,0.7,0.7,0.5-0.8,1.2l3.4-0.5l-2.2,1c1,0,2.2-0.5,2.8-0.3c-1,0.6-0.9,0.4-0.5,1c-1.4-1-2.8,0.6-4.5-0.1l0.1-1.7
		c-2.5-0.8-4.4,0.9-7.6,0.5l1.1,0.2c-0.4,0.7-2,0.1-3,0.3c0.1-0.6-0.6-0.8-1-1.2c0,0,0,0,0,0c0-0.1-0.1-0.2-0.3-0.3
		c0.1,0.1,0.2,0.2,0.3,0.3c-0.1,0.3-2.3-0.1-2.6,1.1l-1.5-0.8c-2.6-0.3-3,1.6-5.5,1.5c0.8-0.6-0.4-1,1.3-1.5c-0.8,0-1.6-0.1-1.6,0.3
		c-0.5-0.3-2.2,0.7-3,0.3c0.1-0.1,0.3-0.1,0.4-0.1c-0.2-0.1-0.4-0.1-0.6,0l0.1,0.1c-0.3,0.2-0.5,0.8-1.4,0.8c-0.1-0.1-0.1-0.2,0-0.2
		c-0.2,0.2-1.4,0.3-0.6,1c-2.6-1.8-7.2,0.1-9.4-1.4c-1.8,0.2-4,0.3-5.6,0.4c0.1-0.2,0-0.3,0.3-0.2c-2.3-0.5-1.4,1.6-4,1
		c-1.3-0.9,1.4-0.5,0.5-0.9c-0.3-1.9-3.1,0.2-4.9-0.9l0.4-0.1c-1.3-0.6-3.3,0.7-5.4,0.6c0,0,0.1-0.2,0-0.3c-1.5,1-4.3,1.3-6.4,1.6
		c0.6-0.8,0.9-0.4,0.6-1.2c-0.9,0.1,0.3,1.2-1.6,1.4c-0.6-0.4-2-0.8-2.2-1.6l1.7-0.1c-0.9-1-2.3,0.1-3.2-0.1l0.1-0.5
		c-2.7,0.2-2.7,1.3-5.6,1.2l0.3,0.3c-1.6,1.1-1.3-0.6-2.9,0.2l-0.5-1.2c-1.8,0.6-3.7,1-5.6,1.3c1-0.9,3.3-1.3,4.7-1.8
		c-1,0-3.5,0.1-4.1,0.6c0.4-0.1,0.9-0.4,1.3-0.2c-1.3,0.9-3,1.3-5,1.3c0.3-2.2-5.4-0.6-6.9-2.3c-3.7,0.9-7.3-0.3-11.5-0.2
		c1.5,1.7-1.2,0.1-1,1.8c-1,0.1-1.4,0.1-1.5,0l-3-1c-0.7-0.5,0.9-0.4,0.9-0.8c-2.2-0.1-0.9-0.8-2.4-1.2c0.3,0.6-0.8,0.9-2,0.6
		l1.7,0.8c-3,0.9-2.6-1.5-5.7-0.6l1-0.6c-1.6,0.3-5.8,0-7.3,1.4c-0.3-0.2-0.6-0.7,0.1-0.8c-3.8-0.2-8.4,1.5-11.3,0.6l0.3-0.4
		c-0.7,0.1-1.2,0.8-2.1,0.4c0.1-0.2,0.3-0.4-0.1-0.5c-0.3,0.2-1.9,0.8-2.8,0.5l0.8-0.5c-3.7-0.6-5.6,1.2-8.7,1.5
		c0-1.3-2.9-1.7-4.3-1.9l0.1-0.2c-4.3-0.2-7.3,1-11.2,1.6c-2.4-1.4-8.3-0.6-12.3-1.3c0.6,0.2-0.1,1-0.8,1.1
		c-0.9-0.2-2.6,0.9-2.4-0.3h0.3c-0.7-1.2-2.6-0.9-4.1-0.9l-0.2,1.5C595.6,0,589.3,3,587.2,1c-0.9,0.4-2.1,0.4-3,0.8l0.1-0.8
		c-2.4-0.2-4.7-0.3-7.1-0.1l0.6-0.6c-1.8-0.1-2.3,2.4-4,2.4l-0.5-1.2c-3.1,0-6.3-1-9.5,0.1c0-0.3,0.3-0.6,0.6-0.6
		c-1.5-0.1-5.8-0.8-5.2,0.9c-0.1-1.1-3.3-0.1-5,0.3l0.3-0.8C553,2.4,553,2.7,551,3c-0.5-0.1-0.4-0.6,0.2-0.5
		c-1.6-0.4-1.2,0.8-3.1,0.3l0.7-0.5c-1.6-0.1-1.5,0.2-2.4,0.8c-1,0.3-3.1-0.2-3.4-0.9c-0.5,0.7-1.3,1-2.1,0.8
		c-0.1-0.3,0.2-0.5,0.4-0.5c-2.7-0.5-4.1,0.9-5.9,0.2c0-0.2-0.1-0.4-0.3-0.5c1.3,0,2.5,0,3.8,0.1c0-0.8-1.7-0.9-0.3-1.9
		c-1.4,0.6-3.8,1.8-5.5,1.5c-0.1-0.1-0.2-0.1-0.2-0.2l0.2-0.1c-0.4-0.1-0.8,0-1.1,0.1c-0.5-0.1-0.9-0.2-1.4-0.2
		c-0.2-0.6-2-0.3-2.9-0.3c0.1,0.8-1,0.7-0.1,1.3c0,0,0.2-0.1,0.5-0.1l0.2,0.1c0,0,0.1-0.1,0.1-0.1c0.1,0,0.3-0.1,0.3-0.1l-0.1,0.1
		c0.6,0,1.3-0.1,2.2-0.1c-0.7,0.4-1.4,0.8-2.4,0.3c-0.5,0.5-0.9,1-1.2,1.3c-1.2-1.2-3.5-1.7-3.8-2.4c-2.7,0.5-6.3,0.3-8,1.9
		c-0.8,0.2-0.9-0.5-1.2-0.7c0.5-0.2,1-0.1,1.2-0.3c-1.5,0.4-4.5,0.2-4.9,1.2c-1.9-0.5,1.1-1-1.6-0.8l0.3-0.3
		c-5.2-1.8-8.4,2.4-14,0.5c0.2,0,0.3,0.1,0.4,0.3c-6.5-1-13.5,0.9-19.9-0.6c-1.9-0.3-2,0.3-3.1,0.9l-0.4-0.9l-1.9,1
		c-0.9,0.3-1.8,0.1-2.6-0.2c0.1,0,0.2,0,0.4,0c-0.3-0.1-0.6-0.1-0.8-0.2c-1.5-0.5-3-1.3-5.1-0.4l0.5,0.6c-0.7-0.1-2,0.1-2.9,0
		L459.4,3l-0.1,0.4c-0.3,0-0.5-0.2-0.5-0.4c-0.1,0.1-0.4,0.6-0.9,0.3l-0.1-0.5l-3,0.8c-2.3-0.3,0.3-1.8-3.1-1.9
		c-1.3,0.2-3.6,1.4-3.1,1.7c0.1,0,0.3,0,0.4,0.1c-0.9,0.1-2.2-0.7-3.1-0.6c0-0.2-0.1-0.4-0.2-0.6c-0.3,0-0.4,0.8-0.5,1.1
		c-0.9,0.2-2.6,0-4.1,0.3c0.1-0.3-3.8-0.6-5.7-1l0.1-0.2c-0.3,1-2.3,0.9-3.7,1.1c0.1-0.6,0.3-0.9,1-1.2h-1.3
		c-0.3,0.3-0.8,0.5-1.6,0.6l0.3-0.8c-1.7,0.1-3.5,0.9-5.8,0.4c-0.1,0.8,1.8,2.1-0.6,2.6c-0.1-0.4-0.2-1.1,0.5-1.3
		c-0.2,0.1-0.8,0.3-1.2,0.2l1-0.7c-1-0.3-0.5,0.6-1.4,0.5c0-0.6-0.6-0.4-0.5-0.9c0.2-0.1,0.7,0.2,1,0c-0.9-0.1-2-0.5-2.4-0.9
		c0.1,0.3,0,0.8-0.7,0.9c-1.7,0.1-0.6-0.7-1.6-1c-0.4,0.4-1.6,0-1.6,0.9c-0.5,0-0.6-0.4-0.8-0.6c-0.9,0.4-4.3,0.1-3.3,1l0.1,0
		c0,0,0.1,0,0.1,0.1c0,0-0.1,0-0.1,0c-3,0.9-6.2-0.5-9.2-0.1V3.2c-1.8,0.3-4,0.2-5.2,0.8c-0.5,0-1.2-0.5-1-0.9
		c-1.3,0.2-1.5,0.5-3.5,0.1c1.3-0.5-0.5-0.5,1.4-0.3c-1.7-0.2-2.2-0.7-4.1,0.1c0.6-0.8-1.3-0.9-2.2-0.7l1.2,0.5
		c-0.9,0.1-1.7,0.1-2.6,0l0.6-1c-3.6-1.2-6.5,2-9.2,0.1c-0.9,0.7,2,0.5,1.1,1.3c-1.7-0.1-3.4-1.5-3.9-1.5c-2.3-0.5-2.2,1.4-4.5,1
		c0.3,0.3,0.6,1.3-1.2,1.6c-1.7-0.1-2-1.5-1-1.7c0.4,0,0.6,0.1,0.6,0.2c0.5-0.1,1.2-0.3,0.6-0.6l-0.3,0.3c-0.8-0.3-3.1-0.3-2.6-0.9
		c-1.3,0.3-0.5,0.6,0.4,0.8c-2.2-0.5-3.3,0-5.5-0.3c0.3,0.2,0.7,0.6,0.3,0.6c-3.2-0.4-1.4,0.6-3.6,0.8c-1.2-0.5,0.5-1.3-1.7-0.8
		c-1.3-0.3-0.3-0.9,0.2-1.2c-2,0.6-3.7-0.5-4.9-0.6l1-0.3c-0.6,0.1-1.1,0.2-1.7,0.2l0.6,0.7c-0.6-0.1-1.2-0.1-1.1-0.4
		c-0.6,0.5,0.5,1.2-0.8,1.7c-0.8-0.3-2.5,0.3-2.8-0.5c2.4,0.3,0.2-0.7,1.5-1c0,0,0,0,0,0c0.2,0,0.3-0.1,0.5-0.1
		c-0.2,0-0.3,0-0.5,0.1c-0.4,0-0.7,0-1.1-0.1c-0.1-0.1,0.1-0.2,0.2-0.2c-2.5-0.8-1.2,1-3.7,1c0.3-0.5-0.6-1-1-0.9
		c1,0,0.5,0.9-0.5,1.3c-1.6-0.4-1.8,0.3-2.7,0.2l1,0.2C342,3.1,341.2,3,340,3.2c-0.1-0.1,0.1-0.2,0.2-0.2c-1.2,0.3-2.6-1.1-4.2-0.5
		c-0.8-0.3-0.1-1-0.8-1.2c-2,0.7-2.2-0.7-4.2-0.2c0.6,0.7,0.7,0.5-0.8,1.2l3.4-0.5l-2.2,1c1,0,2.2-0.5,2.8-0.3c-1,0.6-0.9,0.4-0.5,1
		c-1.4-1-2.8,0.6-4.5-0.1l0.1-1.7c-2.5-0.8-4.4,0.9-7.6,0.5l1.1,0.2c-0.4,0.7-2,0.1-3,0.3c0.1-0.6-0.6-0.8-1-1.2c0,0,0,0,0,0
		c0-0.1-0.1-0.2-0.3-0.3c0.1,0.1,0.2,0.2,0.3,0.3c-0.1,0.3-2.3-0.1-2.6,1.1l-1.5-0.8c-2.6-0.3-3,1.6-5.5,1.5c0.8-0.6-0.4-1,1.3-1.5
		c-0.8,0-1.6-0.1-1.6,0.3c-0.5-0.3-2.2,0.7-3,0.3c0.1-0.1,0.3-0.1,0.4-0.1c-0.2-0.1-0.4-0.1-0.6,0l0.1,0.1c-0.3,0.2-0.5,0.8-1.4,0.8
		c-0.1-0.1-0.1-0.2,0-0.2c-0.2,0.2-1.4,0.3-0.6,1c-2.6-1.8-7.2,0.1-9.4-1.4c-1.8,0.2-4,0.3-5.6,0.4c0.1-0.2,0-0.3,0.3-0.2
		c-2.3-0.5-1.4,1.6-4,1c-1.3-0.9,1.4-0.5,0.5-0.9c-0.3-1.9-3.1,0.2-4.9-0.9l0.4-0.1c-1.3-0.6-3.3,0.7-5.4,0.6c0,0,0.1-0.2,0-0.3
		c-1.5,1-4.3,1.3-6.4,1.6c0.6-0.8,0.9-0.4,0.6-1.2c-0.9,0.1,0.3,1.2-1.6,1.4c-0.6-0.4-2-0.8-2.2-1.6l1.7-0.1c-0.9-1-2.3,0.1-3.2-0.1
		l0.1-0.5C262,2,262,3.1,259.1,3l0.3,0.3c-1.6,1.1-1.3-0.6-2.9,0.2L256,2.4c-1.8,0.6-3.7,1-5.6,1.3c1-0.9,3.3-1.3,4.7-1.8
		c-1,0-3.5,0.1-4.1,0.6c0.4-0.1,0.9-0.4,1.3-0.2c-1.3,0.9-3,1.3-5,1.3c0.3-2.2-5.4-0.6-6.9-2.3c-3.7,0.9-7.3-0.3-11.5-0.2
		c1.5,1.7-1.2,0.1-1,1.8c-1,0.1-1.4,0.1-1.5,0l-3-1c-0.7-0.5,0.9-0.4,0.9-0.8c-2.2-0.1-0.9-0.8-2.4-1.2c0.3,0.6-0.8,0.9-2,0.6
		l1.7,0.8c-3,0.9-2.6-1.5-5.7-0.6l1-0.6c-1.6,0.3-5.8,0-7.3,1.4c-0.3-0.2-0.6-0.7,0.1-0.8c-3.8-0.2-8.4,1.5-11.3,0.6l0.3-0.4
		c-0.7,0.1-1.2,0.8-2.1,0.4c0.1-0.2,0.3-0.4-0.1-0.5c-0.3,0.2-1.9,0.8-2.8,0.5l0.8-0.5c-3.7-0.6-5.6,1.2-8.7,1.5
		c0-1.3-2.9-1.7-4.3-1.9l0.1-0.2c-4.3-0.2-7.3,1-11.2,1.6c-2.4-1.4-8.3-0.6-12.3-1.3c0.6,0.2-0.1,1-0.8,1.1
		c-0.9-0.2-2.6,0.9-2.4-0.3h0.3c-0.7-1.2-2.6-0.9-4.1-0.9L151,2.2C147.1,0,140.8,3,138.6,1c-0.9,0.4-2.1,0.4-3,0.8l0.1-0.8
		c-2.4-0.2-4.7-0.3-7.1-0.1l0.6-0.6c-1.8-0.1-2.3,2.4-4,2.4l-0.5-1.2c-3.1,0-6.3-1-9.5,0.1c0-0.3,0.3-0.6,0.6-0.6
		c-1.5-0.1-5.8-0.8-5.2,0.9c-0.1-1.1-3.3-0.1-5,0.3l0.3-0.8c-1.5,1-1.5,1.3-3.5,1.6c-0.5-0.1-0.4-0.6,0.2-0.5
		c-1.6-0.4-1.2,0.8-3.1,0.3l0.7-0.5c-1.6-0.1-1.5,0.2-2.4,0.8c-1,0.3-3.1-0.2-3.4-0.9c-0.5,0.7-1.3,1-2.1,0.8
		c-0.1-0.3,0.2-0.5,0.4-0.5c-2.7-0.5-4.1,0.9-5.9,0.2c0-0.2-0.1-0.4-0.3-0.5c1.3,0,2.5,0,3.8,0.1c0-0.8-1.7-0.9-0.3-1.9
		c-1.4,0.6-3.8,1.8-5.5,1.5c-0.1-0.1-0.2-0.1-0.2-0.2l0.2-0.1c-0.4-0.1-0.8,0-1.1,0.1c-0.5-0.1-0.9-0.2-1.4-0.2
		c-0.2-0.6-2-0.3-2.9-0.3C79.1,2,78,1.9,79,2.5c0,0,0.2-0.1,0.5-0.1l0.2,0.1c0,0,0.1-0.1,0.1-0.1c0.1,0,0.3-0.1,0.3-0.1L80,2.4
		c0.6,0,1.3-0.1,2.2-0.1c-0.7,0.4-1.4,0.8-2.4,0.3c-0.5,0.5-0.9,1-1.2,1.3c-1.2-1.2-3.5-1.7-3.8-2.4c-2.7,0.5-6.3,0.3-8,1.9
		c-0.8,0.2-0.9-0.5-1.2-0.7c0.5-0.2,1-0.1,1.2-0.3c-1.5,0.4-4.5,0.2-4.9,1.2c-1.9-0.5,1.1-1-1.6-0.8l0.3-0.3
		c-5.2-1.8-8.4,2.4-14,0.5c0.2,0,0.3,0.1,0.4,0.3c-6.5-1-13.5,0.9-19.9-0.6c-1.9-0.3-2,0.3-3.1,0.9l-0.4-0.9l-1.9,1
		C19,4.3,17,1.4,13.5,2.8L14,3.4c-1.2-0.1-3.9,0.3-3.7-0.3c-0.1,0.1-0.4,0.6-0.9,0.3L9.4,2.8l-3,0.8C4,3.3,6.7,1.9,3.3,1.7
		C2,2-0.4,3.1,0.1,3.5c0.5,0,1.3,0.3,1.3,0.8L0.3,4.5C0.2,5.2-0.1,6,0.1,6.6v4.5h448.5h37h448.5V6.8l0.6-0.1
		C935,6.4,934.8,5.8,934.1,5.9z M529,1.5c0,0.1-0.1,0.1-0.1,0.1c0-0.2,0.1-0.3,0.2-0.4c0.6-0.1,0.8,0.1,0.9,0.2
		C529.6,1.4,529.3,1.5,529,1.5z M80.4,1.5c0,0.1-0.1,0.1-0.1,0.1c0-0.2,0.1-0.3,0.2-0.4c0.6-0.1,0.8,0.1,0.9,0.2
		C81.1,1.4,80.8,1.5,80.4,1.5z M54,5.9c0.6-0.2,1.1-0.5,1.4,0H54z M344.4,5.9c0.3-0.1,0.6-0.3,0.8-0.5c-0.1,0.2-0.2,0.3-0.2,0.5
		H344.4z M384.9,5.9h-3C382.9,5.8,383.9,5.8,384.9,5.9z M401.1,5.9h-1.7C399.7,5.4,400.4,5.6,401.1,5.9z M413.1,3.6
		C413.1,3.6,413.1,3.5,413.1,3.6L413.1,3.6C413.1,3.5,413.1,3.6,413.1,3.6z M416.4,5.8c0,0,0.1,0,0.1,0.1L416.4,5.8L416.4,5.8z
		 M445.3,3.5c0.1-0.2,0.3-0.4,0.5-0.5C445.8,3.3,445.6,3.4,445.3,3.5z M450,4.2c-0.2,0-0.3-0.1-0.5-0.1c0.1-0.1,0.1-0.2,0.2-0.3
		C449.9,3.9,450,4.1,450,4.2z M502.6,5.9c0.6-0.2,1.1-0.5,1.4,0H502.6z M793,5.9c0.3-0.1,0.6-0.3,0.8-0.5c-0.1,0.2-0.2,0.3-0.2,0.5
		H793z M833.4,5.9h-3C831.4,5.8,832.4,5.8,833.4,5.9z M849.6,5.9H848C848.3,5.4,848.9,5.6,849.6,5.9z M861.6,3.6
		C861.6,3.6,861.6,3.5,861.6,3.6L861.6,3.6C861.7,3.5,861.7,3.6,861.6,3.6z M864.9,5.8c0,0,0.1,0,0.1,0.1L864.9,5.8L864.9,5.8z
		 M893.8,3.5c0.1-0.2,0.3-0.4,0.5-0.5C894.3,3.3,894.1,3.4,893.8,3.5z M930.2,5.9c0.2-0.1,0.3-0.3,0.5-0.5v0
		c0.4-0.1,0.9,0.1,1.1,0.5H930.2z"/>
	<path class="st0" d="M818.8,2.6c-0.3,0.1-0.5,0.1-0.5,0.2C818.7,2.8,818.8,2.7,818.8,2.6z"/>
	<path class="st0" d="M811,1.7c0.1,0,0.3,0.1,0.4,0.1C811.3,1.7,811.2,1.7,811,1.7z"/>
	<path class="st0" d="M861,3.4l-1.2-0.3C859.8,3.4,860.5,3.3,861,3.4z"/>
	<path class="st0" d="M880.5,2.2l-0.6,0.4h0.3C880.3,2.4,880.4,2.3,880.5,2.2z"/>
	<path class="st0" d="M869.4,2.1c0,0.1,0,0.2,0.1,0.3C869.5,2.3,869.5,2.2,869.4,2.1z"/>
	<path class="st0" d="M797.7,0.7L797.7,0.7C798.1,0.6,797.9,0.6,797.7,0.7z"/>
	<path class="st0" d="M754.8,2.3c0.1,0,0.2,0,0.2,0.1C755,2.4,754.9,2.3,754.8,2.3z"/>
	<path class="st0" d="M743.3,2.5l-0.6-0.1c0.1,0.1,0.2,0.1,0.2,0.2C743,2.6,743.2,2.5,743.3,2.5z"/>
	<path class="st0" d="M752.9,2.9L752.9,2.9C752.9,3,752.9,2.9,752.9,2.9z"/>
	<path class="st0" d="M495.2,2.9c-0.1-0.1-0.2-0.1-0.3-0.1C495,2.8,495.1,2.9,495.2,2.9z"/>
	<path class="st0" d="M926.8,5.5c0.1,0,0.2,0,0.2,0.1C926.9,5.5,926.9,5.5,926.8,5.5z"/>
	<path class="st0" d="M789.2,2.7l-0.3,0.2C789.1,2.8,789.4,2.8,789.2,2.7z"/>
	<path class="st0" d="M896.5,2.8c1.2-0.2,0-0.5,0.1-0.6C895.8,2.5,895.6,2.6,896.5,2.8z"/>
	<polygon class="st0" points="830.6,1.3 829.1,1.6 830.2,1.4 	"/>
	<polygon class="st0" points="598.2,0.8 596.8,1 597.5,1.1 	"/>
</g>
</svg>
