<?xml version="1.0" encoding="utf-8"?>
<!-- Generator: Adobe Illustrator 21.0.2, SVG Export Plug-In . SVG Version: 6.00 Build 0)  -->
<svg version="1.1" id="Calque_1" xmlns="http://www.w3.org/2000/svg" xmlns:xlink="http://www.w3.org/1999/xlink" x="0px" y="0px"
	 viewBox="0 0 220 120" style="enable-background:new 0 0 220 120;" xml:space="preserve">
<style type="text/css">
	.st0{fill:none;}
	.st1{fill:#E66C3E;}
</style>
<g>
	<g>
		<path d="M11.9,56.8c2,0,3.1-0.7,4.9-1.3c0.6-0.2,1.3-0.1,1.9-0.6c0.2-0.2,0.5-0.3,0.7-0.5c0.1-0.1,0.2-0.1,0.3-0.2
			c0.1-0.1,0.2-0.1,0.3-0.2s0.3-0.2,0.6-0.2s0.5,0.3,0.6,0.5s0.5,0.5,0.7,0.7c0.1,0.1,0.1,0.2,0.2,0.2c0.1,0.1,0.3,0.1,0.5,0.1
			c0.1,0,0.3,0.1,0.5,0.2c0.2,0.2,0.3,0.5,0.7,0.6c0.3,0.1,0.6,0.3,0.9,0.5c0.1,0,0.1,0,0.2,0.1l0.1,0.1c0.2,0.1,0.5,0.1,0.7,0.1
			c0.1,0,0.3,0,0.5,0c0.1,0,0.3,0.1,0.5,0.1c0.5,0.1,0.9,0,1.4-0.1c0.2,0,0.6,0,0.9,0s0.6,0,0.9,0c0.2,0,0.3-0.1,0.5-0.2
			c0.2-0.1,0.5-0.1,0.7-0.1s0.3,0,0.6,0s0.5-0.1,0.7-0.2c0.2-0.1,0.3-0.1,0.6-0.2c0.3-0.1,0.7-0.3,0.9-0.5c0.3-0.2,0.7-0.5,1-0.7
			c0.2-0.1,0.3-0.2,0.6-0.3c0.1-0.1,0.2-0.2,0.2-0.3c0-0.2,0-0.3-0.2-0.5c-0.1,0-0.2,0-0.3,0s-0.2,0-0.3,0.1s-0.2,0.2-0.2,0.2
			c-0.1,0.1-0.3,0.2-0.5,0.2c-0.1,0.1-0.3,0.2-0.5,0.2c-0.2,0.1-0.5,0.2-0.7,0.3c-0.3,0.2-0.7,0.5-1.2,0.6c-0.1,0-0.3,0.1-0.5,0.1
			s-0.5,0.1-0.6,0.1c-0.7-0.2-0.9-0.1-1.2-0.2c-0.5,0-0.9,0-1.4,0c-0.3,0-0.7,0-1,0c-0.5,0-0.9-0.2-1.4-0.3
			c-0.1-0.1-0.3-0.2-0.5-0.3c-0.2-0.2-0.5-0.3-0.6-0.6c-1.5-1.6-1.7-3.1-2.4-5c0.2-0.1,0.5,0,0.7,0c0.2,0.1,0.3,0.2,0.5,0.2
			c0.1,0,0.2,0,0.2,0h0.1c0.1,0,0.2,0,0.2,0c0.1,0,0.2,0,0.3,0.1c0.1,0,0.2,0.1,0.3,0.1s0.1,0,0.2,0s0.3,0,0.5,0
			c0.1,0,0.1-0.1,0.1-0.1h0.1c0.1,0,0.2-0.1,0.3-0.1c0.2-0.1,0.6-0.5,0.8-0.6c0.1,0,0.2,0,0.3,0s0.3-0.1,0.5-0.2
			c0.6-0.3,1-0.9,1.3-1.5c0.6-1.4,0.5-3.1-0.6-4.2c-1.3-1.2-3.4-1.2-4.9-0.7c-1.6,0.5-3,1.7-3.7,3.2c-0.3,0.8-0.7,1.6-0.7,2.6
			c-0.1,0.8,0,1.6,0.2,2.4c0,0.1,0.1,0.2,0.1,0.3c0.1,0.3,0,0.7,0,1c0,0.2,0,0.3-0.1,0.5c-0.2,0.2-0.6,0.3-0.8,0.6
			c-0.2,0.1-0.5,0.2-0.6,0.5s-0.1,0.3-0.2,0.6c-0.3,0.5-0.7,0.8-1.3,1.2c-0.7,0.5-1.4,0.7-2.1,0.8c-1.5,0.3-3,0.2-4.4-0.1
			c-4.2-0.8-3.1-6.8-3.1-10c0-2.1,0.1-4.2,0.3-6.3C7.2,38,7.3,36.4,6.5,35c-0.1-0.2-0.2-0.5-0.3-0.6c-0.2-0.2-0.5-0.3-0.7-0.6
			c-0.3-0.2-0.8-0.1-1.2-0.1c-0.1,0-0.2,0-0.2,0c-0.3,0.1-0.5,1-0.5,1.3c0,0.2,0,0.3-0.1,0.5c-0.1,0.5,0.1,0.9,0.1,1.4
			c0,0.6,0.1,1,0.1,1.6c0,4.2,0,8.3,0.3,12.5C4.1,55.3,8.1,56.7,11.9,56.8z M25.4,43L25.4,43c0.1,0,0.1,0,0.1,0
			c2.3,0.1,3.4,2.9,2,4.6c-0.7,0.9-1.7,1.4-2.8,1.4c-0.7,0-1.4-0.1-2.1-0.3c-0.2-0.1-0.6-0.2-0.6-0.6s0-0.8,0-1.2c0-0.1,0-0.3,0-0.5
			c0-0.1,0.1-0.3,0.2-0.5c0-0.1,0.1-0.3,0.1-0.5s0-0.1,0.1-0.2c0-0.1,0-0.2,0.1-0.3c0.1-0.3,0.2-0.7,0.6-0.8
			c0.1-0.1,0.2-0.1,0.3-0.1c0.1,0,0.1-0.1,0.2-0.2c0.1-0.1,0.3-0.3,0.6-0.5C24.5,43.1,24.9,43.1,25.4,43z"/>
		<path d="M99.8,88.8c-0.1,0-0.1,0-0.3,0c-0.6,0-1,0.2-1.5,0.6c-0.2,0.1-0.5,0.2-0.8,0.3c-0.2,0.1-0.5,0-0.8,0.1
			c-0.2,0-0.3,0.1-0.5,0.1s-0.3,0-0.5,0s-0.5,0-0.8-0.1c-0.1,0-0.3-0.1-0.5-0.1s-0.3,0.1-0.6,0c-0.1-0.1-0.2-0.2-0.3-0.3
			c-0.1-0.1-0.3-0.1-0.5-0.1s-0.2-0.1-0.3-0.2c-0.1-0.1-0.2-0.3-0.3-0.6c-0.1-0.3-0.2-0.7-0.6-0.9c-0.3-0.3-0.7-0.5-0.9-0.8
			c-0.2-0.2-0.5-0.6-0.7-0.9S89.2,85.2,89,85c-0.2-0.2-0.6-0.7-0.8-1c-0.1-0.2-0.2-0.5-0.3-0.7c-0.1-0.1-0.2-0.2-0.3-0.3
			c-0.1-0.2-0.3-0.5-0.5-0.7c-0.1-0.2-0.3-0.5-0.6-0.7c-0.2-0.2-0.5-0.6-0.7-0.8c-0.5-0.3-1-0.8-1.6-0.8c-0.7,0-1.4-0.1-2,0.2
			c-0.2,0.1-0.3,0.3-0.7,0.3c-0.1,0-0.2,0-0.5,0.1c-0.1,0.1-0.3,0.2-0.5,0.3c-0.2,0.2-0.5,0.5-0.8,0.7c-0.2,0.2-0.5,0.5-0.7,0.7
			c-0.1,0.1-0.2,0.3-0.5,0.5c0,0-0.1,0.1-0.1,0.2c-0.1,0.2-0.3,0.3-0.5,0.6c-0.1,0.1-0.2,0.5-0.3,0.6h-0.1c-0.1,0.1-0.1,0.2-0.2,0.3
			c-0.1,0.2-0.2,0.2-0.3,0.3c-0.1,0.1-0.3,0.3-0.5,0.6v0.1l-0.1,0.1c-0.2,0.1-0.3,0.5-0.5,0.6c-0.2,0.2-0.3,0.3-0.6,0.6
			c-0.1,0.1-0.3,0.5-0.5,0.5c-0.2,0.1-0.3-0.5-0.3-0.7c-0.2-1-0.3-2.1-0.6-3.1c-0.3-1.7-0.7-3.5-1.6-5c-0.3-0.7-0.8-1.3-1.5-1.6
			c-1-0.5-2.6-0.1-3.5,0.2c-0.6,0.2-1,0.6-1.6,0.9c-0.1,0.1-0.2,0.1-0.2,0.2c-0.3,0.5,0,0.9,0.5,0.6c0.5-0.2,0.8-0.7,1.3-0.8
			c0.6-0.1,1.4-0.1,1.7,0.3c0.7,0.8,0.7,1.3,0.9,2.1c0.2,0.9,0.9,1.7,1.2,2.6c0.2,0.7,0.2,1.4,0.5,2c0.3,0.9,0.9,1.7,1.4,2.7
			c0.3,0.7,0.3,2.1,0.9,2.7c1.6,1.5,3.5-2.3,4.3-3.2c0.9-1,1.6-2.3,2.6-3.5c0.9-1,2.6-1.5,3.7-0.7c0.6,0.3,0.8,1,1.3,1.5
			c0.6,0.6,1.2,1,1.6,1.7c0.6,0.7,0.9,1.3,1.6,1.9c0.5,0.5,1.4,0.9,1.6,1.5s3.4,1.7,4.1,1.7c0.1,0,0.2,0,0.2,0
			c1.3-0.1,2.6-0.5,3.7-1c0.3-0.1,0.9-0.3,1.2-0.7C99.9,89.4,99.9,89,99.8,88.8C99.8,88.8,99.8,88.8,99.8,88.8z"/>
		<path d="M158.1,90.4L158.1,90.4l-0.1-0.1c-0.5,0-0.8,0.1-1.3,0.1c-1.4,0-2.9-0.7-4.1-1.5c-2.4-1.7-2.6-4.2-2.9-6.8
			c-0.1-0.8-0.6-1.4-0.7-2.1c-1.7-0.6-2.4,1.5-2.2,2.9c0.1,0.7,0.3,1.3,0.2,2.1c-0.1,0.6,0.1,0.8,0.5,1.3c0.1,0.2,0.2,0.3,0.3,0.5
			s0.3,0.5,0.5,0.7c0.1,0.3,0.3,0.5,0.6,0.8c0.1,0.1,0.2,0.2,0.3,0.3c0.1,0.1,0.2,0.1,0.3,0.2c0.2,0.2,0.5,0.6,0.7,0.8
			c0.3,0.3,1,0.5,1.5,0.6c0.2,0.1,0.6,0.1,0.8,0.3c0.8,0.6,2.2,0.6,3.1,0.6c0.5,0,1,0,1.5,0c0.1,0,0.2,0,0.2,0
			c0.1,0,0.2-0.1,0.2-0.2c0,0,0.1-0.1,0.1-0.2C158,90.5,158,90.5,158.1,90.4C158.1,90.5,158.1,90.5,158.1,90.4z"/>
		<path d="M211.2,88.8c-1.7,0.7-3.7,0.9-5.3,0c-0.6-0.2-0.9-0.7-1.4-1c-0.1-0.1-0.1-0.2-0.2-0.3c-0.1-0.1-0.2-0.3-0.2-0.5
			c-0.1-0.3-0.3-0.6-0.6-0.8l-0.1-0.1l-0.1-0.1c-0.1-0.1-0.2-0.2-0.3-0.3c-0.1-0.1-0.1-0.3-0.2-0.5c-0.1-0.1-0.3-0.2-0.5-0.3
			c0,0.1,0.6,0,0.7,0c0.3,0,0.7,0,1,0s0.8,0,1.2,0c0.6-0.1,1-0.2,1.6-0.6c2-1.2,3-3.6,1.9-5.6c-0.7-1.3-1.9-2-3.4-1.7
			c-1.5,0.2-2.8,1.2-3.8,2.2c-1.7,1.9-2.6,4.3-2.1,6.8c0.1,0.7,0.8,1.3,1.3,1.7c0.6,0.6,1.3,1.3,2.1,1.6c0.7,0.2,1.5,0.6,2.1,1
			c0.1,0,0.1,0.1,0.2,0.1c0.1,0,0.2,0,0.5,0c0.1,0,0.3,0,0.5,0s0.3,0.1,0.6,0.1c0.2,0,0.3,0.1,0.6,0.2c0.1,0,0.2,0,0.2,0
			c0.1,0,0.2,0.1,0.5,0.1s0.3,0.1,0.5,0.1s0.3,0,0.6-0.1c0.1,0,0.2,0,0.3-0.1c0.3-0.1,0.5-0.3,0.8-0.5c0.3-0.1,0.6-0.1,0.9-0.2
			c0.6-0.1,1-0.2,1.6-0.5c0.6-0.2,1-0.5,1.5-0.8c0.8-0.7,1.6-1.4,2.2-2.2c0.3-0.5,0.7-0.8,0.9-1.3c0.1-0.1,0.2-0.2,0.2-0.3v-0.1
			c0-0.1,0-0.1,0-0.2s0-0.2,0.1-0.2c0,0,0.1,0,0.1-0.1s0.1-0.1,0.1-0.2c0.2-0.3,0-0.7-0.3-0.3c-0.5,0.7-0.9,1.3-1.5,2
			c-0.6,0.6-1.2,1.2-1.9,1.6c-0.7,0.5-1.4,0.9-2.2,1.2C211.5,88.7,211.3,88.7,211.2,88.8z M204.2,77.9c2.1-1.4,4.2,1.9,3.2,3.9
			c-0.5,1-1.3,1.7-2.2,2.1c-0.9,0.3-3.2-0.1-3.5-1.2c-0.3-1.3,1-3.5,1.9-4.4C203.9,78.3,204.1,78,204.2,77.9z"/>
		<path d="M134.8,70.7c-0.1,0-0.2,0.1-0.3,0.2c-0.2,0.2-0.5,0.5-0.6,0.8c-0.2,0.3-0.1,0.7-0.2,1.2c-0.1,0.3,0,0.8,0,1.3
			c0,0.7,0.2,1.5,0.5,2.2c0.1,0.5,0.3,0.9,0.5,1.4c0,0.5,0.1,0.9,0.1,1.4c0,0.8,0,1.5-0.2,2.2s0,1.5,0,2.3c0,1.5-0.2,3.1-1,4.4
			c-0.3,0.5-0.7,0.9-1.2,1.3c-3.6,3-8.8,0.3-11.9-2.1c-0.2-0.2-0.6-0.3-0.8-0.6c-0.3-0.2-0.7-0.6-1-0.8c-0.2-0.2-0.6-0.2-0.8-0.5
			c-0.1-0.1-0.2-0.3-0.5-0.5c-0.1-0.1-0.2-0.1-0.3-0.2c0,0,0-0.3-0.1-0.3c-0.1-0.2-0.2-0.6-0.3-0.7c-0.2-0.3-0.7-0.6-1-0.9
			c-0.2-0.3-0.6-0.6-0.9-0.8c-0.3-0.2-0.5-0.6-0.8-0.8c-0.5-0.3-0.9-0.6-1.4-0.9c-1.3-0.8-1.5-2.3-2.6-3.2c-0.3-0.3-0.8-0.7-1-1.2
			c-0.2-0.2-0.3-0.6-0.5-0.9c-0.2-0.5-0.7-1-1-1.5c-0.3-0.3-0.7-0.7-1-1c-2.4-2.1-4.8-4.2-7.5-5.7c-1.6-0.8-3-2-4.6-2.7
			c-1.5-0.7-2.9-0.6-4.5-0.6c-2.4-0.1-7.1,0.3-8.6,2.6c-0.3,0.6-1.4,2-0.5,2.2c0-2,2.8-3.2,4.5-3.5c0.6,0,1,0,1.6-0.1
			c0.2-0.1,0.5-0.1,0.8-0.1c0.8,0,1.5,0,2.3,0c0.5,0,0.9-0.1,1.4,0c0.6,0.1,0.8,0.3,1.4,0.6c0.5,0.2,0.8,0.5,1.3,0.7
			c0.2,0.1,0.6,0.2,0.8,0.3c0.2,0.1,0.5,0.2,0.7,0.3c0.2,0.1,0.2,0.2,0.3,0.3c0.2,0.3,0.7,0.6,1,0.8c0.1,0.1,0.2,0.3,0.3,0.6
			c0.1,0.1,0.2,0.2,0.3,0.3c0.2,0.3,0.3,0.6,0.7,0.7c0.2,0.1,0.3,0.2,0.5,0.5c0.1,0.2,0.1,0.5,0.2,0.7s0.5,0.2,0.6,0.3
			c0.3,0.3,0.7,0.7,0.9,1c0.3,0.3,0.8,0.6,1.2,0.9c0.2,0.2,0.3,0.5,0.6,0.7c0.1,0.1,0.1,0.1,0.2,0.2c0.1,0.3,0.2,0.6,0.5,0.8
			c0.1,0.2,0.3,0.5,0.5,0.6c0.1,0.2,0.3,0.5,0.6,0.6c0.2,0.1,0.5,0.2,0.7,0.5c0.1,0.1,0.2,0.3,0.3,0.5c0,0,0.1,0,0.1,0.1
			c0.1,0.1,0.1,0.3,0.2,0.5c0.1,0.3,0.3,0.6,0.5,0.9s0.7,0.5,1,0.7s0.5,0.6,0.7,0.9c0.2,0.5,0.6,0.8,0.8,1.2
			c0.3,0.6,0.8,0.9,1.4,1.3c0.2,0.1,0.3,0.3,0.5,0.6c0.1,0.2,0.3,0.5,0.6,0.6c1.2,0.9,2.2,1.9,3.4,2.8c0.7,0.6,1.4,1,2.2,1.5
			c2.8,1.6,5.8,3,8.9,3.4c1.5,0.2,3.1,0.3,4.6,0c0.7-0.1,1.4-0.3,2.1-0.7c0.3-0.1,0.6-0.3,0.9-0.6c0.2-0.1,0.5-0.3,0.6-0.6
			c0-0.1,0-0.2,0.1-0.3c0.1-0.1,0.1-0.2,0.2-0.2c0.2-0.1,0.5-0.2,0.7-0.5c0.5-0.5,0.6-1,0.9-1.6c0.1-0.2,0.3-0.3,0.6-0.6
			c0.1-0.2,0.2-0.5,0.3-0.7c0.2-0.3,0.5-0.7,0.8-1s0.6-0.9,0.7-1.3s0.1-0.7,0.1-1s0.1-0.7,0.1-1c0-0.7,0-1.4,0.1-2s0.1-1,0.1-1.6
			c0-0.5,0-0.9-0.1-1.4c-0.1-0.3,0-0.7-0.1-1c-0.1-0.6-0.5-1.2-0.6-1.7s-0.2-0.7-0.5-1c-0.3-0.6-0.8-1.3-1.5-1.3
			C135,70.7,134.9,70.7,134.8,70.7z"/>
		<path d="M152.5,69.4c-0.1-1.5-2.7-2-3.8-1.6c-0.6,0.2-0.6,0.7-1.5,0.6c-0.1,0.7,0.6,1,0.8,1.7c0.8,0,1.3,0.8,2.1,0.9
			C150.8,71.2,152.5,70.4,152.5,69.4z"/>
		<path d="M177.2,90.1c0.3-0.2,0.7-0.5,0.9-0.7c0.1-0.1,0.2-0.2,0.3-0.3c0,0,0.3-0.5,0.1-0.3c-1.4,1.2-3.1,2.1-5.1,2
			c-1.6-0.1-3.1-0.7-4.4-1.9c-2.8-2.4-3.7-6.4-4.1-10c-0.2-2.8,0.1-5.6,0.9-8.1c0.2-0.7,0.5-1.3,0.7-2c0-0.1,0.1-0.2,0.1-0.5v-0.1
			c0-0.2,0.1-0.5,0.3-0.6c0.1-0.1,0.2-0.2,0.3-0.3c0.1-0.1,0.1-0.2,0.1-0.3c0.1-0.3,0.3-0.6,0.5-0.8c0,0,0,0,0.1-0.1
			s0.1-0.1,0.1-0.2c0.1-0.2,0.2-0.3,0.3-0.6c0.1-0.1,0.1-0.2,0.2-0.3c0.1-0.1,0.2-0.1,0.3-0.1s0.2-0.1,0.5-0.1c0.1,0,0.3,0,0.5,0
			c0-0.1,0-0.1,0.1-0.2c0,0,0.1-0.1,0.2-0.1c0.2-0.1,0.6-0.2,0.8-0.2s0.3,0.1,0.5,0.2c0.1,0.2,0.3,0.3,0.6,0.5
			c0.2,0.1,0.3,0.3,0.6,0.5c0.7,0.7,1.2,1.7,1.3,2.8c0,0.2,0.1,0.6,0.1,0.8v0.1V69c0,0.1,0.1,0.2,0.2,0.3c0,0,0,0.1,0.1,0.1h0.1h0.1
			l0,0v-0.1c0-0.1,0-0.2,0-0.3v-0.1v-0.1c0-0.1,0-0.1,0-0.2s-0.1-0.2-0.1-0.3v-0.1c0-0.1,0-0.1,0-0.2c0,0,0,0,0-0.1c0,0,0,0,0-0.1
			v-0.1c0-0.1,0-0.1,0-0.2c0-0.2-0.1-0.5-0.2-0.7c-0.1-0.3-0.2-0.6-0.3-0.9c-1.5-3.2-5.2-3.5-7.9-1.5c-0.8,0.7-1.4,1.4-2.1,2.3
			c-0.5,0.6-1,1-1.5,1.7s-0.3,1.6-0.7,2.3c-0.1,0.3-0.2,0.6-0.2,0.9c0,0.2-0.1,0.6-0.2,0.8c-0.1,0.2-0.2,0.3-0.2,0.6
			c-0.2,1-0.2,2.1-0.2,3.1c0,0.9,0,1.7,0,2.7c0,0.5,0,0.8,0,1.3c0,0.7,0.2,1.3,0.5,1.9c0.1,0.2,0.2,0.5,0.2,0.8c0,0.2,0,0.3,0,0.6
			c0.1,0.6,0.6,0.7,0.8,1.2c0.3,0.7,1,1.4,1.4,2.1c0.2,0.5,0.5,0.8,0.8,1.2c0.1,0.2,0.2,0.3,0.3,0.5c0.2,0.3,0.7,0.6,1,0.9
			c0.2,0.2,0.2,0.1,0.3,0.2s0.2,0.1,0.5,0.2c0.2,0.2,0.5,0.5,0.7,0.6s0.5,0.1,0.7,0.1c0.6,0.2,1.3,0.3,2,0.5
			c1.3,0.2,2.7,0.3,3.9,0.1C175.5,90.9,176.4,90.5,177.2,90.1z"/>
		<path d="M195.2,90.1c0.3-0.2,0.7-0.5,0.9-0.7c0.1-0.1,0.2-0.2,0.3-0.3c0,0,0.3-0.5,0.1-0.3c-1.4,1.2-3.1,2.1-5.1,2
			c-1.6-0.1-3.1-0.7-4.4-1.9c-2.8-2.4-3.7-6.4-4.1-10c0-0.2,0-0.5,0-0.7c-0.1-2,0.1-3.8,0.5-5.8c0.2-0.9,0.5-1.9,0.8-2.8
			c0.1-0.2,0.2-0.5,0.2-0.7c0.1-0.2,0.2-0.5,0.2-0.6s0-0.3,0-0.5s0.1-0.2,0.1-0.3c0-0.1,0-0.2,0-0.3c0.1-0.3,0.3-0.5,0.6-0.8
			c0.1-0.1,0.2-0.2,0.3-0.5c0.1-0.1,0.2-0.3,0.3-0.5c0.2-0.2,0.3-0.5,0.5-0.6c0.1-0.1,0.1-0.2,0.3-0.3c0.1-0.1,0.3-0.1,0.6-0.1
			s0.6,0,0.8,0s0.6,0,0.8,0s0.5,0,0.7,0c1.2,0.6,1.7,1.7,2.1,2.9c0,0.1,0.1,0.3,0.1,0.5v0.1c0,0.1,0.1,0.2,0.1,0.5
			c0,0.1,0,0.2,0,0.3c0,0.1,0.1,0.2,0.1,0.2l0.1,0.1c0,0,0,0,0,0.1c0,0,0,0,0,0.1s0,0.1,0.1,0.1s0.1,0,0.1-0.1c0-0.2,0-0.5,0-0.6
			s0-0.2,0-0.3c0,0,0,0,0-0.1v-0.1c0-0.1,0-0.1,0-0.2s-0.1-0.2-0.1-0.2v-0.1c0-0.1,0-0.1-0.1-0.1c0-0.1,0-0.2,0-0.3
			c0-0.1-0.1-0.3-0.1-0.5c-0.1-0.3-0.2-0.6-0.3-0.9c-0.2-0.5-0.5-0.8-0.7-1.2c-0.1-0.1-0.2-0.3-0.5-0.5c-0.1-0.1-0.1-0.2-0.2-0.2
			c-0.1-0.1-0.2-0.1-0.3-0.2c-0.2-0.2-0.5-0.3-0.8-0.5c-0.1-0.1-0.3-0.1-0.5-0.2c-0.2,0-0.3-0.1-0.6-0.2c-0.2,0-0.6,0-0.8,0
			s-0.6,0-0.7,0s-0.2,0.1-0.3,0.2c-0.1,0-0.2,0-0.3,0.1c-0.2,0.1-0.3,0.2-0.5,0.2c-0.3,0.2-0.7,0.3-1,0.6c-0.3,0.3-0.6,0.5-0.9,0.7
			c-2.6,2.3-3.7,5.9-4.2,9.3c-0.1,1.2-0.3,2.4-0.2,3.5c0,0.2,0.1,0.3,0.1,0.6c0.1,0.7-0.1,1.4,0,2.1c0,0.3,0.2,0.6,0.3,0.8
			c0.1,0.3,0.2,0.8,0.3,1.2c0,0.1,0.1,0.1,0.1,0.2s0,0.1,0,0.2s0.1,0.1,0.1,0.1c0.2,0.3,0.3,0.8,0.5,1.2c0.1,0.2,0.2,0.6,0.3,0.7
			s0.3,0.1,0.3,0.2c0.1,0.1,0.2,0.6,0.2,0.7c0.1,0.3,0.2,0.7,0.2,1s0.3,0.5,0.5,0.8c0.3,0.5,0.7,0.5,1.2,0.7
			c0.2,0.2,0.5,0.5,0.7,0.8c0.2,0.5,0.7,0.6,1,1c0.1,0.2,0.3,0.3,0.5,0.5c0.3,0.3,0.8,0.3,1.3,0.2c0.5,0,0.9,0.1,1.5,0.1
			c1.2,0.1,2.2,0.2,3.4,0C193.4,90.9,194.4,90.5,195.2,90.1z"/>
		<path d="M67.2,88.3c-0.1,0-0.3,0-0.5,0c-0.1,0.1-0.1,0.2-0.1,0.3c0,0.1-0.1,0.2-0.2,0.3c-0.1,0.1-0.3,0.2-0.5,0.3
			c-0.1,0-0.2,0-0.3,0.1c-0.1,0-0.1,0.1-0.2,0.1s-0.2,0-0.2,0c-0.1,0-0.2,0.1-0.5,0.1c-0.2,0-0.3,0.1-0.6,0.1c-0.2,0-0.3,0-0.5,0.1
			c-0.1,0-0.3,0-0.5,0c-0.3,0-0.6,0.1-0.9,0.1c-0.3,0-0.6,0.1-0.9,0.1c-2.1,0-3.8-0.7-5.7-1.7c-0.7-0.3-1.2-0.7-1.7-1.3
			c-0.3-0.3-0.7-1-1.2-1.3c-0.1-0.7,0.5-0.5,0.8-0.9c0.2-0.2,0.5-0.3,0.8-0.6c0.1-0.1,0.2-0.1,0.5-0.1c0.2-0.1,0.3-0.2,0.6-0.3
			c0.1,0,0.1,0,0.2-0.1c0.1-0.1,0-0.1,0.1-0.2c0-0.1,0.1-0.3,0.3-0.3c0.1-0.1,0.2-0.2,0.3-0.3c0.1-0.1,0.1-0.2,0.2-0.3
			c0.1-0.1,0.2-0.1,0.2-0.3c0-0.1,0-0.2,0-0.3c0-0.1,0.1-0.2,0.1-0.3c0-0.2,0.1-0.5,0.1-0.7c0-0.8,0.2-1.7-0.1-2.6
			c-0.2-0.5-0.8-1.4-1.3-1.5c-0.5-0.2-1.4,0.1-1.9,0.1c-2,0.3-3.6,1.6-4.4,3.5c-0.2,0.7-0.1,1.5-0.2,2.2c0,0.7-0.1,2.1-0.6,2.6
			c-0.3,0.2-1.9,0.1-2,0.5c0,0.2-0.3,0.7,0,0.8c0.2,0.1,0.6,0.2,0.8,0.2c0.1,0,0.2,0,0.3-0.1c0.5-0.1,1.3-0.5,1.9-0.2
			c0.3,0.1,0.3,0.7,0.6,0.9c0.8,0.7,1.7,1.3,2.7,1.7c2.6,1.2,5,2.7,7.9,2.7c0.2,0,0.2,0,0.3-0.1c0.1,0,0.3-0.1,0.5-0.1
			s0.5-0.1,0.7-0.1c0.1,0,0.2-0.1,0.3-0.1s0.3,0,0.5,0c0.1,0,0.3-0.1,0.5-0.1s0.5-0.1,0.8-0.1s0.8-0.1,1.2-0.2c0.1,0,0.1,0,0.2-0.1
			c0,0,0.1,0,0.2,0s0.2-0.1,0.3-0.1c0.2-0.1,0.5-0.5,0.7-0.7c0.1-0.2,0.3-0.3,0.5-0.6C67.2,89,67.4,88.5,67.2,88.3z M51.8,83.7
			c-0.3-0.1-0.5-0.3-0.5-0.9c0-0.7,0-1.6,0.2-2.3c0.1-0.2,0.1-0.5,0.2-0.6c0.1-0.2,0.1-0.5,0.2-0.6l0,0c0.5-0.7,1.6-1.5,2.4-1
			c0.9,0.5,0.8,1.7,0.8,2.7c-0.1,1.6-1.3,3-2.9,3C52.1,83.8,51.9,83.8,51.8,83.7z"/>
		<path class="st0" d="M85.6,45.1c0,0.3,0,0.8,0,1.2c0,0.7,0.6,1.2,1.2,1.3c0.1,0,0.1,0,0.2,0s0.1,0.1,0.2,0.1s0.1,0,0.2,0l0.1,0.1
			c0.2,0.1,0.6,0.1,0.8,0.1c0.3,0,0.7-0.1,0.9-0.2c0.6-0.2,1.2-0.6,1.6-1.2c1.4-1.9,0.3-4.5-2-4.6c0,0,0,0-0.1,0c0,0,0,0-0.1,0
			c-0.2,0-0.5,0.1-0.6,0.1s-0.3,0-0.5,0c-0.5,0-0.7,0.2-1,0.5c-0.1,0.3-0.2,0.3-0.3,0.5c-0.1,0.1-0.2,0.2-0.3,0.3
			c-0.1,0.1-0.3,0.2-0.3,0.5c-0.1,0.2,0,0.6,0,0.8S85.6,45,85.6,45.1z"/>
		<path d="M86.2,53.9c0.1,0.1,0.2,0.2,0.3,0.2c0.1,0,0.1,0.1,0.2,0.1c0,0,0,0.1,0.1,0.1c0.1,0.1,0.3,0.1,0.5,0.1s0.5,0.1,0.6,0.2
			c0.3,0.2,0.8,0.1,1.2,0.2c0.2,0.1,0.5,0.2,0.7,0.2c0.1,0,0.2,0,0.2,0c0.2,0.1,0.6,0.2,0.8,0.2c0.2,0,0.6-0.1,0.8,0
			c0.2,0,0.5,0,0.7,0c0.7-0.1,1.3-0.2,2-0.5c0.1,0,0.2-0.1,0.3-0.1c0.9-0.3,1.7-0.8,2.6-1.4c0.2-0.1,0.3-0.5,0.7-0.6
			c0.1-0.1,0.3-0.1,0.6-0.2c0.1-0.1,0.1-0.1,0.2-0.1s0.1-0.1,0.2-0.1c0.1-0.1,0.2-0.1,0.3-0.2s0.2-0.2,0.3-0.3
			c0.2-0.1,0.3-0.3,0.6-0.6l0,0c0,0,0.1,0,0.1-0.1l0.1-0.1c0-0.1,0-0.1,0.1-0.2c0-0.1,0.1-0.1,0.1-0.2c0.1-0.1,0.1-0.2,0.2-0.3
			c0-0.1,0.1-0.2,0.1-0.3c0.1-0.1,0.2-0.2,0.3-0.3c0,0,0.1-0.1,0.1-0.2c0-0.1,0.1-0.1,0.1-0.2c0.1-0.1,0.1-0.2,0.2-0.2
			c0.1-0.1,0.1-0.2,0.2-0.3s0.1-0.2,0.2-0.2c0,0,0,0,0.1-0.1V48c0-0.1,0-0.2-0.1-0.1c-0.1,0-0.1,0.1-0.1,0.1
			c-0.1,0.1-0.2,0.2-0.3,0.3c-0.1,0.2-0.3,0.3-0.6,0.5c-0.1,0-0.2,0.1-0.2,0.1l-0.1,0.1l-0.1,0.1l-0.1,0.1c-0.1,0.1-0.2,0.2-0.2,0.3
			c-0.1,0.1-0.2,0.2-0.5,0.3l-0.1,0.1h-0.1c0,0,0,0,0,0.1c0,0,0,0-0.1,0.1s-0.1,0.1-0.2,0.2c-0.1,0.1-0.1,0.2-0.2,0.3
			c-0.2,0.3-0.7,0.6-0.9,0.8c-0.5,0.3-0.9,0.6-1.4,0.8c-0.7,0.3-1.5,0.7-2.3,0.9c-0.3,0.1-0.8,0.2-1.2,0.3C93,53.9,92.8,54,92.5,54
			c-0.2,0-0.5,0-0.7,0c-0.3,0-0.7,0-0.9-0.1c-0.2-0.1-0.3-0.1-0.6-0.1c-0.2,0-0.3,0.1-0.6,0c-0.2,0-0.3-0.2-0.6-0.3
			c-0.6-0.2-1.3,0-1.6-0.6c-0.1-0.2-0.2-0.5-0.5-0.7c-0.1-0.1-0.3-0.2-0.5-0.3c-0.1-0.1-0.2-0.3-0.3-0.5c-0.1-0.2-0.2-0.3-0.3-0.6
			v-0.1l-0.1-0.1c-0.1-0.1-0.1-0.3-0.1-0.5s-0.1-0.2-0.1-0.3c-0.1-0.2,0-0.5-0.1-0.7c0-0.2-0.1-0.5-0.1-0.8c0-0.2-0.1-0.5,0.1-0.6
			c0.1-0.1,0.1-0.1,0.2,0c0.2,0.1,0.5,0.2,0.7,0.3s0.6,0.2,0.8,0.2c1.2,0.2,2.4,0,3.5-0.7c1.6-1,2.2-3.2,1.4-5
			c-1.2-2.3-4.4-2.1-6.5-1.2c-0.5,0.2-1.2,0.7-1.6,1c-2,1.5-2.2,4.2-1.9,6.4c0.1,0.8,0.3,1.6,0.7,2.3c0.1,0.1,0.1,0.2,0.2,0.3
			c0,0,0.1,0,0.1,0.1c0.1,0.1,0.1,0.2,0.2,0.2c0.1,0.1,0.2,0.2,0.3,0.3c0.1,0.1,0.1,0.1,0.2,0.1s0.1,0.1,0.2,0.1
			c0.1,0.1,0.3,0.1,0.3,0.2c0.1,0.1,0.1,0.2,0.1,0.3c0.1,0.1,0.1,0.2,0.2,0.2s0.2,0,0.3,0C85.6,53.7,86,53.8,86.2,53.9z M86.3,43.6
			c0.3-0.5,0.6-0.8,1-1.3c0.9-0.9,2.8-0.2,3.5,0.7c0.8,1,0.8,2.6,0,3.6c-0.3,0.6-0.9,0.9-1.6,1.2C89,47.9,88.6,48,88.3,48
			c-0.2,0-0.6,0-0.8-0.1l-0.1-0.1c-0.1,0-0.1,0-0.2,0s-0.1-0.1-0.2-0.1s-0.1,0-0.2,0c-1-0.2-1.2-1-1.3-1.9"/>
		<path d="M112.9,46.3c-0.8-1-1.7-2-2.6-3.1c-0.2-0.2-0.3-0.5-0.6-0.7c-0.1-0.1-0.1-0.1-0.2-0.2c-0.1,0-0.1,0-0.2-0.1
			s-0.1-0.5-0.1-0.7s0-0.5,0-0.6c0-0.2,0-0.3,0-0.6s-0.1-0.5-0.2-0.7c-0.1-0.3-0.3-0.5-0.7-0.5c-0.2,0-0.6-0.1-0.8-0.1
			c-0.3,0-0.9,0.3-0.9,0.8c0,0.1,0,0.2,0,0.3c0,0.5-0.3,0.9-0.5,1.3c0,0.1-0.1,0.2-0.1,0.3s-0.1,0.3-0.1,0.5
			c-0.1,0.3-0.2,0.7-0.2,0.9c-0.1,0.2-0.1,0.5-0.2,0.7s-0.1,0.6-0.2,0.8s-0.2,0.6-0.3,0.8c-0.1,0.2-0.2,0.2-0.2,0.5
			c0.1,0,0.2,0,0.3,0c0.1,0,0.2-0.2,0.2-0.3c0.2-0.3,0.3-0.8,0.6-1.2c0.1-0.2,0.1-0.5,0.3-0.6c0.1-0.1,0.3-0.3,0.6-0.3
			c0.2,0,0.3,0.2,0.5,0.3c0.2,0.2,0.3,0.5,0.5,0.7c0.1,0.1,0.1,0.3,0.3,0.6c0.1,0.1,0.2,0.1,0.3,0.2c0.1,0.1,0.2,0.3,0.3,0.6
			c0.1,0.2,0.3,0.3,0.5,0.5s0.5,0.5,0.7,0.7c0.5,0.6,0.9,1,1.3,1.7c0.6,1.2,0.9,2.6,1,3.9c0,0.3,0,0.5-0.2,0.7
			c-0.1,0.1-0.2,0.2-0.2,0.3c-0.1,0.1-0.2,0.3-0.3,0.5c-0.5,0.3-1.2,0.2-1.7,0.3c-0.2,0.1-0.5,0.2-0.8,0.1c-0.3,0-0.6-0.1-0.8,0
			c-0.3,0-0.5-0.1-0.8-0.1s-0.7-0.2-0.9-0.1c-0.1,0.3-0.1,0.2,0.1,0.5c0.2,0.1,0.6,0.1,0.9,0.2c0.5,0.2,1,0.2,1.5,0.3
			c0.8,0.2,1.7,0.2,2.7,0c0.7-0.2,1.3-0.3,2-0.7c1.2-0.7,1.7-1.9,1.9-3.1C115.1,49.7,114.1,47.9,112.9,46.3z"/>
		<path d="M136.4,52.1L136.4,52.1c-0.1,0-0.2,0-0.2,0c-0.2,0-0.5,0-0.7,0.1c-0.1,0-0.1,0.1-0.1,0.1c-0.2,0.2-0.6,0.5-0.8,0.7
			c-0.1,0.1-0.2,0.2-0.3,0.2c-0.3,0.1-0.7,0.1-1,0.1c-0.6,0-1.2,0.3-1.7,0.5c-0.9,0.2-1.9,0.2-2.7,0.1c-2.9-0.3-4.5-2.8-5-5.4
			c0-0.2,0.2-0.3,0.3-0.2c3,1.5,7-1,6.4-4.4v-0.1c-0.2-1.3-1.2-2.2-2.3-2.4c-0.6-0.1-1.3-0.1-1.9-0.1c-0.6,0.1-1.4,0.2-1.9,0.6
			c-0.1,0-0.2,0.1-0.2,0.1c-0.2,0.1-0.6,0.2-0.7,0.5c-0.1,0.1-0.2,0.2-0.3,0.3c-0.1,0.1-0.1,0.2-0.2,0.3H123c0,0-0.1,0.1-0.1,0.2
			c-0.1,0.1-0.2,0.2-0.3,0.2c-0.1,0.1-0.2,0.2-0.3,0.5c-0.1,0.1-0.2,0.2-0.5,0.3c-0.1,0.1-0.1,0.2-0.2,0.3c0,0.1-0.1,0.1-0.2,0.2
			c-0.1,0.1-0.1,0.2-0.1,0.3c-0.1,0.1-0.1,0.2-0.2,0.3c-0.1,0.2-0.2,0.5-0.2,0.7s0,0.3,0,0.6c-0.2,0.8-0.1,1.9,0.1,2.7
			c0.1,0.5,0.2,0.9,0.6,1.4c0.1,0.1,0.2,0.2,0.3,0.3c0.1,0.2,0.1,0.5,0.5,0.6c0.2,0.1,0.5,0.2,0.7,0.3c0.1,0.1,0.2,0.1,0.5,0.2
			c0.2,0.1,0.5,0.2,0.7,0.5c0.2,0.1,0.1,0.2,0.2,0.5c0.3,0,0.3,0.3,0.6,0.6c0.1,0.2,0.3,0.3,0.5,0.5c0.5,0.3,0.6,0.9,1,1
			c0.2,0.1,0.3,0.1,0.6,0.1c0.2,0,0.5,0,0.8,0.1c0.2,0,0.5,0,0.8,0c0.2,0,0.5,0.1,0.7,0.1c0.6,0.1,1.2,0,1.7-0.1
			c0.3,0,0.7-0.1,1-0.2c1.3-0.3,2.4-0.9,3.6-1.7c0.2-0.2,0.5-0.3,0.7-0.6c0.1-0.1,0.2-0.2,0.3-0.2s0.2-0.1,0.2-0.2
			C136.5,52.3,136.5,52.2,136.4,52.1L136.4,52.1z M123.5,45.9c0-0.2,0-0.3,0.1-0.6c0.1-0.1,0.1-0.2,0.2-0.5c0.1-0.1,0.2-0.2,0.3-0.3
			c0.1-0.1,0.2-0.3,0.2-0.6c0-0.1,0.1-0.2,0.2-0.3s0.1-0.1,0.1-0.2s0-0.1,0-0.2c0.1-0.2,0.2-0.6,0.5-0.8c0.1-0.1,0.5-0.2,0.6-0.2
			s0.2,0,0.5,0c0.1,0,0.3,0,0.5,0s0.6-0.1,0.7,0c1.6,0.7,2.2,2.8,1.3,4.3c-1,1.6-3.4,2.1-5.1,1.4c-0.1,0-0.1-0.1-0.1-0.2
			C123.5,47.1,123.7,46.5,123.5,45.9z"/>
		<path d="M183,38.1h-0.1c-0.1,0-0.2,0.1-0.5,0.1s-0.7,0-1,0c-0.5,0-0.9,0-1.3,0c-0.5,0-0.8,0-1.3-0.1c-0.8,0-1.5,0-2.3,0
			c-0.2,0-0.6,0-0.8,0c-0.1,0-0.2,0-0.3,0c-0.2,0-0.3,0-0.6,0s-0.7,0-1,0c-0.2,0-0.3,0-0.6,0c-0.1,0-0.1,0-0.2,0
			c-0.2,0-0.3,0.1-0.6,0.1c-0.3,0.1-0.7,0.1-0.9,0.1c-0.3,0-0.8,0-1.2,0c-0.1,0-0.2,0-0.3,0s-0.2,0.1-0.3,0.1c-0.2,0-0.3,0-0.6,0
			c-0.1,0-0.3,0-0.5,0c-0.3,0-0.6,0-0.9,0c-0.2,0-0.6,0.1-0.6-0.2c0-0.7,0-1.4,0-2.2c0-0.2,0-0.6,0-0.8c0-0.1-0.1-0.3-0.1-0.5
			c-0.1-0.2-0.1-0.5-0.1-0.7c0-0.3,0-0.6,0-0.9c0-0.2,0-0.6,0-0.8c0-0.1,0.1-0.3,0.1-0.6c0-0.2,0-0.3,0-0.6s0-0.3,0-0.6
			c0-0.2,0-0.5-0.1-0.6c0-0.1-0.1-0.2-0.1-0.3c-0.1-0.1-0.1-0.1-0.2-0.1c-0.1,0-0.1,0-0.2,0c-0.1,0-0.1,0-0.2,0c-0.1,0-0.2,0-0.3,0
			c-0.2,0-0.3,0.5-0.3,0.6s-0.1,0.2-0.1,0.3s-0.1,0.2-0.1,0.3c0,0.2-0.1,0.3-0.1,0.6c0,0.1,0,0.2-0.1,0.3c0,0.1-0.1,0.2-0.1,0.3
			c0,0.1,0,0.2-0.1,0.5c-0.1,0.2,0,0.3-0.1,0.6s-0.1,0.5-0.1,0.7c-0.1,0.3,0,0.8-0.1,1.3c0,0.1,0,0.2,0,0.5c0,0.1,0,0.2,0,0.2
			c0,0.1,0,0.2,0,0.3s0,0.2-0.1,0.2c0,0.1,0,0.2,0,0.3s0,0.2,0,0.3c0,0.3-0.1,0.8-0.3,1.2c-0.3,0.5-2.1,0.2-2.8,0.2c-1,0-2,0-3,0
			c-0.7,0-2.4-0.3-2.6,0.6c-0.1,1.2,1.9,0.8,2.6,0.8c0.2,0,0.5,0,0.7,0c0.1,0,0.3-0.1,0.5,0c0.1,0,0.1,0,0.1,0c0.1,0,0.2,0,0.3,0
			c0.2,0,0.3,0,0.6,0s0.5,0,0.8,0c0.2,0,0.5,0,0.6,0c0.2,0.1,0.5,0.2,0.7,0.3s0.5,0,0.8,0.1c0.2,0,0.6,0.1,0.8,0.1
			c0.1,0,0.2,0,0.2,0v0.1c0,0.1,0,0.3,0,0.5s0,0.5,0,0.8c-0.1,1.7-0.1,3.5,0,5.3c0,0.6,0.3,1.3,0.2,1.9c0,0.5-0.7,1.3-1,1.7
			c-0.5,0.7-1.2,1.3-1.7,1.7c-1.3,1-2.9,2-4.6,2.1c-2.7,0.1-5.2-1-6.4-3.5c-0.5-1-0.8-2.1-1-3.2c-0.2-1.2-0.2-2.3-0.6-3.4
			s-1-1.4-2-1.7c-0.7-0.2-1.4-0.5-2.1-0.7c-0.6-0.2-1.4-0.8-2.1-0.7c-0.3,0.1-0.6,0.5-0.7,0.8c0,0.1-0.1,0.2-0.2,0.3l-0.1,0.1
			c-0.1,0.1-0.1,0.2-0.1,0.3c-0.1,0.2,0,0.5,0,0.8s0,0.5-0.2,0.8s0,0.8-0.1,1.2c0,0.1,0,0.1,0,0.2c0,0.1-0.1,0.2-0.1,0.3
			c0,0.2,0,0.5,0,0.6c0,0.2-0.1,0.5-0.1,0.7c0,0.1,0,0.3,0,0.5c0,0.1,0.1,0.1,0.1,0.1c0.1,0,0.2,0,0.3-0.1s0.2-0.2,0.3-0.3
			s0-0.5,0-0.6c0-0.2,0-0.5,0-0.7c0-0.1,0-0.3,0-0.5c0.1-0.2,0.2-0.6,0.2-0.9c0-0.1,0-0.2,0-0.3v-0.1c0,0,0-0.1,0.1-0.1
			c0.1-0.1,0.1-0.2,0.2-0.2c0-0.1,0.1-0.1,0.1-0.1c0.3-0.1,0.8,0.1,1,0.2c0.1,0.1,0.2,0.1,0.3,0.2c0.1,0.1,0.2,0.1,0.3,0.2
			c0.1,0,0.1,0.1,0.1,0.1c0.1,0.1,0.2,0,0.5,0.1c0.2,0,0.3,0,0.5,0.1c0.1,0,0.2,0.1,0.3,0.1c0,0,0.1,0.1,0.1,0.2
			c0.1,0.1,0.1,0.2,0.2,0.3c0.1,0.1,0.1,0.2,0.2,0.2c0.1,0.1,0.3,0.3,0.5,0.5c0.2,0.1,0.3,0.3,0.5,0.6c0,0.1,0.1,0.3,0.1,0.5
			s0,0.6,0,0.8c0,0.1,0.1,0.3,0.1,0.5c0,0.1,0,0.2,0,0.3s0,0.2,0,0.2c0,0.1,0,0.2,0,0.3c0,0.2,0.1,0.3,0.1,0.6c0,0.1,0,0.3,0,0.5
			c0,0.1,0,0.3,0.1,0.5s0.1,0.3,0.2,0.6c0.6,1.3,1.4,1.9,2.7,2.3c1.5,0.6,2.6,1.4,4.3,1.4c2.7,0,5.2-0.8,7.3-2.6
			c0.8-0.7,1.6-1.6,2-2.7c0.2-0.6,0.6,0.2,0.7,0.3c0.3,0.5,0.9,0.6,1.3,1c0.5,0.5,0.7,1,1,1.5c0.8,0.8,2,1,2.9,1.5
			c1.3,0.6,2.7,0.7,4.1,0.6c2,0,3.7-0.6,5.2-1.9c0.5-0.3,0.8-0.7,1.3-1.2c0.2-0.2,0.5-0.6,0-0.6c-0.3-0.1-0.8,0.2-1,0.5
			c-0.6,0.7-1.2,1.4-2.1,1.9c-1.2,0.6-2.6,0.7-3.9,0.6c-2.4-0.2-4.8-1.6-5.9-3.7c-0.7-1.4-0.8-2.9-0.8-4.4s0-3,0-4.5
			c0-0.3,0-0.8,0-1.2c0-0.2,0-0.5,0-0.6v-0.1c0.1-0.1,0.2-0.1,0.3-0.1c0.3,0,0.7,0,1,0c0.5,0,0.8,0,1.3,0c0.3,0,0.6,0,0.9,0
			c0.1,0,0.2-0.1,0.3-0.1c0.1-0.1,0.2-0.1,0.5-0.1c0.3-0.1,0.6-0.2,0.9-0.2c0.5-0.1,1-0.2,1.5-0.3c0.5,0,0.9,0,1.4,0
			c0.2,0,0.5,0,0.7,0s0.3,0,0.6,0c0.1,0,0.2,0,0.5,0s0.7-0.2,1,0c0.1,0,0.3,0.1,0.5,0.1s0.5,0,0.7,0.1s0.6,0,0.8,0
			c0.6,0,1.2,0,1.7,0s0.8-0.1,1.3,0c0.3,0,0.6,0.1,0.9-0.1c0.1-0.1,0.2-0.1,0.5-0.2c0.1,0,0.2,0,0.2-0.1c0.1-0.1,0.2-0.1,0.2-0.2
			s0-0.2,0-0.3s0-0.1-0.1-0.1c0,0,0-0.1-0.1-0.1s-0.2,0-0.3,0c-0.3,0-0.7,0-1,0C183.1,38,183,38.1,183,38.1z"/>
		<path d="M75.2,43.6c-0.2-1.9-0.7-2.3-1.7-3.8c-2.2-3.4-5.8-6.3-9.3-8.3c-2.8-1.6-5.8-3-8.9-3.4c-1.5-0.2-3.1-0.3-4.6,0
			c-2,0.3-3.5,1-4.9,2.4c-0.5,0.5-1.2,0.8-1.4,1.4c-0.3,0.9,0.1,2.1,0,3.1c-0.2,2.2-0.3,4.5-0.3,6.8c0,1.4,0.1,2.6,0.3,3.9
			c0.3,1.9,0.3,3.8,0.2,5.7c0,0.9-0.1,2,0,2.9c0.1,0.5,0.5,1.6,1.2,0.9c0.5-0.5,0.2-1.5,0.1-2.1c-0.1-0.9-0.1-1.7-0.1-2.7
			c0-2-0.1-4.1-0.3-6c-0.3-2.6-0.7-5.1-0.2-7.7c0.2-1.4,0.8-2.7,1.5-3.9c0.1-0.2,0.2-0.5,0.5-0.5c0.7-0.1,1.4,0,2.1-0.1
			c0.5-0.1,1-0.2,1.5-0.3c0.3-0.1,0.6-0.1,0.9-0.2c0.2,0,0.5,0,0.8-0.1c0.5-0.1,0.9-0.2,1.4-0.2c0.3,0,0.7,0,0.9,0
			c0.3,0,0.7,0,1.2,0s0.8,0.1,1.3,0.2s0.9,0.1,1.4,0.3c0.6,0.2,1.2,0.5,1.7,0.7c0.2,0.1,0.6,0.1,0.8,0.2c0.2,0.1,0.6,0.3,0.8,0.5
			c0.5,0.2,0.9,0.5,1.5,0.8c0.2,0.1,0.5,0.3,0.8,0.5c0.2,0.2,0.3,0.3,0.6,0.6c0.2,0.2,0.6,0.5,0.7,0.8c0.1,0.1,0.1,0.2,0.2,0.3
			s0.2,0,0.3,0c0.1,0,0.2,0.3,0.2,0.5c0.2,0.3,0.6,0.5,0.8,0.7c0.1,0.1,0.1,0.1,0.2,0.3s0.3,0.5,0.5,0.7c0.1,0.1,0.1,0.2,0.2,0.3
			s0.1,0.3,0.2,0.6s0.3,0.2,0.5,0.5s0.2,0.3,0.5,0.6c0.5,0.3,0.3,0.8,0.7,1.3c0.2,0.2,0.2,0.5,0.2,0.7s0.2,0.3,0.3,0.6
			c0.1,0.2,0.2,0.7,0.3,0.9c0.1,0.3,0.2,0.7,0.5,1c0.5,0.9,0.7,1.7,0.7,2.8c0,1.2-0.1,2.3-0.7,3.4c-0.3,0.7-1.3,0.9-1.9,1.4
			c-0.8,0.6-1.4,1.4-2.3,1.7c-0.7,0.2-1.4,0.1-2.1,0.5c-2.1,0.8-3.5,0.9-5.7,0.8c-2-0.2-3.7,0.5-5.7,0.6c-1.2,0.1-1.6,0.6-0.2,0.8
			c0.8,0.1,1.7-0.1,2.6-0.1c1.5,0,2.8-0.2,4.2-0.3c1.4-0.2,2.6,0,3.8-0.3c0.8-0.2,1.5-0.2,2.3-0.3c0.8-0.1,1.5-0.5,2.3-0.8
			c1.7-0.7,3.5-1.5,5.1-2.7C76.4,50.3,75.4,45.9,75.2,43.6z"/>
	</g>
	<path class="st1" d="M79.6,8.2c0,0.1-0.1,0.1-0.1,0.2c-0.2,0.1-0.3,0.1-0.6,0.1c-0.2,0-0.5,0-0.6,0c-0.3,0-0.6-0.1-0.9-0.2
		c-0.9-0.2-1.9,0-2.8-0.5c-0.5-0.2-0.9-0.3-1.4-0.6C72.9,7,72.5,6.6,72,6.5c-0.3-0.1-0.7-0.2-1-0.1c-0.1,0-0.3,0-0.5,0
		s-0.3-0.1-0.6-0.1c-0.1,0-0.3,0-0.6,0c-0.3,0-0.6-0.1-0.9-0.1c-0.5,0-0.9,0-1.4,0c-0.2,0-0.5,0-0.7,0S66,6.3,65.8,6.3
		c-0.5,0.1-0.9,0.2-1.4,0.3c-0.5,0-0.8-0.1-1.3,0c-0.8,0.2-1.5,0.6-2.4,0.5c-0.6-0.1-1.2,0-1.7,0s-0.8-0.2-1.2-0.2
		c-0.7-0.1-1.4,0-2.1,0c-0.5,0-1,0-1.5,0c-0.6,0-1.2,0.2-1.7,0.3c-0.7,0.1-1.2,0.2-1.9,0.6c-0.6,0.3-1,0.6-1.5,0.9
		c-0.5,0.3-0.8,0.6-1.3,0.8c-0.3,0.2-0.8,0.3-1.2,0.6c-0.8,0.6-1.7,0.3-2.7,0.5c-1,0.1-2.3,0.3-3.2,1s-2,1.3-2.8,2.2
		c-0.5,0.5-0.9,0.8-1.4,1.3c-0.6,0.5-1.2,1-1.7,1.5c-1.3,1.2-2.7,2.2-4.3,2.8c-1.3,0.5-2.3,1.4-3.5,2.2c-0.3,0.2-0.6,0.6-0.9,0.9
		c-0.5,0.3-0.9,0.6-1.3,1c-0.2,0.2-0.5,0.6-0.7,0.8c-0.3,0.5-0.8,0.7-1.2,1c-0.5,0.3-0.9,0.7-1.4,1c-0.8,0.6-0.8,1.5-1,2.3
		c-0.1,0.3-0.3,0.7-0.7,1c-0.1,0.1-1,0.9-1.2,0.7c-0.5-0.7,0.6-1.7,0.8-2.4c0.1-0.3,0-0.8,0.1-1.2c0.1-1.3,1.2-2,1.9-2.9
		c0.3-0.5,0.6-0.8,0.8-1.3c0.5-0.7,0.9-1.4,1.5-2s1.3-1,2-1.6c0.5-0.5,1.2-0.7,1.6-1.2c0.3-0.3,0.8-0.7,1.2-1
		c0.1-0.1,0.2-0.3,0.5-0.5c0.2-0.1,0.5-0.2,0.7-0.3c0.2-0.2,0.5-0.5,0.7-0.7s0.6-0.3,0.8-0.6c0.5-0.3,0.9-0.8,1.5-1.2
		c0.3-0.1,0.7-0.3,0.9-0.6c0.5-0.3,0.9-0.6,1.4-0.9c0.5-0.5,1-0.8,1.5-1.2c0.5-0.5,0.9-0.7,1.6-0.9c0.6-0.1,1-0.2,1.5-0.6
		c0.6-0.3,1.2-0.3,1.9-0.5c0.7-0.1,1.2-0.5,1.7-0.8c0.7-0.3,1.4-0.6,2.1-0.9c1.3-0.7,2.7-0.6,4.1-0.9c0.8-0.2,1.6,0,2.4,0
		c0.8,0,1.5-0.2,2.2-0.5c0.6-0.1,1.2-0.1,1.6-0.2c0.7-0.2,1.3-0.5,2.1-0.6c0.5-0.1,0.9-0.1,1.4-0.2c1.3-0.2,2.6,0,3.8-0.2
		c0.7-0.1,1.4-0.1,2.1-0.3c0.6-0.1,1.3,0,1.9-0.2c0.2-0.1,0.3-0.1,0.6-0.2c0.7-0.2,1.5-0.1,2.2-0.1c0.3,0,0.9-0.1,1.3,0
		c0.2,0,0.3,0.2,0.5,0.3C71.6,4,71.8,4,72.1,4.1c0.3,0.1,0.6,0.2,0.9,0.3c0.5,0.5,0.8,0.5,1,0.6c0.2,0,0.5,0,0.7,0
		c0.5,0.1,0.6,0.5,1,0.6c0.1,0,0.2,0,0.2,0c0.1,0,0.3,0.1,0.5,0.2s0.6,0.3,0.8,0.5c0.3,0.1,0.7,0.3,1,0.6c0.2,0.2,0.3,0.6,0.7,0.7
		c0.2,0.1,0.8,0,0.9,0.2C80.1,7.5,79.7,8.1,79.6,8.2z"/>
	<path class="st1" d="M12.7,77.8L12.7,77.8c0.1,0,0.2,0.2,0.2,0.3c0.1,0.3,0.2,0.6,0.5,0.8c0.5,0.6,0.9,1,1.3,1.7
		c0.2,0.3,0.5,0.7,0.5,1.2c0,0.1,0,0.2,0,0.5c0.1,0.3,0.3,0.7,0.6,1c0.2,0.5,0.6,1,0.8,1.5l1.9,3.1c0.7,1,1.4,2,2.1,2.9
		c0.3,0.5,0.7,0.8,0.9,1.3c0,0.1,0,0.2,0,0.3c0,0.3,0,0.6,0.2,0.9c0.3,0.5,0.9,0.6,1.4,0.8c1.2,0.6,2,1.6,2.9,2.6
		c0.6,0.7,1.4,1.2,2,1.9c0.3,0.5,0.6,1,1.2,1.3c0.3,0.1,0.7,0.3,1,0.5c0.2,0.1,0.5,0.2,0.7,0.3c0.3,0.1,0.7,0.2,1.2,0.3
		c0.1,0,0.3,0,0.5,0.1c0,0.2,0.2,0.6,0.3,0.8c0.2,0.3,0.5,0.8,0.9,1c0.5,0.3,0.9,0.5,1.5,0.7c0.6,0.3,1,0.7,1.5,1.2
		c0.7,0.7,1.7,1.3,2.4,2c0.3,0.5,0.7,0.9,1,1.3c0.5,0.5,1.2,0.5,1.9,0.6c0.6,0.1,1.2,0.2,1.7,0.3c0.6,0.1,1,0.5,1.5,0.7
		c0.6,0.3,1.4,0.6,2.1,0.7c0.7,0.2,1.4,0.3,2.1,0.6c0.7,0.2,1.4,0.5,2.1,0.6c0.5,0.1,1,0.3,1.5,0.3c0.2,0,0.5-0.1,0.6-0.1
		c0.2,0,0.3,0.1,0.6,0.2c0.2,0.2,0.6,0.3,0.8,0.6c1.3,0.6,2.8,0.8,4.2,0.9c0.8,0.1,1.6,0.2,2.4,0.3c0.7,0.1,1.5,0,2.2,0
		c0.9,0,1.9,0,2.8,0c1.9,0,3.8,0,5.7-0.5c0.5-0.1,0.9-0.2,1.5-0.3c0.5-0.1,1,0,1.5-0.2c0.5-0.1,0.7-0.5,1.2-0.6
		c0.6-0.2,1.3-0.1,1.9-0.1c0.1,0,0.2,0,0.3,0c0.1,0,0.2-0.1,0.3-0.2c0.1-0.1,0.3-0.2,0.6-0.3c0.2-0.1,0.5-0.2,0.7-0.3
		c0.3-0.1,0.7-0.3,1-0.3c0.2,0,0.3,0,0.6,0c0.2,0,0.3-0.1,0.5-0.1c0.2-0.1,0.6-0.2,0.8-0.3c0.2,0,0.5-0.1,0.6-0.1
		c0.3-0.1,0.7-0.2,0.9-0.3c0.7-0.2,1.4-0.7,2.1-0.9c0.6-0.2,1.2-0.1,1.6-0.3c0.6-0.1,1.2-0.5,1.6-0.8c0.3-0.2,0.6-0.6,0.8-0.8
		c0.2-0.2,0.5-0.3,0.8-0.5c0.3-0.1,0.6-0.3,0.8-0.5c0.1-0.1,0.3-0.2,0.6-0.1c0.1,0,0.1,0,0.1,0.1c0.2,0,0.3-0.1,0.6-0.1
		c0.1-0.1,0.2-0.1,0.3-0.2c0.1-0.1,0.2-0.3,0.3-0.5c0.2-0.2,0.3-0.5,0.6-0.6c0.1-0.1,0.5-0.2,0.7,0c0.2,0.3-0.7,0.8-0.9,0.9
		c-0.3,0.2-0.7,0.3-0.9,0.8c-0.1,0.3-0.3,0.6-0.6,0.8c-0.2,0.2-0.3,0.6-0.6,0.7c-0.2,0.1-0.5,0.2-0.6,0.3c-0.6,0.3-1.3,0.8-1.9,1.2
		c-0.5,0.2-0.9,0.6-1.5,0.8c-0.5,0.2-0.9,0.6-1.4,0.7c-0.3,0.1-0.6,0-0.9,0.2c-0.5,0.2-0.8,0.6-1.3,0.9c-0.2,0.1-0.5,0.2-0.7,0.3
		c-0.2,0.1-0.5,0.1-0.8,0.1s-0.8,0.1-1,0.2s-0.3,0.1-0.6,0.2c-0.2,0.1-0.5,0.1-0.7,0.2c-0.3,0.1-0.7,0.2-0.9,0.3
		c-0.2,0.1-0.3,0.3-0.6,0.6c-0.1,0.1-0.2,0.3-0.5,0.3c-0.2,0.1-0.5,0.2-0.7,0.2c-0.5,0-0.8,0-1.3,0s-0.9-0.1-1.4,0
		c-0.2,0-0.6,0.2-0.8,0.3c-0.3,0.1-0.8,0.3-1.2,0.3c-0.2,0-0.3,0-0.6,0.1c-0.2,0.1-0.5,0.2-0.8,0.3c-0.3,0.1-0.6,0.1-0.9,0.2
		s-0.7,0.2-1.2,0.2c-0.3,0-0.7,0-1.2,0c-0.3,0-0.7,0-0.9,0c-0.5,0-0.9,0.1-1.4,0.1c-1.2,0-2.2,0.1-3.4,0.1s-2.4,0-3.6-0.1
		c-0.5,0-0.8,0-1.3-0.1c-1.6-0.1-3.1-0.3-4.8-0.6c-0.7-0.1-1.5-0.2-2.2-0.5c-0.5-0.1-0.8-0.2-1.3-0.2c-0.7,0-1.4,0-2.1,0
		c-0.9-0.1-1.7-0.2-2.7-0.6c-0.3-0.1-0.7-0.2-1-0.3c-0.2-0.1-0.3-0.2-0.6-0.2c-0.6-0.1-1.2-0.2-1.6-0.6c-0.3-0.1-0.7-0.3-0.9-0.6
		c-0.2-0.1-0.3-0.3-0.6-0.6c-0.2-0.2-0.6-0.3-0.9-0.5c-0.2-0.1-0.6-0.2-0.9-0.5c-0.3-0.1-0.5-0.5-0.6-0.8c-0.5,0-0.8-0.1-1.3-0.3
		c-0.6-0.3-1.3-0.7-2-0.9c-0.2-0.1-0.6-0.2-0.8-0.3c-0.3-0.2-0.7-0.5-1.2-0.7s-0.9-0.5-1.3-0.8c-0.3-0.3-0.7-0.7-1-1
		c-0.2-0.2-0.5-0.6-0.7-0.9c-0.1-0.2-0.2-0.2-0.5-0.3c-0.6-0.3-1-0.7-1.5-1c-0.6-0.5-1.3-0.8-1.6-1.5c-0.2-0.3-0.5-0.7-0.6-1
		c-0.1-0.2-0.2-0.5-0.5-0.7s-0.7-0.3-1-0.6c-0.1-0.1-0.3-0.1-0.5-0.2c-0.2-0.2-0.1-0.6-0.2-0.8c-0.1-0.2-0.5-0.3-0.7-0.6
		c-0.5-0.3-0.8-0.9-1.2-1.3c-0.9-1.2-1.9-2.2-2.7-3.4c-0.2-0.3-0.6-0.7-0.7-1.2s-0.3-0.8-0.6-1.2c-0.2-0.3-0.3-0.7-0.7-0.9
		c-0.2-0.2-0.7-0.3-0.9-0.6c-0.3-0.3-0.6-0.7-0.8-1c-0.3-0.6-0.5-1.2-0.9-1.6C14.3,87,14,86.6,14.2,86c0.1-0.6,0.2-1.2,0.1-1.7
		c-0.1-0.3-0.3-0.7-0.6-1c-0.1-0.2-0.3-0.3-0.6-0.5c-0.2-0.2-0.3-0.5-0.5-0.7c-0.2-0.5-0.3-1-0.6-1.5c-0.1-0.2-0.1-0.5-0.1-0.7
		s-0.1-0.5-0.1-0.7c-0.1-0.3-0.1-0.8,0-1.2C12.6,78.1,12.6,77.9,12.7,77.8z"/>
	<path d="M82.6,38.7c0.5,0,0.9,0.1,1.4-0.1c0.2-0.1,0.2-0.2,0.3-0.2c0.1-0.1,0.2,0,0.3,0c0.2,0,0.2-0.2,0.3-0.3
		c0.2-0.2,0.6-0.2,0.8-0.3c0.2-0.1,0.5-0.3,0.6-0.5s0.3-0.3,0.6-0.3c0.1,0,0.2,0,0.2,0c0.2-0.1,0.3-0.2,0.5-0.3
		c0.1-0.1,0.2,0,0.2-0.1l0.1-0.1c0.2-0.1,0.5-0.2,0.6-0.3c0.2-0.1,0.5-0.5,0.8-0.6c0.2-0.1,0.3-0.1,0.6-0.2c0.3-0.1,0.5-0.2,0.7-0.5
		c0.1-0.1,0.3-0.2,0.5-0.3c0.1-0.1,0.2-0.3,0.3-0.6c0.1-0.1,0.1-0.3,0.2-0.5c0-0.2,0-0.3,0-0.6s0-0.7-0.3-0.9
		c-0.2-0.1-0.5-0.1-0.8-0.2c-0.1,0-0.3,0-0.5,0s-0.3,0.2-0.6,0.5c-0.2,0.2-0.3,0.5-0.5,0.7c-0.1,0.1-0.2,0.3-0.3,0.5
		c0,0.1-0.1,0.1-0.2,0.2c0,0,0,0.1-0.1,0.1c0,0.1-0.1,0.2-0.2,0.2C88,34.1,88,34.2,88,34.5c-0.1,0.2-0.3,0.3-0.5,0.6
		c0,0.1-0.1,0.3-0.2,0.3c-0.1,0.1-0.2,0.2-0.3,0.3c-0.3,0.2-0.6,0.6-0.8,0.8c-0.3,0.3-0.7,0.6-1.2,0.8c-0.2,0.1-0.5,0.3-0.7,0.5
		c-0.1,0-0.1,0.1-0.2,0.1C84,38,84,38,83.8,38.1C83.9,38.1,83.1,38.3,82.6,38.7z"/>
	<path class="st1" d="M84.2,8.8c-0.1,0-0.1,0-0.2,0c-0.3-0.1-1-0.2-1.4-0.1c-0.3,0.1-0.5,0.6-0.5,0.9c0,0.3,0.3,0.7,0.5,0.9
		c0.1,0.1,0.2,0.2,0.3,0.2c0.2,0.1,0,0,0.3,0.1s0.8,0.3,1.2,0.5c0.1,0,0.2,0,0.2,0.1l0.1,0.1c0.8,0.3,1.9-0.2,2.6,0.6
		c0.2,0.3,0.5,0.7,0.8,1.2c0.3,0.3,0.7,0.6,1.2,0.7c0.6,0.1,1.2,0.2,1.7,0.7c0.6,0.3,1.2,0.9,1.6,1.4c0.2,0.2,0.5,0.5,0.7,0.1
		c0.2-0.3,0-1-0.2-1.3s-0.6-0.7-0.9-0.9c-0.5-0.2-0.9-0.5-1.4-0.7s-0.7-0.6-1.2-1c-0.5-0.5-1.2-0.7-1.7-1.2
		c-0.5-0.3-0.9-0.5-1.5-0.7c-0.5-0.2-0.9-0.6-1.3-0.9C85,9.4,85,9.3,84.9,9.2C85.1,8.8,84.6,8.8,84.2,8.8z"/>
	<path class="st1" d="M97.8,102.9c0-0.1,0-0.3,0-0.5s0-0.3,0.1-0.6c0.1-0.2,0.2-0.5,0.5-0.6c0.1-0.1,0.2,0,0.3-0.1
		c0.1-0.1,0.2-0.2,0.5-0.3c0.2-0.1,0.3-0.3,0.5-0.6c0.1-0.1,0.2-0.2,0.3-0.2c0.1-0.1,0.2-0.2,0.2-0.3c0.1-0.2,0.5-0.3,0.7-0.5
		c0.1,0,0.3-0.3,0.5-0.2c0.1,0.1,0,0.3,0,0.5c-0.1,0.1-0.2,0.2-0.2,0.3c-0.1,0.1-0.2,0.1-0.2,0.2l-0.1,0.1c-0.1,0-0.1,0.1-0.2,0.1
		c-0.1,0.1-0.1,0.3-0.2,0.5s-0.3,0.6-0.5,0.8c-0.1,0.3-0.3,0.3-0.6,0.6c-0.2,0.1-0.5,0.2-0.6,0.5c-0.1,0.1-0.1,0.1-0.2,0.2
		C98.4,102.7,98.3,102.8,97.8,102.9z"/>
</g>
</svg>
