<svg xmlns="http://www.w3.org/2000/svg" viewBox="4556.422 18.583 254.863 20.948"><defs><style>.a{fill:#fff;}</style></defs><g transform="translate(4556.45 18.867)"><path class="a" d="M6.011,21.544a9.512,9.512,0,0,0,3.369-.882c.4-.16.882-.08,1.284-.4a1.678,1.678,0,0,1,.481-.321c.08-.08.16-.08.241-.16s.16-.08.241-.16a.613.613,0,0,1,.4-.16c.16,0,.321.241.4.321.08.16.321.321.481.481.08.08.08.16.16.16a.482.482,0,0,0,.321.08.608.608,0,0,1,.321.16c.16.16.241.321.481.4s.4.241.642.321c.08,0,.08,0,.16.08l.08.08a1.017,1.017,0,0,0,.481.08h.321c.08,0,.241.08.321.08a1.975,1.975,0,0,0,.963-.08h1.284a.417.417,0,0,0,.321-.16,1.017,1.017,0,0,1,.481-.08h.4a1.14,1.14,0,0,0,.481-.16c.16-.08.241-.08.4-.16a4.763,4.763,0,0,0,.642-.321l.722-.481c.16-.08.241-.16.4-.241.08-.08.16-.16.16-.241,0-.16,0-.241-.16-.321h-.241a.3.3,0,0,0-.241.08l-.16.16a.608.608,0,0,1-.321.16.608.608,0,0,1-.321.16l-.481.241a2.509,2.509,0,0,1-.8.4c-.08,0-.241.08-.321.08a3.474,3.474,0,0,0-.4.08,1.017,1.017,0,0,1-.481.08H16.841a4.231,4.231,0,0,1-.963-.241c-.08-.08-.241-.16-.321-.241-.16-.16-.321-.241-.4-.4a8.648,8.648,0,0,1-1.685-3.449c.16-.08.321,0,.481,0,.16.08.241.16.321.16h.4a.3.3,0,0,1,.241.08c.08,0,.16.08.241.08h.481a.079.079,0,0,0,.08-.08h.08c.08,0,.16-.08.241-.08.16-.08.4-.321.562-.4h.241a.608.608,0,0,0,.321-.16,2.218,2.218,0,0,0,.882-1.043,2.687,2.687,0,0,0-.4-2.888,3.616,3.616,0,0,0-3.369-.481A4.2,4.2,0,0,0,11.706,14a4.451,4.451,0,0,0-.481,1.765,4.029,4.029,0,0,0,.16,1.685c0,.08.08.16.08.241a2.181,2.181,0,0,1,0,.722c0,.16,0,.241-.08.321-.16.16-.4.241-.562.4a.8.8,0,0,0-.4.321c-.08.16-.08.241-.16.4a2.861,2.861,0,0,1-.882.8,3.6,3.6,0,0,1-1.444.562,6.5,6.5,0,0,1-3.048-.08c-3.289-.882-2.647-5.054-2.647-7.22a39.2,39.2,0,0,1,.241-4.332,5.429,5.429,0,0,0-.4-3.209.441.441,0,0,0-.241-.4,1.678,1.678,0,0,0-.481-.321,1.446,1.446,0,0,0-.8-.16H.4c-.241.08-.321.722-.321.963,0,.16,0,.241-.08.321-.08.321.08.642.08.963,0,.4.08.722.08,1.123,0,2.888,0,5.776.241,8.664C.636,20.5,3.283,21.544,6.011,21.544Zm9.225-9.466h.08a1.972,1.972,0,0,1,1.364,3.209,2.392,2.392,0,0,1-1.925.963,4.542,4.542,0,0,1-1.444-.241c-.16-.08-.4-.16-.4-.4V14.485a.608.608,0,0,1,.16-.321c0-.08.08-.241.08-.321s0-.08.08-.16a.3.3,0,0,1,.08-.241c.08-.241.16-.481.4-.562a.3.3,0,0,1,.241-.08c.08,0,.08-.08.16-.16a1.75,1.75,0,0,1,.4-.321A1.12,1.12,0,0,1,15.236,12.078Z" transform="translate(0 -1.144)"/><path class="a" d="M263.188,8c-.08-1.043-1.845-1.364-2.647-1.123-.4.16-.4.481-1.043.4-.08.481.4.722.562,1.2.562,0,.882.562,1.444.642S263.268,8.646,263.188,8Z" transform="translate(-51.334 -1.402)"/><path class="a" d="M203.8,20h-.241a1.69,1.69,0,0,0-1.043.4,3.911,3.911,0,0,1-.562.241c-.16.08-.321,0-.562.08-.16,0-.241.08-.321.08h-.321a1.566,1.566,0,0,1-.562-.08c-.08,0-.241-.08-.321-.08-.16,0-.241.08-.4,0l-.241-.241a.482.482,0,0,0-.321-.08c-.08,0-.16-.08-.241-.16a1.754,1.754,0,0,1-.241-.4,1.1,1.1,0,0,0-.4-.642c-.241-.241-.481-.321-.642-.562a4.451,4.451,0,0,1-.481-.642,4.84,4.84,0,0,0-.642-.642,5.655,5.655,0,0,1-.562-.722l-.241-.481-.241-.241c-.08-.16-.241-.321-.321-.481a2.127,2.127,0,0,0-.4-.481c-.16-.16-.321-.4-.481-.562a2.139,2.139,0,0,0-1.123-.562,2.575,2.575,0,0,0-1.364.16c-.16.08-.241.241-.481.241a.606.606,0,0,0-.321.08c-.08.08-.241.16-.321.241a3.489,3.489,0,0,1-.562.481l-.481.481c-.08.08-.16.241-.321.321a.28.28,0,0,0-.08.16c-.08.16-.241.241-.321.4-.08.08-.16.321-.241.4h-.08c-.08.08-.08.16-.16.241-.08.16-.16.16-.241.241a1.75,1.75,0,0,0-.321.4v.08l-.08.08c-.16.08-.241.321-.321.4l-.4.4c-.08.08-.241.321-.321.321-.16.08-.241-.321-.241-.481-.16-.722-.241-1.444-.4-2.166a10.257,10.257,0,0,0-1.123-3.449,2.366,2.366,0,0,0-1.043-1.123,3.534,3.534,0,0,0-2.407.16,8.016,8.016,0,0,0-1.123.642c-.08.08-.16.08-.16.16-.241.321,0,.642.321.4.321-.16.562-.481.882-.562.4-.08.963-.08,1.2.241a2.883,2.883,0,0,1,.642,1.444c.16.642.642,1.2.8,1.765.16.481.16.963.321,1.364a20.317,20.317,0,0,0,.963,1.845c.241.481.241,1.444.642,1.845,1.123,1.043,2.407-1.6,2.968-2.246.642-.722,1.123-1.6,1.765-2.407a2,2,0,0,1,2.567-.481c.4.241.562.722.882,1.043a7.986,7.986,0,0,1,1.123,1.2,8.588,8.588,0,0,0,1.123,1.284c.321.321.963.642,1.123,1.043s2.326,1.2,2.808,1.2h.16a7.231,7.231,0,0,0,2.567-.722,1.665,1.665,0,0,0,.8-.481.5.5,0,0,0,0-.481C203.881,20,203.881,20,203.8,20Z" transform="translate(-35.587 -2.333)"/><path class="a" d="M268.215,22.024h.4c.16-.08.241-.16.4-.241.08-.08.08-.08.16-.08s.08-.08.16-.08c.08-.08.241-.08.241-.16l.241-.241c.08,0,.08-.08.16-.16l.08-.08c.08-.08.16-.16.16-.241.08-.08.08-.08.08-.16a.28.28,0,0,0,.08-.16c.08-.08.08-.16.16-.241l.08-.08v-.16h-.08c-.08.08-.16.08-.241.16l-.16.16-.16.16c-.08.08-.08.16-.16.16-.08.08-.08.08-.16.08-.08.08-.08.08-.16.08a.079.079,0,0,0-.08.08l-.08.08-.08.08a.079.079,0,0,1-.08.08,1.753,1.753,0,0,1-.4.241c-.08,0-.08.08-.16.08a.3.3,0,0,1-.241.08c-.08.08-.241.08-.321.16H266.53c-.241-.08-.481-.08-.722-.16a6.014,6.014,0,0,1-1.6-.8c-1.685-1.2-1.765-2.888-2.005-4.733-.08-.562-.4-.963-.481-1.444-1.2-.4-1.685,1.043-1.524,2.005a4.208,4.208,0,0,1,.16,1.444c-.08.4.08.562.321.882a1.108,1.108,0,0,0,.241.321c.08.16.241.321.321.481.08.241.241.321.4.562l.241.241c.08.08.16.08.241.16.16.16.321.4.481.562a2.364,2.364,0,0,0,1.043.4c.16.08.4.08.562.241a5.461,5.461,0,0,0,2.246.321h1.524C268.054,22.1,268.134,22.024,268.215,22.024Z" transform="translate(-51.468 -2.908)"/><path class="a" d="M309.913,20.075a6.432,6.432,0,0,1-1.685.4,4.442,4.442,0,0,1-1.444-.16,3.912,3.912,0,0,1-.562-.241c-.16-.08-.4-.08-.562-.241-.08-.08-.241-.08-.321-.16-.16-.08-.241-.241-.4-.321l-.241-.241-.16-.16-.08-.08-.08-.08-.321-.321c-.08-.08-.16-.241-.241-.321s-.08-.16-.08-.321v-.481h1.845a3.162,3.162,0,0,0,1.123-.4,2.877,2.877,0,0,0,1.284-3.851,2.153,2.153,0,0,0-2.326-1.2,4.931,4.931,0,0,0-2.647,1.524,7.018,7.018,0,0,0-.642.8c0,.08-.08.08-.08.16v.08c-.08.08-.08.241-.16.321a2.55,2.55,0,0,0-.241.722,5.24,5.24,0,0,0,0,1.123,3.907,3.907,0,0,0,.08.963.6.6,0,0,0,.08.4l.241.481a3.114,3.114,0,0,1,.481.882c.08.241.321.4.481.562a7.051,7.051,0,0,0,.8.481,4.877,4.877,0,0,1,1.444.722c.08,0,.08.08.16.08h.642c.16,0,.241.08.4.08s.241.08.4.16h.16c.08,0,.16.08.321.08s.241.08.321.08a.723.723,0,0,0,.4-.08.3.3,0,0,0,.241-.08c.241-.08.321-.241.562-.321s.4-.08.642-.16a5.909,5.909,0,0,0,1.123-.321,4.322,4.322,0,0,0,1.043-.562,9.13,9.13,0,0,0,1.524-1.524,6.119,6.119,0,0,0,.642-.882c.08-.08.16-.16.16-.241v-.241c0-.08,0-.16.08-.16a.079.079,0,0,0,.08-.08c0-.08.08-.08.08-.16.16-.241,0-.481-.241-.241a15.426,15.426,0,0,1-1.043,1.364,8.587,8.587,0,0,1-1.284,1.123,5.548,5.548,0,0,1-1.524.8C310.074,19.995,309.993,19.995,309.913,20.075Zm-4.813-7.46c1.444-.963,2.888,1.284,2.246,2.727a2.681,2.681,0,0,1-1.524,1.444c-.642.241-2.246-.08-2.407-.8-.241-.882.722-2.407,1.284-3.048A1.409,1.409,0,0,1,305.1,12.614Z" transform="translate(-59.715 -2.403)"/><path class="a" d="M241.539,5.251c-.08,0-.16.08-.241.16a1.439,1.439,0,0,0-.4.562c-.16.241-.08.481-.16.8a3.235,3.235,0,0,0,0,.882,5.179,5.179,0,0,0,.321,1.524c.08.321.241.642.321.963,0,.321.08.642.08.963a4.689,4.689,0,0,1-.16,1.524,5.371,5.371,0,0,0,0,1.6,5.716,5.716,0,0,1-.722,3.048,4.2,4.2,0,0,1-.8.882c-2.487,2.086-6.1.241-8.263-1.444-.16-.16-.4-.241-.562-.4-.241-.16-.481-.4-.722-.562-.16-.16-.4-.16-.562-.321-.08-.08-.16-.241-.321-.321-.08-.08-.16-.08-.241-.16,0,0,0-.241-.08-.241a2.671,2.671,0,0,0-.241-.481,5.836,5.836,0,0,0-.722-.642,2.162,2.162,0,0,0-.642-.562c-.241-.16-.321-.4-.562-.562-.321-.241-.642-.4-.963-.642-.882-.562-1.043-1.6-1.765-2.246a3.448,3.448,0,0,1-.722-.8,1.612,1.612,0,0,1-.321-.642,8.139,8.139,0,0,0-.722-1.043l-.722-.722a30.642,30.642,0,0,0-5.214-3.931c-1.123-.562-2.086-1.364-3.209-1.845a6.892,6.892,0,0,0-3.129-.4c-1.685-.08-4.893.241-5.936,1.765-.241.4-.963,1.364-.321,1.524,0-1.364,1.925-2.246,3.129-2.407A5.3,5.3,0,0,0,208.088,1a1.189,1.189,0,0,1,.562-.08h1.6a3.866,3.866,0,0,1,.963,0,4.907,4.907,0,0,1,.963.4c.321.16.562.321.882.481.16.08.4.16.562.241l.481.241c.16.08.16.16.241.241a2.5,2.5,0,0,0,.722.562,1.754,1.754,0,0,1,.241.4l.241.241c.16.241.241.4.481.481a.626.626,0,0,1,.321.321c.08.16.08.321.16.481s.321.16.4.241a5.189,5.189,0,0,1,.642.722c.241.241.562.4.8.642.16.16.241.321.4.481l.16.16a1.293,1.293,0,0,0,.321.562,1.751,1.751,0,0,0,.321.4.967.967,0,0,0,.4.4,1.679,1.679,0,0,1,.481.321c.08.08.16.241.241.321a.079.079,0,0,1,.08.08c.08.08.08.241.16.321.08.241.241.4.321.642.16.241.481.321.722.481a1.93,1.93,0,0,1,.481.642,6.939,6.939,0,0,0,.562.8,2.55,2.55,0,0,0,.963.882.8.8,0,0,1,.321.4.967.967,0,0,0,.4.4c.8.642,1.524,1.284,2.326,1.925a10.217,10.217,0,0,0,1.524,1.043,16.117,16.117,0,0,0,6.177,2.326,8.632,8.632,0,0,0,3.209,0,5.1,5.1,0,0,0,1.444-.481,2.815,2.815,0,0,0,.642-.4.967.967,0,0,0,.4-.4.3.3,0,0,1,.08-.241c.08-.08.08-.16.16-.16a1.679,1.679,0,0,0,.481-.321,5.115,5.115,0,0,0,.642-1.123c.08-.16.241-.241.4-.4l.241-.481a4.408,4.408,0,0,1,.562-.722,2.41,2.41,0,0,0,.481-.882,2.221,2.221,0,0,0,.08-.722c0-.241.08-.481.08-.722a7.339,7.339,0,0,1,.08-1.364,5.3,5.3,0,0,0,.08-1.123,3.905,3.905,0,0,0-.08-.963c-.08-.241,0-.481-.08-.722-.08-.4-.321-.8-.4-1.2a1.982,1.982,0,0,0-.321-.722c-.241-.4-.562-.882-1.043-.882A.607.607,0,0,1,241.539,5.251Z" transform="translate(-40.274 -0.093)"/><path class="a" d="M283.87,18.555a4.45,4.45,0,0,0,.642-.481l.08-.08h.08a.079.079,0,0,0,.08-.08l.08-.08.08-.08.241-.241.08-.08a.28.28,0,0,0,.08-.16,561.3,561.3,0,0,0,.16-.16l.08-.08a.079.079,0,0,1,.08-.08l.08-.08v-.241h0a.079.079,0,0,0-.08.08l-.08.08-.08.08c-.08.08-.16.16-.16.241l-.16.16-.241.241-.08.08v.08h0l-.08.08c-.08.08-.16.08-.16.16-.16.08-.241.16-.4.241a8.75,8.75,0,0,1-.882.481,3.913,3.913,0,0,1-1.925.321,4.947,4.947,0,0,1-3.048-1.284c-1.925-1.685-2.567-4.412-2.808-6.9a14.614,14.614,0,0,1,.642-5.615c.16-.481.321-.882.481-1.364,0-.08.08-.16.08-.321v-.08a.441.441,0,0,1,.241-.4l.241-.241a.3.3,0,0,0,.08-.241,3.486,3.486,0,0,1,.321-.562l.08-.08c.08-.08.08-.08.08-.16.08-.16.16-.241.241-.4.08-.08.08-.16.16-.241a.3.3,0,0,1,.241-.08c.08,0,.16-.08.321-.08h.321c0-.08,0-.08.08-.16a.28.28,0,0,1,.16-.08,1.487,1.487,0,0,1,.562-.16.417.417,0,0,1,.321.16.8.8,0,0,0,.4.321c.16.08.241.241.4.321a3.3,3.3,0,0,1,.882,1.925c0,.16.08.4.08.562v.16c0,.08.08.16.16.241a.079.079,0,0,0,.08.08h.16V3.634c0-.08-.08-.16-.08-.241V2.751a1.14,1.14,0,0,0-.16-.481c-.08-.241-.16-.4-.241-.642-1.043-2.246-3.61-2.407-5.455-1.043a9.328,9.328,0,0,0-1.444,1.6c-.321.4-.722.722-1.043,1.2s-.241,1.123-.481,1.6a1.888,1.888,0,0,0-.16.642,1.487,1.487,0,0,1-.16.562c-.08.16-.16.241-.16.4a9.855,9.855,0,0,0-.16,2.166V11.5a3.364,3.364,0,0,0,.321,1.284,1.159,1.159,0,0,1,.16.562v.4c.08.4.4.481.562.8.241.481.722.963.963,1.444a2.881,2.881,0,0,0,.562.8,1.108,1.108,0,0,0,.241.321,5.836,5.836,0,0,0,.722.642c.16.16.16.08.241.16s.16.08.321.16a2.127,2.127,0,0,0,.481.4,1.017,1.017,0,0,0,.481.08,6.794,6.794,0,0,0,1.364.321,7.8,7.8,0,0,0,2.727.08A2.652,2.652,0,0,0,283.87,18.555Z" transform="translate(-53.967)"/><path class="a" d="M297.305,19.353a3.4,3.4,0,0,0,.562-.4l.08-.08h.08l.08-.08.08-.08.08-.08.241-.241a.079.079,0,0,1,.08-.08l.08-.08v-.16l.08-.08a.079.079,0,0,1,.08-.08v-.321h0l-.08.08v.08a.079.079,0,0,1-.08.08c-.08.08-.08.16-.16.16l-.16.16c-.08.08-.16.08-.16.16v.16h-.08l-.16.16c-.08.08-.241.16-.321.241a3.252,3.252,0,0,1-.722.4,3.592,3.592,0,0,1-1.6.321,4.87,4.87,0,0,1-2.567-1.043,8.755,8.755,0,0,1-2.407-5.856,13.867,13.867,0,0,1,.481-4.813c.16-.4.241-.8.4-1.2,0-.08.08-.16.08-.241v-.08c0-.16.08-.241.16-.4.08-.08.16-.08.241-.241a.28.28,0,0,1,.08-.16,1.678,1.678,0,0,1,.321-.481h0l.08-.08c.08-.08.16-.241.241-.321s.08-.16.16-.16a.3.3,0,0,1,.241-.08c.08,0,.16-.08.241-.08h.241c0-.08,0-.08.08-.08a.28.28,0,0,1,.16-.08,1.14,1.14,0,0,1,.481-.16c.08,0,.16.08.241.16s.241.16.321.241a.626.626,0,0,1,.321.321,3.229,3.229,0,0,1,.722,1.6c0,.16.08.321.08.481V7c0,.08.08.16.08.241a.079.079,0,0,0,.08.08h.16V5.956a3.474,3.474,0,0,0-.08-.4c-.08-.16-.08-.4-.16-.562a2.94,2.94,0,0,0-4.653-.882,4.911,4.911,0,0,0-1.2,1.364c-.241.4-.642.642-.882,1.043a8.764,8.764,0,0,0-.4,1.364c-.08.16-.08.4-.16.562a.86.86,0,0,1-.16.481,2.061,2.061,0,0,0-.16.4,13.16,13.16,0,0,0-.16,1.845v2.407a2.975,2.975,0,0,0,.321,1.123,1.14,1.14,0,0,1,.16.481V15.5c.08.321.321.4.481.722a6.639,6.639,0,0,0,.882,1.2l.481.722c.08.08.08.16.16.321.16.241.4.321.562.562a.617.617,0,0,0,.241.16c.08,0,.16.08.241.16.16.08.241.241.4.321a.6.6,0,0,0,.4.08,5.909,5.909,0,0,0,1.123.321,7.635,7.635,0,0,0,2.326.08C296.263,19.915,296.744,19.674,297.305,19.353Z" transform="translate(-56.974 -0.718)"/><path class="a" d="M178.313,19.749c0-.08.08-.08.08-.16l.481-.722c.08-.16.241-.321.08-.562-.16.08-.4.321-.562.4a.8.8,0,0,0-.321.4.626.626,0,0,1-.321.321,1.749,1.749,0,0,0-.321.4c-.16.16-.321.4-.481.481a2.181,2.181,0,0,1-.722,0,.682.682,0,0,0-.4.241.3.3,0,0,1-.241.08h-.16c-.241,0-.562.08-.8.08s-.4.08-.642.08a7.777,7.777,0,0,1-3.931-1.2,4.23,4.23,0,0,1-1.2-.882c-.241-.241-.481-.722-.8-.882-.08-.481.321-.321.562-.642a3.4,3.4,0,0,1,.562-.4c.08-.08.16-.08.321-.08.16-.08.241-.16.4-.241.08,0,.08,0,.16-.08s0-.08.08-.16a.256.256,0,0,1,.241-.241l.241-.241c.08-.08.08-.16.16-.241s.16-.08.16-.241v-.241c0-.08.08-.16.08-.241,0-.16.08-.321.08-.481a4.372,4.372,0,0,0-.08-1.765c-.16-.321-.562-.963-.882-1.043-.321-.16-.963.08-1.284.08a4.068,4.068,0,0,0-3.048,2.407,9.827,9.827,0,0,0-.16,1.524,3.2,3.2,0,0,1-.4,1.765c-.241.16-1.284.08-1.364.321,0,.16-.241.481,0,.562a1.487,1.487,0,0,0,.562.16.3.3,0,0,0,.241-.08,2.287,2.287,0,0,1,1.284-.16c.241.08.241.481.4.642a9.108,9.108,0,0,0,1.845,1.2c.562.241,1.123.562,1.765.8a11.042,11.042,0,0,0,2.727.963c.4.08.882.08,1.284.16a7.341,7.341,0,0,0,1.284-.08,3.448,3.448,0,0,0,.963-.16c.16-.08.241-.16.4-.16a5.112,5.112,0,0,1,.562-.16c.241-.08.4-.321.562-.481.16-.241.4-.4.562-.642.08-.08.16-.241.241-.321C178.233,19.909,178.313,19.829,178.313,19.749Zm-10.83-3.209c-.241-.08-.321-.241-.321-.642a5.458,5.458,0,0,1,.16-1.6c.08-.16.08-.321.16-.4.08-.16.08-.321.16-.4h0c.321-.481,1.123-1.043,1.685-.722.642.321.562,1.2.562,1.845a2.11,2.11,0,0,1-2.005,2.086C167.644,16.54,167.564,16.54,167.484,16.54Z" transform="translate(-32.4 -2.318)"/><path class="a" d="M71.765,20.851c.08.08.16.16.241.16s.08.08.16.08a.079.079,0,0,0,.08.08.482.482,0,0,0,.321.08.613.613,0,0,1,.4.16c.241.16.562.08.8.16a1.14,1.14,0,0,0,.481.16h.16a1.487,1.487,0,0,0,.562.16c.16,0,.4-.08.562,0h.481a8.392,8.392,0,0,0,1.364-.321c.08,0,.16-.08.241-.08a7.548,7.548,0,0,0,1.765-.963c.16-.08.241-.321.481-.4.08-.08.241-.08.4-.16.08-.08.08-.08.16-.08s.08-.08.16-.08c.08-.08.16-.08.241-.16l.241-.241c.16-.08.241-.241.4-.4h0a.079.079,0,0,0,.08-.08l.08-.08c0-.08,0-.08.08-.16,0-.08.08-.08.08-.16.08-.08.08-.16.16-.241,0-.08.08-.16.08-.241l.241-.241a.28.28,0,0,0,.08-.16c0-.08.08-.08.08-.16.08-.08.08-.16.16-.16.08-.08.08-.16.16-.241s.08-.16.16-.16l.08-.08v-.08c0-.08,0-.16-.08-.08a.079.079,0,0,0-.08.08L82.595,17a.8.8,0,0,1-.4.321.28.28,0,0,0-.16.08l-.08.08-.08.08-.08.08c-.08.08-.16.16-.16.241a1.107,1.107,0,0,1-.321.241l-.08.08h-.08v.08l-.08.08-.16.16c-.08.08-.08.16-.16.241a4.017,4.017,0,0,1-.642.562,5.983,5.983,0,0,1-.963.562,9.561,9.561,0,0,1-1.6.642c-.241.08-.562.16-.8.241a1.888,1.888,0,0,1-.642.16h-.481a1.564,1.564,0,0,1-.642-.08.723.723,0,0,0-.4-.08c-.16,0-.241.08-.4,0-.16,0-.241-.16-.4-.241-.4-.16-.882,0-1.123-.4a1.678,1.678,0,0,0-.321-.481c-.08-.08-.241-.16-.321-.241s-.16-.241-.241-.321c-.08-.16-.16-.241-.241-.4V18.6l-.08-.08a.482.482,0,0,1-.08-.321c0-.08-.08-.16-.08-.241-.08-.16,0-.321-.08-.481,0-.16-.08-.321-.08-.562,0-.16-.08-.321.08-.4.08-.08.08-.08.16,0l.481.241a1.487,1.487,0,0,0,.562.16,3.233,3.233,0,0,0,2.407-.481,2.769,2.769,0,0,0,.963-3.449c-.8-1.6-3.048-1.444-4.492-.8a8.813,8.813,0,0,0-1.123.722c-1.364,1.043-1.524,2.888-1.284,4.412a5.324,5.324,0,0,0,.481,1.6c.08.08.08.16.16.241a.079.079,0,0,1,.08.08c.08.08.08.16.16.16l.241.241c.08.08.08.08.16.08s.08.08.16.08c.08.08.241.08.241.16a.3.3,0,0,1,.08.241c.08.08.08.16.16.16h.241A3.6,3.6,0,0,1,71.765,20.851Zm.882-8.022c.642-.642,1.925-.16,2.407.481a2.046,2.046,0,0,1,0,2.487,1.953,1.953,0,0,1-1.123.8,1.888,1.888,0,0,1-.642.16,1.365,1.365,0,0,1-.562-.08l-.08-.08h-.16c-.08,0-.08-.08-.16-.08h-.16c-.722-.16-.8-.722-.882-1.284a1.036,1.036,0,0,1,.321-1.123" transform="translate(-13.612 -2.376)"/><path class="a" d="M93.176,15.254c-.562-.722-1.2-1.364-1.765-2.166-.16-.16-.241-.321-.4-.481l-.16-.16c-.08,0-.08,0-.16-.08s-.08-.321-.08-.481v-.8a1.14,1.14,0,0,0-.16-.481.44.44,0,0,0-.481-.321c-.16,0-.4-.08-.562-.08-.241,0-.642.241-.642.562V11a2.874,2.874,0,0,1-.321.882c0,.08-.08.16-.08.241s-.08.241-.08.321a2.48,2.48,0,0,0-.16.642c-.08.16-.08.321-.16.481s-.08.4-.16.562-.16.4-.241.562-.16.16-.16.321h.241c.08,0,.16-.16.16-.241.16-.241.241-.562.4-.8.08-.16.08-.321.241-.4a.682.682,0,0,1,.4-.241c.16,0,.241.16.321.241a1.678,1.678,0,0,1,.321.481c.08.08.08.241.241.4.08.08.16.08.241.16a1.754,1.754,0,0,1,.241.4c.08.16.241.241.321.321l.481.481a6.639,6.639,0,0,1,.882,1.2,7.617,7.617,0,0,1,.722,2.727c0,.241,0,.321-.16.481-.08.08-.16.16-.16.241-.08.08-.16.241-.241.321-.321.241-.8.16-1.2.241a.659.659,0,0,1-.562.08c-.241,0-.4-.08-.562,0-.241,0-.321-.08-.562-.08s-.481-.16-.642-.08c-.08.241-.08.16.08.321.16.08.4.08.642.16a4.9,4.9,0,0,0,1.043.241,3.593,3.593,0,0,0,1.845,0A9.229,9.229,0,0,0,93.5,21.19a2.714,2.714,0,0,0,1.284-2.166A8.3,8.3,0,0,0,93.176,15.254Z" transform="translate(-17.294 -2.074)"/><path class="a" d="M110.968,19.641h-.16a1.017,1.017,0,0,0-.481.08.079.079,0,0,0-.08.08c-.16.16-.4.321-.562.481-.08.08-.16.16-.241.16a2.221,2.221,0,0,1-.722.08,6.683,6.683,0,0,0-1.2.321,4.836,4.836,0,0,1-1.845.08c-2.005-.241-3.129-1.925-3.449-3.77,0-.16.16-.241.241-.16,2.086,1.043,4.813-.722,4.412-3.048v-.08a2.053,2.053,0,0,0-1.6-1.685,6.9,6.9,0,0,0-1.284-.08,3.437,3.437,0,0,0-1.284.4.28.28,0,0,0-.16.08c-.16.08-.4.16-.481.321l-.241.241c-.08.08-.08.16-.16.241h-.08a.28.28,0,0,0-.08.16c-.08.08-.16.16-.241.16a1.108,1.108,0,0,0-.241.321,1.107,1.107,0,0,1-.321.241c-.08.08-.08.16-.16.241,0,.08-.08.08-.16.16a.3.3,0,0,0-.08.241c-.08.08-.08.16-.16.241a1.14,1.14,0,0,0-.16.481v.4a3.606,3.606,0,0,0,.08,1.845,2.471,2.471,0,0,0,.4.963l.241.241c.08.16.08.321.321.4l.481.241c.08.08.16.08.321.16a1.678,1.678,0,0,1,.481.321c.16.08.08.16.16.321.241,0,.241.241.4.4.08.16.241.241.321.321.321.241.4.642.722.722a.723.723,0,0,0,.4.08,1.566,1.566,0,0,1,.562.08h.562c.16,0,.321.08.481.08a3.058,3.058,0,0,0,1.2-.08,2.342,2.342,0,0,0,.722-.16,7.915,7.915,0,0,0,2.487-1.2c.16-.16.321-.241.481-.4.08-.08.16-.16.241-.16a.173.173,0,0,0,.16-.16c-.241-.241-.241-.321-.241-.4Zm-8.9-4.332a.723.723,0,0,1,.08-.4c.08-.08.08-.16.16-.321l.241-.241a.613.613,0,0,0,.16-.4c0-.08.08-.16.16-.241s.08-.08.08-.16v-.16a2.011,2.011,0,0,1,.321-.562.847.847,0,0,1,.4-.16h.642c.16,0,.4-.08.481,0a2.073,2.073,0,0,1,.882,2.968,2.978,2.978,0,0,1-3.53.963c-.08,0-.08-.08-.08-.16A5.241,5.241,0,0,0,102.064,15.309Z" transform="translate(-19.765 -2.45)"/><path class="a" d="M144.739,7.936h-.08c-.08,0-.16.08-.321.08h-1.6a3.291,3.291,0,0,1-.882-.08H137.76c-.16,0-.241.08-.4.08a1.994,1.994,0,0,1-.642.08h-1.043c-.08,0-.16.08-.241.08H134.07c-.16,0-.4.08-.4-.16V5.931c0-.08-.08-.241-.08-.321a1.017,1.017,0,0,1-.08-.481v-1.2a3.474,3.474,0,0,0,.08-.4v-.8a.6.6,0,0,0-.08-.4c0-.08-.08-.16-.08-.241-.08-.08-.08-.08-.16-.08h-.562c-.16,0-.241.321-.241.4s-.08.16-.08.241-.08.16-.08.241c0,.16-.08.241-.08.4a.3.3,0,0,1-.08.241c0,.08-.08.16-.08.241a.606.606,0,0,1-.08.321c-.08.16,0,.241-.08.4a1.017,1.017,0,0,0-.08.481c-.08.241,0,.562-.08.882v.722c0,.08,0,.16-.08.16v.481a1.548,1.548,0,0,1-.241.8c-.241.321-1.444.16-1.925.16h-2.086c-.481,0-1.685-.241-1.765.4-.08.8,1.284.562,1.765.562h.481c.08,0,.241-.08.321,0H129.9l.481.241c.16.08.321,0,.562.08.16,0,.4.08.562.08h.16V10.5a28.315,28.315,0,0,0,0,3.69c0,.4.241.882.16,1.284,0,.321-.481.882-.722,1.2a5.7,5.7,0,0,1-1.2,1.2,5.891,5.891,0,0,1-3.209,1.444,4.493,4.493,0,0,1-4.412-2.407,10.5,10.5,0,0,1-.722-2.246,20.049,20.049,0,0,0-.4-2.326,1.878,1.878,0,0,0-1.364-1.2l-1.444-.481c-.4-.16-.963-.562-1.444-.481a.848.848,0,0,0-.481.562c0,.08-.08.16-.16.241l-.08.08a.3.3,0,0,0-.08.241c-.08.16,0,.321,0,.562a.764.764,0,0,1-.16.562c-.16.241,0,.562-.08.8v.16c0,.08-.08.16-.08.241v.4c0,.16-.08.321-.08.481v.321a.079.079,0,0,0,.08.08.3.3,0,0,0,.241-.08l.241-.241c.08-.08,0-.321,0-.4v-.8a1.511,1.511,0,0,0,.16-.642v-.321a.079.079,0,0,1,.08-.08c.08-.08.08-.16.16-.16a.079.079,0,0,1,.08-.08,1.078,1.078,0,0,1,.722.16c.08.08.16.08.241.16s.16.08.241.16a.079.079,0,0,1,.08.08c.08.08.16,0,.321.08.16,0,.241,0,.321.08.08,0,.16.08.241.08a.28.28,0,0,1,.08.16c.08.08.08.16.16.241s.08.16.16.16l.321.321a.8.8,0,0,1,.321.4c0,.08.08.241.08.321v.562c0,.08.08.241.08.321v.642c0,.16.08.241.08.4v.321a.482.482,0,0,0,.08.321c.08.16.08.241.16.4a2.833,2.833,0,0,0,1.845,1.6,7.61,7.61,0,0,0,2.968.963,7.769,7.769,0,0,0,5.054-1.765,4.45,4.45,0,0,0,1.364-1.845c.16-.4.4.16.481.241.241.321.642.4.882.722a8.136,8.136,0,0,1,.722,1.043,6.844,6.844,0,0,0,2.005,1.043,5.588,5.588,0,0,0,2.808.4,5.387,5.387,0,0,0,3.61-1.284,7.991,7.991,0,0,0,.882-.8c.16-.16.321-.4,0-.4-.241-.08-.562.16-.722.321a4.5,4.5,0,0,1-1.444,1.284,5.162,5.162,0,0,1-2.727.4,5.288,5.288,0,0,1-4.091-2.567,6.656,6.656,0,0,1-.562-3.048V9.38a.3.3,0,0,1,.241-.08H136c.08,0,.16-.08.241-.08.08-.08.16-.08.321-.08a1.888,1.888,0,0,1,.642-.16c.321-.08.722-.16,1.043-.241h2.166c.241,0,.481-.16.722,0,.08,0,.241.08.321.08a1.017,1.017,0,0,1,.481.08c.16.08.4,0,.562,0h1.2a3.251,3.251,0,0,1,.882,0c.241,0,.4.08.642-.08.08-.08.16-.08.321-.16.08,0,.16,0,.16-.08.08-.08.16-.08.16-.16V8.177c0-.08,0-.08-.08-.08a.079.079,0,0,0-.08-.08h-.963C144.82,7.936,144.739,7.936,144.739,7.936Z" transform="translate(-22.892 -0.452)"/><path class="a" d="M58.679,11.512a4.729,4.729,0,0,0-1.2-2.647,20.172,20.172,0,0,0-6.418-5.776A16.117,16.117,0,0,0,44.881.763a8.632,8.632,0,0,0-3.209,0A5.887,5.887,0,0,0,38.3,2.447c-.321.321-.8.562-.963.963-.241.642.08,1.444,0,2.166a45.587,45.587,0,0,0-.241,4.733,15.666,15.666,0,0,0,.241,2.727,16.151,16.151,0,0,1,.16,3.931,16.728,16.728,0,0,0,0,2.005c.08.321.321,1.123.8.642.321-.321.16-1.043.08-1.444a14.2,14.2,0,0,1-.08-1.845,36.364,36.364,0,0,0-.241-4.171,16.768,16.768,0,0,1-.16-5.294,8.716,8.716,0,0,1,1.043-2.727c.08-.16.16-.321.321-.321.481-.08.963,0,1.444-.08.321-.08.722-.16,1.043-.241.241-.08.4-.08.642-.16a1.566,1.566,0,0,0,.562-.08,4.027,4.027,0,0,1,.963-.16h1.444a3.412,3.412,0,0,1,.882.16,4.231,4.231,0,0,1,.963.241l1.2.481c.16.08.4.08.562.16s.4.241.562.321c.321.16.642.321,1.043.562a3.488,3.488,0,0,0,.562.321l.4.4c.16.16.4.321.481.562.08.08.08.16.16.241s.16,0,.241,0,.16.241.16.321c.16.241.4.321.562.481a.617.617,0,0,1,.16.241c.08.16.241.321.321.481.08.08.08.16.16.241s.08.241.16.4.241.16.321.321a1.408,1.408,0,0,0,.321.4c.321.241.241.562.481.882a.589.589,0,0,1,.16.481c0,.16.16.241.241.4s.16.481.241.642a2.85,2.85,0,0,0,.321.722,4.031,4.031,0,0,1,.481,1.925,4.676,4.676,0,0,1-.481,2.326c-.241.481-.882.642-1.284.963a7.628,7.628,0,0,1-1.6,1.2,9.327,9.327,0,0,0-1.444.321,8.248,8.248,0,0,1-3.931.562c-1.364-.16-2.567.321-3.931.4-.8.08-1.123.4-.16.562a13,13,0,0,0,1.765-.08c1.043,0,1.925-.16,2.888-.241.963-.16,1.765,0,2.647-.241a11.073,11.073,0,0,1,1.6-.241,6.385,6.385,0,0,0,1.6-.562,16.5,16.5,0,0,0,3.53-1.845C59.481,16.084,58.92,13.116,58.679,11.512Z" transform="translate(-7.344 -0.177)"/><path class="a" d="M69.5,8.654a1.975,1.975,0,0,0,.963-.08c.16-.08.16-.16.241-.16.08-.08.16,0,.241,0,.16,0,.16-.16.241-.241.16-.16.4-.16.562-.241a1.75,1.75,0,0,0,.4-.321.682.682,0,0,1,.4-.241h.16c.16-.08.241-.16.4-.241.08-.08.16,0,.16-.08l.08-.08a1.754,1.754,0,0,0,.4-.241c.241-.16.4-.4.562-.4.16-.08.241-.08.4-.16a1.023,1.023,0,0,0,.481-.321,1.678,1.678,0,0,1,.481-.321,1.754,1.754,0,0,0,.241-.4c.08-.08.08-.241.16-.321V4.4a.665.665,0,0,0-.241-.642,5.112,5.112,0,0,0-.562-.16h-.321c-.16,0-.241.16-.4.321a1.678,1.678,0,0,0-.321.481c-.16.08-.241.241-.321.321,0,.08-.08.08-.16.16a.079.079,0,0,1-.08.08.173.173,0,0,1-.16.16c-.08.08-.08.16-.08.321-.08.16-.241.241-.321.4,0,.08-.08.241-.16.241l-.241.241a3.705,3.705,0,0,0-.562.562,2.881,2.881,0,0,1-.8.562c-.16.08-.321.241-.481.321,0,.16-.08.16-.08.16a.617.617,0,0,1-.241.16C70.3,8.253,69.821,8.413,69.5,8.654Z" transform="translate(-13.753 -0.768)"/></g></svg>