<svg xmlns="http://www.w3.org/2000/svg" viewBox="5014.583 12.794 152.453 45.206"><defs><style>.a{fill:#fff;}</style></defs><g transform="translate(5014.61 -10.592)"><g transform="translate(-0.028 23.386)"><path class="a" d="M6.172,42.472a9.766,9.766,0,0,0,3.459-.906c.412-.165.906-.082,1.318-.412a1.723,1.723,0,0,1,.494-.329c.082-.082.165-.082.247-.165s.165-.082.247-.165a.629.629,0,0,1,.412-.165c.165,0,.329.247.412.329.082.165.329.329.494.494.082.082.082.165.165.165a.5.5,0,0,0,.329.082.624.624,0,0,1,.329.165c.165.165.247.329.494.412s.412.247.659.329c.082,0,.082,0,.165.082l.082.082a1.044,1.044,0,0,0,.494.082H16.3c.082,0,.247.082.329.082a2.028,2.028,0,0,0,.988-.082h1.318a.428.428,0,0,0,.329-.165,1.045,1.045,0,0,1,.494-.082h.412a1.171,1.171,0,0,0,.494-.165c.165-.082.247-.082.412-.165a4.887,4.887,0,0,0,.659-.329l.741-.494c.165-.082.247-.165.412-.247.082-.082.165-.165.165-.247,0-.165,0-.247-.165-.329h-.247a.3.3,0,0,0-.247.082l-.165.165a.624.624,0,0,1-.329.165.624.624,0,0,1-.329.165l-.494.247a2.576,2.576,0,0,1-.824.412c-.082,0-.247.082-.329.082a3.567,3.567,0,0,0-.412.082,5.446,5.446,0,0,0-.906-.082h-1.73a4.344,4.344,0,0,1-.988-.247c-.082-.082-.247-.165-.329-.247-.165-.165-.329-.247-.412-.412A8.878,8.878,0,0,1,13.42,37.2c.165-.082.329,0,.494,0,.165.082.247.165.329.165h.412a.3.3,0,0,1,.247.082c.082,0,.165.082.247.082h.494a.081.081,0,0,0,.082-.082h.082c.082,0,.165-.082.247-.082.165-.082.412-.329.577-.412h.247a.624.624,0,0,0,.329-.165,2.277,2.277,0,0,0,.906-1.071,2.759,2.759,0,0,0-.412-2.965,3.713,3.713,0,0,0-3.459-.494,4.308,4.308,0,0,0-2.635,2.306,4.57,4.57,0,0,0-.494,1.812,4.136,4.136,0,0,0,.165,1.73c0,.082.082.165.082.247a2.239,2.239,0,0,1,0,.741c0,.165,0,.247-.082.329-.165.165-.412.247-.577.412a.822.822,0,0,0-.412.329c-.082.165-.082.247-.165.412a2.937,2.937,0,0,1-.906.824,3.7,3.7,0,0,1-1.482.577,6.676,6.676,0,0,1-3.13-.082c-2.965-.577-2.224-4.859-2.224-7.083a40.243,40.243,0,0,1,.247-4.447,5.574,5.574,0,0,0-.412-3.294,1.8,1.8,0,0,0-.247-.412c-.165-.165-.329-.247-.494-.412A1.38,1.38,0,0,0,.572,26H.407c-.247.082-.329.741-.329.906s0,.247-.082.329c-.082.329.082.659.082.988,0,.412.082.741.082,1.153,0,2.965,0,5.93.247,8.895C.654,41.4,3.372,42.472,6.172,42.472Zm9.471-9.8h.082a2.024,2.024,0,0,1,1.4,3.294,2.456,2.456,0,0,1-1.977.988,4.664,4.664,0,0,1-1.482-.247c-.165-.082-.412-.165-.412-.412V35.142a.624.624,0,0,1,.165-.329c0-.082.082-.247.082-.329s0-.082.082-.165a.3.3,0,0,1,.082-.247c.082-.247.165-.494.412-.577a.3.3,0,0,1,.247-.082c.082,0,.082-.082.165-.165a1.8,1.8,0,0,1,.412-.329C15.067,32.753,15.4,32.753,15.643,32.671Z" transform="translate(0.028 -21.973)"/><path class="a" d="M77.957,71.731H77.71a1.735,1.735,0,0,0-1.071.412,4.017,4.017,0,0,1-.577.247c-.165.082-.329,0-.577.082-.165,0-.247.082-.329.082h-.329a1.608,1.608,0,0,1-.577-.082c-.082,0-.247-.082-.329-.082-.165,0-.247.082-.412,0l-.247-.247c0-.082-.165-.082-.247-.082s-.165-.082-.247-.165a1.8,1.8,0,0,1-.247-.412,1.132,1.132,0,0,0-.412-.659c-.247-.247-.494-.329-.659-.577a4.568,4.568,0,0,1-.494-.659,4.97,4.97,0,0,0-.659-.659,5.806,5.806,0,0,1-.577-.741l-.247-.494-.247-.247c-.082-.165-.247-.329-.329-.494a2.184,2.184,0,0,0-.412-.494c-.165-.165-.329-.412-.494-.577a2.2,2.2,0,0,0-1.153-.577,2.644,2.644,0,0,0-1.4.165c-.165.082-.247.247-.494.247a.623.623,0,0,0-.329.082c-.082.082-.247.165-.329.247a3.581,3.581,0,0,1-.577.494l-.494.494c-.082.082-.165.247-.329.329a.288.288,0,0,0-.082.165c-.082.165-.247.247-.329.412-.082.082-.165.329-.247.412h-.082c-.082.082-.082.165-.165.247-.082.165-.165.165-.247.247a1.8,1.8,0,0,0-.329.412v.082l-.082.082c-.165.082-.247.329-.329.412l-.412.412c-.082.082-.247.329-.329.329-.165.082-.247-.329-.247-.494-.165-.741-.247-1.482-.412-2.224a10.53,10.53,0,0,0-1.153-3.541,2.429,2.429,0,0,0-1.071-1.153,3.628,3.628,0,0,0-2.471.165,8.23,8.23,0,0,0-1.153.659c-.082.082-.165.082-.165.165-.247.329,0,.659.329.412.329-.165.577-.494.906-.577.412-.082.988-.082,1.235.247a2.96,2.96,0,0,1,.659,1.482c.165.659.659,1.235.824,1.812.165.494.165.988.329,1.4a20.847,20.847,0,0,0,.988,1.894c.247.494.247,1.482.659,1.894,1.153,1.071,2.471-1.647,3.047-2.306.659-.741,1.153-1.647,1.812-2.471A2.056,2.056,0,0,1,67,67.449c.412.247.577.741.906,1.071a8.2,8.2,0,0,1,1.153,1.235,8.817,8.817,0,0,0,1.153,1.318c.329.329.988.659,1.153,1.071s2.388,1.235,2.883,1.235h.165a7.424,7.424,0,0,0,2.635-.741,1.709,1.709,0,0,0,.824-.494.518.518,0,0,0,0-.494Z" transform="translate(-9.411 -28.502)"/><path class="a" d="M131.882,73.5v-.082H131.8c-.329,0-.577.082-.906.082a5.384,5.384,0,0,1-2.883-1.071c-1.73-1.235-1.812-2.965-2.059-4.859-.082-.576-.412-.988-.494-1.482-1.235-.412-1.73,1.071-1.565,2.059a4.32,4.32,0,0,1,.165,1.482c-.082.412.082.577.329.906a1.137,1.137,0,0,0,.247.329c.082.165.247.329.329.494.082.247.247.329.412.577l.247.247c.082.082.165.082.247.165.165.165.329.412.494.577a2.427,2.427,0,0,0,1.071.412c.165.082.412.082.577.247a4.139,4.139,0,0,0,2.224.412h1.235a.177.177,0,0,0,.165-.165.288.288,0,0,0,.082-.165c0-.165.082-.082.165-.165Z" transform="translate(-21.828 -29.032)"/><path class="a" d="M177.563,71.776a4.364,4.364,0,0,1-3.788,0,4.433,4.433,0,0,1-.988-.741c-.082-.082-.082-.165-.165-.247a.624.624,0,0,1-.165-.329,1.477,1.477,0,0,0-.412-.576l-.082-.082-.082-.082-.247-.247c-.082-.082-.082-.247-.165-.329s-.247-.165-.329-.247c0,.082.412,0,.494,0H173.2a3.246,3.246,0,0,0,1.153-.412,2.954,2.954,0,0,0,1.318-3.953,2.21,2.21,0,0,0-2.388-1.235,5.062,5.062,0,0,0-2.718,1.565,5.551,5.551,0,0,0-1.482,4.859c.082.494.577.906.906,1.235a5.129,5.129,0,0,0,1.482,1.153,5.007,5.007,0,0,1,1.482.741c.082,0,.082.082.165.082h.659c.165,0,.247.082.412.082s.247.082.412.165h.165c.082,0,.165.082.329.082s.247.082.329.082a.743.743,0,0,0,.412-.082.3.3,0,0,0,.247-.082c.247-.082.329-.247.577-.329s.412-.082.659-.165a6.064,6.064,0,0,0,1.153-.329,4.438,4.438,0,0,0,1.071-.576,9.371,9.371,0,0,0,1.565-1.565,6.285,6.285,0,0,0,.659-.906c.082-.082.165-.165.165-.247v-.247c0-.082,0-.165.082-.165a.081.081,0,0,0,.082-.082c0-.082.082-.082.082-.165.165-.247,0-.494-.247-.247a15.825,15.825,0,0,1-1.071,1.4,8.814,8.814,0,0,1-1.318,1.153,5.7,5.7,0,0,1-1.565.824C177.728,71.694,177.646,71.694,177.563,71.776Zm-4.941-7.659c1.482-.988,2.965,1.318,2.306,2.8a2.753,2.753,0,0,1-1.565,1.482c-.659.247-2.306-.082-2.471-.824-.247-.906.741-2.471,1.318-3.13A.822.822,0,0,1,172.622,64.117Z" transform="translate(-29.789 -28.547)"/><path class="a" d="M105.051,56.886c-.082,0-.165.082-.247.165a1.477,1.477,0,0,0-.412.577c-.165.247-.082.494-.165.824a3.322,3.322,0,0,0,0,.906,5.317,5.317,0,0,0,.329,1.565c.082.329.247.659.329.988,0,.329.082.659.082.988a4.814,4.814,0,0,1-.165,1.565,5.514,5.514,0,0,0,0,1.647,5.869,5.869,0,0,1-.741,3.13,4.317,4.317,0,0,1-.824.906c-2.553,2.141-6.259.247-8.483-1.482-.165-.165-.412-.247-.577-.412-.247-.165-.494-.412-.741-.577-.165-.165-.412-.165-.577-.329-.082-.082-.165-.247-.329-.329-.082-.082-.165-.082-.247-.165,0,0,0-.247-.082-.247a2.741,2.741,0,0,0-.247-.494,5.988,5.988,0,0,0-.741-.659,2.22,2.22,0,0,0-.659-.577c-.247-.165-.329-.412-.577-.577-.329-.247-.659-.412-.988-.659-.906-.577-1.071-1.647-1.812-2.306a3.54,3.54,0,0,1-.741-.824,1.655,1.655,0,0,1-.329-.659,8.353,8.353,0,0,0-.741-1.071l-.741-.741A31.459,31.459,0,0,0,79.273,54c-1.153-.577-2.141-1.4-3.294-1.894a7.076,7.076,0,0,0-3.212-.412c-1.73-.082-5.024.247-6.095,1.812-.247.412-.988,1.4-.329,1.565,0-1.4,1.977-2.306,3.212-2.471a5.438,5.438,0,0,0,1.153-.082,1.221,1.221,0,0,1,.577-.082h1.647a3.969,3.969,0,0,1,.988,0,5.038,5.038,0,0,1,.988.412c.329.165.577.329.906.494.165.082.412.165.576.247l.494.247c.165.082.165.165.247.247a2.565,2.565,0,0,0,.741.577,1.8,1.8,0,0,1,.247.412l.247.247c.165.247.247.412.494.494a.643.643,0,0,1,.329.329c.082.165.082.329.165.494s.329.165.412.247a5.329,5.329,0,0,1,.659.741c.247.247.577.412.824.659.165.165.247.329.412.494l.165.165a1.327,1.327,0,0,0,.329.577,1.8,1.8,0,0,0,.329.412.992.992,0,0,0,.412.412,1.723,1.723,0,0,1,.494.329c.082.082.165.247.247.329a.081.081,0,0,1,.082.082c.082.082.082.247.165.329.082.247.247.412.329.659.165.247.494.329.741.494a1.982,1.982,0,0,1,.494.659,7.123,7.123,0,0,0,.576.824,2.618,2.618,0,0,0,.988.906.822.822,0,0,1,.329.412.992.992,0,0,0,.412.412c.824.659,1.565,1.318,2.388,1.977a10.49,10.49,0,0,0,1.565,1.071,16.547,16.547,0,0,0,6.342,2.388,8.862,8.862,0,0,0,3.294,0,5.235,5.235,0,0,0,1.482-.494,2.889,2.889,0,0,0,.659-.412.992.992,0,0,0,.412-.412.3.3,0,0,1,.082-.247c.082-.082.082-.165.165-.165a1.723,1.723,0,0,0,.494-.329A5.25,5.25,0,0,0,105.3,68c.082-.165.247-.247.412-.412l.247-.494a4.527,4.527,0,0,1,.577-.741,2.474,2.474,0,0,0,.494-.906,2.28,2.28,0,0,0,.082-.741c0-.247.082-.494.082-.741a7.535,7.535,0,0,1,.082-1.4,5.438,5.438,0,0,0,.082-1.153,4.01,4.01,0,0,0-.082-.988c-.082-.247,0-.494-.082-.741-.082-.412-.329-.824-.412-1.235a2.035,2.035,0,0,0-.329-.741c-.247-.412-.577-.906-1.071-.906A.622.622,0,0,1,105.051,56.886Z" transform="translate(-11.634 -26.505)"/><path class="a" d="M127.887,56.636c-.082-1.071-1.894-1.4-2.718-1.153-.412.165-.412.494-1.071.412-.082.494.412.741.576,1.235.577,0,.906.577,1.482.659C126.651,57.872,127.969,57.378,127.887,56.636Z" transform="translate(-21.868 -27.161)"/><path class="a" d="M147.548,70.557a4.567,4.567,0,0,0,.659-.494l.247-.247s.247-.329.082-.247a5.25,5.25,0,0,1-3.624,1.4,5.079,5.079,0,0,1-3.13-1.318c-1.977-1.73-2.635-4.53-2.883-7.083a15,15,0,0,1,.659-5.765c.165-.494.329-.906.494-1.4,0-.082.082-.165.082-.329v-.082a.453.453,0,0,1,.247-.412l.247-.247a.3.3,0,0,0,.082-.247,3.583,3.583,0,0,1,.329-.577l.082-.082c.082-.082.082-.082.082-.165.082-.165.165-.247.247-.412.082-.082.082-.165.165-.247a.3.3,0,0,1,.247-.082c.082,0,.165-.082.329-.082h.329c0-.082,0-.082.082-.165a.288.288,0,0,1,.165-.082,1.527,1.527,0,0,1,.577-.165.428.428,0,0,1,.329.165.822.822,0,0,0,.412.329c.165.082.247.247.412.329a3.39,3.39,0,0,1,.906,1.977c0,.165.082.412.082.577v.165c0,.082.082.165.165.247a.081.081,0,0,0,.082.082h.165v-.659c0-.082-.082-.165-.082-.247v-.659a1.171,1.171,0,0,0-.165-.494c-.082-.247-.165-.412-.247-.659-1.071-2.306-3.706-2.471-5.6-1.071a9.577,9.577,0,0,0-1.482,1.647c-.329.412-.741.741-1.071,1.235s-.247,1.153-.494,1.647a1.938,1.938,0,0,0-.165.659,1.528,1.528,0,0,1-.165.577c-.082.165-.165.247-.165.412a10.121,10.121,0,0,0-.165,2.224v2.8a3.453,3.453,0,0,0,.329,1.318,1.19,1.19,0,0,1,.165.577v.412c.082.412.412.494.577.824.247.494.741.988.988,1.482a2.957,2.957,0,0,0,.577.824,1.137,1.137,0,0,0,.247.329,5.989,5.989,0,0,0,.741.659c.165.165.165.082.247.165s.165.082.329.165a2.182,2.182,0,0,0,.494.412,1.044,1.044,0,0,0,.494.082,6.975,6.975,0,0,0,1.4.329,8.006,8.006,0,0,0,2.8.082A2.85,2.85,0,0,0,147.548,70.557Z" transform="translate(-23.987 -26.422)"/><path class="a" d="M163.078,70.519a4.566,4.566,0,0,0,.659-.494l.247-.247s.247-.329.082-.247a5.249,5.249,0,0,1-3.624,1.4,5.079,5.079,0,0,1-3.13-1.318c-1.977-1.73-2.635-4.53-2.883-7.083v-.494a17.384,17.384,0,0,1,.329-4.118,17.891,17.891,0,0,1,.577-1.977,1.171,1.171,0,0,0,.165-.494,1.39,1.39,0,0,0,.165-.412v-.329c0-.082.082-.165.082-.247v-.247c.082-.247.247-.329.412-.577a1.137,1.137,0,0,0,.247-.329c.082-.082.165-.247.247-.329.165-.165.247-.329.329-.412s.082-.165.247-.247a.617.617,0,0,1,.412-.082h1.647a3.161,3.161,0,0,1,1.482,2.059c0,.082.082.247.082.329v.082c0,.082.082.165.082.329v.247a.288.288,0,0,0,.082.165l.082.082v.165c0,.082,0,.082.082.082s.082,0,.082-.082v-.988a.287.287,0,0,0-.082-.165v-.082c0-.082,0-.082-.082-.082V54.13c0-.082-.082-.247-.082-.329-.082-.247-.165-.412-.247-.659a7.244,7.244,0,0,0-.494-.824c-.082-.082-.165-.247-.329-.329-.082-.082-.082-.165-.165-.165-.082-.082-.165-.082-.247-.165a1.327,1.327,0,0,0-.576-.329c-.082-.082-.247-.082-.329-.165-.165,0-.247-.082-.412-.165h-1.071c-.082,0-.165.082-.247.165a.3.3,0,0,0-.247.082c-.165.082-.247.165-.329.165-.247.165-.494.247-.741.412s-.412.329-.659.494a10.817,10.817,0,0,0-2.965,6.589,12.883,12.883,0,0,0-.165,2.471c0,.165.082.247.082.412.082.494-.082.988,0,1.482a1.23,1.23,0,0,0,.247.577c.082.247.165.577.247.824,0,.082.082.082.082.165V65a.081.081,0,0,0,.082.082,3.441,3.441,0,0,1,.329.824,2.741,2.741,0,0,0,.247.494c.082.082.247.082.247.165a1.171,1.171,0,0,1,.165.494,2.4,2.4,0,0,1,.165.741c0,.247.247.329.329.577.247.329.494.329.824.494a3.584,3.584,0,0,1,.494.577c.165.329.494.412.741.741.082.165.247.247.329.329a.9.9,0,0,0,.906.165c.329,0,.659.082,1.071.082a7.742,7.742,0,0,0,2.388,0A2.624,2.624,0,0,0,163.078,70.519Z" transform="translate(-26.752 -26.384)"/><path class="a" d="M51.954,71.424h-.329a.3.3,0,0,0-.082.247c0,.082-.082.165-.165.247s-.247.165-.329.247a.3.3,0,0,0-.247.082c-.082,0-.082.082-.165.082h-.165c-.082,0-.165.082-.329.082s-.247.082-.412.082-.247,0-.329.082h-.329c-.247,0-.412.082-.659.082s-.412.082-.659.082a7.985,7.985,0,0,1-4.036-1.235,4.343,4.343,0,0,1-1.235-.906c-.247-.247-.494-.741-.824-.906-.082-.494.329-.329.577-.659a3.485,3.485,0,0,1,.577-.412c.082-.082.165-.082.329-.082.165-.082.247-.165.412-.247.082,0,.082,0,.165-.082s0-.082.082-.165a.263.263,0,0,1,.247-.247l.247-.247c.082-.082.082-.165.165-.247s.165-.082.165-.247v-.247c0-.082.082-.165.082-.247,0-.165.082-.329.082-.494a4.489,4.489,0,0,0-.082-1.812c-.165-.329-.577-.988-.906-1.071-.329-.165-.988.082-1.318.082a4.177,4.177,0,0,0-3.13,2.471,10.091,10.091,0,0,0-.165,1.565,3.28,3.28,0,0,1-.412,1.812c-.247.165-1.318.082-1.4.329,0,.165-.247.494,0,.577a1.527,1.527,0,0,0,.577.165.3.3,0,0,0,.247-.082,2.348,2.348,0,0,1,1.318-.165c.247.082.247.494.412.659a9.352,9.352,0,0,0,1.894,1.235c1.812.824,3.541,1.894,5.6,1.894.165,0,.165,0,.247-.082.082,0,.247-.082.329-.082.165,0,.329-.082.494-.082.082,0,.165-.082.247-.082h.329c.082,0,.247-.082.329-.082.165,0,.329-.082.577-.082a2.926,2.926,0,0,0,.824-.165c.082,0,.082,0,.165-.082h.165c.082,0,.165-.082.247-.082.165-.082.329-.329.494-.494.082-.165.247-.247.329-.412C52.036,71.918,52.2,71.506,51.954,71.424ZM41.083,68.212c-.247-.082-.329-.247-.329-.659a5.6,5.6,0,0,1,.165-1.647c.082-.165.082-.329.165-.412.082-.165.082-.329.165-.412h0c.329-.494,1.153-1.071,1.73-.741.659.329.577,1.235.577,1.894a2.166,2.166,0,0,1-2.059,2.141C41.247,68.212,41.165,68.212,41.083,68.212Z" transform="translate(-6.551 -28.524)"/><path class="a" d="M70.844,41.594c.082.082.165.165.247.165s.082.082.165.082a.081.081,0,0,0,.082.082.5.5,0,0,0,.329.082.629.629,0,0,1,.412.165c.247.165.577.082.824.165a1.171,1.171,0,0,0,.494.165h.165a1.527,1.527,0,0,0,.577.165c.165,0,.412-.082.576,0h.494a8.615,8.615,0,0,0,1.4-.329c.082,0,.165-.082.247-.082a7.749,7.749,0,0,0,1.812-.988c.165-.082.247-.329.494-.412.082-.082.247-.082.412-.165.082-.082.082-.082.165-.082s.082-.082.165-.082c.082-.082.165-.082.247-.165l.247-.247c.165-.082.247-.247.412-.412h0a.081.081,0,0,0,.082-.082l.082-.082c0-.082,0-.082.082-.165,0-.082.082-.082.082-.165.082-.082.082-.165.165-.247,0-.082.082-.165.082-.247l.247-.247a.288.288,0,0,0,.082-.165c0-.082.082-.082.082-.165.082-.082.082-.165.165-.165.082-.082.082-.165.165-.247s.082-.165.165-.165l.082-.082v-.082c0-.082,0-.165-.082-.082a.081.081,0,0,0-.082.082l-.247.247a.822.822,0,0,1-.412.329.288.288,0,0,0-.165.082l-.082.082-.082.082-.082.082c-.082.082-.165.165-.165.247a1.137,1.137,0,0,1-.329.247l-.082.082H80.48v.082l-.082.082-.165.165c-.082.082-.082.165-.165.247a4.125,4.125,0,0,1-.659.577,6.142,6.142,0,0,1-.988.577,9.816,9.816,0,0,1-1.647.659c-.247.082-.576.165-.824.247a1.938,1.938,0,0,1-.659.165H74.8a1.606,1.606,0,0,1-.659-.082.742.742,0,0,0-.412-.082c-.165,0-.247.082-.412,0-.165,0-.247-.165-.412-.247-.412-.165-.906,0-1.153-.412a1.723,1.723,0,0,0-.329-.494c-.082-.082-.247-.165-.329-.247s-.165-.247-.247-.329c-.082-.165-.165-.247-.247-.412v-.082l-.082-.082a.5.5,0,0,1-.082-.329c0-.082-.082-.165-.082-.247-.082-.165,0-.329-.082-.494,0-.165-.082-.329-.082-.577,0-.165-.082-.329.082-.412.082-.082.082-.082.165,0l.494.247a1.527,1.527,0,0,0,.577.165,3.319,3.319,0,0,0,2.471-.494,2.842,2.842,0,0,0,.988-3.541c-.824-1.647-3.13-1.482-4.612-.824a9.046,9.046,0,0,0-1.153.741c-1.4,1.071-1.565,2.965-1.318,4.53a5.466,5.466,0,0,0,.494,1.647c.082.082.082.165.165.247a.081.081,0,0,1,.082.082c.082.082.082.165.165.165l.247.247c.082.082.082.082.165.082s.082.082.165.082c.082.082.247.082.247.165a.3.3,0,0,1,.082.247c.082.082.082.165.165.165H70.1A3.7,3.7,0,0,1,70.844,41.594Zm-.165-7c.082-.082.165-.247.329-.329a7.17,7.17,0,0,1,.741-.906c.659-.659,1.977-.165,2.471.494a2.1,2.1,0,0,1,0,2.553,2,2,0,0,1-1.153.824,1.552,1.552,0,0,1-.659.165,1.4,1.4,0,0,1-.577-.082l-.082-.082h-.165c-.082,0-.082-.082-.165-.082h-.165c-.741-.165-.824-.741-.906-1.318C70.186,35.087,70.35,34.84,70.68,34.593Z" transform="translate(-11.935 -23.072)"/><path class="a" d="M93.33,35.889c-.577-.741-1.235-1.4-1.812-2.224-.165-.165-.247-.329-.412-.494l-.165-.165c-.082,0-.082,0-.165-.082s-.082-.329-.082-.494v-.824a1.171,1.171,0,0,0-.165-.494.452.452,0,0,0-.494-.329c-.165,0-.412-.082-.577-.082-.247,0-.659.247-.659.577v.247a2.951,2.951,0,0,1-.329.906c0,.082-.082.165-.082.247s-.082.247-.082.329a2.546,2.546,0,0,0-.165.659c-.082.165-.082.329-.165.494s-.082.412-.165.577-.165.412-.247.577-.165.165-.165.329h.247c.082,0,.165-.165.165-.247.165-.247.247-.577.412-.824.082-.165.082-.329.247-.412a.7.7,0,0,1,.412-.247c.165,0,.247.165.329.247a1.723,1.723,0,0,1,.329.494c.082.082.082.247.247.412.082.082.165.082.247.165a1.8,1.8,0,0,1,.247.412c.082.165.247.247.329.329l.494.494a6.815,6.815,0,0,1,.906,1.235,7.821,7.821,0,0,1,.741,2.8c0,.247,0,.329-.165.494-.082.082-.165.165-.165.247-.082.082-.165.247-.247.329-.329.247-.824.165-1.235.247a.677.677,0,0,1-.577.082c-.247,0-.412-.082-.576,0-.247,0-.329-.082-.577-.082s-.494-.165-.659-.082c-.082.247-.082.165.082.329.165.082.412.082.659.165a5.029,5.029,0,0,0,1.071.247,3.689,3.689,0,0,0,1.894,0,9.475,9.475,0,0,0,1.4-.494,2.786,2.786,0,0,0,1.318-2.224A7.827,7.827,0,0,0,93.33,35.889Z" transform="translate(-15.396 -22.802)"/><path class="a" d="M112.464,40.242H112.3a1.045,1.045,0,0,0-.494.082.081.081,0,0,0-.082.082c-.165.165-.412.329-.576.494-.082.082-.165.165-.247.165a2.281,2.281,0,0,1-.741.082,6.862,6.862,0,0,0-1.235.329,4.965,4.965,0,0,1-1.894.082c-2.059-.247-3.212-1.977-3.541-3.871,0-.165.165-.247.247-.165,2.141,1.071,4.942-.741,4.53-3.13v-.082a2.108,2.108,0,0,0-1.647-1.73A7.084,7.084,0,0,0,105.3,32.5a3.528,3.528,0,0,0-1.318.412.288.288,0,0,0-.165.082c-.165.082-.412.165-.494.329l-.247.247c-.082.082-.082.165-.165.247h-.082a.288.288,0,0,0-.082.165c-.082.082-.165.165-.247.165a1.137,1.137,0,0,0-.247.329,1.137,1.137,0,0,1-.329.247c-.082.082-.082.165-.165.247,0,.082-.082.082-.165.165a.3.3,0,0,0-.082.247c-.082.082-.082.165-.165.247a1.171,1.171,0,0,0-.165.494v.412a3.7,3.7,0,0,0,.082,1.894,2.536,2.536,0,0,0,.412.988l.247.247c.082.165.082.329.329.412l.494.247c.082.082.165.082.329.165a1.723,1.723,0,0,1,.494.329c.165.082.082.165.165.329.247,0,.247.247.412.412.082.165.247.247.329.329.329.247.412.659.741.741a.742.742,0,0,0,.412.082,1.608,1.608,0,0,1,.577.082h.577c.165,0,.329.082.494.082a3.14,3.14,0,0,0,1.235-.082,2.4,2.4,0,0,0,.741-.165,8.126,8.126,0,0,0,2.553-1.235c.165-.165.329-.247.494-.412.082-.082.165-.165.247-.165a.177.177,0,0,0,.165-.165c-.247-.247-.247-.329-.247-.412Zm-9.224-4.365a.742.742,0,0,1,.082-.412c.082-.082.082-.165.165-.329l.247-.247a.629.629,0,0,0,.165-.412c0-.082.082-.165.165-.247s.082-.082.082-.165V33.9a2.065,2.065,0,0,1,.329-.577.87.87,0,0,1,.412-.165h.659c.165,0,.412-.082.494,0a2.128,2.128,0,0,1,.906,3.047,3.058,3.058,0,0,1-3.624.988c-.082,0-.082-.082-.082-.165A2.713,2.713,0,0,0,103.24,35.877Z" transform="translate(-17.811 -23.12)"/><path class="a" d="M148.614,28.595h-.082c-.082,0-.165.082-.329.082h-1.647a3.378,3.378,0,0,1-.906-.082h-4.2c-.165,0-.247.082-.412.082a2.047,2.047,0,0,1-.659.082h-1.071c-.082,0-.165.082-.247.082h-1.4c-.165,0-.412.082-.412-.165V26.536c0-.082-.082-.247-.082-.329a1.044,1.044,0,0,1-.082-.494V24.477a3.567,3.567,0,0,0,.082-.412v-.824a.617.617,0,0,0-.082-.412c0-.082-.082-.165-.082-.247-.082-.082-.082-.082-.165-.082h-.577c-.165,0-.247.329-.247.412s-.082.165-.082.247-.082.165-.082.247c0,.165-.082.247-.082.412a.3.3,0,0,1-.082.247c0,.082-.082.165-.082.247a.623.623,0,0,1-.082.329c-.082.165,0,.247-.082.412a1.045,1.045,0,0,0-.082.494c-.082.247,0,.577-.082.906v.741c0,.082,0,.165-.082.165v.494a1.589,1.589,0,0,1-.247.824c-.247.329-1.482.165-1.977.165h-2.141c-.494,0-1.73-.247-1.812.412-.082.824,1.318.577,1.812.577h.494c.082,0,.247-.082.329,0h1.73l.494.247c.165.082.329,0,.577.082.165,0,.412.082.577.082h.165v.988a29.065,29.065,0,0,0,0,3.788c0,.412.247.906.165,1.318,0,.329-.494.906-.741,1.235a5.853,5.853,0,0,1-1.235,1.235,6.048,6.048,0,0,1-3.294,1.482,4.613,4.613,0,0,1-4.53-2.471,10.778,10.778,0,0,1-.741-2.306,20.588,20.588,0,0,0-.412-2.388,1.928,1.928,0,0,0-1.4-1.235l-1.482-.494c-.412-.165-.988-.577-1.482-.494a.871.871,0,0,0-.494.577c0,.082-.082.165-.165.247l-.082.082a.3.3,0,0,0-.082.247c-.082.165,0,.329,0,.577a.784.784,0,0,1-.165.577c-.165.247,0,.577-.082.824v.165c0,.082-.082.165-.082.247v.412c0,.165-.082.329-.082.494v.329a.081.081,0,0,0,.082.082.3.3,0,0,0,.247-.082l.247-.247c.082-.082,0-.329,0-.412v-.824a1.552,1.552,0,0,0,.165-.659v-.329a.081.081,0,0,1,.082-.082c.082-.082.082-.165.165-.165a.081.081,0,0,1,.082-.082,1.107,1.107,0,0,1,.741.165c.082.082.165.082.247.165s.165.082.247.165a.081.081,0,0,1,.082.082c.082.082.165,0,.329.082.165,0,.247,0,.329.082.082,0,.165.082.247.082a.288.288,0,0,1,.082.165c.082.082.082.165.165.247s.082.165.165.165l.329.329a.822.822,0,0,1,.329.412c0,.082.082.247.082.329v.577c0,.082.082.247.082.329v.659c0,.165.082.247.082.412v.329a.5.5,0,0,0,.082.329c.082.165.082.247.165.412a2.909,2.909,0,0,0,1.894,1.647,7.813,7.813,0,0,0,3.047.988,7.976,7.976,0,0,0,5.189-1.812,4.569,4.569,0,0,0,1.4-1.894c.165-.412.412.165.494.247.247.329.659.412.906.741a8.35,8.35,0,0,1,.741,1.071,7.027,7.027,0,0,0,2.059,1.071,5.737,5.737,0,0,0,2.883.412,5.531,5.531,0,0,0,3.706-1.318,8.2,8.2,0,0,0,.906-.824c.165-.165.329-.412,0-.412-.247-.082-.576.165-.741.329a4.615,4.615,0,0,1-1.482,1.318,5.3,5.3,0,0,1-2.8.412,5.429,5.429,0,0,1-4.2-2.635,6.833,6.833,0,0,1-.576-3.13v-4.53a.3.3,0,0,1,.247-.082h2.306c.082,0,.165-.082.247-.082.082-.082.165-.082.329-.082a1.939,1.939,0,0,1,.659-.165c.329-.082.741-.165,1.071-.247h2.224c.247,0,.494-.165.741,0,.082,0,.247.082.329.082a1.045,1.045,0,0,1,.494.082c.165.082.412,0,.577,0h1.235a3.337,3.337,0,0,1,.906,0c.247,0,.412.082.659-.082.082-.082.165-.082.329-.165.082,0,.165,0,.165-.082.082-.082.165-.082.165-.165v-.247c0-.082,0-.082-.082-.082a.081.081,0,0,0-.082-.082h-.988C148.7,28.595,148.614,28.595,148.614,28.595Z" transform="translate(-20.935 -21.356)"/><path class="a" d="M57.254,32.3a4.855,4.855,0,0,0-1.235-2.718,20.71,20.71,0,0,0-6.589-5.93,16.547,16.547,0,0,0-6.342-2.388,8.862,8.862,0,0,0-3.294,0A6.044,6.044,0,0,0,36.335,23c-.329.329-.824.577-.988.988-.247.659.082,1.482,0,2.224a46.8,46.8,0,0,0-.247,4.859,16.084,16.084,0,0,0,.247,2.8,16.582,16.582,0,0,1,.165,4.036,17.174,17.174,0,0,0,0,2.059c.082.329.329,1.153.824.659.329-.329.165-1.071.082-1.482a14.578,14.578,0,0,1-.082-1.894,37.332,37.332,0,0,0-.247-4.283,17.215,17.215,0,0,1-.165-5.436,8.948,8.948,0,0,1,1.071-2.8c.082-.165.165-.329.329-.329.494-.082.988,0,1.482-.082.329-.082.741-.165,1.071-.247.247-.082.412-.082.659-.165a1.608,1.608,0,0,0,.577-.082,4.134,4.134,0,0,1,.988-.165h1.482a3.5,3.5,0,0,1,.906.165,4.343,4.343,0,0,1,.988.247l1.235.494c.165.082.412.082.577.165s.412.247.577.329c.329.165.659.329,1.071.577a3.581,3.581,0,0,0,.577.329l.412.412c.165.165.412.329.494.577.082.082.082.165.165.247s.165,0,.247,0,.165.247.165.329c.165.247.412.329.577.494a.633.633,0,0,1,.165.247c.082.165.247.329.329.494.082.082.082.165.165.247s.082.247.165.412.247.165.329.329a1.446,1.446,0,0,0,.329.412c.329.247.247.577.494.906a.605.605,0,0,1,.165.494c0,.165.165.247.247.412s.165.494.247.659a2.925,2.925,0,0,0,.329.741,4.139,4.139,0,0,1,.494,1.977,4.8,4.8,0,0,1-.494,2.388c-.247.494-.906.659-1.318.988a7.832,7.832,0,0,1-1.647,1.235,9.576,9.576,0,0,0-1.482.329,8.468,8.468,0,0,1-4.036.577c-1.4-.165-2.635.329-4.036.412-.824.082-1.153.412-.165.577a13.344,13.344,0,0,0,1.812-.082c1.071,0,1.977-.165,2.965-.247.988-.165,1.812,0,2.718-.247A11.37,11.37,0,0,1,51,41.033a6.555,6.555,0,0,0,1.647-.577,16.942,16.942,0,0,0,3.624-1.894C58.078,37,57.5,33.95,57.254,32.3Z" transform="translate(-6.169 -21.111)"/></g><path class="a" d="M68.5,29.306a2.028,2.028,0,0,0,.988-.082c.165-.082.165-.165.247-.165.082-.082.165,0,.247,0,.165,0,.165-.165.247-.247.165-.165.412-.165.576-.247a1.8,1.8,0,0,0,.412-.329.7.7,0,0,1,.412-.247h.165a1.137,1.137,0,0,0,.329-.247c.082-.082.165,0,.165-.082l.082-.082a1.8,1.8,0,0,0,.412-.247c.165-.082.329-.329.577-.412.165-.082.247-.082.412-.165a1.05,1.05,0,0,0,.494-.329c.082-.082.247-.165.329-.247a1.8,1.8,0,0,0,.247-.412c.082-.082.082-.247.165-.329v-.412a.683.683,0,0,0-.247-.659,5.25,5.25,0,0,0-.577-.165h-.329c-.165,0-.247.165-.412.329a1.723,1.723,0,0,0-.329.494c-.082.082-.165.247-.247.329,0,.082-.082.082-.165.165a.081.081,0,0,1-.082.082.177.177,0,0,1-.165.165c-.082.082-.082.165-.082.329-.082.165-.247.247-.329.412,0,.082-.082.247-.165.247L71.63,27a3.8,3.8,0,0,0-.577.577,2.958,2.958,0,0,1-.824.577c-.165.082-.329.247-.494.329-.082,0-.082.082-.165.082a.633.633,0,0,1-.247.165C69.324,28.894,68.829,28.977,68.5,29.306Z" transform="translate(-12.089 1.73)"/></g></svg>