<svg xmlns="http://www.w3.org/2000/svg" viewBox="-4417 4001 185.108 97.844"><defs><style>.a{fill:#fff;}.b{fill:#e66c3e;}</style></defs><g transform="translate(-4416.972 4001.044)"><path class="a" d="M7.5,46c1.7,0,2.7-.6,4.2-1.1.5-.2,1.1-.1,1.6-.5a2.092,2.092,0,0,1,.6-.4c.1-.1.2-.1.3-.2s.2-.1.3-.2a.764.764,0,0,1,.5-.2c.2,0,.4.3.5.4.1.2.4.4.6.6.1.1.1.2.2.2a.6.6,0,0,0,.4.1.758.758,0,0,1,.4.2c.2.2.3.4.6.5s.5.3.8.4c.1,0,.1,0,.2.1l.1.1a1.268,1.268,0,0,0,.6.1h.4c.1,0,.3.1.4.1a2.462,2.462,0,0,0,1.2-.1H23a.52.52,0,0,0,.4-.2,1.268,1.268,0,0,1,.6-.1h.5a1.421,1.421,0,0,0,.6-.2c.2-.1.3-.1.5-.2a5.937,5.937,0,0,0,.8-.4l.9-.6c.2-.1.3-.2.5-.3.1-.1.2-.2.2-.3,0-.2,0-.3-.2-.4h-.3a.367.367,0,0,0-.3.1l-.2.2a.758.758,0,0,1-.4.2.758.758,0,0,1-.4.2l-.6.3a3.128,3.128,0,0,1-1,.5c-.1,0-.3.1-.4.1a4.331,4.331,0,0,0-.5.1,6.613,6.613,0,0,0-1.1-.1H20.5a5.274,5.274,0,0,1-1.2-.3c-.1-.1-.3-.2-.4-.3-.2-.2-.4-.3-.5-.5-1.3-1.4-1.5-2.7-2.1-4.3.2-.1.4,0,.6,0,.2.1.3.2.4.2h.5a.367.367,0,0,1,.3.1c.1,0,.2.1.3.1H19a.1.1,0,0,0,.1-.1h.1c.1,0,.2-.1.3-.1.2-.1.5-.4.7-.5h.3a.758.758,0,0,0,.4-.2A2.765,2.765,0,0,0,22,37.8a3.35,3.35,0,0,0-.5-3.6,4.508,4.508,0,0,0-4.2-.6,5.231,5.231,0,0,0-3.2,2.8,5.549,5.549,0,0,0-.6,2.2,5.022,5.022,0,0,0,.2,2.1c0,.1.1.2.1.3a2.719,2.719,0,0,1,0,.9c0,.2,0,.3-.1.4-.2.2-.5.3-.7.5a1,1,0,0,0-.5.4c-.1.2-.1.3-.2.5a3.566,3.566,0,0,1-1.1,1,4.492,4.492,0,0,1-1.8.7,8.106,8.106,0,0,1-3.8-.1c-3.6-.7-2.7-5.9-2.7-8.6a48.863,48.863,0,0,1,.3-5.4,6.768,6.768,0,0,0-.5-4,2.186,2.186,0,0,0-.3-.5c-.2-.2-.4-.3-.6-.5A1.676,1.676,0,0,0,.7,26H.5c-.3.1-.4.9-.4,1.1s0,.3-.1.4c-.1.4.1.8.1,1.2,0,.5.1.9.1,1.4,0,3.6,0,7.2.3,10.8C.8,44.7,4.1,46,7.5,46ZM19,34.1h.1a2.458,2.458,0,0,1,1.7,4,2.982,2.982,0,0,1-2.4,1.2,5.662,5.662,0,0,1-1.8-.3c-.2-.1-.5-.2-.5-.5V37.1a.758.758,0,0,1,.2-.4c0-.1.1-.3.1-.4s0-.1.1-.2a.367.367,0,0,1,.1-.3c.1-.3.2-.6.5-.7a.367.367,0,0,1,.3-.1c.1,0,.1-.1.2-.2a2.181,2.181,0,0,1,.5-.4C18.3,34.2,18.7,34.2,19,34.1Z"/><path class="a" d="M83.2,73.6h-.3a2.106,2.106,0,0,0-1.3.5,4.876,4.876,0,0,1-.7.3c-.2.1-.4,0-.7.1-.2,0-.3.1-.4.1h-.4a1.952,1.952,0,0,1-.7-.1c-.1,0-.3-.1-.4-.1-.2,0-.3.1-.5,0l-.3-.3c0-.1-.2-.1-.3-.1s-.2-.1-.3-.2a2.186,2.186,0,0,1-.3-.5,1.374,1.374,0,0,0-.5-.8c-.3-.3-.6-.4-.8-.7a5.547,5.547,0,0,1-.6-.8,6.034,6.034,0,0,0-.8-.8,7.05,7.05,0,0,1-.7-.9l-.3-.6-.3-.3c-.1-.2-.3-.4-.4-.6a2.651,2.651,0,0,0-.5-.6c-.2-.2-.4-.5-.6-.7a2.666,2.666,0,0,0-1.4-.7A3.21,3.21,0,0,0,68,66c-.2.1-.3.3-.6.3a.756.756,0,0,0-.4.1c-.1.1-.3.2-.4.3a4.349,4.349,0,0,1-.7.6l-.6.6c-.1.1-.2.3-.4.4a.349.349,0,0,0-.1.2c-.1.2-.3.3-.4.5-.1.1-.2.4-.3.5H64c-.1.1-.1.2-.2.3-.1.2-.2.2-.3.3a2.181,2.181,0,0,0-.4.5v.1l-.1.1c-.2.1-.3.4-.4.5l-.5.5c-.1.1-.3.4-.4.4-.2.1-.3-.4-.3-.6-.2-.9-.3-1.8-.5-2.7a12.786,12.786,0,0,0-1.4-4.3,2.949,2.949,0,0,0-1.3-1.4,4.405,4.405,0,0,0-3,.2,9.993,9.993,0,0,0-1.4.8c-.1.1-.2.1-.2.2-.3.4,0,.8.4.5.4-.2.7-.6,1.1-.7.5-.1,1.2-.1,1.5.3a3.594,3.594,0,0,1,.8,1.8c.2.8.8,1.5,1,2.2.2.6.2,1.2.4,1.7A25.315,25.315,0,0,0,60,72.5c.3.6.3,1.8.8,2.3,1.4,1.3,3-2,3.7-2.8.8-.9,1.4-2,2.2-3a2.5,2.5,0,0,1,3.2-.6c.5.3.7.9,1.1,1.3a9.956,9.956,0,0,1,1.4,1.5,10.7,10.7,0,0,0,1.4,1.6c.4.4,1.2.8,1.4,1.3s2.9,1.5,3.5,1.5h.2a9.014,9.014,0,0,0,3.2-.9,2.075,2.075,0,0,0,1-.6.629.629,0,0,0,0-.6Z"/><path class="a" d="M133.6,75.1V75h-.1c-.4,0-.7.1-1.1.1a6.537,6.537,0,0,1-3.5-1.3c-2.1-1.5-2.2-3.6-2.5-5.9-.1-.7-.5-1.2-.6-1.8-1.5-.5-2.1,1.3-1.9,2.5a5.245,5.245,0,0,1,.2,1.8c-.1.5.1.7.4,1.1a1.38,1.38,0,0,0,.3.4c.1.2.3.4.4.6.1.3.3.4.5.7l.3.3c.1.1.2.1.3.2.2.2.4.5.6.7a2.947,2.947,0,0,0,1.3.5c.2.1.5.1.7.3a5.025,5.025,0,0,0,2.7.5h1.5a.215.215,0,0,0,.2-.2.349.349,0,0,0,.1-.2c0-.2.1-.1.2-.2Z"/><path class="a" d="M179.4,73.6a5.3,5.3,0,0,1-4.6,0,5.383,5.383,0,0,1-1.2-.9c-.1-.1-.1-.2-.2-.3a.758.758,0,0,1-.2-.4,1.794,1.794,0,0,0-.5-.7l-.1-.1-.1-.1-.3-.3c-.1-.1-.1-.3-.2-.4s-.3-.2-.4-.3c0,.1.5,0,.6,0h1.9a3.942,3.942,0,0,0,1.4-.5,3.587,3.587,0,0,0,1.6-4.8,2.684,2.684,0,0,0-2.9-1.5,6.146,6.146,0,0,0-3.3,1.9,6.739,6.739,0,0,0-1.8,5.9c.1.6.7,1.1,1.1,1.5A6.228,6.228,0,0,0,172,74a6.079,6.079,0,0,1,1.8.9c.1,0,.1.1.2.1h.8c.2,0,.3.1.5.1s.3.1.5.2h.2c.1,0,.2.1.4.1s.3.1.4.1a.9.9,0,0,0,.5-.1.367.367,0,0,0,.3-.1c.3-.1.4-.3.7-.4s.5-.1.8-.2a7.366,7.366,0,0,0,1.4-.4,5.388,5.388,0,0,0,1.3-.7,11.38,11.38,0,0,0,1.9-1.9,7.632,7.632,0,0,0,.8-1.1c.1-.1.2-.2.2-.3V70c0-.1,0-.2.1-.2a.1.1,0,0,0,.1-.1c0-.1.1-.1.1-.2.2-.3,0-.6-.3-.3a19.224,19.224,0,0,1-1.3,1.7,10.7,10.7,0,0,1-1.6,1.4,6.916,6.916,0,0,1-1.9,1C179.6,73.5,179.5,73.5,179.4,73.6Zm-6-9.3c1.8-1.2,3.6,1.6,2.8,3.4a3.343,3.343,0,0,1-1.9,1.8c-.8.3-2.8-.1-3-1-.3-1.1.9-3,1.6-3.8A1,1,0,0,1,173.4,64.3Z"/><path class="a" d="M113.4,58c-.1,0-.2.1-.3.2a1.794,1.794,0,0,0-.5.7c-.2.3-.1.6-.2,1a4.034,4.034,0,0,0,0,1.1,6.456,6.456,0,0,0,.4,1.9c.1.4.3.8.4,1.2,0,.4.1.8.1,1.2a5.845,5.845,0,0,1-.2,1.9,6.7,6.7,0,0,0,0,2,7.126,7.126,0,0,1-.9,3.8,5.241,5.241,0,0,1-1,1.1c-3.1,2.6-7.6.3-10.3-1.8-.2-.2-.5-.3-.7-.5-.3-.2-.6-.5-.9-.7-.2-.2-.5-.2-.7-.4-.1-.1-.2-.3-.4-.4-.1-.1-.2-.1-.3-.2,0,0,0-.3-.1-.3a3.329,3.329,0,0,0-.3-.6,7.271,7.271,0,0,0-.9-.8,2.7,2.7,0,0,0-.8-.7c-.3-.2-.4-.5-.7-.7-.4-.3-.8-.5-1.2-.8-1.1-.7-1.3-2-2.2-2.8a4.3,4.3,0,0,1-.9-1,2.01,2.01,0,0,1-.4-.8,10.143,10.143,0,0,0-.9-1.3l-.9-.9a38.2,38.2,0,0,0-6.5-4.9c-1.4-.7-2.6-1.7-4-2.3a8.592,8.592,0,0,0-3.9-.5c-2.1-.1-6.1.3-7.4,2.2-.3.5-1.2,1.7-.4,1.9,0-1.7,2.4-2.8,3.9-3a6.6,6.6,0,0,0,1.4-.1,1.483,1.483,0,0,1,.7-.1h2a4.819,4.819,0,0,1,1.2,0,6.117,6.117,0,0,1,1.2.5c.4.2.7.4,1.1.6.2.1.5.2.7.3l.6.3c.2.1.2.2.3.3a3.114,3.114,0,0,0,.9.7,2.186,2.186,0,0,1,.3.5l.3.3c.2.3.3.5.6.6a.781.781,0,0,1,.4.4c.1.2.1.4.2.6s.4.2.5.3a6.47,6.47,0,0,1,.8.9c.3.3.7.5,1,.8.2.2.3.4.5.6l.2.2a1.612,1.612,0,0,0,.4.7,2.181,2.181,0,0,0,.4.5,1.205,1.205,0,0,0,.5.5,2.092,2.092,0,0,1,.6.4c.1.1.2.3.3.4a.1.1,0,0,1,.1.1c.1.1.1.3.2.4.1.3.3.5.4.8.2.3.6.4.9.6a2.407,2.407,0,0,1,.6.8,8.65,8.65,0,0,0,.7,1,3.179,3.179,0,0,0,1.2,1.1,1,1,0,0,1,.4.5,1.205,1.205,0,0,0,.5.5c1,.8,1.9,1.6,2.9,2.4a12.735,12.735,0,0,0,1.9,1.3,20.091,20.091,0,0,0,7.7,2.9,10.76,10.76,0,0,0,4,0,6.356,6.356,0,0,0,1.8-.6,3.508,3.508,0,0,0,.8-.5,1.205,1.205,0,0,0,.5-.5.367.367,0,0,1,.1-.3c.1-.1.1-.2.2-.2a2.092,2.092,0,0,0,.6-.4,6.376,6.376,0,0,0,.8-1.4c.1-.2.3-.3.5-.5l.3-.6a5.5,5.5,0,0,1,.7-.9,3,3,0,0,0,.6-1.1,2.769,2.769,0,0,0,.1-.9c0-.3.1-.6.1-.9a9.15,9.15,0,0,1,.1-1.7,6.6,6.6,0,0,0,.1-1.4,4.869,4.869,0,0,0-.1-1.2c-.1-.3,0-.6-.1-.9-.1-.5-.4-1-.5-1.5a2.471,2.471,0,0,0-.4-.9c-.3-.5-.7-1.1-1.3-1.1A.756.756,0,0,1,113.4,58Z"/><path class="a" d="M128.7,56.9c-.1-1.3-2.3-1.7-3.3-1.4-.5.2-.5.6-1.3.5-.1.6.5.9.7,1.5.7,0,1.1.7,1.8.8C127.2,58.4,128.8,57.8,128.7,56.9Z"/><path class="a" d="M150,74.7a5.547,5.547,0,0,0,.8-.6l.3-.3s.3-.4.1-.3a6.374,6.374,0,0,1-4.4,1.7,6.167,6.167,0,0,1-3.8-1.6c-2.4-2.1-3.2-5.5-3.5-8.6a18.217,18.217,0,0,1,.8-7c.2-.6.4-1.1.6-1.7,0-.1.1-.2.1-.4v-.1a.55.55,0,0,1,.3-.5l.3-.3a.367.367,0,0,0,.1-.3,4.349,4.349,0,0,1,.4-.7l.1-.1c.1-.1.1-.1.1-.2.1-.2.2-.3.3-.5.1-.1.1-.2.2-.3a.367.367,0,0,1,.3-.1c.1,0,.2-.1.4-.1h.4c0-.1,0-.1.1-.2a.349.349,0,0,1,.2-.1,1.854,1.854,0,0,1,.7-.2.52.52,0,0,1,.4.2,1,1,0,0,0,.5.4c.2.1.3.3.5.4a4.116,4.116,0,0,1,1.1,2.4c0,.2.1.5.1.7v.2c0,.1.1.2.2.3a.1.1,0,0,0,.1.1h.2v-.8c0-.1-.1-.2-.1-.3V55a1.421,1.421,0,0,0-.2-.6c-.1-.3-.2-.5-.3-.8-1.3-2.8-4.5-3-6.8-1.3a11.629,11.629,0,0,0-1.8,2c-.4.5-.9.9-1.3,1.5s-.3,1.4-.6,2a2.353,2.353,0,0,0-.2.8,1.854,1.854,0,0,1-.2.7c-.1.2-.2.3-.2.5a12.288,12.288,0,0,0-.2,2.7v3.4a4.193,4.193,0,0,0,.4,1.6,1.445,1.445,0,0,1,.2.7v.5c.1.5.5.6.7,1,.3.6.9,1.2,1.2,1.8a3.591,3.591,0,0,0,.7,1,1.38,1.38,0,0,0,.3.4,7.272,7.272,0,0,0,.9.8c.2.2.2.1.3.2s.2.1.4.2a2.651,2.651,0,0,0,.6.5,1.268,1.268,0,0,0,.6.1,8.469,8.469,0,0,0,1.7.4,9.721,9.721,0,0,0,3.4.1A3.461,3.461,0,0,0,150,74.7Z"/><path class="a" d="M165.5,74.7a5.547,5.547,0,0,0,.8-.6l.3-.3s.3-.4.1-.3a6.374,6.374,0,0,1-4.4,1.7,6.167,6.167,0,0,1-3.8-1.6c-2.4-2.1-3.2-5.5-3.5-8.6v-.6a21.108,21.108,0,0,1,.4-5,21.717,21.717,0,0,1,.7-2.4,1.421,1.421,0,0,0,.2-.6,1.689,1.689,0,0,0,.2-.5v-.4c0-.1.1-.2.1-.3v-.3c.1-.3.3-.4.5-.7a1.38,1.38,0,0,0,.3-.4c.1-.1.2-.3.3-.4.2-.2.3-.4.4-.5s.1-.2.3-.3a.749.749,0,0,1,.5-.1h2a3.839,3.839,0,0,1,1.8,2.5c0,.1.1.3.1.4v.1c0,.1.1.2.1.4v.3a.349.349,0,0,0,.1.2l.1.1v.2c0,.1,0,.1.1.1s.1,0,.1-.1V55.5a.349.349,0,0,0-.1-.2v-.1c0-.1,0-.1-.1-.1v-.3c0-.1-.1-.3-.1-.4-.1-.3-.2-.5-.3-.8a8.792,8.792,0,0,0-.6-1c-.1-.1-.2-.3-.4-.4-.1-.1-.1-.2-.2-.2-.1-.1-.2-.1-.3-.2a1.612,1.612,0,0,0-.7-.4c-.1-.1-.3-.1-.4-.2-.2,0-.3-.1-.5-.2h-1.3c-.1,0-.2.1-.3.2a.367.367,0,0,0-.3.1c-.2.1-.3.2-.4.2-.3.2-.6.3-.9.5s-.5.4-.8.6c-2.2,2-3.2,5.1-3.6,8a15.644,15.644,0,0,0-.2,3c0,.2.1.3.1.5.1.6-.1,1.2,0,1.8a1.493,1.493,0,0,0,.3.7c.1.3.2.7.3,1,0,.1.1.1.1.2V68a.1.1,0,0,0,.1.1,4.179,4.179,0,0,1,.4,1,3.329,3.329,0,0,0,.3.6c.1.1.3.1.3.2a1.421,1.421,0,0,1,.2.6,2.92,2.92,0,0,1,.2.9c0,.3.3.4.4.7.3.4.6.4,1,.6a4.35,4.35,0,0,1,.6.7c.2.4.6.5.9.9.1.2.3.3.4.4a1.09,1.09,0,0,0,1.1.2c.4,0,.8.1,1.3.1a9.4,9.4,0,0,0,2.9,0A3.186,3.186,0,0,0,165.5,74.7Z"/><path class="a" d="M55.1,73.2h-.4a.367.367,0,0,0-.1.3c0,.1-.1.2-.2.3s-.3.2-.4.3a.367.367,0,0,0-.3.1c-.1,0-.1.1-.2.1h-.2c-.1,0-.2.1-.4.1s-.3.1-.5.1-.3,0-.4.1h-.4c-.3,0-.5.1-.8.1s-.5.1-.8.1a9.7,9.7,0,0,1-4.9-1.5,5.273,5.273,0,0,1-1.5-1.1c-.3-.3-.6-.9-1-1.1-.1-.6.4-.4.7-.8a4.234,4.234,0,0,1,.7-.5c.1-.1.2-.1.4-.1.2-.1.3-.2.5-.3.1,0,.1,0,.2-.1s0-.1.1-.2a.319.319,0,0,1,.3-.3l.3-.3c.1-.1.1-.2.2-.3s.2-.1.2-.3v-.3c0-.1.1-.2.1-.3,0-.2.1-.4.1-.6a5.451,5.451,0,0,0-.1-2.2c-.2-.4-.7-1.2-1.1-1.3-.4-.2-1.2.1-1.6.1a5.072,5.072,0,0,0-3.8,3,12.253,12.253,0,0,0-.2,1.9,3.983,3.983,0,0,1-.5,2.2c-.3.2-1.6.1-1.7.4,0,.2-.3.6,0,.7a1.854,1.854,0,0,0,.7.2.367.367,0,0,0,.3-.1,2.851,2.851,0,0,1,1.6-.2c.3.1.3.6.5.8a11.355,11.355,0,0,0,2.3,1.5c2.2,1,4.3,2.3,6.8,2.3.2,0,.2,0,.3-.1.1,0,.3-.1.4-.1.2,0,.4-.1.6-.1.1,0,.2-.1.3-.1h.4c.1,0,.3-.1.4-.1.2,0,.4-.1.7-.1a3.553,3.553,0,0,0,1-.2c.1,0,.1,0,.2-.1h.2c.1,0,.2-.1.3-.1.2-.1.4-.4.6-.6.1-.2.3-.3.4-.5C55.2,73.8,55.4,73.3,55.1,73.2ZM41.9,69.3c-.3-.1-.4-.3-.4-.8a6.8,6.8,0,0,1,.2-2c.1-.2.1-.4.2-.5.1-.2.1-.4.2-.5h0c.4-.6,1.4-1.3,2.1-.9.8.4.7,1.5.7,2.3a2.63,2.63,0,0,1-2.5,2.6C42.1,69.3,42,69.3,41.9,69.3Z"/><path class="a" d="M71.5,43.6c.1.1.2.2.3.2s.1.1.2.1a.1.1,0,0,0,.1.1.6.6,0,0,0,.4.1.764.764,0,0,1,.5.2c.3.2.7.1,1,.2a1.421,1.421,0,0,0,.6.2h.2a1.854,1.854,0,0,0,.7.2c.2,0,.5-.1.7,0h.6a10.461,10.461,0,0,0,1.7-.4c.1,0,.2-.1.3-.1A9.409,9.409,0,0,0,81,43.2c.2-.1.3-.4.6-.5.1-.1.3-.1.5-.2.1-.1.1-.1.2-.1s.1-.1.2-.1c.1-.1.2-.1.3-.2l.3-.3c.2-.1.3-.3.5-.5h0a.1.1,0,0,0,.1-.1l.1-.1c0-.1,0-.1.1-.2,0-.1.1-.1.1-.2.1-.1.1-.2.2-.3,0-.1.1-.2.1-.3l.3-.3a.349.349,0,0,0,.1-.2c0-.1.1-.1.1-.2.1-.1.1-.2.2-.2.1-.1.1-.2.2-.3s.1-.2.2-.2l.1-.1v-.1c0-.1,0-.2-.1-.1a.1.1,0,0,0-.1.1l-.3.3a1,1,0,0,1-.5.4.349.349,0,0,0-.2.1l-.1.1-.1.1-.1.1c-.1.1-.2.2-.2.3a1.38,1.38,0,0,1-.4.3l-.1.1h-.1v.1l-.1.1-.2.2c-.1.1-.1.2-.2.3a5.008,5.008,0,0,1-.8.7,7.459,7.459,0,0,1-1.2.7,11.919,11.919,0,0,1-2,.8c-.3.1-.7.2-1,.3a2.354,2.354,0,0,1-.8.2h-.6a1.95,1.95,0,0,1-.8-.1.9.9,0,0,0-.5-.1c-.2,0-.3.1-.5,0-.2,0-.3-.2-.5-.3-.5-.2-1.1,0-1.4-.5a2.092,2.092,0,0,0-.4-.6c-.1-.1-.3-.2-.4-.3s-.2-.3-.3-.4c-.1-.2-.2-.3-.3-.5v-.1l-.1-.1a.6.6,0,0,1-.1-.4c0-.1-.1-.2-.1-.3-.1-.2,0-.4-.1-.6,0-.2-.1-.4-.1-.7,0-.2-.1-.4.1-.5.1-.1.1-.1.2,0l.6.3a1.854,1.854,0,0,0,.7.2,4.03,4.03,0,0,0,3-.6,3.451,3.451,0,0,0,1.2-4.3c-1-2-3.8-1.8-5.6-1a10.986,10.986,0,0,0-1.4.9c-1.7,1.3-1.9,3.6-1.6,5.5a6.637,6.637,0,0,0,.6,2c.1.1.1.2.2.3a.1.1,0,0,1,.1.1c.1.1.1.2.2.2l.3.3c.1.1.1.1.2.1s.1.1.2.1c.1.1.3.1.3.2a.367.367,0,0,1,.1.3c.1.1.1.2.2.2h.3A4.494,4.494,0,0,1,71.5,43.6Zm-.2-8.5c.1-.1.2-.3.4-.4a8.7,8.7,0,0,1,.9-1.1c.8-.8,2.4-.2,3,.6a2.551,2.551,0,0,1,0,3.1,2.434,2.434,0,0,1-1.4,1,1.884,1.884,0,0,1-.8.2,1.7,1.7,0,0,1-.7-.1l-.1-.1h-.2c-.1,0-.1-.1-.2-.1H72c-.9-.2-1-.9-1.1-1.6C70.7,35.7,70.9,35.4,71.3,35.1Z"/><path class="a" d="M94.6,37c-.7-.9-1.5-1.7-2.2-2.7-.2-.2-.3-.4-.5-.6l-.2-.2c-.1,0-.1,0-.2-.1s-.1-.4-.1-.6v-1a1.421,1.421,0,0,0-.2-.6.548.548,0,0,0-.6-.4c-.2,0-.5-.1-.7-.1-.3,0-.8.3-.8.7v.3a3.582,3.582,0,0,1-.4,1.1c0,.1-.1.2-.1.3s-.1.3-.1.4a3.091,3.091,0,0,0-.2.8c-.1.2-.1.4-.2.6s-.1.5-.2.7-.2.5-.3.7-.2.2-.2.4h.3c.1,0,.2-.2.2-.3.2-.3.3-.7.5-1,.1-.2.1-.4.3-.5a.85.85,0,0,1,.5-.3c.2,0,.3.2.4.3a2.092,2.092,0,0,1,.4.6c.1.1.1.3.3.5.1.1.2.1.3.2a2.186,2.186,0,0,1,.3.5c.1.2.3.3.4.4l.6.6A8.277,8.277,0,0,1,93,39.2a9.5,9.5,0,0,1,.9,3.4c0,.3,0,.4-.2.6-.1.1-.2.2-.2.3-.1.1-.2.3-.3.4-.4.3-1,.2-1.5.3a.821.821,0,0,1-.7.1c-.3,0-.5-.1-.7,0-.3,0-.4-.1-.7-.1s-.6-.2-.8-.1c-.1.3-.1.2.1.4.2.1.5.1.8.2A6.106,6.106,0,0,0,91,45a4.479,4.479,0,0,0,2.3,0,11.5,11.5,0,0,0,1.7-.6,3.383,3.383,0,0,0,1.6-2.7A9.5,9.5,0,0,0,94.6,37Z"/><path class="a" d="M114.9,41.9h-.2a1.268,1.268,0,0,0-.6.1.1.1,0,0,0-.1.1c-.2.2-.5.4-.7.6-.1.1-.2.2-.3.2a2.769,2.769,0,0,1-.9.1,8.331,8.331,0,0,0-1.5.4,6.029,6.029,0,0,1-2.3.1c-2.5-.3-3.9-2.4-4.3-4.7,0-.2.2-.3.3-.2,2.6,1.3,6-.9,5.5-3.8v-.1a2.56,2.56,0,0,0-2-2.1,8.6,8.6,0,0,0-1.6-.1,4.284,4.284,0,0,0-1.6.5.349.349,0,0,0-.2.1c-.2.1-.5.2-.6.4l-.3.3c-.1.1-.1.2-.2.3h-.1a.349.349,0,0,0-.1.2c-.1.1-.2.2-.3.2a1.381,1.381,0,0,0-.3.4,1.38,1.38,0,0,1-.4.3c-.1.1-.1.2-.2.3,0,.1-.1.1-.2.2a.367.367,0,0,0-.1.3c-.1.1-.1.2-.2.3a1.421,1.421,0,0,0-.2.6v.5a4.5,4.5,0,0,0,.1,2.3,3.08,3.08,0,0,0,.5,1.2l.3.3c.1.2.1.4.4.5l.6.3c.1.1.2.1.4.2a2.092,2.092,0,0,1,.6.4c.2.1.1.2.2.4.3,0,.3.3.5.5.1.2.3.3.4.4.4.3.5.8.9.9a.9.9,0,0,0,.5.1,1.952,1.952,0,0,1,.7.1h.7c.2,0,.4.1.6.1a3.812,3.812,0,0,0,1.5-.1,2.92,2.92,0,0,0,.9-.2,9.867,9.867,0,0,0,3.1-1.5c.2-.2.4-.3.6-.5.1-.1.2-.2.3-.2a.215.215,0,0,0,.2-.2c-.3-.3-.3-.4-.3-.5Zm-11.2-5.3a.9.9,0,0,1,.1-.5c.1-.1.1-.2.2-.4l.3-.3a.764.764,0,0,0,.2-.5c0-.1.1-.2.2-.3s.1-.1.1-.2v-.2a2.506,2.506,0,0,1,.4-.7,1.056,1.056,0,0,1,.5-.2h.8c.2,0,.5-.1.6,0a2.584,2.584,0,0,1,1.1,3.7,3.713,3.713,0,0,1-4.4,1.2c-.1,0-.1-.1-.1-.2A3.3,3.3,0,0,0,103.7,36.6Z"/><path class="a" d="M155,29.9h-.1c-.1,0-.2.1-.4.1h-2a4.1,4.1,0,0,1-1.1-.1h-5.1c-.2,0-.3.1-.5.1a2.485,2.485,0,0,1-.8.1h-1.3c-.1,0-.2.1-.3.1h-1.7c-.2,0-.5.1-.5-.2V27.4c0-.1-.1-.3-.1-.4a1.268,1.268,0,0,1-.1-.6V24.9a4.331,4.331,0,0,0,.1-.5v-1a.749.749,0,0,0-.1-.5c0-.1-.1-.2-.1-.3-.1-.1-.1-.1-.2-.1H140c-.2,0-.3.4-.3.5s-.1.2-.1.3-.1.2-.1.3c0,.2-.1.3-.1.5a.367.367,0,0,1-.1.3c0,.1-.1.2-.1.3a.756.756,0,0,1-.1.4c-.1.2,0,.3-.1.5a1.268,1.268,0,0,0-.1.6c-.1.3,0,.7-.1,1.1v.9c0,.1,0,.2-.1.2V29a1.929,1.929,0,0,1-.3,1c-.3.4-1.8.2-2.4.2h-2.6c-.6,0-2.1-.3-2.2.5-.1,1,1.6.7,2.2.7h.6c.1,0,.3-.1.4,0h2.1l.6.3c.2.1.4,0,.7.1.2,0,.5.1.7.1h.2v1.2a35.293,35.293,0,0,0,0,4.6c0,.5.3,1.1.2,1.6,0,.4-.6,1.1-.9,1.5a7.106,7.106,0,0,1-1.5,1.5,7.344,7.344,0,0,1-4,1.8,5.6,5.6,0,0,1-5.5-3,13.087,13.087,0,0,1-.9-2.8,25,25,0,0,0-.5-2.9,2.341,2.341,0,0,0-1.7-1.5l-1.8-.6c-.5-.2-1.2-.7-1.8-.6a1.057,1.057,0,0,0-.6.7c0,.1-.1.2-.2.3l-.1.1a.367.367,0,0,0-.1.3c-.1.2,0,.4,0,.7a.952.952,0,0,1-.2.7c-.2.3,0,.7-.1,1v.2c0,.1-.1.2-.1.3v.5c0,.2-.1.4-.1.6v.4a.1.1,0,0,0,.1.1.367.367,0,0,0,.3-.1l.3-.3c.1-.1,0-.4,0-.5v-1a1.884,1.884,0,0,0,.2-.8v-.4a.1.1,0,0,1,.1-.1c.1-.1.1-.2.2-.2a.1.1,0,0,1,.1-.1,1.344,1.344,0,0,1,.9.2c.1.1.2.1.3.2s.2.1.3.2a.1.1,0,0,1,.1.1c.1.1.2,0,.4.1.2,0,.3,0,.4.1.1,0,.2.1.3.1a.349.349,0,0,1,.1.2c.1.1.1.2.2.3s.1.2.2.2l.4.4a1,1,0,0,1,.4.5c0,.1.1.3.1.4v.7c0,.1.1.3.1.4V40c0,.2.1.3.1.5v.4a.6.6,0,0,0,.1.4c.1.2.1.3.2.5a3.532,3.532,0,0,0,2.3,2c1.3.5,2.2,1.2,3.7,1.2a9.685,9.685,0,0,0,6.3-2.2,5.547,5.547,0,0,0,1.7-2.3c.2-.5.5.2.6.3.3.4.8.5,1.1.9a10.143,10.143,0,0,1,.9,1.3,8.532,8.532,0,0,0,2.5,1.3,6.966,6.966,0,0,0,3.5.5,6.716,6.716,0,0,0,4.5-1.6,9.959,9.959,0,0,0,1.1-1c.2-.2.4-.5,0-.5-.3-.1-.7.2-.9.4a5.6,5.6,0,0,1-1.8,1.6,6.435,6.435,0,0,1-3.4.5,6.592,6.592,0,0,1-5.1-3.2,8.3,8.3,0,0,1-.7-3.8V31.7a.367.367,0,0,1,.3-.1h2.8c.1,0,.2-.1.3-.1.1-.1.2-.1.4-.1a2.354,2.354,0,0,1,.8-.2c.4-.1.9-.2,1.3-.3h2.7c.3,0,.6-.2.9,0,.1,0,.3.1.4.1a1.268,1.268,0,0,1,.6.1c.2.1.5,0,.7,0h1.5a4.052,4.052,0,0,1,1.1,0c.3,0,.5.1.8-.1.1-.1.2-.1.4-.2.1,0,.2,0,.2-.1.1-.1.2-.1.2-.2v-.3c0-.1,0-.1-.1-.1a.1.1,0,0,0-.1-.1H155C155.1,29.9,155,29.9,155,29.9Z"/><path class="a" d="M62,34.7a5.9,5.9,0,0,0-1.5-3.3,25.146,25.146,0,0,0-8-7.2,20.091,20.091,0,0,0-7.7-2.9,10.76,10.76,0,0,0-4,0,7.338,7.338,0,0,0-4.2,2.1c-.4.4-1,.7-1.2,1.2-.3.8.1,1.8,0,2.7a56.829,56.829,0,0,0-.3,5.9,19.529,19.529,0,0,0,.3,3.4,20.133,20.133,0,0,1,.2,4.9,20.852,20.852,0,0,0,0,2.5c.1.4.4,1.4,1,.8.4-.4.2-1.3.1-1.8a17.7,17.7,0,0,1-.1-2.3,45.329,45.329,0,0,0-.3-5.2,20.9,20.9,0,0,1-.2-6.6,10.866,10.866,0,0,1,1.3-3.4c.1-.2.2-.4.4-.4.6-.1,1.2,0,1.8-.1.4-.1.9-.2,1.3-.3.3-.1.5-.1.8-.2a1.952,1.952,0,0,0,.7-.1,5.019,5.019,0,0,1,1.2-.2h1.8a4.253,4.253,0,0,1,1.1.2,5.274,5.274,0,0,1,1.2.3l1.5.6c.2.1.5.1.7.2s.5.3.7.4c.4.2.8.4,1.3.7a4.348,4.348,0,0,0,.7.4l.5.5c.2.2.5.4.6.7.1.1.1.2.2.3s.2,0,.3,0,.2.3.2.4c.2.3.5.4.7.6a.769.769,0,0,1,.2.3c.1.2.3.4.4.6.1.1.1.2.2.3s.1.3.2.5.3.2.4.4a1.756,1.756,0,0,0,.4.5c.4.3.3.7.6,1.1a.735.735,0,0,1,.2.6c0,.2.2.3.3.5s.2.6.3.8a3.552,3.552,0,0,0,.4.9,5.025,5.025,0,0,1,.6,2.4,5.829,5.829,0,0,1-.6,2.9c-.3.6-1.1.8-1.6,1.2a9.51,9.51,0,0,1-2,1.5,11.627,11.627,0,0,0-1.8.4,10.282,10.282,0,0,1-4.9.7c-1.7-.2-3.2.4-4.9.5-1,.1-1.4.5-.2.7a16.2,16.2,0,0,0,2.2-.1c1.3,0,2.4-.2,3.6-.3,1.2-.2,2.2,0,3.3-.3a13.8,13.8,0,0,1,2-.3,7.96,7.96,0,0,0,2-.7,20.571,20.571,0,0,0,4.4-2.3C63,40.4,62.3,36.7,62,34.7Z"/><path class="b" d="M65.9,4.1c0,.1-.1.1-.1.2a.9.9,0,0,1-.5.1h-.5a2.354,2.354,0,0,1-.8-.2,10.039,10.039,0,0,1-2.4-.4c-.4-.2-.8-.3-1.2-.5a3.328,3.328,0,0,0-1-.6,1.412,1.412,0,0,0-.9-.1h-.4c-.2,0-.3-.1-.5-.1h-.5c-.3,0-.5-.1-.8-.1H54.5c-.2,0-.3.1-.4.1l-1.2.3a4.052,4.052,0,0,0-1.1,0,4.918,4.918,0,0,1-2.1.4,7.519,7.519,0,0,0-1.5,0c-.4,0-.7-.2-1-.2a10.819,10.819,0,0,0-1.8,0H44.1a7.972,7.972,0,0,0-1.5.3,4.939,4.939,0,0,0-1.6.5,14.8,14.8,0,0,0-1.3.8,5.973,5.973,0,0,0-1.1.6c-.3.2-.7.3-1,.5-.7.5-1.5.3-2.3.4a5.785,5.785,0,0,0-2.8.9,14.309,14.309,0,0,0-2.4,1.9c-.4.4-.8.7-1.2,1.1-.5.4-1,.9-1.5,1.3a11.235,11.235,0,0,1-3.7,2.4,13.748,13.748,0,0,0-3,1.9,6.034,6.034,0,0,0-.8.8,4.811,4.811,0,0,0-1.1.9c-.2.2-.4.5-.6.7a8.12,8.12,0,0,1-1,.9l-1.2.9c-.7.5-.7,1.3-.9,2a2.361,2.361,0,0,1-.6.9c-.1.1-.9.8-1,.6-.4-.6.5-1.5.7-2.1.1-.3,0-.7.1-1,.1-1.1,1-1.7,1.6-2.5a6.726,6.726,0,0,0,.7-1.1,10.916,10.916,0,0,1,1.3-1.7c.5-.5,1.1-.9,1.7-1.4.4-.4,1-.6,1.4-1,.3-.3.7-.6,1-.9.1-.1.2-.3.4-.4l.6-.3.6-.6c.2-.2.5-.3.7-.5a14.7,14.7,0,0,1,1.3-1,2.177,2.177,0,0,0,.8-.5c.4-.3.8-.5,1.2-.8a11.319,11.319,0,0,1,1.3-1,3.224,3.224,0,0,1,1.4-.8,2.947,2.947,0,0,0,1.3-.5,4.193,4.193,0,0,1,1.6-.4,4.128,4.128,0,0,0,1.5-.7c.6-.3,1.2-.5,1.8-.8,1.1-.6,2.3-.5,3.5-.8a7.387,7.387,0,0,1,2.1,0A5.847,5.847,0,0,0,44,2.1c.5-.1,1-.1,1.4-.2a9.465,9.465,0,0,1,1.8-.5A2.843,2.843,0,0,1,48.4,1c1.1-.2,2.2,0,3.3-.2A11.271,11.271,0,0,0,53.5.5,8.752,8.752,0,0,0,55.1.3c.2-.1.3-.1.5-.2A6.079,6.079,0,0,1,57.5,0a4.052,4.052,0,0,1,1.1,0c.2,0,.3.2.4.3s.3.1.5.2c.3.1.5.2.8.3s.6.1.8.2h.6c.3,0,.5.3.8.4h.2a.758.758,0,0,1,.4.2c.2.1.5.3.7.4a4.053,4.053,0,0,1,.9.5c.3.2.4.5.7.7.2.1.7,0,.8.2A1.493,1.493,0,0,1,65.9,4.1Z"/><path class="b" d="M8.1,64.2h0c.1,0,.2.2.2.3a1.612,1.612,0,0,0,.4.7,8.277,8.277,0,0,1,1.1,1.5,1.777,1.777,0,0,1,.4,1v.4a4.053,4.053,0,0,0,.5.9c.2.4.5.9.7,1.3L13,73c.6.9,1.2,1.7,1.8,2.5a7.632,7.632,0,0,1,.8,1.1v.3a1.2,1.2,0,0,0,.2.8,2.925,2.925,0,0,0,1.2.7,10.411,10.411,0,0,1,2.5,2.2c.5.6,1.2,1,1.7,1.6.3.4.5.9,1,1.1.3.1.6.3.9.4l.6.3c.3.1.6.2,1,.3a.6.6,0,0,1,.4.1,2.118,2.118,0,0,0,.3.7,2.276,2.276,0,0,0,.8.9,5.171,5.171,0,0,0,1.3.6,6.42,6.42,0,0,1,1.3,1c.6.6,1.5,1.1,2.1,1.7a10.627,10.627,0,0,0,.9,1.1,2.767,2.767,0,0,0,1.6.5l1.5.3a5.171,5.171,0,0,1,1.3.6,5.462,5.462,0,0,0,1.8.6c.6.2,1.2.3,1.8.5a12.091,12.091,0,0,0,1.8.5,6.107,6.107,0,0,0,1.3.3,4.331,4.331,0,0,0,.5-.1c.2,0,.3.1.5.2.2.2.5.3.7.5a11.076,11.076,0,0,0,3.6.8l2.1.3a12.052,12.052,0,0,0,1.9,0h2.4a20.283,20.283,0,0,0,4.9-.4c.4-.1.8-.2,1.3-.3a5.853,5.853,0,0,0,1.3-.2c.4-.1.6-.4,1-.5a4.329,4.329,0,0,1,1.6-.1H65c.1,0,.2-.1.3-.2a2.186,2.186,0,0,1,.5-.3l.6-.3a3.178,3.178,0,0,1,.9-.3h.5c.2,0,.3-.1.4-.1.2-.1.5-.2.7-.3a4.331,4.331,0,0,0,.5-.1,6.889,6.889,0,0,0,.8-.3c.6-.2,1.2-.6,1.8-.8.5-.2,1-.1,1.4-.3a3.694,3.694,0,0,0,1.4-.7,4.62,4.62,0,0,0,.7-.7,1.612,1.612,0,0,1,.7-.4,4.348,4.348,0,0,0,.7-.4.44.44,0,0,1,.5-.1c.1,0,.1,0,.1.1.2,0,.3-.1.5-.1.1-.1.2-.1.3-.2s.2-.3.3-.4c.2-.2.3-.4.5-.5a.452.452,0,0,1,.6,0c.2.3-.6.7-.8.8-.3.2-.6.3-.8.7a1.794,1.794,0,0,1-.5.7c-.2.2-.3.5-.5.6a2.186,2.186,0,0,0-.5.3c-.5.3-1.1.7-1.6,1-.4.2-.8.5-1.3.7a6.721,6.721,0,0,1-1.2.6c-.3.1-.5,0-.8.2a7.632,7.632,0,0,0-1.1.8l-.6.3a1.483,1.483,0,0,1-.7.1,2.388,2.388,0,0,0-.9.2c-.2.1-.3.1-.5.2s-.4.1-.6.2a6.889,6.889,0,0,0-.8.3c-.2.1-.3.3-.5.5-.1.1-.2.3-.4.3a1.421,1.421,0,0,1-.6.2H63.9a4.819,4.819,0,0,0-1.2,0,2.117,2.117,0,0,0-.7.3,3.81,3.81,0,0,1-1,.3.9.9,0,0,0-.5.1,4.876,4.876,0,0,1-.7.3c-.3.1-.5.1-.8.2a2.959,2.959,0,0,1-1,.2H56.2c-.4,0-.8.1-1.2.1-1,0-1.9.1-2.9.1s-2.1,0-3.1-.1a4.1,4.1,0,0,1-1.1-.1c-1.4-.1-2.7-.3-4.1-.5a12.859,12.859,0,0,1-1.9-.4,4.253,4.253,0,0,0-1.1-.2H39a9.484,9.484,0,0,1-2.3-.5l-.9-.3c-.2-.1-.3-.2-.5-.2a3.36,3.36,0,0,1-1.4-.5,2.177,2.177,0,0,1-.8-.5c-.2-.1-.3-.3-.5-.5a2.01,2.01,0,0,0-.8-.4,5.9,5.9,0,0,1-.8-.4c-.3-.1-.4-.4-.5-.7a2.279,2.279,0,0,1-1.1-.3,8.865,8.865,0,0,0-1.7-.8c-.2-.1-.5-.2-.7-.3a8.794,8.794,0,0,0-1-.6,4.129,4.129,0,0,1-1.1-.7l-.9-.9a5.547,5.547,0,0,1-.6-.8c-.1-.2-.2-.2-.4-.3a14.629,14.629,0,0,1-1.3-.9,4.357,4.357,0,0,1-1.4-1.3,4.053,4.053,0,0,1-.5-.9,2.092,2.092,0,0,0-.4-.6c-.3-.2-.6-.3-.9-.5-.1-.1-.3-.1-.4-.2-.2-.2-.1-.5-.2-.7s-.4-.3-.6-.5a9.959,9.959,0,0,1-1-1.1c-.8-1-1.6-1.9-2.3-2.9a3.328,3.328,0,0,1-.6-1,3.128,3.128,0,0,0-.5-1,2.407,2.407,0,0,0-.6-.8c-.2-.2-.6-.3-.8-.5a5.5,5.5,0,0,1-.7-.9,6.376,6.376,0,0,0-.8-1.4,1.325,1.325,0,0,1-.3-1.1A3.812,3.812,0,0,0,9.8,70a.879.879,0,0,0-.2-1,1,1,0,0,0-.5-.4L8.8,68c-.2-.4-.3-.9-.5-1.3a1.268,1.268,0,0,1-.1-.6c0-.2-.1-.4-.1-.6a1.7,1.7,0,0,1,0-1C8,64.4,8,64.2,8.1,64.2Z"/><path class="a" d="M68.5,30.4a2.462,2.462,0,0,0,1.2-.1c.2-.1.2-.2.3-.2.1-.1.2,0,.3,0,.2,0,.2-.2.3-.3.2-.2.5-.2.7-.3a2.181,2.181,0,0,0,.5-.4.85.85,0,0,1,.5-.3h.2a1.381,1.381,0,0,0,.4-.3c.1-.1.2,0,.2-.1l.1-.1a2.186,2.186,0,0,0,.5-.3c.2-.1.4-.4.7-.5.2-.1.3-.1.5-.2a1.275,1.275,0,0,0,.6-.4c.1-.1.3-.2.4-.3a2.186,2.186,0,0,0,.3-.5c.1-.1.1-.3.2-.4v-.5a.829.829,0,0,0-.3-.8,6.373,6.373,0,0,0-.7-.2H75c-.2,0-.3.2-.5.4a2.092,2.092,0,0,0-.4.6c-.1.1-.2.3-.3.4,0,.1-.1.1-.2.2a.1.1,0,0,1-.1.1.215.215,0,0,1-.2.2c-.1.1-.1.2-.1.4-.1.2-.3.3-.4.5,0,.1-.1.3-.2.3l-.3.3a4.62,4.62,0,0,0-.7.7,3.592,3.592,0,0,1-1,.7c-.2.1-.4.3-.6.4-.1,0-.1.1-.2.1a.769.769,0,0,1-.3.2C69.5,29.9,68.9,30,68.5,30.4Z"/><path class="b" d="M69.9,4.6h-.2a2.462,2.462,0,0,0-1.2-.1c-.3.1-.4.5-.4.8s.3.6.4.8c.1.1.2.2.3.2.2.1,0,0,.3.1s.7.3,1,.4c.1,0,.2,0,.2.1l.1.1c.7.3,1.6-.2,2.2.5.2.3.4.6.7,1a2.075,2.075,0,0,0,1,.6,3.168,3.168,0,0,1,1.5.6,8.064,8.064,0,0,1,1.4,1.2c.2.2.4.4.6.1a1.09,1.09,0,0,0-.2-1.1,3.043,3.043,0,0,0-.8-.8l-1.2-.6a4.064,4.064,0,0,1-1-.9c-.4-.4-1-.6-1.5-1A5.171,5.171,0,0,0,71.8,6a4.44,4.44,0,0,1-1.1-.8c-.1-.1-.1-.2-.2-.3C70.5,4.6,70.1,4.6,69.9,4.6Z"/><path class="b" d="M81.5,85.8v-.4a.9.9,0,0,1,.1-.5,1,1,0,0,1,.4-.5c.1-.1.2,0,.3-.1a1.381,1.381,0,0,1,.4-.3,1,1,0,0,0,.4-.5c.1-.1.2-.2.3-.2.1-.1.2-.2.2-.3.1-.2.4-.3.6-.4.1,0,.3-.3.4-.2s0,.3,0,.4c-.1.1-.2.2-.2.3-.1.1-.2.1-.2.2l-.1.1c-.1,0-.1.1-.2.1-.1.1-.1.3-.2.4-.1.2-.3.5-.4.7-.1.3-.3.3-.5.5a1,1,0,0,0-.5.4l-.2.2A1.452,1.452,0,0,1,81.5,85.8Z"/></g></svg>