<?xml version="1.0" encoding="utf-8"?>
<!-- Generator: Adobe Illustrator 21.0.2, SVG Export Plug-In . SVG Version: 6.00 Build 0)  -->
<svg version="1.2" baseProfile="tiny" id="Calque_1"
	 xmlns="http://www.w3.org/2000/svg" xmlns:xlink="http://www.w3.org/1999/xlink" x="0px" y="0px" viewBox="0 0 226.5 139.5"
	 xml:space="preserve">
<g>
	<g>
		<path d="M28.6,66.1c1.7,0,2.7-0.6,4.2-1.1c0.5-0.2,1.1-0.1,1.6-0.5c0.2-0.2,0.4-0.3,0.6-0.4c0.1-0.1,0.2-0.1,0.3-0.2
			c0.1-0.1,0.2-0.1,0.3-0.2c0.1-0.1,0.3-0.2,0.5-0.2c0.2,0,0.4,0.3,0.5,0.4c0.1,0.2,0.4,0.4,0.6,0.6c0.1,0.1,0.1,0.2,0.2,0.2
			c0.1,0.1,0.3,0.1,0.4,0.1c0.1,0,0.3,0.1,0.4,0.2c0.2,0.2,0.3,0.4,0.6,0.5c0.3,0.1,0.5,0.3,0.8,0.4c0.1,0,0.1,0,0.2,0.1
			c0,0,0.1,0.1,0.1,0.1c0.2,0.1,0.4,0.1,0.6,0.1c0.1,0,0.3,0,0.4,0c0.1,0,0.3,0.1,0.4,0.1c0.4,0.1,0.8,0,1.2-0.1c0.2,0,0.5,0,0.8,0
			c0.3,0,0.5,0,0.8,0c0.2,0,0.3-0.1,0.4-0.2c0.2-0.1,0.4-0.1,0.6-0.1c0.2,0,0.3,0,0.5,0c0.2,0,0.4-0.1,0.6-0.2
			c0.2-0.1,0.3-0.1,0.5-0.2c0.3-0.1,0.6-0.3,0.8-0.4c0.3-0.2,0.6-0.4,0.9-0.6c0.2-0.1,0.3-0.2,0.5-0.3c0.1-0.1,0.2-0.2,0.2-0.3
			c0-0.2,0-0.3-0.2-0.4c-0.1,0-0.2,0-0.3,0c-0.1,0-0.2,0-0.3,0.1c-0.1,0.1-0.2,0.2-0.2,0.2c-0.1,0.1-0.3,0.2-0.4,0.2
			c-0.1,0.1-0.3,0.2-0.4,0.2c-0.2,0.1-0.4,0.2-0.6,0.3c-0.3,0.2-0.6,0.4-1,0.5c-0.1,0-0.3,0.1-0.4,0.1c-0.2,0-0.4,0.1-0.5,0.1
			C44.2,65,44,65.1,43.8,65c-0.4,0-0.8,0-1.2,0c-0.3,0-0.6,0-0.9,0c-0.4,0-0.8-0.2-1.2-0.3c-0.1-0.1-0.3-0.2-0.4-0.3
			c-0.2-0.2-0.4-0.3-0.5-0.5c-1.3-1.4-1.5-2.7-2.1-4.3c0.2-0.1,0.4,0,0.6,0c0.2,0.1,0.3,0.2,0.4,0.2c0.1,0,0.2,0,0.2,0
			c0,0,0.1,0,0.1,0c0.1,0,0.2,0,0.2,0c0.1,0,0.2,0,0.3,0.1c0.1,0,0.2,0.1,0.3,0.1c0.1,0,0.1,0,0.2,0c0.1,0,0.3,0,0.4,0
			c0.1,0,0.1-0.1,0.1-0.1c0,0,0.1,0,0.1,0c0.1,0,0.2-0.1,0.3-0.1c0.2-0.1,0.5-0.4,0.7-0.5c0.1,0,0.2,0,0.3,0c0.1,0,0.3-0.1,0.4-0.2
			c0.5-0.3,0.9-0.8,1.1-1.3c0.5-1.2,0.4-2.7-0.5-3.6c-1.1-1-2.9-1-4.2-0.6c-1.4,0.4-2.6,1.5-3.2,2.8c-0.3,0.7-0.6,1.4-0.6,2.2
			c-0.1,0.7,0,1.4,0.2,2.1c0,0.1,0.1,0.2,0.1,0.3c0.1,0.3,0,0.6,0,0.9c0,0.2,0,0.3-0.1,0.4c-0.2,0.2-0.5,0.3-0.7,0.5
			c-0.2,0.1-0.4,0.2-0.5,0.4c-0.1,0.2-0.1,0.3-0.2,0.5c-0.3,0.4-0.6,0.7-1.1,1c-0.6,0.4-1.2,0.6-1.8,0.7c-1.3,0.3-2.6,0.2-3.8-0.1
			c-3.6-0.7-2.7-5.9-2.7-8.6c0-1.8,0.1-3.6,0.3-5.4c0.1-1.4,0.2-2.8-0.5-4c-0.1-0.2-0.2-0.4-0.3-0.5c-0.2-0.2-0.4-0.3-0.6-0.5
			c-0.3-0.2-0.7-0.1-1-0.1c-0.1,0-0.2,0-0.2,0c-0.3,0.1-0.4,0.9-0.4,1.1c0,0.2,0,0.3-0.1,0.4c-0.1,0.4,0.1,0.8,0.1,1.2
			c0,0.5,0.1,0.9,0.1,1.4c0,3.6,0,7.2,0.3,10.8C21.9,64.8,25.3,66,28.6,66.1z M40.2,54.2C40.2,54.2,40.2,54.2,40.2,54.2
			c0.1,0,0.1,0,0.1,0c2,0.1,2.9,2.5,1.7,4c-0.6,0.8-1.5,1.2-2.4,1.2c-0.6,0-1.2-0.1-1.8-0.3c-0.2-0.1-0.5-0.2-0.5-0.5
			c0-0.3,0-0.7,0-1c0-0.1,0-0.3,0-0.4c0-0.1,0.1-0.3,0.2-0.4c0-0.1,0.1-0.3,0.1-0.4c0-0.1,0-0.1,0.1-0.2c0-0.1,0-0.2,0.1-0.3
			c0.1-0.3,0.2-0.6,0.5-0.7c0.1-0.1,0.2-0.1,0.3-0.1c0.1,0,0.1-0.1,0.2-0.2c0.1-0.1,0.3-0.3,0.5-0.4C39.5,54.3,39.8,54.3,40.2,54.2z
			"/>
		<path d="M104.4,93.7c-0.1,0-0.1,0-0.3,0c-0.5,0-0.9,0.2-1.3,0.5c-0.2,0.1-0.4,0.2-0.7,0.3c-0.2,0.1-0.4,0-0.7,0.1
			c-0.2,0-0.3,0.1-0.4,0.1c-0.1,0-0.3,0-0.4,0c-0.2,0-0.4,0-0.7-0.1c-0.1,0-0.3-0.1-0.4-0.1c-0.2,0-0.3,0.1-0.5,0
			c-0.1-0.1-0.2-0.2-0.3-0.3c-0.1-0.1-0.3-0.1-0.4-0.1c-0.1,0-0.2-0.1-0.3-0.2c-0.1-0.1-0.2-0.3-0.3-0.5c-0.1-0.3-0.2-0.6-0.5-0.8
			c-0.3-0.3-0.6-0.4-0.8-0.7c-0.2-0.2-0.4-0.5-0.6-0.8c-0.2-0.3-0.6-0.6-0.8-0.8c-0.2-0.2-0.5-0.6-0.7-0.9c-0.1-0.2-0.2-0.4-0.3-0.6
			c-0.1-0.1-0.2-0.2-0.3-0.3c-0.1-0.2-0.3-0.4-0.4-0.6c-0.1-0.2-0.3-0.4-0.5-0.6c-0.2-0.2-0.4-0.5-0.6-0.7c-0.4-0.3-0.9-0.7-1.4-0.7
			c-0.6,0-1.2-0.1-1.7,0.2c-0.2,0.1-0.3,0.3-0.6,0.3c-0.1,0-0.2,0-0.4,0.1c-0.1,0.1-0.3,0.2-0.4,0.3c-0.2,0.2-0.4,0.4-0.7,0.6
			c-0.2,0.2-0.4,0.4-0.6,0.6c-0.1,0.1-0.2,0.3-0.4,0.4c0,0-0.1,0.1-0.1,0.2c-0.1,0.2-0.3,0.3-0.4,0.5c-0.1,0.1-0.2,0.4-0.3,0.5
			c0,0-0.1,0-0.1,0c-0.1,0.1-0.1,0.2-0.2,0.3c-0.1,0.2-0.2,0.2-0.3,0.3c-0.1,0.1-0.3,0.3-0.4,0.5c0,0,0,0.1,0,0.1
			c0,0-0.1,0.1-0.1,0.1c-0.2,0.1-0.3,0.4-0.4,0.5c-0.2,0.2-0.3,0.3-0.5,0.5c-0.1,0.1-0.3,0.4-0.4,0.4c-0.2,0.1-0.3-0.4-0.3-0.6
			c-0.2-0.9-0.3-1.8-0.5-2.7c-0.3-1.5-0.6-3-1.4-4.3c-0.3-0.6-0.7-1.1-1.3-1.4c-0.9-0.4-2.2-0.1-3,0.2c-0.5,0.2-0.9,0.5-1.4,0.8
			c-0.1,0.1-0.2,0.1-0.2,0.2c-0.3,0.4,0,0.8,0.4,0.5c0.4-0.2,0.7-0.6,1.1-0.7c0.5-0.1,1.2-0.1,1.5,0.3c0.6,0.7,0.6,1.1,0.8,1.8
			c0.2,0.8,0.8,1.5,1,2.2c0.2,0.6,0.2,1.2,0.4,1.7c0.3,0.8,0.8,1.5,1.2,2.3c0.3,0.6,0.3,1.8,0.8,2.3c1.4,1.3,3-2,3.7-2.8
			c0.8-0.9,1.4-2,2.2-3c0.8-0.9,2.2-1.3,3.2-0.6c0.5,0.3,0.7,0.9,1.1,1.3c0.5,0.5,1,0.9,1.4,1.5c0.5,0.6,0.8,1.1,1.4,1.6
			c0.4,0.4,1.2,0.8,1.4,1.3c0.2,0.5,2.9,1.5,3.5,1.5c0.1,0,0.2,0,0.2,0c1.1-0.1,2.2-0.4,3.2-0.9c0.3-0.1,0.8-0.3,1-0.6
			c0.1-0.2,0.1-0.5,0-0.6C104.4,93.7,104.4,93.7,104.4,93.7z"/>
		<path d="M154.7,95.1c0,0,0-0.1,0-0.1c0,0-0.1,0-0.1,0c-0.4,0-0.7,0.1-1.1,0.1c-1.2,0-2.5-0.6-3.5-1.3c-2.1-1.5-2.2-3.6-2.5-5.9
			c-0.1-0.7-0.5-1.2-0.6-1.8c-1.5-0.5-2.1,1.3-1.9,2.5c0.1,0.6,0.3,1.1,0.2,1.8c-0.1,0.5,0.1,0.7,0.4,1.1c0.1,0.2,0.2,0.3,0.3,0.4
			c0.1,0.2,0.3,0.4,0.4,0.6c0.1,0.3,0.3,0.4,0.5,0.7c0.1,0.1,0.2,0.2,0.3,0.3c0.1,0.1,0.2,0.1,0.3,0.2c0.2,0.2,0.4,0.5,0.6,0.7
			c0.3,0.3,0.9,0.4,1.3,0.5c0.2,0.1,0.5,0.1,0.7,0.3c0.7,0.5,1.9,0.5,2.7,0.5c0.4,0,0.9,0,1.3,0c0.1,0,0.2,0,0.2,0
			c0.1,0,0.2-0.1,0.2-0.2c0,0,0.1-0.1,0.1-0.2C154.6,95.2,154.6,95.2,154.7,95.1C154.7,95.2,154.7,95.2,154.7,95.1z"/>
		<path d="M200.5,93.7c-1.5,0.6-3.2,0.8-4.6,0c-0.5-0.2-0.8-0.6-1.2-0.9c-0.1-0.1-0.1-0.2-0.2-0.3c-0.1-0.1-0.2-0.3-0.2-0.4
			c-0.1-0.3-0.3-0.5-0.5-0.7c0,0-0.1-0.1-0.1-0.1c0,0-0.1-0.1-0.1-0.1c-0.1-0.1-0.2-0.2-0.3-0.3c-0.1-0.1-0.1-0.3-0.2-0.4
			c-0.1-0.1-0.3-0.2-0.4-0.3c0,0.1,0.5,0,0.6,0c0.3,0,0.6,0,0.9,0c0.3,0,0.7,0,1,0c0.5-0.1,0.9-0.2,1.4-0.5c1.7-1,2.6-3.1,1.6-4.8
			c-0.6-1.1-1.6-1.7-2.9-1.5c-1.3,0.2-2.4,1-3.3,1.9c-1.5,1.6-2.2,3.7-1.8,5.9c0.1,0.6,0.7,1.1,1.1,1.5c0.5,0.5,1.1,1.1,1.8,1.4
			c0.6,0.2,1.3,0.5,1.8,0.9c0.1,0,0.1,0.1,0.2,0.1c0.1,0,0.2,0,0.4,0c0.1,0,0.3,0,0.4,0c0.2,0,0.3,0.1,0.5,0.1
			c0.2,0,0.3,0.1,0.5,0.2c0.1,0,0.2,0,0.2,0c0.1,0,0.2,0.1,0.4,0.1c0.2,0,0.3,0.1,0.4,0.1c0.2,0,0.3,0,0.5-0.1c0.1,0,0.2,0,0.3-0.1
			c0.3-0.1,0.4-0.3,0.7-0.4c0.3-0.1,0.5-0.1,0.8-0.2c0.5-0.1,0.9-0.2,1.4-0.4c0.5-0.2,0.9-0.4,1.3-0.7c0.7-0.6,1.4-1.2,1.9-1.9
			c0.3-0.4,0.6-0.7,0.8-1.1c0.1-0.1,0.2-0.2,0.2-0.3c0,0,0-0.1,0-0.1c0-0.1,0-0.1,0-0.2c0-0.1,0-0.2,0.1-0.2c0,0,0.1,0,0.1-0.1
			c0-0.1,0.1-0.1,0.1-0.2c0.2-0.3,0-0.6-0.3-0.3c-0.4,0.6-0.8,1.1-1.3,1.7c-0.5,0.5-1,1-1.6,1.4c-0.6,0.4-1.2,0.8-1.9,1
			C200.8,93.6,200.6,93.6,200.5,93.7z M194.5,84.3c1.8-1.2,3.6,1.6,2.8,3.4c-0.4,0.9-1.1,1.5-1.9,1.8c-0.8,0.3-2.8-0.1-3-1
			c-0.3-1.1,0.9-3,1.6-3.8C194.2,84.6,194.4,84.4,194.5,84.3z"/>
		<path d="M134.6,78.1c-0.1,0-0.2,0.1-0.3,0.2c-0.2,0.2-0.4,0.4-0.5,0.7c-0.2,0.3-0.1,0.6-0.2,1c-0.1,0.3,0,0.7,0,1.1
			c0,0.6,0.2,1.3,0.4,1.9c0.1,0.4,0.3,0.8,0.4,1.2c0,0.4,0.1,0.8,0.1,1.2c0,0.7,0,1.3-0.2,1.9c-0.2,0.6,0,1.3,0,2
			c0,1.3-0.2,2.7-0.9,3.8c-0.3,0.4-0.6,0.8-1,1.1c-3.1,2.6-7.6,0.3-10.3-1.8c-0.2-0.2-0.5-0.3-0.7-0.5c-0.3-0.2-0.6-0.5-0.9-0.7
			c-0.2-0.2-0.5-0.2-0.7-0.4c-0.1-0.1-0.2-0.3-0.4-0.4c-0.1-0.1-0.2-0.1-0.3-0.2c0,0,0-0.3-0.1-0.3c-0.1-0.2-0.2-0.5-0.3-0.6
			c-0.2-0.3-0.6-0.5-0.9-0.8c-0.2-0.3-0.5-0.5-0.8-0.7c-0.3-0.2-0.4-0.5-0.7-0.7c-0.4-0.3-0.8-0.5-1.2-0.8c-1.1-0.7-1.3-2-2.2-2.8
			c-0.3-0.3-0.7-0.6-0.9-1c-0.2-0.2-0.3-0.5-0.4-0.8c-0.2-0.4-0.6-0.9-0.9-1.3c-0.3-0.3-0.6-0.6-0.9-0.9c-2.1-1.8-4.1-3.6-6.5-4.9
			c-1.4-0.7-2.6-1.7-4-2.3c-1.3-0.6-2.5-0.5-3.9-0.5c-2.1-0.1-6.1,0.3-7.4,2.2c-0.3,0.5-1.2,1.7-0.4,1.9c0-1.7,2.4-2.8,3.9-3
			c0.5,0,0.9,0,1.4-0.1c0.2-0.1,0.4-0.1,0.7-0.1c0.7,0,1.3,0,2,0c0.4,0,0.8-0.1,1.2,0c0.5,0.1,0.7,0.3,1.2,0.5
			c0.4,0.2,0.7,0.4,1.1,0.6c0.2,0.1,0.5,0.2,0.7,0.3c0.2,0.1,0.4,0.2,0.6,0.3c0.2,0.1,0.2,0.2,0.3,0.3c0.2,0.3,0.6,0.5,0.9,0.7
			c0.1,0.1,0.2,0.3,0.3,0.5c0.1,0.1,0.2,0.2,0.3,0.3c0.2,0.3,0.3,0.5,0.6,0.6c0.2,0.1,0.3,0.2,0.4,0.4c0.1,0.2,0.1,0.4,0.2,0.6
			c0.1,0.2,0.4,0.2,0.5,0.3c0.3,0.3,0.6,0.6,0.8,0.9c0.3,0.3,0.7,0.5,1,0.8c0.2,0.2,0.3,0.4,0.5,0.6c0.1,0.1,0.1,0.1,0.2,0.2
			c0.1,0.3,0.2,0.5,0.4,0.7c0.1,0.2,0.3,0.4,0.4,0.5c0.1,0.2,0.3,0.4,0.5,0.5c0.2,0.1,0.4,0.2,0.6,0.4c0.1,0.1,0.2,0.3,0.3,0.4
			c0,0,0.1,0,0.1,0.1c0.1,0.1,0.1,0.3,0.2,0.4c0.1,0.3,0.3,0.5,0.4,0.8c0.2,0.3,0.6,0.4,0.9,0.6c0.3,0.2,0.4,0.5,0.6,0.8
			c0.2,0.4,0.5,0.7,0.7,1c0.3,0.5,0.7,0.8,1.2,1.1c0.2,0.1,0.3,0.3,0.4,0.5c0.1,0.2,0.3,0.4,0.5,0.5c1,0.8,1.9,1.6,2.9,2.4
			c0.6,0.5,1.2,0.9,1.9,1.3c2.4,1.4,5,2.6,7.7,2.9c1.3,0.2,2.7,0.3,4,0c0.6-0.1,1.2-0.3,1.8-0.6c0.3-0.1,0.5-0.3,0.8-0.5
			c0.2-0.1,0.4-0.3,0.5-0.5c0-0.1,0-0.2,0.1-0.3c0.1-0.1,0.1-0.2,0.2-0.2c0.2-0.1,0.4-0.2,0.6-0.4c0.4-0.4,0.5-0.9,0.8-1.4
			c0.1-0.2,0.3-0.3,0.5-0.5c0.1-0.2,0.2-0.4,0.3-0.6c0.2-0.3,0.4-0.6,0.7-0.9c0.3-0.3,0.5-0.8,0.6-1.1c0.1-0.3,0.1-0.6,0.1-0.9
			c0-0.3,0.1-0.6,0.1-0.9c0-0.6,0-1.2,0.1-1.7c0.1-0.5,0.1-0.9,0.1-1.4c0-0.4,0-0.8-0.1-1.2c-0.1-0.3,0-0.6-0.1-0.9
			c-0.1-0.5-0.4-1-0.5-1.5c-0.1-0.4-0.2-0.6-0.4-0.9c-0.3-0.5-0.7-1.1-1.3-1.1C134.8,78.1,134.7,78.1,134.6,78.1z"/>
		<path d="M149.9,77c-0.1-1.3-2.3-1.7-3.3-1.4c-0.5,0.2-0.5,0.6-1.3,0.5c-0.1,0.6,0.5,0.9,0.7,1.5c0.7,0,1.1,0.7,1.8,0.8
			C148.4,78.5,149.9,77.8,149.9,77z"/>
		<path d="M171.2,94.8c0.3-0.2,0.6-0.4,0.8-0.6c0.1-0.1,0.2-0.2,0.3-0.3c0,0,0.3-0.4,0.1-0.3c-1.2,1-2.7,1.8-4.4,1.7
			c-1.4-0.1-2.7-0.6-3.8-1.6c-2.4-2.1-3.2-5.5-3.5-8.6c-0.2-2.4,0.1-4.8,0.8-7c0.2-0.6,0.4-1.1,0.6-1.7c0-0.1,0.1-0.2,0.1-0.4
			c0,0,0-0.1,0-0.1c0-0.2,0.1-0.4,0.3-0.5c0.1-0.1,0.2-0.2,0.3-0.3c0.1-0.1,0.1-0.2,0.1-0.3c0.1-0.3,0.3-0.5,0.4-0.7
			c0,0,0,0,0.1-0.1c0.1-0.1,0.1-0.1,0.1-0.2c0.1-0.2,0.2-0.3,0.3-0.5c0.1-0.1,0.1-0.2,0.2-0.3c0.1-0.1,0.2-0.1,0.3-0.1
			c0.1,0,0.2-0.1,0.4-0.1c0.1,0,0.3,0,0.4,0c0-0.1,0-0.1,0.1-0.2c0,0,0.1-0.1,0.2-0.1c0.2-0.1,0.5-0.2,0.7-0.2
			c0.2,0,0.3,0.1,0.4,0.2c0.1,0.2,0.3,0.3,0.5,0.4c0.2,0.1,0.3,0.3,0.5,0.4c0.6,0.6,1,1.5,1.1,2.4c0,0.2,0.1,0.5,0.1,0.7
			c0,0,0,0.1,0,0.1c0,0,0,0.1,0,0.1c0,0.1,0.1,0.2,0.2,0.3c0,0,0,0.1,0.1,0.1c0,0,0.1,0,0.1,0c0,0,0.1,0,0.1,0c0,0,0,0,0,0
			c0,0,0-0.1,0-0.1c0-0.1,0-0.2,0-0.3c0,0,0-0.1,0-0.1c0,0,0-0.1,0-0.1c0-0.1,0-0.1,0-0.2c0-0.1-0.1-0.2-0.1-0.3c0,0,0-0.1,0-0.1
			c0-0.1,0-0.1,0-0.2c0,0,0,0,0-0.1c0,0,0,0,0-0.1c0,0,0-0.1,0-0.1c0-0.1,0-0.1,0-0.2c0-0.2-0.1-0.4-0.2-0.6
			c-0.1-0.3-0.2-0.5-0.3-0.8c-1.3-2.8-4.5-3-6.8-1.3c-0.7,0.6-1.2,1.2-1.8,2c-0.4,0.5-0.9,0.9-1.3,1.5c-0.4,0.6-0.3,1.4-0.6,2
			c-0.1,0.3-0.2,0.5-0.2,0.8c0,0.2-0.1,0.5-0.2,0.7c-0.1,0.2-0.2,0.3-0.2,0.5c-0.2,0.9-0.2,1.8-0.2,2.7c0,0.8,0,1.5,0,2.3
			c0,0.4,0,0.7,0,1.1c0,0.6,0.2,1.1,0.4,1.6c0.1,0.2,0.2,0.4,0.2,0.7c0,0.2,0,0.3,0,0.5c0.1,0.5,0.5,0.6,0.7,1
			c0.3,0.6,0.9,1.2,1.2,1.8c0.2,0.4,0.4,0.7,0.7,1c0.1,0.2,0.2,0.3,0.3,0.4c0.2,0.3,0.6,0.5,0.9,0.8c0.2,0.2,0.2,0.1,0.3,0.2
			c0.1,0.1,0.2,0.1,0.4,0.2c0.2,0.2,0.4,0.4,0.6,0.5c0.2,0.1,0.4,0.1,0.6,0.1c0.5,0.2,1.1,0.3,1.7,0.4c1.1,0.2,2.3,0.3,3.4,0.1
			C169.7,95.5,170.5,95.2,171.2,94.8z"/>
		<path d="M186.7,94.8c0.3-0.2,0.6-0.4,0.8-0.6c0.1-0.1,0.2-0.2,0.3-0.3c0,0,0.3-0.4,0.1-0.3c-1.2,1-2.7,1.8-4.4,1.7
			c-1.4-0.1-2.7-0.6-3.8-1.6c-2.4-2.1-3.2-5.5-3.5-8.6c0-0.2,0-0.4,0-0.6c-0.1-1.7,0.1-3.3,0.4-5c0.2-0.8,0.4-1.6,0.7-2.4
			c0.1-0.2,0.2-0.4,0.2-0.6c0.1-0.2,0.2-0.4,0.2-0.5c0-0.1,0-0.3,0-0.4c0-0.1,0.1-0.2,0.1-0.3c0-0.1,0-0.2,0-0.3
			c0.1-0.3,0.3-0.4,0.5-0.7c0.1-0.1,0.2-0.2,0.3-0.4c0.1-0.1,0.2-0.3,0.3-0.4c0.2-0.2,0.3-0.4,0.4-0.5c0.1-0.1,0.1-0.2,0.3-0.3
			c0.1-0.1,0.3-0.1,0.5-0.1c0.2,0,0.5,0,0.7,0c0.2,0,0.5,0,0.7,0c0.2,0,0.4,0,0.6,0c1,0.5,1.5,1.5,1.8,2.5c0,0.1,0.1,0.3,0.1,0.4
			c0,0,0,0.1,0,0.1c0,0.1,0.1,0.2,0.1,0.4c0,0.1,0,0.2,0,0.3c0,0.1,0.1,0.2,0.1,0.2c0,0,0.1,0.1,0.1,0.1c0,0,0,0,0,0.1
			c0,0,0,0,0,0.1c0,0.1,0,0.1,0.1,0.1c0.1,0,0.1,0,0.1-0.1c0-0.2,0-0.4,0-0.5c0-0.1,0-0.2,0-0.3c0,0,0,0,0-0.1c0,0,0-0.1,0-0.1
			c0-0.1,0-0.1,0-0.2c0-0.1-0.1-0.2-0.1-0.2c0,0,0-0.1,0-0.1c0-0.1,0-0.1-0.1-0.1c0-0.1,0-0.2,0-0.3c0-0.1-0.1-0.3-0.1-0.4
			c-0.1-0.3-0.2-0.5-0.3-0.8c-0.2-0.4-0.4-0.7-0.6-1c-0.1-0.1-0.2-0.3-0.4-0.4c-0.1-0.1-0.1-0.2-0.2-0.2c-0.1-0.1-0.2-0.1-0.3-0.2
			c-0.2-0.2-0.4-0.3-0.7-0.4c-0.1-0.1-0.3-0.1-0.4-0.2c-0.2,0-0.3-0.1-0.5-0.2c-0.2,0-0.5,0-0.7,0c-0.2,0-0.5,0-0.6,0
			c-0.1,0-0.2,0.1-0.3,0.2c-0.1,0-0.2,0-0.3,0.1c-0.2,0.1-0.3,0.2-0.4,0.2c-0.3,0.2-0.6,0.3-0.9,0.5c-0.3,0.2-0.5,0.4-0.8,0.6
			c-2.2,2-3.2,5.1-3.6,8c-0.1,1-0.3,2.1-0.2,3c0,0.2,0.1,0.3,0.1,0.5c0.1,0.6-0.1,1.2,0,1.8c0,0.3,0.2,0.5,0.3,0.7
			c0.1,0.3,0.2,0.7,0.3,1c0,0.1,0.1,0.1,0.1,0.2c0,0.1,0,0.1,0,0.2c0,0.1,0.1,0.1,0.1,0.1c0.2,0.3,0.3,0.7,0.4,1
			c0.1,0.2,0.2,0.5,0.3,0.6c0.1,0.1,0.3,0.1,0.3,0.2c0.1,0.1,0.2,0.5,0.2,0.6c0.1,0.3,0.2,0.6,0.2,0.9c0,0.3,0.3,0.4,0.4,0.7
			c0.3,0.4,0.6,0.4,1,0.6c0.2,0.2,0.4,0.4,0.6,0.7c0.2,0.4,0.6,0.5,0.9,0.9c0.1,0.2,0.3,0.3,0.4,0.4c0.3,0.3,0.7,0.3,1.1,0.2
			c0.4,0,0.8,0.1,1.3,0.1c1,0.1,1.9,0.2,2.9,0C185.2,95.5,186,95.2,186.7,94.8z"/>
		<path d="M76.3,93.3c-0.1,0-0.3,0-0.4,0c-0.1,0.1-0.1,0.2-0.1,0.3c0,0.1-0.1,0.2-0.2,0.3c-0.1,0.1-0.3,0.2-0.4,0.3
			c-0.1,0-0.2,0-0.3,0.1c-0.1,0-0.1,0.1-0.2,0.1c-0.1,0-0.2,0-0.2,0c-0.1,0-0.2,0.1-0.4,0.1c-0.2,0-0.3,0.1-0.5,0.1
			c-0.2,0-0.3,0-0.4,0.1c-0.1,0-0.3,0-0.4,0c-0.3,0-0.5,0.1-0.8,0.1c-0.3,0-0.5,0.1-0.8,0.1c-1.8,0-3.3-0.6-4.9-1.5
			c-0.6-0.3-1-0.6-1.5-1.1c-0.3-0.3-0.6-0.9-1-1.1c-0.1-0.6,0.4-0.4,0.7-0.8c0.2-0.2,0.4-0.3,0.7-0.5c0.1-0.1,0.2-0.1,0.4-0.1
			c0.2-0.1,0.3-0.2,0.5-0.3c0.1,0,0.1,0,0.2-0.1c0.1-0.1,0-0.1,0.1-0.2c0-0.1,0.1-0.3,0.3-0.3c0.1-0.1,0.2-0.2,0.3-0.3
			c0.1-0.1,0.1-0.2,0.2-0.3c0.1-0.1,0.2-0.1,0.2-0.3c0-0.1,0-0.2,0-0.3c0-0.1,0.1-0.2,0.1-0.3c0-0.2,0.1-0.4,0.1-0.6
			c0-0.7,0.2-1.5-0.1-2.2c-0.2-0.4-0.7-1.2-1.1-1.3c-0.4-0.2-1.2,0.1-1.6,0.1c-1.7,0.3-3.1,1.4-3.8,3c-0.2,0.6-0.1,1.3-0.2,1.9
			c0,0.6-0.1,1.8-0.5,2.2c-0.3,0.2-1.6,0.1-1.7,0.4c0,0.2-0.3,0.6,0,0.7c0.2,0.1,0.5,0.2,0.7,0.2c0.1,0,0.2,0,0.3-0.1
			c0.4-0.1,1.1-0.4,1.6-0.2c0.3,0.1,0.3,0.6,0.5,0.8c0.7,0.6,1.5,1.1,2.3,1.5c2.2,1,4.3,2.3,6.8,2.3c0.2,0,0.2,0,0.3-0.1
			c0.1,0,0.3-0.1,0.4-0.1c0.2,0,0.4-0.1,0.6-0.1c0.1,0,0.2-0.1,0.3-0.1c0.1,0,0.3,0,0.4,0c0.1,0,0.3-0.1,0.4-0.1
			c0.2,0,0.4-0.1,0.7-0.1c0.3,0,0.7-0.1,1-0.2c0.1,0,0.1,0,0.2-0.1c0,0,0.1,0,0.2,0c0.1,0,0.2-0.1,0.3-0.1c0.2-0.1,0.4-0.4,0.6-0.6
			c0.1-0.2,0.3-0.3,0.4-0.5C76.3,93.9,76.5,93.4,76.3,93.3z M63,89.3c-0.3-0.1-0.4-0.3-0.4-0.8c0-0.6,0-1.4,0.2-2
			c0.1-0.2,0.1-0.4,0.2-0.5c0.1-0.2,0.1-0.4,0.2-0.5c0,0,0,0,0,0c0.4-0.6,1.4-1.3,2.1-0.9c0.8,0.4,0.7,1.5,0.7,2.3
			c-0.1,1.4-1.1,2.6-2.5,2.6C63.3,89.4,63.1,89.4,63,89.3z"/>
		<path fill="none" d="M92.2,56c0,0.3,0,0.7,0,1c0,0.6,0.5,1,1,1.1c0.1,0,0.1,0,0.2,0c0.1,0,0.1,0.1,0.2,0.1c0.1,0,0.1,0,0.2,0
			c0,0,0.1,0.1,0.1,0.1c0.2,0.1,0.5,0.1,0.7,0.1c0.3,0,0.6-0.1,0.8-0.2c0.5-0.2,1-0.5,1.4-1c1.2-1.6,0.3-3.9-1.7-4c0,0,0,0-0.1,0
			c0,0,0,0-0.1,0c-0.2,0-0.4,0.1-0.5,0.1c-0.1,0-0.3,0-0.4,0c-0.4,0-0.6,0.2-0.9,0.4C93,54,92.9,54,92.8,54.1
			c-0.1,0.1-0.2,0.2-0.3,0.3c-0.1,0.1-0.3,0.2-0.3,0.4c-0.1,0.2,0,0.5,0,0.7C92.2,55.7,92.2,55.9,92.2,56z"/>
		<path d="M92.7,63.6c0.1,0.1,0.2,0.2,0.3,0.2c0.1,0,0.1,0.1,0.2,0.1c0,0,0,0.1,0.1,0.1c0.1,0.1,0.3,0.1,0.4,0.1
			c0.2,0,0.4,0.1,0.5,0.2c0.3,0.2,0.7,0.1,1,0.2c0.2,0.1,0.4,0.2,0.6,0.2c0.1,0,0.2,0,0.2,0c0.2,0.1,0.5,0.2,0.7,0.2
			c0.2,0,0.5-0.1,0.7,0c0.2,0,0.4,0,0.6,0c0.6-0.1,1.1-0.2,1.7-0.4c0.1,0,0.2-0.1,0.3-0.1c0.8-0.3,1.5-0.7,2.2-1.2
			c0.2-0.1,0.3-0.4,0.6-0.5c0.1-0.1,0.3-0.1,0.5-0.2c0.1-0.1,0.1-0.1,0.2-0.1c0.1,0,0.1-0.1,0.2-0.1c0.1-0.1,0.2-0.1,0.3-0.2
			c0.1-0.1,0.2-0.2,0.3-0.3c0.2-0.1,0.3-0.3,0.5-0.5c0,0,0,0,0,0c0,0,0.1,0,0.1-0.1c0,0,0.1-0.1,0.1-0.1c0-0.1,0-0.1,0.1-0.2
			c0-0.1,0.1-0.1,0.1-0.2c0.1-0.1,0.1-0.2,0.2-0.3c0-0.1,0.1-0.2,0.1-0.3c0.1-0.1,0.2-0.2,0.3-0.3c0,0,0.1-0.1,0.1-0.2
			c0-0.1,0.1-0.1,0.1-0.2c0.1-0.1,0.1-0.2,0.2-0.2c0.1-0.1,0.1-0.2,0.2-0.3c0.1-0.1,0.1-0.2,0.2-0.2c0,0,0,0,0.1-0.1
			c0,0,0-0.1,0-0.1c0-0.1,0-0.2-0.1-0.1c-0.1,0-0.1,0.1-0.1,0.1c-0.1,0.1-0.2,0.2-0.3,0.3c-0.1,0.2-0.3,0.3-0.5,0.4
			c-0.1,0-0.2,0.1-0.2,0.1c0,0-0.1,0.1-0.1,0.1c0,0-0.1,0.1-0.1,0.1c0,0-0.1,0.1-0.1,0.1c-0.1,0.1-0.2,0.2-0.2,0.3
			c-0.1,0.1-0.2,0.2-0.4,0.3c0,0-0.1,0.1-0.1,0.1c0,0-0.1,0-0.1,0c0,0,0,0,0,0.1c0,0,0,0-0.1,0.1c-0.1,0.1-0.1,0.1-0.2,0.2
			c-0.1,0.1-0.1,0.2-0.2,0.3c-0.2,0.3-0.6,0.5-0.8,0.7c-0.4,0.3-0.8,0.5-1.2,0.7c-0.6,0.3-1.3,0.6-2,0.8c-0.3,0.1-0.7,0.2-1,0.3
			c-0.3,0.1-0.5,0.2-0.8,0.2c-0.2,0-0.4,0-0.6,0c-0.3,0-0.6,0-0.8-0.1c-0.2-0.1-0.3-0.1-0.5-0.1c-0.2,0-0.3,0.1-0.5,0
			c-0.2,0-0.3-0.2-0.5-0.3c-0.5-0.2-1.1,0-1.4-0.5c-0.1-0.2-0.2-0.4-0.4-0.6c-0.1-0.1-0.3-0.2-0.4-0.3c-0.1-0.1-0.2-0.3-0.3-0.4
			c-0.1-0.2-0.2-0.3-0.3-0.5c0,0,0-0.1,0-0.1c0,0-0.1-0.1-0.1-0.1c-0.1-0.1-0.1-0.3-0.1-0.4c0-0.1-0.1-0.2-0.1-0.3
			c-0.1-0.2,0-0.4-0.1-0.6c0-0.2-0.1-0.4-0.1-0.7c0-0.2-0.1-0.4,0.1-0.5c0.1-0.1,0.1-0.1,0.2,0c0.2,0.1,0.4,0.2,0.6,0.3
			c0.2,0.1,0.5,0.2,0.7,0.2c1,0.2,2.1,0,3-0.6c1.4-0.9,1.9-2.8,1.2-4.3c-1-2-3.8-1.8-5.6-1c-0.4,0.2-1,0.6-1.4,0.9
			c-1.7,1.3-1.9,3.6-1.6,5.5c0.1,0.7,0.3,1.4,0.6,2c0.1,0.1,0.1,0.2,0.2,0.3c0,0,0.1,0,0.1,0.1c0.1,0.1,0.1,0.2,0.2,0.2
			c0.1,0.1,0.2,0.2,0.3,0.3c0.1,0.1,0.1,0.1,0.2,0.1c0.1,0,0.1,0.1,0.2,0.1c0.1,0.1,0.3,0.1,0.3,0.2c0.1,0.1,0.1,0.2,0.1,0.3
			c0.1,0.1,0.1,0.2,0.2,0.2c0.1,0,0.2,0,0.3,0C92.2,63.4,92.5,63.5,92.7,63.6z M92.8,54.7c0.3-0.4,0.5-0.7,0.9-1.1
			c0.8-0.8,2.4-0.2,3,0.6c0.7,0.9,0.7,2.2,0,3.1c-0.3,0.5-0.8,0.8-1.4,1c-0.2,0.1-0.5,0.2-0.8,0.2c-0.2,0-0.5,0-0.7-0.1
			c0,0-0.1-0.1-0.1-0.1c-0.1,0-0.1,0-0.2,0c-0.1,0-0.1-0.1-0.2-0.1c-0.1,0-0.1,0-0.2,0c-0.9-0.2-1-0.9-1.1-1.6"/>
		<path d="M115.7,57c-0.7-0.9-1.5-1.7-2.2-2.7c-0.2-0.2-0.3-0.4-0.5-0.6c-0.1-0.1-0.1-0.1-0.2-0.2c-0.1,0-0.1,0-0.2-0.1
			c-0.1-0.1-0.1-0.4-0.1-0.6c0-0.2,0-0.4,0-0.5c0-0.2,0-0.3,0-0.5c0-0.2-0.1-0.4-0.2-0.6c-0.1-0.3-0.3-0.4-0.6-0.4
			c-0.2,0-0.5-0.1-0.7-0.1c-0.3,0-0.8,0.3-0.8,0.7c0,0.1,0,0.2,0,0.3c0,0.4-0.3,0.8-0.4,1.1c0,0.1-0.1,0.2-0.1,0.3
			c0,0.1-0.1,0.3-0.1,0.4c-0.1,0.3-0.2,0.6-0.2,0.8c-0.1,0.2-0.1,0.4-0.2,0.6c-0.1,0.2-0.1,0.5-0.2,0.7c-0.1,0.2-0.2,0.5-0.3,0.7
			c-0.1,0.2-0.2,0.2-0.2,0.4c0.1,0,0.2,0,0.3,0c0.1,0,0.2-0.2,0.2-0.3c0.2-0.3,0.3-0.7,0.5-1c0.1-0.2,0.1-0.4,0.3-0.5
			c0.1-0.1,0.3-0.3,0.5-0.3c0.2,0,0.3,0.2,0.4,0.3c0.2,0.2,0.3,0.4,0.4,0.6c0.1,0.1,0.1,0.3,0.3,0.5c0.1,0.1,0.2,0.1,0.3,0.2
			c0.1,0.1,0.2,0.3,0.3,0.5c0.1,0.2,0.3,0.3,0.4,0.4c0.2,0.2,0.4,0.4,0.6,0.6c0.4,0.5,0.8,0.9,1.1,1.5c0.5,1,0.8,2.2,0.9,3.4
			c0,0.3,0,0.4-0.2,0.6c-0.1,0.1-0.2,0.2-0.2,0.3c-0.1,0.1-0.2,0.3-0.3,0.4c-0.4,0.3-1,0.2-1.5,0.3c-0.2,0.1-0.4,0.2-0.7,0.1
			c-0.3,0-0.5-0.1-0.7,0c-0.3,0-0.4-0.1-0.7-0.1c-0.3,0-0.6-0.2-0.8-0.1c-0.1,0.3-0.1,0.2,0.1,0.4c0.2,0.1,0.5,0.1,0.8,0.2
			c0.4,0.2,0.9,0.2,1.3,0.3c0.7,0.2,1.5,0.2,2.3,0c0.6-0.2,1.1-0.3,1.7-0.6c1-0.6,1.5-1.6,1.6-2.7C117.6,60,116.8,58.4,115.7,57z"/>
		<path d="M136,62C136,62,136,62,136,62c-0.1,0-0.2,0-0.2,0c-0.2,0-0.4,0-0.6,0.1c-0.1,0-0.1,0.1-0.1,0.1c-0.2,0.2-0.5,0.4-0.7,0.6
			c-0.1,0.1-0.2,0.2-0.3,0.2c-0.3,0.1-0.6,0.1-0.9,0.1c-0.5,0-1,0.3-1.5,0.4c-0.8,0.2-1.6,0.2-2.3,0.1c-2.5-0.3-3.9-2.4-4.3-4.7
			c0-0.2,0.2-0.3,0.3-0.2c2.6,1.3,6-0.9,5.5-3.8c0,0,0-0.1,0-0.1c-0.2-1.1-1-1.9-2-2.1c-0.5-0.1-1.1-0.1-1.6-0.1
			c-0.5,0.1-1.2,0.2-1.6,0.5c-0.1,0-0.2,0.1-0.2,0.1c-0.2,0.1-0.5,0.2-0.6,0.4c-0.1,0.1-0.2,0.2-0.3,0.3c-0.1,0.1-0.1,0.2-0.2,0.3
			c0,0-0.1,0-0.1,0c0,0-0.1,0.1-0.1,0.2c-0.1,0.1-0.2,0.2-0.3,0.2c-0.1,0.1-0.2,0.2-0.3,0.4c-0.1,0.1-0.2,0.2-0.4,0.3
			c-0.1,0.1-0.1,0.2-0.2,0.3c0,0.1-0.1,0.1-0.2,0.2c-0.1,0.1-0.1,0.2-0.1,0.3c-0.1,0.1-0.1,0.2-0.2,0.3c-0.1,0.2-0.2,0.4-0.2,0.6
			c0,0.2,0,0.3,0,0.5c-0.2,0.7-0.1,1.6,0.1,2.3c0.1,0.4,0.2,0.8,0.5,1.2c0.1,0.1,0.2,0.2,0.3,0.3c0.1,0.2,0.1,0.4,0.4,0.5
			c0.2,0.1,0.4,0.2,0.6,0.3c0.1,0.1,0.2,0.1,0.4,0.2c0.2,0.1,0.4,0.2,0.6,0.4c0.2,0.1,0.1,0.2,0.2,0.4c0.3,0,0.3,0.3,0.5,0.5
			c0.1,0.2,0.3,0.3,0.4,0.4c0.4,0.3,0.5,0.8,0.9,0.9c0.2,0.1,0.3,0.1,0.5,0.1c0.2,0,0.4,0,0.7,0.1c0.2,0,0.4,0,0.7,0
			c0.2,0,0.4,0.1,0.6,0.1c0.5,0.1,1,0,1.5-0.1c0.3,0,0.6-0.1,0.9-0.2c1.1-0.3,2.1-0.8,3.1-1.5c0.2-0.2,0.4-0.3,0.6-0.5
			c0.1-0.1,0.2-0.2,0.3-0.2c0.1,0,0.2-0.1,0.2-0.2C136.1,62.2,136.1,62.1,136,62C136,62,136,62,136,62z M124.9,56.7
			c0-0.2,0-0.3,0.1-0.5c0.1-0.1,0.1-0.2,0.2-0.4c0.1-0.1,0.2-0.2,0.3-0.3c0.1-0.1,0.2-0.3,0.2-0.5c0-0.1,0.1-0.2,0.2-0.3
			c0.1-0.1,0.1-0.1,0.1-0.2c0-0.1,0-0.1,0-0.2c0.1-0.2,0.2-0.5,0.4-0.7c0.1-0.1,0.4-0.2,0.5-0.2c0.1,0,0.2,0,0.4,0
			c0.1,0,0.3,0,0.4,0c0.2,0,0.5-0.1,0.6,0c1.4,0.6,1.9,2.4,1.1,3.7c-0.9,1.4-2.9,1.8-4.4,1.2c-0.1,0-0.1-0.1-0.1-0.2
			C124.9,57.7,125,57.2,124.9,56.7z"/>
		<path d="M176.2,50c0,0-0.1,0-0.1,0c-0.1,0-0.2,0.1-0.4,0.1c-0.3,0-0.6,0-0.9,0c-0.4,0-0.8,0-1.1,0c-0.4,0-0.7,0-1.1-0.1
			c-0.7,0-1.3,0-2,0c-0.2,0-0.5,0-0.7,0c-0.1,0-0.2,0-0.3,0c-0.2,0-0.3,0-0.5,0c-0.3,0-0.6,0-0.9,0c-0.2,0-0.3,0-0.5,0
			c-0.1,0-0.1,0-0.2,0c-0.2,0-0.3,0.1-0.5,0.1c-0.3,0.1-0.6,0.1-0.8,0.1c-0.3,0-0.7,0-1,0c-0.1,0-0.2,0-0.3,0
			c-0.1,0-0.2,0.1-0.3,0.1c-0.2,0-0.3,0-0.5,0c-0.1,0-0.3,0-0.4,0c-0.3,0-0.5,0-0.8,0c-0.2,0-0.5,0.1-0.5-0.2c0-0.6,0-1.2,0-1.9
			c0-0.2,0-0.5,0-0.7c0-0.1-0.1-0.3-0.1-0.4c-0.1-0.2-0.1-0.4-0.1-0.6c0-0.3,0-0.5,0-0.8c0-0.2,0-0.5,0-0.7c0-0.1,0.1-0.3,0.1-0.5
			c0-0.2,0-0.3,0-0.5c0-0.2,0-0.3,0-0.5c0-0.2,0-0.4-0.1-0.5c0-0.1-0.1-0.2-0.1-0.3c-0.1-0.1-0.1-0.1-0.2-0.1c-0.1,0-0.1,0-0.2,0
			c-0.1,0-0.1,0-0.2,0c-0.1,0-0.2,0-0.3,0c-0.2,0-0.3,0.4-0.3,0.5c0,0.1-0.1,0.2-0.1,0.3c0,0.1-0.1,0.2-0.1,0.3
			c0,0.2-0.1,0.3-0.1,0.5c0,0.1,0,0.2-0.1,0.3c0,0.1-0.1,0.2-0.1,0.3c0,0.1,0,0.2-0.1,0.4c-0.1,0.2,0,0.3-0.1,0.5
			c-0.1,0.2-0.1,0.4-0.1,0.6c-0.1,0.3,0,0.7-0.1,1.1c0,0.1,0,0.2,0,0.4c0,0.1,0,0.2,0,0.2c0,0.1,0,0.2,0,0.3c0,0.1,0,0.2-0.1,0.2
			c0,0.1,0,0.2,0,0.3c0,0.1,0,0.2,0,0.3c0,0.3-0.1,0.7-0.3,1c-0.3,0.4-1.8,0.2-2.4,0.2c-0.9,0-1.7,0-2.6,0c-0.6,0-2.1-0.3-2.2,0.5
			c-0.1,1,1.6,0.7,2.2,0.7c0.2,0,0.4,0,0.6,0c0.1,0,0.3-0.1,0.4,0c0.1,0,0.1,0,0.1,0c0.1,0,0.2,0,0.3,0c0.2,0,0.3,0,0.5,0
			c0.2,0,0.4,0,0.7,0c0.2,0,0.4,0,0.5,0c0.2,0.1,0.4,0.2,0.6,0.3c0.2,0.1,0.4,0,0.7,0.1c0.2,0,0.5,0.1,0.7,0.1c0.1,0,0.2,0,0.2,0
			c0,0,0,0.1,0,0.1c0,0.1,0,0.3,0,0.4c0,0.2,0,0.4,0,0.7c-0.1,1.5-0.1,3,0,4.6c0,0.5,0.3,1.1,0.2,1.6c0,0.4-0.6,1.1-0.9,1.5
			c-0.4,0.6-1,1.1-1.5,1.5c-1.1,0.9-2.5,1.7-4,1.8c-2.3,0.1-4.5-0.9-5.5-3c-0.4-0.9-0.7-1.8-0.9-2.8c-0.2-1-0.2-2-0.5-2.9
			c-0.3-0.9-0.9-1.2-1.7-1.5c-0.6-0.2-1.2-0.4-1.8-0.6c-0.5-0.2-1.2-0.7-1.8-0.6c-0.3,0.1-0.5,0.4-0.6,0.7c0,0.1-0.1,0.2-0.2,0.3
			c0,0-0.1,0.1-0.1,0.1c-0.1,0.1-0.1,0.2-0.1,0.3c-0.1,0.2,0,0.4,0,0.7c0,0.3,0,0.4-0.2,0.7c-0.2,0.3,0,0.7-0.1,1c0,0.1,0,0.1,0,0.2
			c0,0.1-0.1,0.2-0.1,0.3c0,0.2,0,0.4,0,0.5c0,0.2-0.1,0.4-0.1,0.6c0,0.1,0,0.3,0,0.4c0,0.1,0.1,0.1,0.1,0.1c0.1,0,0.2,0,0.3-0.1
			c0.1-0.1,0.2-0.2,0.3-0.3c0.1-0.1,0-0.4,0-0.5c0-0.2,0-0.4,0-0.6c0-0.1,0-0.3,0-0.4c0.1-0.2,0.2-0.5,0.2-0.8c0-0.1,0-0.2,0-0.3
			c0,0,0-0.1,0-0.1c0,0,0-0.1,0.1-0.1c0.1-0.1,0.1-0.2,0.2-0.2c0-0.1,0.1-0.1,0.1-0.1c0.3-0.1,0.7,0.1,0.9,0.2
			c0.1,0.1,0.2,0.1,0.3,0.2c0.1,0.1,0.2,0.1,0.3,0.2c0.1,0,0.1,0.1,0.1,0.1c0.1,0.1,0.2,0,0.4,0.1c0.2,0,0.3,0,0.4,0.1
			c0.1,0,0.2,0.1,0.3,0.1c0,0,0.1,0.1,0.1,0.2c0.1,0.1,0.1,0.2,0.2,0.3c0.1,0.1,0.1,0.2,0.2,0.2c0.1,0.1,0.3,0.3,0.4,0.4
			c0.2,0.1,0.3,0.3,0.4,0.5c0,0.1,0.1,0.3,0.1,0.4c0,0.2,0,0.5,0,0.7c0,0.1,0.1,0.3,0.1,0.4c0,0.1,0,0.2,0,0.3c0,0.1,0,0.2,0,0.2
			c0,0.1,0,0.2,0,0.3c0,0.2,0.1,0.3,0.1,0.5c0,0.1,0,0.3,0,0.4c0,0.1,0,0.3,0.1,0.4c0.1,0.2,0.1,0.3,0.2,0.5c0.5,1.1,1.2,1.6,2.3,2
			c1.3,0.5,2.2,1.2,3.7,1.2c2.3,0,4.5-0.7,6.3-2.2c0.7-0.6,1.4-1.4,1.7-2.3c0.2-0.5,0.5,0.2,0.6,0.3c0.3,0.4,0.8,0.5,1.1,0.9
			c0.4,0.4,0.6,0.9,0.9,1.3c0.7,0.7,1.7,0.9,2.5,1.3c1.1,0.5,2.3,0.6,3.5,0.5c1.7,0,3.2-0.5,4.5-1.6c0.4-0.3,0.7-0.6,1.1-1
			c0.2-0.2,0.4-0.5,0-0.5c-0.3-0.1-0.7,0.2-0.9,0.4c-0.5,0.6-1,1.2-1.8,1.6c-1,0.5-2.2,0.6-3.4,0.5c-2.1-0.2-4.1-1.4-5.1-3.2
			c-0.6-1.2-0.7-2.5-0.7-3.8c0-1.3,0-2.6,0-3.9c0-0.3,0-0.7,0-1c0-0.2,0-0.4,0-0.5c0,0,0-0.1,0-0.1c0.1-0.1,0.2-0.1,0.3-0.1
			c0.3,0,0.6,0,0.9,0c0.4,0,0.7,0,1.1,0c0.3,0,0.5,0,0.8,0c0.1,0,0.2-0.1,0.3-0.1c0.1-0.1,0.2-0.1,0.4-0.1c0.3-0.1,0.5-0.2,0.8-0.2
			c0.4-0.1,0.9-0.2,1.3-0.3c0.4,0,0.8,0,1.2,0c0.2,0,0.4,0,0.6,0c0.2,0,0.3,0,0.5,0c0.1,0,0.2,0,0.4,0c0.3,0,0.6-0.2,0.9,0
			c0.1,0,0.3,0.1,0.4,0.1c0.2,0,0.4,0,0.6,0.1c0.2,0.1,0.5,0,0.7,0c0.5,0,1,0,1.5,0c0.4,0,0.7-0.1,1.1,0c0.3,0,0.5,0.1,0.8-0.1
			c0.1-0.1,0.2-0.1,0.4-0.2c0.1,0,0.2,0,0.2-0.1c0.1-0.1,0.2-0.1,0.2-0.2c0-0.1,0-0.2,0-0.3c0-0.1,0-0.1-0.1-0.1c0,0,0-0.1-0.1-0.1
			c-0.1,0-0.2,0-0.3,0c-0.3,0-0.6,0-0.9,0C176.3,49.9,176.2,50,176.2,50z"/>
		<path d="M83.2,54.7c-0.2-1.6-0.6-2-1.5-3.3c-1.9-2.9-5-5.4-8-7.2c-2.4-1.4-5-2.6-7.7-2.9c-1.3-0.2-2.7-0.3-4,0
			c-1.7,0.3-3,0.9-4.2,2.1c-0.4,0.4-1,0.7-1.2,1.2c-0.3,0.8,0.1,1.8,0,2.7c-0.2,1.9-0.3,3.9-0.3,5.9c0,1.2,0.1,2.2,0.3,3.4
			c0.3,1.6,0.3,3.3,0.2,4.9c0,0.8-0.1,1.7,0,2.5c0.1,0.4,0.4,1.4,1,0.8c0.4-0.4,0.2-1.3,0.1-1.8c-0.1-0.8-0.1-1.5-0.1-2.3
			c0-1.7-0.1-3.5-0.3-5.2c-0.3-2.2-0.6-4.4-0.2-6.6c0.2-1.2,0.7-2.3,1.3-3.4c0.1-0.2,0.2-0.4,0.4-0.4c0.6-0.1,1.2,0,1.8-0.1
			c0.4-0.1,0.9-0.2,1.3-0.3c0.3-0.1,0.5-0.1,0.8-0.2c0.2,0,0.4,0,0.7-0.1c0.4-0.1,0.8-0.2,1.2-0.2c0.3,0,0.6,0,0.8,0
			c0.3,0,0.6,0,1,0c0.4,0,0.7,0.1,1.1,0.2c0.4,0.1,0.8,0.1,1.2,0.3c0.5,0.2,1,0.4,1.5,0.6c0.2,0.1,0.5,0.1,0.7,0.2
			c0.2,0.1,0.5,0.3,0.7,0.4c0.4,0.2,0.8,0.4,1.3,0.7c0.2,0.1,0.4,0.3,0.7,0.4c0.2,0.2,0.3,0.3,0.5,0.5c0.2,0.2,0.5,0.4,0.6,0.7
			c0.1,0.1,0.1,0.2,0.2,0.3c0.1,0.1,0.2,0,0.3,0c0.1,0,0.2,0.3,0.2,0.4c0.2,0.3,0.5,0.4,0.7,0.6c0.1,0.1,0.1,0.1,0.2,0.3
			c0.1,0.2,0.3,0.4,0.4,0.6c0.1,0.1,0.1,0.2,0.2,0.3c0.1,0.1,0.1,0.3,0.2,0.5c0.1,0.2,0.3,0.2,0.4,0.4c0.1,0.2,0.2,0.3,0.4,0.5
			c0.4,0.3,0.3,0.7,0.6,1.1c0.2,0.2,0.2,0.4,0.2,0.6c0,0.2,0.2,0.3,0.3,0.5c0.1,0.2,0.2,0.6,0.3,0.8c0.1,0.3,0.2,0.6,0.4,0.9
			c0.4,0.8,0.6,1.5,0.6,2.4c0,1-0.1,2-0.6,2.9c-0.3,0.6-1.1,0.8-1.6,1.2c-0.7,0.5-1.2,1.2-2,1.5c-0.6,0.2-1.2,0.1-1.8,0.4
			c-1.8,0.7-3,0.8-4.9,0.7c-1.7-0.2-3.2,0.4-4.9,0.5c-1,0.1-1.4,0.5-0.2,0.7c0.7,0.1,1.5-0.1,2.2-0.1c1.3,0,2.4-0.2,3.6-0.3
			c1.2-0.2,2.2,0,3.3-0.3c0.7-0.2,1.3-0.2,2-0.3c0.7-0.1,1.3-0.4,2-0.7c1.5-0.6,3-1.3,4.4-2.3C84.2,60.5,83.4,56.7,83.2,54.7z"/>
	</g>
	<path d="M87,24.2c0,0.1-0.1,0.1-0.1,0.2c-0.2,0.1-0.3,0.1-0.5,0.1c-0.2,0-0.4,0-0.5,0c-0.3,0-0.5-0.1-0.8-0.2
		c-0.8-0.2-1.6,0-2.4-0.4c-0.4-0.2-0.8-0.3-1.2-0.5c-0.3-0.2-0.6-0.5-1-0.6c-0.3-0.1-0.6-0.2-0.9-0.1c-0.1,0-0.3,0-0.4,0
		c-0.2,0-0.3-0.1-0.5-0.1c-0.1,0-0.3,0-0.5,0c-0.3,0-0.5-0.1-0.8-0.1c-0.4,0-0.8,0-1.2,0c-0.2,0-0.4,0-0.6,0c-0.2,0-0.3,0.1-0.4,0.1
		c-0.4,0.1-0.8,0.2-1.2,0.3c-0.4,0-0.7-0.1-1.1,0c-0.7,0.2-1.3,0.5-2.1,0.4c-0.5-0.1-1,0-1.5,0c-0.4,0-0.7-0.2-1-0.2
		c-0.6-0.1-1.2,0-1.8,0c-0.4,0-0.9,0-1.3,0c-0.5,0-1,0.2-1.5,0.3c-0.6,0.1-1,0.2-1.6,0.5c-0.5,0.3-0.9,0.5-1.3,0.8
		c-0.4,0.3-0.7,0.5-1.1,0.7c-0.3,0.2-0.7,0.3-1,0.5c-0.7,0.5-1.5,0.3-2.3,0.4c-0.9,0.1-2,0.3-2.8,0.9c-0.8,0.6-1.7,1.1-2.4,1.9
		c-0.4,0.4-0.8,0.7-1.2,1.1c-0.5,0.4-1,0.9-1.5,1.3c-1.1,1-2.3,1.9-3.7,2.4c-1.1,0.4-2,1.2-3,1.9c-0.3,0.2-0.5,0.5-0.8,0.8
		c-0.4,0.3-0.8,0.5-1.1,0.9c-0.2,0.2-0.4,0.5-0.6,0.7c-0.3,0.4-0.7,0.6-1,0.9c-0.4,0.3-0.8,0.6-1.2,0.9c-0.7,0.5-0.7,1.3-0.9,2
		c-0.1,0.3-0.3,0.6-0.6,0.9c-0.1,0.1-0.9,0.8-1,0.6c-0.4-0.6,0.5-1.5,0.7-2.1c0.1-0.3,0-0.7,0.1-1c0.1-1.1,1-1.7,1.6-2.5
		c0.3-0.4,0.5-0.7,0.7-1.1c0.4-0.6,0.8-1.2,1.3-1.7c0.5-0.5,1.1-0.9,1.7-1.4c0.4-0.4,1-0.6,1.4-1c0.3-0.3,0.7-0.6,1-0.9
		c0.1-0.1,0.2-0.3,0.4-0.4c0.2-0.1,0.4-0.2,0.6-0.3c0.2-0.2,0.4-0.4,0.6-0.6c0.2-0.2,0.5-0.3,0.7-0.5c0.4-0.3,0.8-0.7,1.3-1
		c0.3-0.1,0.6-0.3,0.8-0.5c0.4-0.3,0.8-0.5,1.2-0.8c0.4-0.4,0.9-0.7,1.3-1c0.4-0.4,0.8-0.6,1.4-0.8c0.5-0.1,0.9-0.2,1.3-0.5
		c0.5-0.3,1-0.3,1.6-0.4c0.6-0.1,1-0.4,1.5-0.7c0.6-0.3,1.2-0.5,1.8-0.8c1.1-0.6,2.3-0.5,3.5-0.8c0.7-0.2,1.4,0,2.1,0
		c0.7,0,1.3-0.2,1.9-0.4c0.5-0.1,1-0.1,1.4-0.2c0.6-0.2,1.1-0.4,1.8-0.5c0.4-0.1,0.8-0.1,1.2-0.2c1.1-0.2,2.2,0,3.3-0.2
		c0.6-0.1,1.2-0.1,1.8-0.3c0.5-0.1,1.1,0,1.6-0.2c0.2-0.1,0.3-0.1,0.5-0.2c0.6-0.2,1.3-0.1,1.9-0.1c0.3,0,0.8-0.1,1.1,0
		c0.2,0,0.3,0.2,0.4,0.3c0.1,0.1,0.3,0.1,0.5,0.2c0.3,0.1,0.5,0.2,0.8,0.3c0.3,0.1,0.6,0.1,0.8,0.2c0.2,0,0.4,0,0.6,0
		c0.4,0.1,0.5,0.4,0.9,0.5c0.1,0,0.2,0,0.2,0c0.1,0,0.3,0.1,0.4,0.2c0.2,0.1,0.5,0.3,0.7,0.4c0.3,0.1,0.6,0.3,0.9,0.5
		c0.2,0.2,0.3,0.5,0.6,0.6c0.2,0.1,0.7,0,0.8,0.2C87.4,23.6,87.1,24.1,87,24.2z"/>
	<path d="M29.3,84.2C29.3,84.2,29.3,84.2,29.3,84.2c0.1,0,0.2,0.2,0.2,0.3c0.1,0.3,0.2,0.5,0.4,0.7c0.4,0.5,0.8,0.9,1.1,1.5
		c0.2,0.3,0.4,0.6,0.4,1c0,0.1,0,0.2,0,0.4c0.1,0.3,0.3,0.6,0.5,0.9c0.2,0.4,0.5,0.9,0.7,1.3l1.6,2.7c0.6,0.9,1.2,1.7,1.8,2.5
		c0.3,0.4,0.6,0.7,0.8,1.1c0,0.1,0,0.2,0,0.3c0,0.3,0,0.5,0.2,0.8c0.3,0.4,0.8,0.5,1.2,0.7c1,0.5,1.7,1.4,2.5,2.2
		c0.5,0.6,1.2,1,1.7,1.6c0.3,0.4,0.5,0.9,1,1.1c0.3,0.1,0.6,0.3,0.9,0.4c0.2,0.1,0.4,0.2,0.6,0.3c0.3,0.1,0.6,0.2,1,0.3
		c0.1,0,0.3,0,0.4,0.1c0,0.2,0.2,0.5,0.3,0.7c0.2,0.3,0.4,0.7,0.8,0.9c0.4,0.3,0.8,0.4,1.3,0.6c0.5,0.3,0.9,0.6,1.3,1
		c0.6,0.6,1.5,1.1,2.1,1.7c0.3,0.4,0.6,0.8,0.9,1.1c0.4,0.4,1,0.4,1.6,0.5c0.5,0.1,1,0.2,1.5,0.3c0.5,0.1,0.9,0.4,1.3,0.6
		c0.5,0.3,1.2,0.5,1.8,0.6c0.6,0.2,1.2,0.3,1.8,0.5c0.6,0.2,1.2,0.4,1.8,0.5c0.4,0.1,0.9,0.3,1.3,0.3c0.2,0,0.4-0.1,0.5-0.1
		c0.2,0,0.3,0.1,0.5,0.2c0.2,0.2,0.5,0.3,0.7,0.5c1.1,0.5,2.4,0.7,3.6,0.8c0.7,0.1,1.4,0.2,2.1,0.3c0.6,0.1,1.3,0,1.9,0
		c0.8,0,1.6,0,2.4,0c1.6,0,3.3,0,4.9-0.4c0.4-0.1,0.8-0.2,1.3-0.3c0.4-0.1,0.9,0,1.3-0.2c0.4-0.1,0.6-0.4,1-0.5
		c0.5-0.2,1.1-0.1,1.6-0.1c0.1,0,0.2,0,0.3,0c0.1,0,0.2-0.1,0.3-0.2c0.1-0.1,0.3-0.2,0.5-0.3c0.2-0.1,0.4-0.2,0.6-0.3
		c0.3-0.1,0.6-0.3,0.9-0.3c0.2,0,0.3,0,0.5,0c0.2,0,0.3-0.1,0.4-0.1c0.2-0.1,0.5-0.2,0.7-0.3c0.2,0,0.4-0.1,0.5-0.1
		c0.3-0.1,0.6-0.2,0.8-0.3c0.6-0.2,1.2-0.6,1.8-0.8c0.5-0.2,1-0.1,1.4-0.3c0.5-0.1,1-0.4,1.4-0.7c0.3-0.2,0.5-0.5,0.7-0.7
		c0.2-0.2,0.4-0.3,0.7-0.4c0.3-0.1,0.5-0.3,0.7-0.4c0.1-0.1,0.3-0.2,0.5-0.1c0.1,0,0.1,0,0.1,0.1c0.2,0,0.3-0.1,0.5-0.1
		c0.1-0.1,0.2-0.1,0.3-0.2c0.1-0.1,0.2-0.3,0.3-0.4c0.2-0.2,0.3-0.4,0.5-0.5c0.1-0.1,0.4-0.2,0.6,0c0.2,0.3-0.6,0.7-0.8,0.8
		c-0.3,0.2-0.6,0.3-0.8,0.7c-0.1,0.3-0.3,0.5-0.5,0.7c-0.2,0.2-0.3,0.5-0.5,0.6c-0.2,0.1-0.4,0.2-0.5,0.3c-0.5,0.3-1.1,0.7-1.6,1
		c-0.4,0.2-0.8,0.5-1.3,0.7c-0.4,0.2-0.8,0.5-1.2,0.6c-0.3,0.1-0.5,0-0.8,0.2c-0.4,0.2-0.7,0.5-1.1,0.8c-0.2,0.1-0.4,0.2-0.6,0.3
		c-0.2,0.1-0.4,0.1-0.7,0.1c-0.3,0-0.7,0.1-0.9,0.2c-0.2,0.1-0.3,0.1-0.5,0.2c-0.2,0.1-0.4,0.1-0.6,0.2c-0.3,0.1-0.6,0.2-0.8,0.3
		c-0.2,0.1-0.3,0.3-0.5,0.5c-0.1,0.1-0.2,0.3-0.4,0.3c-0.2,0.1-0.4,0.2-0.6,0.2c-0.4,0-0.7,0-1.1,0c-0.4,0-0.8-0.1-1.2,0
		c-0.2,0-0.5,0.2-0.7,0.3c-0.3,0.1-0.7,0.3-1,0.3c-0.2,0-0.3,0-0.5,0.1c-0.2,0.1-0.4,0.2-0.7,0.3c-0.3,0.1-0.5,0.1-0.8,0.2
		c-0.3,0.1-0.6,0.2-1,0.2c-0.3,0-0.6,0-1,0c-0.3,0-0.6,0-0.8,0c-0.4,0-0.8,0.1-1.2,0.1c-1,0-1.9,0.1-2.9,0.1c-1,0-2.1,0-3.1-0.1
		c-0.4,0-0.7,0-1.1-0.1c-1.4-0.1-2.7-0.3-4.1-0.5c-0.6-0.1-1.3-0.2-1.9-0.4c-0.4-0.1-0.7-0.2-1.1-0.2c-0.6,0-1.2,0-1.8,0
		c-0.8-0.1-1.5-0.2-2.3-0.5c-0.3-0.1-0.6-0.2-0.9-0.3c-0.2-0.1-0.3-0.2-0.5-0.2c-0.5-0.1-1-0.2-1.4-0.5c-0.3-0.1-0.6-0.3-0.8-0.5
		c-0.2-0.1-0.3-0.3-0.5-0.5c-0.2-0.2-0.5-0.3-0.8-0.4c-0.2-0.1-0.5-0.2-0.8-0.4c-0.3-0.1-0.4-0.4-0.5-0.7c-0.4,0-0.7-0.1-1.1-0.3
		c-0.5-0.3-1.1-0.6-1.7-0.8c-0.2-0.1-0.5-0.2-0.7-0.3c-0.3-0.2-0.6-0.4-1-0.6c-0.4-0.2-0.8-0.4-1.1-0.7c-0.3-0.3-0.6-0.6-0.9-0.9
		c-0.2-0.2-0.4-0.5-0.6-0.8c-0.1-0.2-0.2-0.2-0.4-0.3c-0.5-0.3-0.9-0.6-1.3-0.9c-0.5-0.4-1.1-0.7-1.4-1.3c-0.2-0.3-0.4-0.6-0.5-0.9
		c-0.1-0.2-0.2-0.4-0.4-0.6c-0.3-0.2-0.6-0.3-0.9-0.5c-0.1-0.1-0.3-0.1-0.4-0.2c-0.2-0.2-0.1-0.5-0.2-0.7c-0.1-0.2-0.4-0.3-0.6-0.5
		c-0.4-0.3-0.7-0.8-1-1.1c-0.8-1-1.6-1.9-2.3-2.9c-0.2-0.3-0.5-0.6-0.6-1c-0.1-0.4-0.3-0.7-0.5-1c-0.2-0.3-0.3-0.6-0.6-0.8
		c-0.2-0.2-0.6-0.3-0.8-0.5c-0.3-0.3-0.5-0.6-0.7-0.9c-0.3-0.5-0.4-1-0.8-1.4c-0.2-0.3-0.4-0.6-0.3-1.1c0.1-0.5,0.2-1,0.1-1.5
		c-0.1-0.3-0.3-0.6-0.5-0.9c-0.1-0.2-0.3-0.3-0.5-0.4c-0.2-0.2-0.3-0.4-0.4-0.6c-0.2-0.4-0.3-0.9-0.5-1.3c-0.1-0.2-0.1-0.4-0.1-0.6
		c0-0.2-0.1-0.4-0.1-0.6c-0.1-0.3-0.1-0.7,0-1C29.2,84.5,29.2,84.3,29.3,84.2z"/>
	<path d="M89.6,50.5c0.4,0,0.8,0.1,1.2-0.1c0.2-0.1,0.2-0.2,0.3-0.2c0.1-0.1,0.2,0,0.3,0c0.2,0,0.2-0.2,0.3-0.3
		c0.2-0.2,0.5-0.2,0.7-0.3c0.2-0.1,0.4-0.3,0.5-0.4c0.1-0.1,0.3-0.3,0.5-0.3c0.1,0,0.2,0,0.2,0c0.2-0.1,0.3-0.2,0.4-0.3
		c0.1-0.1,0.2,0,0.2-0.1c0,0,0.1-0.1,0.1-0.1c0.2-0.1,0.4-0.2,0.5-0.3c0.2-0.1,0.4-0.4,0.7-0.5c0.2-0.1,0.3-0.1,0.5-0.2
		c0.3-0.1,0.4-0.2,0.6-0.4c0.1-0.1,0.3-0.2,0.4-0.3c0.1-0.1,0.2-0.3,0.3-0.5c0.1-0.1,0.1-0.3,0.2-0.4c0-0.2,0-0.3,0-0.5
		c0-0.3,0-0.6-0.3-0.8c-0.2-0.1-0.4-0.1-0.7-0.2c-0.1,0-0.3,0-0.4,0c-0.2,0-0.3,0.2-0.5,0.4c-0.2,0.2-0.3,0.4-0.4,0.6
		c-0.1,0.1-0.2,0.3-0.3,0.4c0,0.1-0.1,0.1-0.2,0.2c0,0,0,0.1-0.1,0.1c0,0.1-0.1,0.2-0.2,0.2c-0.1,0.1-0.1,0.2-0.1,0.4
		c-0.1,0.2-0.3,0.3-0.4,0.5c0,0.1-0.1,0.3-0.2,0.3c-0.1,0.1-0.2,0.2-0.3,0.3c-0.3,0.2-0.5,0.5-0.7,0.7c-0.3,0.3-0.6,0.5-1,0.7
		c-0.2,0.1-0.4,0.3-0.6,0.4c-0.1,0-0.1,0.1-0.2,0.1c-0.1,0.1-0.1,0.1-0.3,0.2C90.7,50,90,50.1,89.6,50.5z"/>
	<path d="M91,24.7c-0.1,0-0.1,0-0.2,0c-0.3-0.1-0.9-0.2-1.2-0.1c-0.3,0.1-0.4,0.5-0.4,0.8c0,0.3,0.3,0.6,0.4,0.8
		c0.1,0.1,0.2,0.2,0.3,0.2c0.2,0.1,0,0,0.3,0.1c0.3,0.1,0.7,0.3,1,0.4c0.1,0,0.2,0,0.2,0.1c0,0,0.1,0.1,0.1,0.1
		c0.7,0.3,1.6-0.2,2.2,0.5c0.2,0.3,0.4,0.6,0.7,1c0.3,0.3,0.6,0.5,1,0.6c0.5,0.1,1,0.2,1.5,0.6c0.5,0.3,1,0.8,1.4,1.2
		c0.2,0.2,0.4,0.4,0.6,0.1c0.2-0.3,0-0.9-0.2-1.1c-0.2-0.3-0.5-0.6-0.8-0.8c-0.4-0.2-0.8-0.4-1.2-0.6c-0.4-0.2-0.6-0.5-1-0.9
		c-0.4-0.4-1-0.6-1.5-1c-0.4-0.3-0.8-0.4-1.3-0.6c-0.4-0.2-0.8-0.5-1.1-0.8c-0.1-0.1-0.1-0.2-0.2-0.3C91.7,24.7,91.3,24.7,91,24.7z"
		/>
	<path d="M102.7,105.9c0-0.1,0-0.3,0-0.4c0-0.2,0-0.3,0.1-0.5c0.1-0.2,0.2-0.4,0.4-0.5c0.1-0.1,0.2,0,0.3-0.1
		c0.1-0.1,0.2-0.2,0.4-0.3c0.2-0.1,0.3-0.3,0.4-0.5c0.1-0.1,0.2-0.2,0.3-0.2c0.1-0.1,0.2-0.2,0.2-0.3c0.1-0.2,0.4-0.3,0.6-0.4
		c0.1,0,0.3-0.3,0.4-0.2c0.1,0.1,0,0.3,0,0.4c-0.1,0.1-0.2,0.2-0.2,0.3c-0.1,0.1-0.2,0.1-0.2,0.2c0,0-0.1,0.1-0.1,0.1
		c-0.1,0-0.1,0.1-0.2,0.1c-0.1,0.1-0.1,0.3-0.2,0.4c-0.1,0.2-0.3,0.5-0.4,0.7c-0.1,0.3-0.3,0.3-0.5,0.5c-0.2,0.1-0.4,0.2-0.5,0.4
		c-0.1,0.1-0.1,0.1-0.2,0.2C103.2,105.7,103.1,105.8,102.7,105.9z"/>
</g>
</svg>
