<?xml version="1.0" encoding="utf-8"?>
<!-- Generator: Adobe Illustrator 21.0.2, SVG Export Plug-In . SVG Version: 6.00 Build 0)  -->
<svg version="1.1" id="Calque_1" xmlns="http://www.w3.org/2000/svg" xmlns:xlink="http://www.w3.org/1999/xlink" x="0px" y="0px"
	 viewBox="0 0 254.9 20.9" style="enable-background:new 0 0 254.9 20.9;" xml:space="preserve">
<g transform="translate(4556.45 18.867)">
	<path d="M-4550.4,1.8c1.2-0.1,2.3-0.4,3.4-0.9c0.4-0.2,0.9-0.1,1.3-0.4c0.1-0.1,0.3-0.2,0.5-0.3c0.1-0.1,0.2-0.1,0.2-0.2
		c0.1-0.1,0.2-0.1,0.2-0.2c0.1-0.1,0.3-0.2,0.4-0.2c0.2,0,0.3,0.2,0.4,0.3c0.1,0.2,0.3,0.3,0.5,0.5c0.1,0.1,0.1,0.2,0.2,0.2
		c0.1,0.1,0.2,0.1,0.3,0.1c0.1,0,0.2,0.1,0.3,0.2c0.2,0.2,0.2,0.3,0.5,0.4c0.2,0.1,0.4,0.2,0.6,0.3c0.1,0,0.1,0,0.2,0.1l0.1,0.1
		c0.2,0.1,0.3,0.1,0.5,0.1h0.3c0.1,0,0.2,0.1,0.3,0.1c0.3,0.1,0.7,0,1-0.1h1.3c0.1,0,0.2-0.1,0.3-0.2c0.2-0.1,0.3-0.1,0.5-0.1h0.4
		c0.2,0,0.3-0.1,0.5-0.2c0.2-0.1,0.2-0.1,0.4-0.2c0.2-0.1,0.4-0.2,0.6-0.3l0.7-0.5c0.2-0.1,0.2-0.2,0.4-0.2c0.1-0.1,0.2-0.2,0.2-0.2
		c0-0.2,0-0.2-0.2-0.3h-0.2c-0.1,0-0.2,0-0.2,0.1l-0.2,0.2c-0.1,0.1-0.2,0.1-0.3,0.2c-0.1,0.1-0.2,0.1-0.3,0.2l-0.5,0.2
		c-0.2,0.2-0.5,0.3-0.8,0.4c-0.1,0-0.2,0.1-0.3,0.1c-0.1,0-0.3,0-0.4,0.1c-0.2,0.1-0.3,0.1-0.5,0.1h-1.7c-0.3,0-0.7-0.1-1-0.2
		c-0.1-0.1-0.2-0.2-0.3-0.2c-0.2-0.2-0.3-0.2-0.4-0.4c-0.8-1-1.4-2.2-1.7-3.4c0.2-0.1,0.3,0,0.5,0c0.2,0.1,0.2,0.2,0.3,0.2h0.4
		c0.1,0,0.2,0,0.2,0.1c0.1,0,0.2,0.1,0.2,0.1h0.5c0,0,0.1,0,0.1-0.1c0,0,0,0,0,0h0.1c0.1,0,0.2-0.1,0.2-0.1c0.2-0.1,0.4-0.3,0.6-0.4
		h0.2c0.1,0,0.2-0.1,0.3-0.2c0.4-0.2,0.7-0.6,0.9-1c0.4-1,0.3-2.1-0.4-2.9c-1-0.7-2.2-0.9-3.4-0.5c-1.1,0.4-2.1,1.2-2.6,2.2
		c-0.3,0.5-0.4,1.1-0.5,1.8c-0.1,0.6,0,1.1,0.2,1.7c0,0.1,0.1,0.2,0.1,0.2c0,0.2,0,0.5,0,0.7c0,0.2,0,0.2-0.1,0.3
		c-0.2,0.2-0.4,0.2-0.6,0.4c-0.2,0.1-0.3,0.2-0.4,0.3c-0.1,0.2-0.1,0.2-0.2,0.4c-0.2,0.3-0.5,0.6-0.9,0.8c-0.4,0.3-0.9,0.5-1.4,0.6
		c-1,0.2-2.1,0.2-3-0.1c-3.3-0.9-2.6-5.1-2.6-7.2c0-1.4,0.1-2.9,0.2-4.3c0.2-1.1,0.1-2.2-0.4-3.2c0-0.2-0.1-0.3-0.2-0.4
		c-0.1-0.1-0.3-0.2-0.5-0.3c-0.2-0.1-0.5-0.2-0.8-0.2h-0.2c-0.2,0.1-0.3,0.7-0.3,1c0,0.2,0,0.2-0.1,0.3c-0.1,0.3,0.1,0.6,0.1,1
		c0,0.4,0.1,0.7,0.1,1.1c0,2.9,0,5.8,0.2,8.7C-4555.8,0.8-4553.1,1.8-4550.4,1.8z M-4541.2-7.6L-4541.2-7.6c1.2,0.1,2,1,1.9,2.1
		c0,0.4-0.2,0.8-0.4,1.1c-0.5,0.6-1.2,1-1.9,1c-0.5,0-1-0.1-1.4-0.2c-0.2-0.1-0.4-0.2-0.4-0.4v-1.1c0-0.1,0.1-0.2,0.2-0.3
		c0-0.1,0.1-0.2,0.1-0.3s0-0.1,0.1-0.2c0-0.1,0-0.2,0.1-0.2c0.1-0.2,0.2-0.5,0.4-0.6c0.1-0.1,0.2-0.1,0.2-0.1c0.1,0,0.1-0.1,0.2-0.2
		c0.1-0.1,0.3-0.2,0.4-0.3C-4541.7-7.6-4541.4-7.7-4541.2-7.6z"/>
	<path d="M-4344.6-12c-0.1-1-1.8-1.4-2.6-1.1c-0.4,0.2-0.4,0.5-1,0.4c-0.1,0.5,0.4,0.7,0.6,1.2c0.6,0,0.9,0.6,1.4,0.6
		S-4344.5-11.3-4344.6-12z"/>
	<path d="M-4388.2-0.9h-0.2c-0.4,0-0.8,0.2-1,0.4c-0.2,0.1-0.4,0.2-0.6,0.2c-0.2,0.1-0.3,0-0.6,0.1c-0.2,0-0.2,0.1-0.3,0.1h-0.3
		c-0.2,0-0.4,0-0.6-0.1c-0.1,0-0.2-0.1-0.3-0.1c-0.2,0-0.2,0.1-0.4,0l-0.2-0.2c-0.1-0.1-0.2-0.1-0.3-0.1c-0.1,0-0.2-0.1-0.2-0.2
		c-0.1-0.1-0.2-0.3-0.2-0.4c-0.1-0.3-0.2-0.5-0.4-0.6c-0.2-0.2-0.5-0.3-0.6-0.6c-0.2-0.2-0.3-0.4-0.5-0.6c-0.2-0.2-0.4-0.4-0.6-0.6
		c-0.2-0.2-0.4-0.5-0.6-0.7l-0.2-0.5l-0.2-0.2c-0.1-0.2-0.2-0.3-0.3-0.5c-0.1-0.2-0.2-0.3-0.4-0.5c-0.2-0.2-0.3-0.4-0.5-0.6
		c-0.3-0.3-0.7-0.5-1.1-0.6c-0.5-0.1-0.9,0-1.4,0.2c-0.2,0.1-0.2,0.2-0.5,0.2c-0.1,0-0.2,0-0.3,0.1c-0.1,0.1-0.2,0.2-0.3,0.2
		c-0.2,0.2-0.4,0.3-0.6,0.5l-0.5,0.5c-0.1,0.1-0.2,0.2-0.3,0.3c0,0-0.1,0.1-0.1,0.2c-0.1,0.2-0.2,0.2-0.3,0.4
		c-0.1,0.1-0.2,0.3-0.2,0.4h-0.1c-0.1,0.1-0.1,0.2-0.2,0.2c-0.1,0.2-0.2,0.2-0.2,0.2c-0.1,0.1-0.2,0.3-0.3,0.4v0.1l-0.1,0.1
		c-0.2,0.1-0.2,0.3-0.3,0.4l-0.4,0.4c-0.1,0.1-0.2,0.3-0.3,0.3c-0.2,0.1-0.2-0.3-0.2-0.5c-0.2-0.7-0.2-1.4-0.4-2.2
		c-0.2-1.2-0.5-2.4-1.1-3.4c-0.2-0.5-0.6-0.9-1-1.1c-0.8-0.2-1.6-0.2-2.4,0.2c-0.4,0.2-0.8,0.4-1.1,0.6c-0.1,0.1-0.2,0.1-0.2,0.2
		c-0.2,0.3,0,0.6,0.3,0.4c0.3-0.2,0.6-0.5,0.9-0.6c0.4-0.1,1-0.1,1.2,0.2c0.3,0.4,0.6,0.9,0.6,1.4c0.2,0.6,0.6,1.2,0.8,1.8
		c0.2,0.5,0.2,1,0.3,1.4c0.3,0.6,0.6,1.2,1,1.8c0.2,0.5,0.2,1.4,0.6,1.8c1.1,1,2.4-1.6,3-2.2c0.6-0.7,1.1-1.6,1.8-2.4
		c0.6-0.8,1.7-1,2.6-0.5c0.4,0.2,0.6,0.7,0.9,1c0.4,0.4,0.8,0.8,1.1,1.2c0.3,0.5,0.7,0.9,1.1,1.3c0.3,0.3,1,0.6,1.1,1
		c0.2,0.4,2.3,1.2,2.8,1.2h0.2c0.9-0.1,1.8-0.3,2.6-0.7c0.3-0.1,0.6-0.2,0.8-0.5c0.1-0.1,0.1-0.3,0-0.5
		C-4388.1-0.9-4388.1-0.9-4388.2-0.9z"/>
	<path d="M-4339.7,0.5h0.4c0.2-0.1,0.2-0.2,0.4-0.2c0.1-0.1,0.1-0.1,0.2-0.1s0.1-0.1,0.2-0.1c0.1-0.1,0.2-0.1,0.2-0.2l0.2-0.2
		c0.1,0,0.1-0.1,0.2-0.2l0.1-0.1c0.1-0.1,0.2-0.2,0.2-0.2c0.1-0.1,0.1-0.1,0.1-0.2c0,0,0.1-0.1,0.1-0.2c0.1-0.1,0.1-0.2,0.2-0.2
		l0.1-0.1v-0.2h-0.1c-0.1,0.1-0.2,0.1-0.2,0.2l-0.2,0.2l-0.2,0.2c-0.1,0.1-0.1,0.2-0.2,0.2c-0.1,0.1-0.1,0.1-0.2,0.1
		c-0.1,0.1-0.1,0.1-0.2,0.1c0,0-0.1,0-0.1,0.1c0,0,0,0,0,0l-0.1,0.1l-0.1,0.1c0,0,0,0.1-0.1,0.1c0,0,0,0,0,0
		c-0.1,0.1-0.3,0.2-0.4,0.2c-0.1,0-0.1,0.1-0.2,0.1c-0.1,0.1-0.2,0.1-0.2,0.1c-0.1,0.1-0.2,0.1-0.3,0.2h-1.5
		c-0.2-0.1-0.5-0.1-0.7-0.2c-0.6-0.2-1.1-0.5-1.6-0.8c-1.7-1.2-1.8-2.9-2-4.7c-0.1-0.6-0.4-1-0.5-1.4c-1.2-0.4-1.7,1-1.5,2
		c0.1,0.5,0.2,1,0.2,1.4c-0.1,0.4,0.1,0.6,0.3,0.9c0.1,0.1,0.1,0.2,0.2,0.3c0.1,0.2,0.2,0.3,0.3,0.5c0.1,0.2,0.2,0.3,0.4,0.6
		l0.2,0.2c0.1,0.1,0.2,0.1,0.2,0.2c0.2,0.2,0.3,0.4,0.5,0.6c0.3,0.2,0.7,0.4,1,0.4c0.2,0.1,0.4,0.1,0.6,0.2c0.7,0.3,1.5,0.4,2.2,0.3
		h1.5C-4339.8,0.6-4339.8,0.5-4339.7,0.5z"/>
	<path d="M-4306.2-0.9c-0.5,0.2-1.1,0.3-1.7,0.4c-0.5,0-1,0-1.4-0.2c-0.2-0.1-0.4-0.1-0.6-0.2c-0.2-0.1-0.4-0.1-0.6-0.2
		c-0.1-0.1-0.2-0.1-0.3-0.2c-0.2-0.1-0.2-0.2-0.4-0.3l-0.2-0.2l-0.2-0.2l-0.1-0.1l-0.1-0.1l-0.3-0.3c-0.1-0.1-0.2-0.2-0.2-0.3
		s-0.1-0.2-0.1-0.3v-0.5h1.8c0.4-0.1,0.8-0.2,1.1-0.4c1.4-0.7,2-2.4,1.3-3.9c-0.4-0.9-1.4-1.4-2.3-1.2c-1,0.2-1.9,0.7-2.6,1.5
		c-0.2,0.3-0.4,0.5-0.6,0.8c0,0.1-0.1,0.1-0.1,0.2v0.1c-0.1,0.1-0.1,0.2-0.2,0.3c-0.1,0.2-0.2,0.5-0.2,0.7c0,0.4,0,0.7,0,1.1
		c0,0.3,0,0.6,0.1,1c0,0.1,0,0.3,0.1,0.4l0.2,0.5c0.2,0.3,0.4,0.6,0.5,0.9c0.1,0.2,0.3,0.4,0.5,0.6c0.3,0.2,0.5,0.3,0.8,0.5
		c0.5,0.2,1,0.4,1.4,0.7c0.1,0,0.1,0.1,0.2,0.1h0.6c0.2,0,0.2,0.1,0.4,0.1c0.2,0,0.2,0.1,0.4,0.2h0.2c0.1,0,0.2,0.1,0.3,0.1
		c0.2,0,0.2,0.1,0.3,0.1c0.1,0,0.3,0,0.4-0.1c0.1,0,0.2,0,0.2-0.1c0.2-0.1,0.3-0.2,0.6-0.3c0.2-0.1,0.4-0.1,0.6-0.2
		c0.4-0.1,0.8-0.2,1.1-0.3c0.4-0.1,0.7-0.3,1-0.6c0.6-0.4,1.1-1,1.5-1.5c0.2-0.3,0.5-0.6,0.6-0.9c0.1-0.1,0.2-0.2,0.2-0.2v-0.2
		c0-0.1,0-0.2,0.1-0.2c0,0,0.1,0,0.1-0.1c0,0,0,0,0,0c0-0.1,0.1-0.1,0.1-0.2c0.2-0.2,0-0.5-0.2-0.2c-0.3,0.5-0.7,0.9-1,1.4
		c-0.4,0.4-0.8,0.8-1.3,1.1c-0.5,0.3-1,0.6-1.5,0.8C-4306.1-1-4306.1-1-4306.2-0.9z M-4311-8.4c1.4-1,2.9,1.3,2.2,2.7
		c-0.3,0.7-0.8,1.2-1.5,1.4c-0.6,0.2-2.2-0.1-2.4-0.8c-0.2-0.9,0.7-2.4,1.3-3C-4311.3-8.2-4311.2-8.3-4311-8.4L-4311-8.4z"/>
	<path d="M-4355.2-13.4c-0.1,0-0.2,0.1-0.2,0.2c-0.2,0.2-0.3,0.3-0.4,0.6c-0.2,0.2-0.1,0.5-0.2,0.8c0,0.3,0,0.6,0,0.9
		c0,0.5,0.1,1,0.3,1.5c0.1,0.3,0.2,0.6,0.3,1c0,0.3,0.1,0.6,0.1,1c0,0.5,0,1-0.2,1.5c-0.1,0.5-0.1,1.1,0,1.6c0,1.1-0.2,2.1-0.7,3
		c-0.2,0.3-0.5,0.6-0.8,0.9c-2.5,2.1-6.1,0.2-8.3-1.4c-0.2-0.2-0.4-0.2-0.6-0.4c-0.2-0.2-0.5-0.4-0.7-0.6c-0.2-0.2-0.4-0.2-0.6-0.3
		c-0.1-0.1-0.2-0.2-0.3-0.3c-0.1-0.1-0.2-0.1-0.2-0.2c0,0,0-0.2-0.1-0.2c-0.1-0.2-0.1-0.3-0.2-0.5c-0.2-0.2-0.5-0.4-0.7-0.6
		c-0.2-0.2-0.4-0.4-0.6-0.6c-0.2-0.2-0.3-0.4-0.6-0.6c-0.3-0.2-0.6-0.4-1-0.6c-0.9-0.6-1-1.6-1.8-2.2c-0.3-0.2-0.5-0.5-0.7-0.8
		c-0.2-0.2-0.3-0.4-0.3-0.6c-0.2-0.4-0.5-0.7-0.7-1l-0.7-0.7c-1.6-1.5-3.3-2.8-5.2-3.9c-1.1-0.6-2.1-1.4-3.2-1.8
		c-1-0.4-2.1-0.5-3.1-0.4c-1.7-0.1-4.9,0.2-5.9,1.8c-0.2,0.4-1,1.4-0.3,1.5c0-1.4,1.9-2.2,3.1-2.4c0.4,0,0.8,0,1.1-0.1
		c0.2-0.1,0.4-0.1,0.6-0.1h1.6c0.3,0,0.6,0,1,0c0.3,0.1,0.7,0.2,1,0.4c0.3,0.2,0.6,0.3,0.9,0.5c0.2,0.1,0.4,0.2,0.6,0.2l0.5,0.2
		c0.2,0.1,0.2,0.2,0.2,0.2c0.2,0.2,0.4,0.4,0.7,0.6c0.1,0.1,0.2,0.3,0.2,0.4l0.2,0.2c0.2,0.2,0.2,0.4,0.5,0.5
		c0.1,0.1,0.3,0.2,0.3,0.3c0.1,0.2,0.1,0.3,0.2,0.5s0.3,0.2,0.4,0.2c0.2,0.2,0.5,0.5,0.6,0.7c0.2,0.2,0.6,0.4,0.8,0.6
		c0.2,0.2,0.2,0.3,0.4,0.5l0.2,0.2c0.1,0.2,0.2,0.4,0.3,0.6c0.1,0.1,0.2,0.3,0.3,0.4c0.1,0.2,0.2,0.3,0.4,0.4
		c0.2,0.1,0.3,0.2,0.5,0.3c0.1,0.1,0.2,0.2,0.2,0.3c0,0,0.1,0,0.1,0.1c0,0,0,0,0,0c0.1,0.1,0.1,0.2,0.2,0.3c0.1,0.2,0.2,0.4,0.3,0.6
		c0.2,0.2,0.5,0.3,0.7,0.5c0.2,0.2,0.4,0.4,0.5,0.6c0.2,0.3,0.4,0.5,0.6,0.8c0.2,0.4,0.6,0.7,1,0.9c0.1,0.1,0.3,0.2,0.3,0.4
		c0.1,0.2,0.2,0.3,0.4,0.4c0.8,0.6,1.5,1.3,2.3,1.9c0.5,0.4,1,0.7,1.5,1c1.9,1.2,4,2,6.2,2.3c1.1,0.2,2.1,0.2,3.2,0
		c0.5-0.1,1-0.2,1.4-0.5c0.2-0.1,0.4-0.2,0.6-0.4c0.2-0.1,0.3-0.2,0.4-0.4c0-0.1,0-0.2,0.1-0.2c0.1-0.1,0.1-0.2,0.2-0.2
		c0.2-0.1,0.3-0.2,0.5-0.3c0.3-0.3,0.5-0.7,0.6-1.1c0.1-0.2,0.2-0.2,0.4-0.4l0.2-0.5c0.2-0.3,0.4-0.5,0.6-0.7
		c0.2-0.3,0.4-0.6,0.5-0.9c0.1-0.2,0.1-0.5,0.1-0.7c0-0.2,0.1-0.5,0.1-0.7c0-0.5,0-0.9,0.1-1.4c0.1-0.4,0.1-0.7,0.1-1.1
		c0-0.3,0-0.6-0.1-1c-0.1-0.2,0-0.5-0.1-0.7c-0.1-0.4-0.3-0.8-0.4-1.2c-0.1-0.3-0.2-0.5-0.3-0.7c-0.2-0.4-0.6-0.9-1-0.9
		C-4354.9-13.5-4355-13.4-4355.2-13.4z"/>
	<path d="M-4326.5,0c0.2-0.1,0.4-0.3,0.6-0.5l0.1-0.1h0.1c0,0,0.1,0,0.1-0.1c0,0,0,0,0,0l0.1-0.1l0.1-0.1l0.2-0.2l0.1-0.1
		c0,0,0.1-0.1,0.1-0.2c0.1-0.1,0.1-0.1,0.2-0.2l0.1-0.1c0,0,0-0.1,0.1-0.1c0,0,0,0,0,0l0.1-0.1V-2l0,0c0,0-0.1,0-0.1,0.1
		c0,0,0,0,0,0l-0.1,0.1l-0.1,0.1c-0.1,0.1-0.2,0.2-0.2,0.2l-0.2,0.2l-0.2,0.2l-0.1,0.1v0.1l0,0l-0.1,0.1c-0.1,0.1-0.2,0.1-0.2,0.2
		c-0.2,0.1-0.2,0.2-0.4,0.2c-0.3,0.2-0.6,0.3-0.9,0.5c-0.6,0.3-1.3,0.4-1.9,0.3c-1.1-0.1-2.2-0.5-3-1.3c-1.9-1.7-2.6-4.4-2.8-6.9
		c-0.2-1.9,0.1-3.8,0.6-5.6c0.2-0.5,0.3-0.9,0.5-1.4c0-0.1,0.1-0.2,0.1-0.3v-0.1c0-0.2,0.1-0.3,0.2-0.4l0.2-0.2
		c0.1-0.1,0.1-0.2,0.1-0.2c0.1-0.2,0.2-0.4,0.3-0.6l0.1-0.1c0.1-0.1,0.1-0.1,0.1-0.2c0.1-0.2,0.2-0.2,0.2-0.4
		c0.1-0.1,0.1-0.2,0.2-0.2c0.1-0.1,0.2-0.1,0.2-0.1c0.1,0,0.2-0.1,0.3-0.1h0.3c0-0.1,0-0.1,0.1-0.2c0,0,0.1-0.1,0.2-0.1
		c0.2-0.1,0.4-0.1,0.6-0.2c0.1,0,0.2,0.1,0.3,0.2c0.1,0.1,0.2,0.3,0.4,0.3c0.2,0.1,0.2,0.2,0.4,0.3c0.5,0.5,0.8,1.2,0.9,1.9
		c0,0.2,0.1,0.4,0.1,0.6v0.2c0,0.1,0.1,0.2,0.2,0.2c0,0,0,0.1,0.1,0.1c0,0,0,0,0,0h0.2v-0.6c0-0.1-0.1-0.2-0.1-0.2v-0.6
		c0-0.2-0.1-0.3-0.2-0.5c-0.1-0.2-0.2-0.4-0.2-0.6c-1-2.2-3.6-2.4-5.5-1c-0.5,0.5-1,1-1.4,1.6c-0.3,0.4-0.7,0.7-1,1.2
		c-0.3,0.5-0.2,1.1-0.5,1.6c-0.1,0.2-0.1,0.4-0.2,0.6c0,0.2-0.1,0.4-0.2,0.6c-0.1,0.2-0.2,0.2-0.2,0.4c-0.1,0.7-0.2,1.4-0.2,2.2v2.7
		c0,0.4,0.1,0.9,0.3,1.3c0.1,0.2,0.2,0.4,0.2,0.6v0.4c0.1,0.4,0.4,0.5,0.6,0.8c0.2,0.5,0.7,1,1,1.4c0.1,0.3,0.3,0.6,0.6,0.8
		c0.1,0.1,0.1,0.2,0.2,0.3c0.2,0.2,0.5,0.4,0.7,0.6c0.2,0.2,0.2,0.1,0.2,0.2s0.2,0.1,0.3,0.2c0.1,0.2,0.3,0.3,0.5,0.4
		c0.2,0.1,0.3,0.1,0.5,0.1c0.4,0.2,0.9,0.3,1.4,0.3c0.9,0.2,1.8,0.2,2.7,0.1C-4327.8,0.5-4327.1,0.3-4326.5,0z"/>
	<path d="M-4316.1,0.1c0.2-0.1,0.4-0.2,0.6-0.4l0.1-0.1h0.1l0.1-0.1l0.1-0.1l0.1-0.1l0.2-0.2c0,0,0-0.1,0.1-0.1c0,0,0,0,0,0l0.1-0.1
		v-0.2l0.1-0.1c0,0,0-0.1,0.1-0.1c0,0,0,0,0,0v-0.3l0,0l-0.1,0.1v0.1c0,0,0,0.1-0.1,0.1c0,0,0,0,0,0c-0.1,0.1-0.1,0.2-0.2,0.2
		l-0.2,0.2c-0.1,0.1-0.2,0.1-0.2,0.2v0.2h-0.1l-0.2,0.2c-0.1,0.1-0.2,0.2-0.3,0.2c-0.2,0.2-0.5,0.3-0.7,0.4c-0.5,0.2-1,0.3-1.6,0.3
		c-0.9-0.1-1.8-0.5-2.6-1c-1.5-1.6-2.4-3.7-2.4-5.9c-0.1-1.6,0-3.2,0.5-4.8c0.2-0.4,0.2-0.8,0.4-1.2c0-0.1,0.1-0.2,0.1-0.2v-0.1
		c0-0.2,0.1-0.2,0.2-0.4c0.1-0.1,0.2-0.1,0.2-0.2c0-0.1,0-0.1,0.1-0.2c0.1-0.2,0.2-0.3,0.3-0.5l0,0l0.1-0.1c0.1-0.1,0.2-0.2,0.2-0.3
		s0.1-0.2,0.2-0.2c0.1-0.1,0.2-0.1,0.2-0.1c0.1,0,0.2-0.1,0.2-0.1h0.2c0-0.1,0-0.1,0.1-0.1c0,0,0.1-0.1,0.2-0.1
		c0.1-0.1,0.3-0.1,0.5-0.2c0.1,0,0.2,0.1,0.2,0.2c0.1,0.1,0.2,0.2,0.3,0.2c0.1,0.1,0.3,0.2,0.3,0.3c0.4,0.5,0.6,1,0.7,1.6
		c0,0.2,0.1,0.3,0.1,0.5v0.2c0,0.1,0.1,0.2,0.1,0.2c0,0,0,0.1,0.1,0.1c0,0,0,0,0,0h0.2v-1.4c0-0.1,0-0.3-0.1-0.4
		c-0.1-0.2-0.1-0.4-0.2-0.6c-0.7-1.5-2.5-2.1-3.9-1.4c-0.3,0.1-0.5,0.3-0.7,0.5c-0.5,0.4-0.9,0.8-1.2,1.4c-0.2,0.4-0.6,0.6-0.9,1
		c-0.2,0.4-0.3,0.9-0.4,1.4c-0.1,0.2-0.1,0.4-0.2,0.6c0,0.2-0.1,0.3-0.2,0.5c-0.1,0.1-0.1,0.3-0.2,0.4c-0.1,0.6-0.1,1.2-0.2,1.8v2.4
		c0,0.4,0.1,0.8,0.3,1.1c0.1,0.1,0.1,0.3,0.2,0.5v0.3c0.1,0.3,0.3,0.4,0.5,0.7c0.2,0.4,0.5,0.8,0.9,1.2l0.5,0.7
		c0.1,0.1,0.1,0.2,0.2,0.3c0.2,0.2,0.4,0.3,0.6,0.6c0.1,0.1,0.1,0.1,0.2,0.2c0.1,0,0.2,0.1,0.2,0.2c0.2,0.1,0.2,0.2,0.4,0.3
		c0.1,0.1,0.3,0.1,0.4,0.1c0.4,0.1,0.7,0.3,1.1,0.3c0.8,0.1,1.6,0.2,2.3,0.1C-4317.1,0.6-4316.7,0.4-4316.1,0.1z"/>
	<path d="M-4410.5-1.2c0-0.1,0.1-0.1,0.1-0.2l0.5-0.7c0.1-0.2,0.2-0.3,0.1-0.6c-0.2,0.1-0.4,0.3-0.6,0.4c-0.1,0.1-0.3,0.2-0.3,0.4
		c-0.1,0.1-0.2,0.3-0.3,0.3c-0.1,0.1-0.2,0.3-0.3,0.4c-0.2,0.2-0.3,0.4-0.5,0.5c-0.2,0-0.5,0-0.7,0c-0.2,0-0.3,0.1-0.4,0.2
		c-0.1,0.1-0.2,0.1-0.2,0.1h-0.2c-0.2,0-0.6,0.1-0.8,0.1c-0.2,0-0.4,0.1-0.6,0.1c-1.4,0-2.8-0.5-3.9-1.2c-0.4-0.2-0.9-0.5-1.2-0.9
		c-0.2-0.2-0.5-0.7-0.8-0.9c-0.1-0.5,0.3-0.3,0.6-0.6c0.2-0.2,0.4-0.3,0.6-0.4c0.1-0.1,0.2-0.1,0.3-0.1c0.2-0.1,0.2-0.2,0.4-0.2
		c0.1,0,0.1,0,0.2-0.1c0.1-0.1,0-0.1,0.1-0.2c0-0.1,0.1-0.2,0.2-0.2l0.2-0.2c0.1-0.1,0.1-0.2,0.2-0.2s0.2-0.1,0.2-0.2v-0.2
		c0-0.1,0.1-0.2,0.1-0.2c0-0.2,0.1-0.3,0.1-0.5c0.1-0.6,0.1-1.2-0.1-1.8c-0.2-0.3-0.6-1-0.9-1c-0.3-0.2-1,0.1-1.3,0.1
		c-1.4,0.2-2.5,1.1-3,2.4c-0.1,0.5-0.1,1-0.2,1.5c0,0.6-0.1,1.2-0.4,1.8c-0.2,0.2-1.3,0.1-1.4,0.3c0,0.2-0.2,0.5,0,0.6
		c0.2,0.1,0.4,0.1,0.6,0.2c0.1,0,0.2,0,0.2-0.1c0.4-0.2,0.8-0.2,1.3-0.2c0.2,0.1,0.2,0.5,0.4,0.6c0.6,0.5,1.2,0.9,1.8,1.2
		c0.6,0.2,1.1,0.6,1.8,0.8c0.9,0.4,1.8,0.8,2.7,1c0.4,0.1,0.9,0.1,1.3,0.2c0.4,0,0.9,0,1.3-0.1c0.3,0,0.7-0.1,1-0.2
		c0.2-0.1,0.2-0.2,0.4-0.2c0.2-0.1,0.4-0.1,0.6-0.2c0.2-0.1,0.4-0.3,0.6-0.5c0.2-0.2,0.4-0.4,0.6-0.6c0.1-0.1,0.2-0.2,0.2-0.3
		C-4410.6-1-4410.5-1.1-4410.5-1.2z M-4421.3-4.4c-0.2-0.1-0.3-0.2-0.3-0.6c0-0.5,0-1.1,0.2-1.6c0.1-0.2,0.1-0.3,0.2-0.4
		c0.1-0.2,0.1-0.3,0.2-0.4l0,0c0.3-0.5,1.1-1,1.7-0.7c0.6,0.3,0.6,1.2,0.6,1.8c0,1.1-0.9,2-2,2.1C-4421.2-4.4-4421.3-4.4-4421.3-4.4
		L-4421.3-4.4z"/>
	<path d="M-4498.3-0.1c0.1,0.1,0.2,0.2,0.2,0.2s0.1,0.1,0.2,0.1c0,0,0,0.1,0.1,0.1c0,0,0,0,0,0c0.1,0.1,0.2,0.1,0.3,0.1
		c0.1,0,0.3,0.1,0.4,0.2c0.2,0.2,0.6,0.1,0.8,0.2c0.1,0.1,0.3,0.1,0.5,0.2h0.2c0.2,0.1,0.4,0.1,0.6,0.2c0.2,0,0.4-0.1,0.6,0h0.5
		c0.5-0.1,0.9-0.2,1.4-0.3c0.1,0,0.2-0.1,0.2-0.1c0.6-0.2,1.2-0.6,1.8-1c0.2-0.1,0.2-0.3,0.5-0.4c0.1-0.1,0.2-0.1,0.4-0.2
		c0.1-0.1,0.1-0.1,0.2-0.1s0.1-0.1,0.2-0.1c0.1-0.1,0.2-0.1,0.2-0.2l0.2-0.2c0.2-0.1,0.2-0.2,0.4-0.4l0,0c0,0,0.1,0,0.1-0.1
		c0,0,0,0,0,0l0.1-0.1c0-0.1,0-0.1,0.1-0.2c0-0.1,0.1-0.1,0.1-0.2c0.1-0.1,0.1-0.2,0.2-0.2c0-0.1,0.1-0.2,0.1-0.2l0.2-0.2
		c0,0,0.1-0.1,0.1-0.2c0-0.1,0.1-0.1,0.1-0.2c0.1-0.1,0.1-0.2,0.2-0.2c0.1-0.1,0.1-0.2,0.2-0.2c0.1-0.1,0.1-0.2,0.2-0.2l0.1-0.1
		v-0.1c0-0.1,0-0.2-0.1-0.1c0,0-0.1,0-0.1,0.1c0,0,0,0,0,0l-0.2,0.2c-0.1,0.1-0.2,0.3-0.4,0.3c-0.1,0-0.1,0-0.2,0.1l-0.1,0.1
		l-0.1,0.1l-0.1,0.1c-0.1,0.1-0.2,0.2-0.2,0.2c-0.1,0.1-0.2,0.2-0.3,0.2l-0.1,0.1h-0.1v0.1l-0.1,0.1l-0.2,0.2
		c-0.1,0.1-0.1,0.2-0.2,0.2c-0.2,0.2-0.4,0.4-0.6,0.6c-0.3,0.2-0.6,0.4-1,0.6c-0.5,0.3-1,0.5-1.6,0.6c-0.2,0.1-0.6,0.2-0.8,0.2
		c-0.2,0.1-0.4,0.1-0.6,0.2h-0.5c-0.2,0-0.4,0-0.6-0.1c-0.1-0.1-0.3-0.1-0.4-0.1c-0.2,0-0.2,0.1-0.4,0c-0.2,0-0.2-0.2-0.4-0.2
		c-0.4-0.2-0.9,0-1.1-0.4c-0.1-0.2-0.2-0.3-0.3-0.5c-0.1-0.1-0.2-0.2-0.3-0.2c-0.1-0.1-0.2-0.2-0.2-0.3c-0.1-0.2-0.2-0.2-0.2-0.4
		v-0.1l-0.1-0.1c-0.1-0.1-0.1-0.2-0.1-0.3c0-0.1-0.1-0.2-0.1-0.2c-0.1-0.2,0-0.3-0.1-0.5c0-0.2-0.1-0.3-0.1-0.6
		c0-0.2-0.1-0.3,0.1-0.4c0.1-0.1,0.1-0.1,0.2,0l0.5,0.2c0.2,0.1,0.4,0.1,0.6,0.2c0.8,0.2,1.7,0,2.4-0.5c1.1-0.8,1.5-2.2,1-3.4
		c-0.8-1.6-3-1.4-4.5-0.8c-0.4,0.2-0.8,0.5-1.1,0.7c-1.4,1-1.5,2.9-1.3,4.4c0.1,0.6,0.2,1.1,0.5,1.6c0.1,0.1,0.1,0.2,0.2,0.2
		c0,0,0.1,0,0.1,0.1c0,0,0,0,0,0c0.1,0.1,0.1,0.2,0.2,0.2l0.2,0.2c0.1,0.1,0.1,0.1,0.2,0.1s0.1,0.1,0.2,0.1c0.1,0.1,0.2,0.1,0.2,0.2
		c0.1,0.1,0.1,0.2,0.1,0.2c0.1,0.1,0.1,0.2,0.2,0.2h0.2C-4498.7-0.5-4498.5-0.3-4498.3-0.1z M-4497.4-8.1c0.6-0.6,1.9-0.2,2.4,0.5
		c0.6,0.7,0.6,1.8,0,2.5c-0.3,0.4-0.7,0.7-1.1,0.8c-0.2,0.1-0.4,0.1-0.6,0.2c-0.2,0-0.4,0-0.6-0.1l-0.1-0.1h-0.2
		c-0.1,0-0.1-0.1-0.2-0.1h-0.2c-0.7-0.2-0.8-0.7-0.9-1.3c-0.1-0.4,0-0.9,0.3-1.1"/>
	<path d="M-4480.5-5.4c-0.6-0.7-1.2-1.4-1.8-2.2c-0.2-0.2-0.2-0.3-0.4-0.5l-0.2-0.2c-0.1,0-0.1,0-0.2-0.1s-0.1-0.3-0.1-0.5v-0.8
		c0-0.2-0.1-0.3-0.2-0.5c-0.1-0.2-0.3-0.3-0.5-0.3c-0.2,0-0.4-0.1-0.6-0.1c-0.2,0-0.6,0.2-0.6,0.6v0.2c-0.1,0.3-0.2,0.6-0.3,0.9
		c0,0.1-0.1,0.2-0.1,0.2s-0.1,0.2-0.1,0.3c-0.1,0.2-0.1,0.4-0.2,0.6c-0.1,0.2-0.1,0.3-0.2,0.5s-0.1,0.4-0.2,0.6
		c-0.1,0.2-0.2,0.4-0.2,0.6s-0.2,0.2-0.2,0.3h0.2c0.1,0,0.2-0.2,0.2-0.2c0.2-0.2,0.2-0.6,0.4-0.8c0.1-0.2,0.1-0.3,0.2-0.4
		c0.1-0.1,0.2-0.2,0.4-0.2c0.2,0,0.2,0.2,0.3,0.2c0.1,0.1,0.2,0.3,0.3,0.5c0.1,0.1,0.1,0.2,0.2,0.4c0.1,0.1,0.2,0.1,0.2,0.2
		c0.1,0.1,0.2,0.3,0.2,0.4c0.1,0.2,0.2,0.2,0.3,0.3l0.5,0.5c0.3,0.4,0.6,0.8,0.9,1.2c0.4,0.9,0.7,1.8,0.7,2.7c0,0.2,0,0.3-0.2,0.5
		c-0.1,0.1-0.2,0.2-0.2,0.2c-0.1,0.1-0.2,0.2-0.2,0.3c-0.3,0.2-0.8,0.2-1.2,0.2c-0.2,0.1-0.4,0.1-0.6,0.1c-0.2,0-0.4-0.1-0.6,0
		c-0.2,0-0.3-0.1-0.6-0.1s-0.5-0.2-0.6-0.1c-0.1,0.2-0.1,0.2,0.1,0.3c0.2,0.1,0.4,0.1,0.6,0.2c0.3,0.1,0.7,0.2,1,0.2
		c0.6,0.2,1.2,0.2,1.8,0c0.5-0.1,0.9-0.3,1.4-0.5c0.8-0.5,1.2-1.3,1.3-2.2C-4479.1-3-4479.7-4.3-4480.5-5.4z"/>
	<path d="M-4465.2-1.4h-0.2c-0.2,0-0.3,0-0.5,0.1c0,0-0.1,0-0.1,0.1c0,0,0,0,0,0c-0.2,0.2-0.4,0.3-0.6,0.5c-0.1,0.1-0.2,0.2-0.2,0.2
		c-0.2,0.1-0.5,0.1-0.7,0.1c-0.4,0.1-0.8,0.2-1.2,0.3c-0.6,0.1-1.2,0.2-1.8,0.1c-2-0.2-3.1-1.9-3.4-3.8c0-0.2,0.2-0.2,0.2-0.2
		c2.1,1,4.8-0.7,4.4-3v-0.1c-0.1-0.8-0.8-1.5-1.6-1.7c-0.4-0.1-0.9-0.1-1.3-0.1c-0.5,0-0.9,0.2-1.3,0.4c-0.1,0-0.1,0-0.2,0.1
		c-0.2,0.1-0.4,0.2-0.5,0.3l-0.2,0.2c-0.1,0.1-0.1,0.2-0.2,0.2h-0.1c0,0-0.1,0.1-0.1,0.2c-0.1,0.1-0.2,0.2-0.2,0.2
		c-0.1,0.1-0.2,0.2-0.2,0.3c-0.1,0.1-0.2,0.2-0.3,0.2c-0.1,0.1-0.1,0.2-0.2,0.2c0,0.1-0.1,0.1-0.2,0.2c-0.1,0.1-0.1,0.2-0.1,0.2
		C-4476-6-4476-6-4476-5.9c-0.1,0.1-0.1,0.3-0.2,0.5V-5c-0.1,0.6-0.1,1.2,0.1,1.8c0.1,0.3,0.2,0.7,0.4,1l0.2,0.2
		c0.1,0.2,0.1,0.3,0.3,0.4l0.5,0.2c0.1,0.1,0.2,0.1,0.3,0.2c0.2,0.1,0.3,0.2,0.5,0.3c0.2,0.1,0.1,0.2,0.2,0.3c0.2,0,0.2,0.2,0.4,0.4
		c0.1,0.2,0.2,0.2,0.3,0.3c0.3,0.2,0.4,0.6,0.7,0.7c0.1,0.1,0.3,0.1,0.4,0.1c0.2,0,0.4,0,0.6,0.1h0.6c0.2,0,0.3,0.1,0.5,0.1
		c0.4,0.1,0.8,0,1.2-0.1c0.2,0,0.5-0.1,0.7-0.2c0.9-0.3,1.7-0.7,2.5-1.2c0.2-0.2,0.3-0.2,0.5-0.4c0.1-0.1,0.2-0.2,0.2-0.2
		c0.1,0,0.2-0.1,0.2-0.2C-4465.2-1.2-4465.2-1.3-4465.2-1.4L-4465.2-1.4z M-4474.1-5.7c0-0.1,0-0.3,0.1-0.4c0.1-0.1,0.1-0.2,0.2-0.3
		l0.2-0.2c0.1-0.1,0.2-0.3,0.2-0.4c0-0.1,0.1-0.2,0.2-0.2s0.1-0.1,0.1-0.2v-0.2c0.1-0.2,0.2-0.4,0.3-0.6c0.1-0.1,0.3-0.1,0.4-0.2
		h0.6c0.2,0,0.4-0.1,0.5,0c1,0.5,1.5,1.7,1,2.8c0,0.1-0.1,0.1-0.1,0.2c-0.8,1.1-2.3,1.5-3.5,1c-0.1,0-0.1-0.1-0.1-0.2
		C-4474.1-5-4474.1-5.3-4474.1-5.7L-4474.1-5.7z"/>
	<path d="M-4434.6-11.1L-4434.6-11.1c-0.2,0-0.2,0.1-0.4,0.1h-1.6c-0.3,0-0.6,0-0.9-0.1h-4.1c-0.2,0-0.2,0.1-0.4,0.1
		c-0.2,0.1-0.4,0.1-0.6,0.1h-1c-0.1,0-0.2,0.1-0.2,0.1h-1.4c-0.2,0-0.4,0.1-0.4-0.2v-2.1c0-0.1-0.1-0.2-0.1-0.3
		c-0.1-0.2-0.1-0.3-0.1-0.5v-1.2c0-0.1,0.1-0.3,0.1-0.4v-0.8c0-0.1,0-0.3-0.1-0.4c0-0.1-0.1-0.2-0.1-0.2c-0.1-0.1-0.1-0.1-0.2-0.1
		h-0.6c-0.2,0-0.2,0.3-0.2,0.4s-0.1,0.2-0.1,0.2c0,0.1-0.1,0.2-0.1,0.2c0,0.2-0.1,0.2-0.1,0.4c0,0.1,0,0.2-0.1,0.2
		c0,0.1-0.1,0.2-0.1,0.2c0,0.1,0,0.2-0.1,0.3c-0.1,0.2,0,0.2-0.1,0.4c-0.1,0.2-0.1,0.3-0.1,0.5c-0.1,0.2,0,0.6-0.1,0.9v0.7
		c0,0.1,0,0.2-0.1,0.2v0.5c0,0.3-0.1,0.6-0.2,0.8c-0.2,0.3-1.4,0.2-1.9,0.2h-2.1c-0.5,0-1.7-0.2-1.8,0.4c-0.1,0.8,1.3,0.6,1.8,0.6
		h0.5c0.1,0,0.2-0.1,0.3,0h1.7l0.5,0.2c0.2,0.1,0.3,0,0.6,0.1c0.2,0,0.4,0.1,0.6,0.1h0.2v1c-0.1,1.2-0.1,2.5,0,3.7
		c0,0.4,0.2,0.9,0.2,1.3c0,0.3-0.5,0.9-0.7,1.2c-0.3,0.5-0.7,0.9-1.2,1.2c-0.9,0.8-2,1.3-3.2,1.4c-1.8,0.2-3.6-0.8-4.4-2.4
		c-0.3-0.7-0.6-1.5-0.7-2.2c-0.1-0.8-0.2-1.6-0.4-2.3c-0.2-0.6-0.7-1.1-1.4-1.2l-1.4-0.5c-0.4-0.2-1-0.6-1.4-0.5
		c-0.2,0.1-0.4,0.3-0.5,0.6c0,0.1-0.1,0.2-0.2,0.2l-0.1,0.1c-0.1,0.1-0.1,0.2-0.1,0.2c-0.1,0.2,0,0.3,0,0.6c0,0.2,0,0.4-0.2,0.6
		c-0.2,0.2,0,0.6-0.1,0.8v0.2c0,0.1-0.1,0.2-0.1,0.2V-5c0,0.2-0.1,0.3-0.1,0.5v0.3c0,0,0,0.1,0.1,0.1c0,0,0,0,0,0
		c0.1,0,0.2,0,0.2-0.1l0.2-0.2c0.1-0.1,0-0.3,0-0.4v-0.8c0.1-0.2,0.2-0.4,0.2-0.6v-0.3c0,0,0-0.1,0.1-0.1c0,0,0,0,0,0
		c0.1-0.1,0.1-0.2,0.2-0.2c0,0,0-0.1,0.1-0.1c0,0,0,0,0,0c0.3,0,0.5,0,0.7,0.2c0.1,0.1,0.2,0.1,0.2,0.2s0.2,0.1,0.2,0.2
		c0,0,0.1,0,0.1,0.1c0,0,0,0,0,0c0.1,0.1,0.2,0,0.3,0.1c0.2,0,0.2,0,0.3,0.1c0.1,0,0.2,0.1,0.2,0.1c0,0,0.1,0.1,0.1,0.2
		c0.1,0.1,0.1,0.2,0.2,0.2c0.1,0.1,0.1,0.2,0.2,0.2l0.3,0.3c0.1,0.1,0.3,0.2,0.3,0.4c0,0.1,0.1,0.2,0.1,0.3V-4
		c0,0.1,0.1,0.2,0.1,0.3V-3c0,0.2,0.1,0.2,0.1,0.4v0.3c0,0.1,0,0.2,0.1,0.3c0.1,0.2,0.1,0.2,0.2,0.4c0.3,0.8,1,1.4,1.8,1.6
		c0.9,0.5,1.9,0.9,3,1c1.8,0,3.6-0.6,5.1-1.8c0.6-0.5,1.1-1.1,1.4-1.8c0.2-0.4,0.4,0.2,0.5,0.2c0.2,0.3,0.6,0.4,0.9,0.7
		c0.3,0.3,0.5,0.7,0.7,1c0.6,0.5,1.3,0.8,2,1c0.9,0.4,1.9,0.5,2.8,0.4c1.3,0,2.6-0.4,3.6-1.3c0.3-0.2,0.6-0.5,0.9-0.8
		c0.2-0.2,0.3-0.4,0-0.4c-0.2-0.1-0.6,0.2-0.7,0.3c-0.4,0.5-0.9,1-1.4,1.3c-0.9,0.4-1.8,0.5-2.7,0.4c-1.7-0.1-3.2-1.1-4.1-2.6
		c-0.4-1-0.6-2-0.6-3v-4.4c0.1-0.1,0.2-0.1,0.2-0.1h2.2c0.1,0,0.2-0.1,0.2-0.1c0.1-0.1,0.2-0.1,0.3-0.1c0.2-0.1,0.4-0.1,0.6-0.2
		c0.3-0.1,0.7-0.2,1-0.2h2.2c0.2,0,0.5-0.2,0.7,0c0.1,0,0.2,0.1,0.3,0.1c0.2,0,0.3,0,0.5,0.1c0.2,0.1,0.4,0,0.6,0h1.2
		c0.3,0,0.6,0,0.9,0c0.2,0,0.4,0.1,0.6-0.1c0.1-0.1,0.2-0.1,0.3-0.2c0.1,0,0.2,0,0.2-0.1c0.1-0.1,0.2-0.1,0.2-0.2v-0.2
		c0-0.1,0-0.1-0.1-0.1c0,0,0-0.1-0.1-0.1c0,0,0,0,0,0L-4434.6-11.1C-4434.5-11.1-4434.6-11.1-4434.6-11.1z"/>
	<path d="M-4505.1-7.2c-0.1-1-0.5-1.9-1.2-2.6c-1.7-2.4-3.9-4.3-6.4-5.8c-1.9-1.2-4-2-6.2-2.3c-1.1-0.2-2.1-0.2-3.2,0
		c-1.3,0.2-2.5,0.8-3.4,1.7c-0.3,0.3-0.8,0.6-1,1c-0.2,0.6,0.1,1.4,0,2.2c-0.2,1.6-0.2,3.2-0.2,4.7c0,0.9,0.1,1.8,0.2,2.7
		c0.2,1.3,0.3,2.6,0.2,3.9c0,0.7,0,1.3,0,2c0.1,0.3,0.3,1.1,0.8,0.6c0.3-0.3,0.2-1,0.1-1.4c-0.1-0.6-0.1-1.2-0.1-1.8
		c0-1.4-0.1-2.8-0.2-4.2c-0.3-1.7-0.4-3.5-0.2-5.3c0.2-1,0.5-1.9,1-2.7c0.1-0.2,0.2-0.3,0.3-0.3c0.5-0.1,1,0,1.4-0.1
		c0.3-0.1,0.7-0.2,1-0.2c0.2-0.1,0.4-0.1,0.6-0.2c0.2,0,0.4,0,0.6-0.1c0.3-0.1,0.6-0.1,1-0.2h1.4c0.3,0,0.6,0.1,0.9,0.2
		c0.3,0,0.7,0.1,1,0.2l1.2,0.5c0.2,0.1,0.4,0.1,0.6,0.2s0.4,0.2,0.6,0.3c0.3,0.2,0.6,0.3,1,0.6c0.2,0.1,0.4,0.2,0.6,0.3l0.4,0.4
		c0.2,0.2,0.4,0.3,0.5,0.6c0.1,0.1,0.1,0.2,0.2,0.2s0.2,0,0.2,0s0.2,0.2,0.2,0.3c0.2,0.2,0.4,0.3,0.6,0.5c0.1,0.1,0.1,0.1,0.2,0.2
		c0.1,0.2,0.2,0.3,0.3,0.5c0.1,0.1,0.1,0.2,0.2,0.2s0.1,0.2,0.2,0.4c0.1,0.2,0.2,0.2,0.3,0.3c0.1,0.2,0.2,0.3,0.3,0.4
		c0.3,0.2,0.2,0.6,0.5,0.9c0.1,0.1,0.2,0.3,0.2,0.5c0,0.2,0.2,0.2,0.2,0.4c0.1,0.2,0.2,0.5,0.2,0.6c0.1,0.3,0.2,0.5,0.3,0.7
		c0.3,0.6,0.5,1.3,0.5,1.9c0,0.8-0.1,1.6-0.5,2.3c-0.2,0.5-0.9,0.6-1.3,1c-0.5,0.5-1,0.9-1.6,1.2c-0.5,0.1-1,0.2-1.4,0.3
		c-1.2,0.5-2.6,0.7-3.9,0.6c-1.4-0.2-2.6,0.3-3.9,0.4c-0.8,0.1-1.1,0.4-0.2,0.6c0.6,0,1.2,0,1.8-0.1c1,0,1.9-0.2,2.9-0.2
		c1-0.2,1.8,0,2.6-0.2c0.5-0.1,1.1-0.2,1.6-0.2c0.6-0.1,1.1-0.3,1.6-0.6c1.2-0.5,2.4-1.1,3.5-1.8C-4504.3-2.7-4504.8-5.6-4505.1-7.2
		z"/>
	<path d="M-4500.7-10.7c0.3,0.1,0.7,0,1-0.1c0.2-0.1,0.2-0.2,0.2-0.2c0.1-0.1,0.2,0,0.2,0c0.2,0,0.2-0.2,0.2-0.2
		c0.2-0.2,0.4-0.2,0.6-0.2c0.1-0.1,0.3-0.2,0.4-0.3c0.1-0.1,0.2-0.2,0.4-0.2h0.2c0.2-0.1,0.2-0.2,0.4-0.2c0.1-0.1,0.2,0,0.2-0.1
		l0.1-0.1c0.1-0.1,0.3-0.1,0.4-0.2c0.2-0.2,0.4-0.4,0.6-0.4c0.2-0.1,0.2-0.1,0.4-0.2c0.2-0.1,0.4-0.2,0.5-0.3
		c0.1-0.1,0.3-0.2,0.5-0.3c0.1-0.1,0.2-0.3,0.2-0.4c0.1-0.1,0.1-0.2,0.2-0.3V-15c0-0.2,0-0.5-0.2-0.6c-0.2-0.1-0.4-0.1-0.6-0.2h-0.3
		c-0.2,0-0.2,0.2-0.4,0.3c-0.1,0.1-0.2,0.3-0.3,0.5c-0.2,0.1-0.2,0.2-0.3,0.3c0,0.1-0.1,0.1-0.2,0.2c0,0,0,0.1-0.1,0.1c0,0,0,0,0,0
		c0,0.1-0.1,0.2-0.2,0.2c-0.1,0.1-0.1,0.2-0.1,0.3c-0.1,0.2-0.2,0.2-0.3,0.4c0,0.1-0.1,0.2-0.2,0.2l-0.2,0.2
		c-0.2,0.2-0.4,0.4-0.6,0.6c-0.2,0.2-0.5,0.4-0.8,0.6c-0.2,0.1-0.3,0.2-0.5,0.3c0,0.2-0.1,0.2-0.1,0.2c-0.1,0.1-0.1,0.1-0.2,0.2
		C-4499.9-11.1-4500.4-10.9-4500.7-10.7z"/>
</g>
</svg>
