<?xml version="1.0" encoding="utf-8"?>
<!-- Generator: Adobe Illustrator 21.0.2, SVG Export Plug-In . SVG Version: 6.00 Build 0)  -->
<svg version="1.1" id="Calque_1" xmlns="http://www.w3.org/2000/svg" xmlns:xlink="http://www.w3.org/1999/xlink" x="0px" y="0px"
	 viewBox="0 0 200.2 68" style="enable-background:new 0 0 200.2 68;" xml:space="preserve">
<style type="text/css">
	.st0{fill:#FFFFFF;}
</style>
<g>
	<g>
		<path class="st0" d="M15.4,31.4c1.7,0,2.7-0.6,4.2-1.1c0.5-0.2,1.1-0.1,1.6-0.5c0.2-0.2,0.4-0.3,0.6-0.4c0.1-0.1,0.2-0.1,0.3-0.2
			c0.1-0.1,0.2-0.1,0.3-0.2c0.1-0.1,0.3-0.2,0.5-0.2s0.4,0.3,0.5,0.4c0.1,0.2,0.4,0.4,0.6,0.6c0.1,0.1,0.1,0.2,0.2,0.2
			c0.1,0.1,0.3,0.1,0.4,0.1c0.1,0,0.3,0.1,0.4,0.2c0.2,0.2,0.3,0.4,0.6,0.5s0.5,0.3,0.8,0.4c0.1,0,0.1,0,0.2,0.1l0.1,0.1
			c0.2,0.1,0.4,0.1,0.6,0.1c0.1,0,0.3,0,0.4,0c0.1,0,0.3,0.1,0.4,0.1c0.4,0.1,0.8,0,1.2-0.1c0.2,0,0.5,0,0.8,0s0.5,0,0.8,0
			c0.2,0,0.3-0.1,0.4-0.2c0.2-0.1,0.4-0.1,0.6-0.1c0.2,0,0.3,0,0.5,0s0.4-0.1,0.6-0.2c0.2-0.1,0.3-0.1,0.5-0.2
			c0.3-0.1,0.6-0.3,0.8-0.4c0.3-0.2,0.6-0.4,0.9-0.6c0.2-0.1,0.3-0.2,0.5-0.3c0.1-0.1,0.2-0.2,0.2-0.3c0-0.2,0-0.3-0.2-0.4
			c-0.1,0-0.2,0-0.3,0s-0.2,0-0.3,0.1s-0.2,0.2-0.2,0.2c-0.1,0.1-0.3,0.2-0.4,0.2c-0.1,0.1-0.3,0.2-0.4,0.2
			c-0.2,0.1-0.4,0.2-0.6,0.3c-0.3,0.2-0.6,0.4-1,0.5c-0.1,0-0.3,0.1-0.4,0.1c-0.2,0-0.4,0.1-0.5,0.1c-0.6-0.2-0.8-0.1-1-0.2
			c-0.4,0-0.8,0-1.2,0c-0.3,0-0.6,0-0.9,0c-0.4,0-0.8-0.2-1.2-0.3c-0.1-0.1-0.3-0.2-0.4-0.3c-0.2-0.2-0.4-0.3-0.5-0.5
			c-1.3-1.4-1.5-2.7-2.1-4.3c0.2-0.1,0.4,0,0.6,0c0.2,0.1,0.3,0.2,0.4,0.2c0.1,0,0.2,0,0.2,0h0.1c0.1,0,0.2,0,0.2,0
			c0.1,0,0.2,0,0.3,0.1c0.1,0,0.2,0.1,0.3,0.1s0.1,0,0.2,0c0.1,0,0.3,0,0.4,0c0.1,0,0.1-0.1,0.1-0.1h0.1c0.1,0,0.2-0.1,0.3-0.1
			c0.2-0.1,0.5-0.4,0.7-0.5c0.1,0,0.2,0,0.3,0s0.3-0.1,0.4-0.2c0.5-0.3,0.9-0.8,1.1-1.3c0.5-1.2,0.4-2.7-0.5-3.6
			c-1.1-1-2.9-1-4.2-0.6c-1.4,0.4-2.6,1.5-3.2,2.8c-0.3,0.7-0.6,1.4-0.6,2.2c-0.1,0.7,0,1.4,0.2,2.1c0,0.1,0.1,0.2,0.1,0.3
			c0.1,0.3,0,0.6,0,0.9c0,0.2,0,0.3-0.1,0.4c-0.2,0.2-0.5,0.3-0.7,0.5c-0.2,0.1-0.4,0.2-0.5,0.4s-0.1,0.3-0.2,0.5
			c-0.3,0.4-0.6,0.7-1.1,1c-0.6,0.4-1.2,0.6-1.8,0.7c-1.3,0.3-2.6,0.2-3.8-0.1c-3.6-0.7-2.7-5.9-2.7-8.6c0-1.8,0.1-3.6,0.3-5.4
			c0.1-1.4,0.2-2.8-0.5-4c-0.1-0.2-0.2-0.4-0.3-0.5c-0.2-0.2-0.4-0.3-0.6-0.5c-0.3-0.2-0.7-0.1-1-0.1c-0.1,0-0.2,0-0.2,0
			c-0.3,0.1-0.4,0.9-0.4,1.1c0,0.2,0,0.3-0.1,0.4c-0.1,0.4,0.1,0.8,0.1,1.2c0,0.5,0.1,0.9,0.1,1.4c0,3.6,0,7.2,0.3,10.8
			C8.7,30.1,12.1,31.3,15.4,31.4z M27,19.5L27,19.5C27.1,19.5,27.1,19.5,27,19.5c2.1,0.1,3,2.5,1.8,4c-0.6,0.8-1.5,1.2-2.4,1.2
			c-0.6,0-1.2-0.1-1.8-0.3c-0.2-0.1-0.5-0.2-0.5-0.5s0-0.7,0-1c0-0.1,0-0.3,0-0.4c0-0.1,0.1-0.3,0.2-0.4c0-0.1,0.1-0.3,0.1-0.4
			c0-0.1,0-0.1,0.1-0.2c0-0.1,0-0.2,0.1-0.3c0.1-0.3,0.2-0.6,0.5-0.7c0.1-0.1,0.2-0.1,0.3-0.1s0.1-0.1,0.2-0.2
			c0.1-0.1,0.3-0.3,0.5-0.4C26.3,19.6,26.6,19.6,27,19.5z"/>
		<path class="st0" d="M91.2,59c-0.1,0-0.1,0-0.3,0c-0.5,0-0.9,0.2-1.3,0.5c-0.2,0.1-0.4,0.2-0.7,0.3c-0.2,0.1-0.4,0-0.7,0.1
			c-0.2,0-0.3,0.1-0.4,0.1s-0.3,0-0.4,0c-0.2,0-0.4,0-0.7-0.1c-0.1,0-0.3-0.1-0.4-0.1c-0.2,0-0.3,0.1-0.5,0
			c-0.1-0.1-0.2-0.2-0.3-0.3c-0.1-0.1-0.3-0.1-0.4-0.1s-0.2-0.1-0.3-0.2c-0.1-0.1-0.2-0.3-0.3-0.5c-0.1-0.3-0.2-0.6-0.5-0.8
			c-0.3-0.3-0.6-0.4-0.8-0.7c-0.2-0.2-0.4-0.5-0.6-0.8s-0.6-0.6-0.8-0.8c-0.2-0.2-0.5-0.6-0.7-0.9c-0.1-0.2-0.2-0.4-0.3-0.6
			c-0.1-0.1-0.2-0.2-0.3-0.3c-0.1-0.2-0.3-0.4-0.4-0.6s-0.3-0.4-0.5-0.6s-0.4-0.5-0.6-0.7c-0.4-0.3-0.9-0.7-1.4-0.7
			c-0.6,0-1.2-0.1-1.7,0.2c-0.2,0.1-0.3,0.3-0.6,0.3c-0.1,0-0.2,0-0.4,0.1c-0.1,0.1-0.3,0.2-0.4,0.3c-0.2,0.2-0.4,0.4-0.7,0.6
			c-0.2,0.2-0.4,0.4-0.6,0.6c-0.1,0.1-0.2,0.3-0.4,0.4c0,0-0.1,0.1-0.1,0.2c-0.1,0.2-0.3,0.3-0.4,0.5c-0.1,0.1-0.2,0.4-0.3,0.5h-0.1
			c-0.1,0.1-0.1,0.2-0.2,0.3c-0.1,0.2-0.2,0.2-0.3,0.3c-0.1,0.1-0.3,0.3-0.4,0.5v0.1l-0.1,0.1c-0.2,0.1-0.3,0.4-0.4,0.5
			c-0.2,0.2-0.3,0.3-0.5,0.5c-0.1,0.1-0.3,0.4-0.4,0.4c-0.2,0.1-0.3-0.4-0.3-0.6c-0.2-0.9-0.3-1.8-0.5-2.7c-0.3-1.5-0.6-3-1.4-4.3
			c-0.3-0.6-0.7-1.1-1.3-1.4c-0.9-0.4-2.2-0.1-3,0.2c-0.5,0.2-0.9,0.5-1.4,0.8c-0.1,0.1-0.2,0.1-0.2,0.2c-0.3,0.4,0,0.8,0.4,0.5
			c0.4-0.2,0.7-0.6,1.1-0.7c0.5-0.1,1.2-0.1,1.5,0.3c0.6,0.7,0.6,1.1,0.8,1.8c0.2,0.8,0.8,1.5,1,2.2c0.2,0.6,0.2,1.2,0.4,1.7
			c0.3,0.8,0.8,1.5,1.2,2.3c0.3,0.6,0.3,1.8,0.8,2.3c1.4,1.3,3-2,3.7-2.8c0.8-0.9,1.4-2,2.2-3c0.8-0.9,2.2-1.3,3.2-0.6
			c0.5,0.3,0.7,0.9,1.1,1.3c0.5,0.5,1,0.9,1.4,1.5c0.5,0.6,0.8,1.1,1.4,1.6c0.4,0.4,1.2,0.8,1.4,1.3C83.3,60,86,61,86.6,61
			c0.1,0,0.2,0,0.2,0c1.1-0.1,2.2-0.4,3.2-0.9c0.3-0.1,0.8-0.3,1-0.6c0.1-0.2,0.1-0.5,0-0.6C91.2,59,91.2,59,91.2,59z"/>
		<path class="st0" d="M141.5,60.4L141.5,60.4l-0.1-0.1c-0.4,0-0.7,0.1-1.1,0.1c-1.2,0-2.5-0.6-3.5-1.3c-2.1-1.5-2.2-3.6-2.5-5.9
			c-0.1-0.7-0.5-1.2-0.6-1.8c-1.5-0.5-2.1,1.3-1.9,2.5c0.1,0.6,0.3,1.1,0.2,1.8c-0.1,0.5,0.1,0.7,0.4,1.1c0.1,0.2,0.2,0.3,0.3,0.4
			c0.1,0.2,0.3,0.4,0.4,0.6c0.1,0.3,0.3,0.4,0.5,0.7c0.1,0.1,0.2,0.2,0.3,0.3c0.1,0.1,0.2,0.1,0.3,0.2c0.2,0.2,0.4,0.5,0.6,0.7
			c0.3,0.3,0.9,0.4,1.3,0.5c0.2,0.1,0.5,0.1,0.7,0.3c0.7,0.5,1.9,0.5,2.7,0.5c0.4,0,0.9,0,1.3,0c0.1,0,0.2,0,0.2,0
			c0.1,0,0.2-0.1,0.2-0.2c0,0,0.1-0.1,0.1-0.2C141.4,60.5,141.4,60.5,141.5,60.4C141.5,60.5,141.5,60.5,141.5,60.4z"/>
		<path class="st0" d="M187.3,59c-1.5,0.6-3.2,0.8-4.6,0c-0.5-0.2-0.8-0.6-1.2-0.9c-0.1-0.1-0.1-0.2-0.2-0.3
			c-0.1-0.1-0.2-0.3-0.2-0.4c-0.1-0.3-0.3-0.5-0.5-0.7l-0.1-0.1l-0.1-0.1c-0.1-0.1-0.2-0.2-0.3-0.3c-0.1-0.1-0.1-0.3-0.2-0.4
			c-0.1-0.1-0.3-0.2-0.4-0.3c0,0.1,0.5,0,0.6,0c0.3,0,0.6,0,0.9,0c0.3,0,0.7,0,1,0c0.5-0.1,0.9-0.2,1.4-0.5c1.7-1,2.6-3.1,1.6-4.8
			c-0.6-1.1-1.6-1.7-2.9-1.5c-1.3,0.2-2.4,1-3.3,1.9c-1.5,1.6-2.2,3.7-1.8,5.9c0.1,0.6,0.7,1.1,1.1,1.5c0.5,0.5,1.1,1.1,1.8,1.4
			c0.6,0.2,1.3,0.5,1.8,0.9c0.1,0,0.1,0.1,0.2,0.1c0.1,0,0.2,0,0.4,0c0.1,0,0.3,0,0.4,0c0.2,0,0.3,0.1,0.5,0.1s0.3,0.1,0.5,0.2
			c0.1,0,0.2,0,0.2,0c0.1,0,0.2,0.1,0.4,0.1s0.3,0.1,0.4,0.1c0.2,0,0.3,0,0.5-0.1c0.1,0,0.2,0,0.3-0.1c0.3-0.1,0.4-0.3,0.7-0.4
			s0.5-0.1,0.8-0.2c0.5-0.1,0.9-0.2,1.4-0.4c0.5-0.2,0.9-0.4,1.3-0.7c0.7-0.6,1.4-1.2,1.9-1.9c0.3-0.4,0.6-0.7,0.8-1.1
			c0.1-0.1,0.2-0.2,0.2-0.3v-0.1c0-0.1,0-0.1,0-0.2s0-0.2,0.1-0.2c0,0,0.1,0,0.1-0.1s0.1-0.1,0.1-0.2c0.2-0.3,0-0.6-0.3-0.3
			c-0.4,0.6-0.8,1.1-1.3,1.7c-0.5,0.5-1,1-1.6,1.4s-1.2,0.8-1.9,1C187.6,58.9,187.4,58.9,187.3,59z M181.3,49.6
			c1.8-1.2,3.6,1.6,2.8,3.4c-0.4,0.9-1.1,1.5-1.9,1.8c-0.8,0.3-2.8-0.1-3-1c-0.3-1.1,0.9-3,1.6-3.8C181,49.9,181.2,49.7,181.3,49.6z
			"/>
		<path class="st0" d="M121.4,43.4c-0.1,0-0.2,0.1-0.3,0.2c-0.2,0.2-0.4,0.4-0.5,0.7c-0.2,0.3-0.1,0.6-0.2,1c-0.1,0.3,0,0.7,0,1.1
			c0,0.6,0.2,1.3,0.4,1.9c0.1,0.4,0.3,0.8,0.4,1.2c0,0.4,0.1,0.8,0.1,1.2c0,0.7,0,1.3-0.2,1.9s0,1.3,0,2c0,1.3-0.2,2.7-0.9,3.8
			c-0.3,0.4-0.6,0.8-1,1.1c-3.1,2.6-7.6,0.3-10.3-1.8c-0.2-0.2-0.5-0.3-0.7-0.5c-0.3-0.2-0.6-0.5-0.9-0.7c-0.2-0.2-0.5-0.2-0.7-0.4
			c-0.1-0.1-0.2-0.3-0.4-0.4c-0.1-0.1-0.2-0.1-0.3-0.2c0,0,0-0.3-0.1-0.3c-0.1-0.2-0.2-0.5-0.3-0.6c-0.2-0.3-0.6-0.5-0.9-0.8
			c-0.2-0.3-0.5-0.5-0.8-0.7s-0.4-0.5-0.7-0.7c-0.4-0.3-0.8-0.5-1.2-0.8c-1.1-0.7-1.3-2-2.2-2.8c-0.3-0.3-0.7-0.6-0.9-1
			c-0.2-0.2-0.3-0.5-0.4-0.8c-0.2-0.4-0.6-0.9-0.9-1.3c-0.3-0.3-0.6-0.6-0.9-0.9c-2.1-1.8-4.1-3.6-6.5-4.9c-1.4-0.7-2.6-1.7-4-2.3
			c-1.3-0.6-2.5-0.5-3.9-0.5c-2.1-0.1-6.1,0.3-7.4,2.2c-0.3,0.5-1.2,1.7-0.4,1.9c0-1.7,2.4-2.8,3.9-3c0.5,0,0.9,0,1.4-0.1
			c0.2-0.1,0.4-0.1,0.7-0.1c0.7,0,1.3,0,2,0c0.4,0,0.8-0.1,1.2,0c0.5,0.1,0.7,0.3,1.2,0.5c0.4,0.2,0.7,0.4,1.1,0.6
			c0.2,0.1,0.5,0.2,0.7,0.3c0.2,0.1,0.4,0.2,0.6,0.3c0.2,0.1,0.2,0.2,0.3,0.3c0.2,0.3,0.6,0.5,0.9,0.7c0.1,0.1,0.2,0.3,0.3,0.5
			c0.1,0.1,0.2,0.2,0.3,0.3c0.2,0.3,0.3,0.5,0.6,0.6c0.2,0.1,0.3,0.2,0.4,0.4c0.1,0.2,0.1,0.4,0.2,0.6s0.4,0.2,0.5,0.3
			c0.3,0.3,0.6,0.6,0.8,0.9c0.3,0.3,0.7,0.5,1,0.8c0.2,0.2,0.3,0.4,0.5,0.6c0.1,0.1,0.1,0.1,0.2,0.2c0.1,0.3,0.2,0.5,0.4,0.7
			c0.1,0.2,0.3,0.4,0.4,0.5c0.1,0.2,0.3,0.4,0.5,0.5s0.4,0.2,0.6,0.4c0.1,0.1,0.2,0.3,0.3,0.4c0,0,0.1,0,0.1,0.1
			c0.1,0.1,0.1,0.3,0.2,0.4c0.1,0.3,0.3,0.5,0.4,0.8c0.2,0.3,0.6,0.4,0.9,0.6s0.4,0.5,0.6,0.8c0.2,0.4,0.5,0.7,0.7,1
			c0.3,0.5,0.7,0.8,1.2,1.1c0.2,0.1,0.3,0.3,0.4,0.5s0.3,0.4,0.5,0.5c1,0.8,1.9,1.6,2.9,2.4c0.6,0.5,1.2,0.9,1.9,1.3
			c2.4,1.4,5,2.6,7.7,2.9c1.3,0.2,2.7,0.3,4,0c0.6-0.1,1.2-0.3,1.8-0.6c0.3-0.1,0.5-0.3,0.8-0.5c0.2-0.1,0.4-0.3,0.5-0.5
			c0-0.1,0-0.2,0.1-0.3c0.1-0.1,0.1-0.2,0.2-0.2c0.2-0.1,0.4-0.2,0.6-0.4c0.4-0.4,0.5-0.9,0.8-1.4c0.1-0.2,0.3-0.3,0.5-0.5
			c0.1-0.2,0.2-0.4,0.3-0.6c0.2-0.3,0.4-0.6,0.7-0.9s0.5-0.8,0.6-1.1c0.1-0.3,0.1-0.6,0.1-0.9s0.1-0.6,0.1-0.9c0-0.6,0-1.2,0.1-1.7
			s0.1-0.9,0.1-1.4c0-0.4,0-0.8-0.1-1.2c-0.1-0.3,0-0.6-0.1-0.9c-0.1-0.5-0.4-1-0.5-1.5c-0.1-0.4-0.2-0.6-0.4-0.9
			c-0.3-0.5-0.7-1.1-1.3-1.1C121.6,43.4,121.5,43.4,121.4,43.4z"/>
		<path class="st0" d="M136.7,42.3c-0.1-1.3-2.3-1.7-3.3-1.4c-0.5,0.2-0.5,0.6-1.3,0.5c-0.1,0.6,0.5,0.9,0.7,1.5
			c0.7,0,1.1,0.7,1.8,0.8C135.2,43.8,136.7,43.1,136.7,42.3z"/>
		<path class="st0" d="M158,60.1c0.3-0.2,0.6-0.4,0.8-0.6c0.1-0.1,0.2-0.2,0.3-0.3c0,0,0.3-0.4,0.1-0.3c-1.2,1-2.7,1.8-4.4,1.7
			c-1.4-0.1-2.7-0.6-3.8-1.6c-2.4-2.1-3.2-5.5-3.5-8.6c-0.2-2.4,0.1-4.8,0.8-7c0.2-0.6,0.4-1.1,0.6-1.7c0-0.1,0.1-0.2,0.1-0.4v-0.1
			c0-0.2,0.1-0.4,0.3-0.5c0.1-0.1,0.2-0.2,0.3-0.3c0.1-0.1,0.1-0.2,0.1-0.3c0.1-0.3,0.3-0.5,0.4-0.7c0,0,0,0,0.1-0.1
			s0.1-0.1,0.1-0.2c0.1-0.2,0.2-0.3,0.3-0.5c0.1-0.1,0.1-0.2,0.2-0.3c0.1-0.1,0.2-0.1,0.3-0.1s0.2-0.1,0.4-0.1c0.1,0,0.3,0,0.4,0
			c0-0.1,0-0.1,0.1-0.2c0,0,0.1-0.1,0.2-0.1c0.2-0.1,0.5-0.2,0.7-0.2s0.3,0.1,0.4,0.2c0.1,0.2,0.3,0.3,0.5,0.4s0.3,0.3,0.5,0.4
			c0.6,0.6,1,1.5,1.1,2.4c0,0.2,0.1,0.5,0.1,0.7v0.1v0.1c0,0.1,0.1,0.2,0.2,0.3c0,0,0,0.1,0.1,0.1h0.1h0.1l0,0v-0.1
			c0-0.1,0-0.2,0-0.3v-0.1v-0.1c0-0.1,0-0.1,0-0.2s-0.1-0.2-0.1-0.3v-0.1c0-0.1,0-0.1,0-0.2c0,0,0,0,0-0.1c0,0,0,0,0-0.1v-0.1
			c0-0.1,0-0.1,0-0.2c0-0.2-0.1-0.4-0.2-0.6c-0.1-0.3-0.2-0.5-0.3-0.8c-1.3-2.8-4.5-3-6.8-1.3c-0.7,0.6-1.2,1.2-1.8,2
			c-0.4,0.5-0.9,0.9-1.3,1.5c-0.4,0.6-0.3,1.4-0.6,2c-0.1,0.3-0.2,0.5-0.2,0.8c0,0.2-0.1,0.5-0.2,0.7c-0.1,0.2-0.2,0.3-0.2,0.5
			c-0.2,0.9-0.2,1.8-0.2,2.7c0,0.8,0,1.5,0,2.3c0,0.4,0,0.7,0,1.1c0,0.6,0.2,1.1,0.4,1.6c0.1,0.2,0.2,0.4,0.2,0.7c0,0.2,0,0.3,0,0.5
			c0.1,0.5,0.5,0.6,0.7,1c0.3,0.6,0.9,1.2,1.2,1.8c0.2,0.4,0.4,0.7,0.7,1c0.1,0.2,0.2,0.3,0.3,0.4c0.2,0.3,0.6,0.5,0.9,0.8
			c0.2,0.2,0.2,0.1,0.3,0.2s0.2,0.1,0.4,0.2c0.2,0.2,0.4,0.4,0.6,0.5c0.2,0.1,0.4,0.1,0.6,0.1c0.5,0.2,1.1,0.3,1.7,0.4
			c1.1,0.2,2.3,0.3,3.4,0.1C156.5,60.8,157.3,60.5,158,60.1z"/>
		<path class="st0" d="M173.5,60.1c0.3-0.2,0.6-0.4,0.8-0.6c0.1-0.1,0.2-0.2,0.3-0.3c0,0,0.3-0.4,0.1-0.3c-1.2,1-2.7,1.8-4.4,1.7
			c-1.4-0.1-2.7-0.6-3.8-1.6c-2.4-2.1-3.2-5.5-3.5-8.6c0-0.2,0-0.4,0-0.6c-0.1-1.7,0.1-3.3,0.4-5c0.2-0.8,0.4-1.6,0.7-2.4
			c0.1-0.2,0.2-0.4,0.2-0.6c0.1-0.2,0.2-0.4,0.2-0.5s0-0.3,0-0.4s0.1-0.2,0.1-0.3c0-0.1,0-0.2,0-0.3c0.1-0.3,0.3-0.4,0.5-0.7
			c0.1-0.1,0.2-0.2,0.3-0.4c0.1-0.1,0.2-0.3,0.3-0.4c0.2-0.2,0.3-0.4,0.4-0.5c0.1-0.1,0.1-0.2,0.3-0.3c0.1-0.1,0.3-0.1,0.5-0.1
			s0.5,0,0.7,0s0.5,0,0.7,0s0.4,0,0.6,0c1,0.5,1.5,1.5,1.8,2.5c0,0.1,0.1,0.3,0.1,0.4v0.1c0,0.1,0.1,0.2,0.1,0.4c0,0.1,0,0.2,0,0.3
			c0,0.1,0.1,0.2,0.1,0.2l0.1,0.1c0,0,0,0,0,0.1c0,0,0,0,0,0.1s0,0.1,0.1,0.1s0.1,0,0.1-0.1c0-0.2,0-0.4,0-0.5s0-0.2,0-0.3
			c0,0,0,0,0-0.1v-0.1c0-0.1,0-0.1,0-0.2s-0.1-0.2-0.1-0.2v-0.1c0-0.1,0-0.1-0.1-0.1c0-0.1,0-0.2,0-0.3c0-0.1-0.1-0.3-0.1-0.4
			c-0.1-0.3-0.2-0.5-0.3-0.8c-0.2-0.4-0.4-0.7-0.6-1c-0.1-0.1-0.2-0.3-0.4-0.4c-0.1-0.1-0.1-0.2-0.2-0.2c-0.1-0.1-0.2-0.1-0.3-0.2
			c-0.2-0.2-0.4-0.3-0.7-0.4c-0.1-0.1-0.3-0.1-0.4-0.2c-0.2,0-0.3-0.1-0.5-0.2c-0.2,0-0.5,0-0.7,0s-0.5,0-0.6,0s-0.2,0.1-0.3,0.2
			c-0.1,0-0.2,0-0.3,0.1c-0.2,0.1-0.3,0.2-0.4,0.2c-0.3,0.2-0.6,0.3-0.9,0.5c-0.3,0.2-0.5,0.4-0.8,0.6c-2.2,2-3.2,5.1-3.6,8
			c-0.1,1-0.3,2.1-0.2,3c0,0.2,0.1,0.3,0.1,0.5c0.1,0.6-0.1,1.2,0,1.8c0,0.3,0.2,0.5,0.3,0.7c0.1,0.3,0.2,0.7,0.3,1
			c0,0.1,0.1,0.1,0.1,0.2s0,0.1,0,0.2s0.1,0.1,0.1,0.1c0.2,0.3,0.3,0.7,0.4,1c0.1,0.2,0.2,0.5,0.3,0.6s0.3,0.1,0.3,0.2
			c0.1,0.1,0.2,0.5,0.2,0.6c0.1,0.3,0.2,0.6,0.2,0.9s0.3,0.4,0.4,0.7c0.3,0.4,0.6,0.4,1,0.6c0.2,0.2,0.4,0.4,0.6,0.7
			c0.2,0.4,0.6,0.5,0.9,0.9c0.1,0.2,0.3,0.3,0.4,0.4c0.3,0.3,0.7,0.3,1.1,0.2c0.4,0,0.8,0.1,1.3,0.1c1,0.1,1.9,0.2,2.9,0
			C172,60.8,172.8,60.5,173.5,60.1z"/>
		<path class="st0" d="M63.1,58.6c-0.1,0-0.3,0-0.4,0c-0.1,0.1-0.1,0.2-0.1,0.3c0,0.1-0.1,0.2-0.2,0.3c-0.1,0.1-0.3,0.2-0.4,0.3
			c-0.1,0-0.2,0-0.3,0.1c-0.1,0-0.1,0.1-0.2,0.1s-0.2,0-0.2,0c-0.1,0-0.2,0.1-0.4,0.1c-0.2,0-0.3,0.1-0.5,0.1s-0.3,0-0.4,0.1
			c-0.1,0-0.3,0-0.4,0c-0.3,0-0.5,0.1-0.8,0.1s-0.5,0.1-0.8,0.1c-1.8,0-3.3-0.6-4.9-1.5c-0.6-0.3-1-0.6-1.5-1.1
			c-0.3-0.3-0.6-0.9-1-1.1c-0.1-0.6,0.4-0.4,0.7-0.8c0.2-0.2,0.4-0.3,0.7-0.5c0.1-0.1,0.2-0.1,0.4-0.1c0.2-0.1,0.3-0.2,0.5-0.3
			c0.1,0,0.1,0,0.2-0.1s0-0.1,0.1-0.2c0-0.1,0.1-0.3,0.3-0.3c0.1-0.1,0.2-0.2,0.3-0.3c0.1-0.1,0.1-0.2,0.2-0.3
			c0.1-0.1,0.2-0.1,0.2-0.3c0-0.1,0-0.2,0-0.3c0-0.1,0.1-0.2,0.1-0.3c0-0.2,0.1-0.4,0.1-0.6c0-0.7,0.2-1.5-0.1-2.2
			c-0.2-0.4-0.7-1.2-1.1-1.3c-0.4-0.2-1.2,0.1-1.6,0.1c-1.7,0.3-3.1,1.4-3.8,3c-0.2,0.6-0.1,1.3-0.2,1.9c0,0.6-0.1,1.8-0.5,2.2
			c-0.3,0.2-1.6,0.1-1.7,0.4c0,0.2-0.3,0.6,0,0.7c0.2,0.1,0.5,0.2,0.7,0.2c0.1,0,0.2,0,0.3-0.1c0.4-0.1,1.1-0.4,1.6-0.2
			c0.3,0.1,0.3,0.6,0.5,0.8c0.7,0.6,1.5,1.1,2.3,1.5c2.2,1,4.3,2.3,6.8,2.3c0.2,0,0.2,0,0.3-0.1c0.1,0,0.3-0.1,0.4-0.1
			c0.2,0,0.4-0.1,0.6-0.1c0.1,0,0.2-0.1,0.3-0.1c0.1,0,0.3,0,0.4,0s0.3-0.1,0.4-0.1c0.2,0,0.4-0.1,0.7-0.1c0.3,0,0.7-0.1,1-0.2
			c0.1,0,0.1,0,0.2-0.1c0,0,0.1,0,0.2,0s0.2-0.1,0.3-0.1c0.2-0.1,0.4-0.4,0.6-0.6c0.1-0.2,0.3-0.3,0.4-0.5
			C63.1,59.2,63.3,58.7,63.1,58.6z M49.8,54.6c-0.3-0.1-0.4-0.3-0.4-0.8c0-0.6,0-1.4,0.2-2c0.1-0.2,0.1-0.4,0.2-0.5
			c0.1-0.2,0.1-0.4,0.2-0.5l0,0c0.4-0.6,1.4-1.3,2.1-0.9c0.8,0.4,0.7,1.5,0.7,2.3c-0.1,1.4-1.1,2.6-2.5,2.6
			C50.1,54.7,49.9,54.7,49.8,54.6z"/>
		<path class="st0" d="M79.5,28.9c0.1,0.1,0.2,0.2,0.3,0.2c0.1,0,0.1,0.1,0.2,0.1c0,0,0,0.1,0.1,0.1c0.1,0.1,0.3,0.1,0.4,0.1
			c0.2,0,0.4,0.1,0.5,0.2c0.3,0.2,0.7,0.1,1,0.2c0.2,0.1,0.4,0.2,0.6,0.2c0.1,0,0.2,0,0.2,0c0.2,0.1,0.5,0.2,0.7,0.2s0.5-0.1,0.7,0
			c0.2,0,0.4,0,0.6,0c0.6-0.1,1.1-0.2,1.7-0.4c0.1,0,0.2-0.1,0.3-0.1c0.8-0.3,1.5-0.7,2.2-1.2c0.2-0.1,0.3-0.4,0.6-0.5
			c0.1-0.1,0.3-0.1,0.5-0.2c0.1-0.1,0.1-0.1,0.2-0.1s0.1-0.1,0.2-0.1c0.1-0.1,0.2-0.1,0.3-0.2c0.1-0.1,0.2-0.2,0.3-0.3
			c0.2-0.1,0.3-0.3,0.5-0.5l0,0c0,0,0.1,0,0.1-0.1l0.1-0.1c0-0.1,0-0.1,0.1-0.2c0-0.1,0.1-0.1,0.1-0.2c0.1-0.1,0.1-0.2,0.2-0.3
			c0-0.1,0.1-0.2,0.1-0.3c0.1-0.1,0.2-0.2,0.3-0.3c0,0,0.1-0.1,0.1-0.2c0-0.1,0.1-0.1,0.1-0.2c0.1-0.1,0.1-0.2,0.2-0.2
			c0.1-0.1,0.1-0.2,0.2-0.3s0.1-0.2,0.2-0.2c0,0,0,0,0.1-0.1v-0.1c0-0.1,0-0.2-0.1-0.1c-0.1,0-0.1,0.1-0.1,0.1
			c-0.1,0.1-0.2,0.2-0.3,0.3c-0.1,0.2-0.3,0.3-0.5,0.4c-0.1,0-0.2,0.1-0.2,0.1l-0.1,0.1l-0.1,0.1L92,24.9c-0.1,0.1-0.2,0.2-0.2,0.3
			c-0.1,0.1-0.2,0.2-0.4,0.3l-0.1,0.1h-0.1c0,0,0,0,0,0.1c0,0,0,0-0.1,0.1S91,25.9,90.9,26c-0.1,0.1-0.1,0.2-0.2,0.3
			c-0.2,0.3-0.6,0.5-0.8,0.7c-0.4,0.3-0.8,0.5-1.2,0.7c-0.6,0.3-1.3,0.6-2,0.8c-0.3,0.1-0.7,0.2-1,0.3S85.2,29,84.9,29
			c-0.2,0-0.4,0-0.6,0c-0.3,0-0.6,0-0.8-0.1c-0.2-0.1-0.3-0.1-0.5-0.1s-0.3,0.1-0.5,0c-0.2,0-0.3-0.2-0.5-0.3
			c-0.5-0.2-1.1,0-1.4-0.5c-0.1-0.2-0.2-0.4-0.4-0.6c-0.1-0.1-0.3-0.2-0.4-0.3s-0.2-0.3-0.3-0.4c-0.1-0.2-0.2-0.3-0.3-0.5v-0.1
			L79.1,26C79,25.9,79,25.7,79,25.6c0-0.1-0.1-0.2-0.1-0.3c-0.1-0.2,0-0.4-0.1-0.6c0-0.2-0.1-0.4-0.1-0.7c0-0.2-0.1-0.4,0.1-0.5
			c0.1-0.1,0.1-0.1,0.2,0c0.2,0.1,0.4,0.2,0.6,0.3s0.5,0.2,0.7,0.2c1,0.2,2.1,0,3-0.6c1.4-0.9,1.9-2.8,1.2-4.3c-1-2-3.8-1.8-5.6-1
			c-0.4,0.2-1,0.6-1.4,0.9c-1.7,1.3-1.9,3.6-1.6,5.5c0.1,0.7,0.3,1.4,0.6,2c0.1,0.1,0.1,0.2,0.2,0.3c0,0,0.1,0,0.1,0.1
			c0.1,0.1,0.1,0.2,0.2,0.2c0.1,0.1,0.2,0.2,0.3,0.3c0.1,0.1,0.1,0.1,0.2,0.1s0.1,0.1,0.2,0.1c0.1,0.1,0.3,0.1,0.3,0.2
			c0.1,0.1,0.1,0.2,0.1,0.3c0.1,0.1,0.1,0.2,0.2,0.2s0.2,0,0.3,0C79,28.7,79.3,28.8,79.5,28.9z M79.3,20.4c0.1-0.1,0.2-0.3,0.4-0.4
			c0.3-0.4,0.5-0.7,0.9-1.1c0.8-0.8,2.4-0.2,3,0.6c0.7,0.9,0.7,2.2,0,3.1c-0.3,0.5-0.8,0.8-1.4,1c-0.2,0.1-0.5,0.2-0.8,0.2
			c-0.2,0-0.5,0-0.7-0.1l-0.1-0.1c-0.1,0-0.1,0-0.2,0s-0.1-0.1-0.2-0.1s-0.1,0-0.2,0c-0.9-0.2-1-0.9-1.1-1.6
			C78.7,21,78.9,20.8,79.3,20.4z"/>
		<path class="st0" d="M102.5,22.3c-0.7-0.9-1.5-1.7-2.2-2.7c-0.2-0.2-0.3-0.4-0.5-0.6c-0.1-0.1-0.1-0.1-0.2-0.2
			c-0.1,0-0.1,0-0.2-0.1s-0.1-0.4-0.1-0.6c0-0.2,0-0.4,0-0.5c0-0.2,0-0.3,0-0.5s-0.1-0.4-0.2-0.6c-0.1-0.3-0.3-0.4-0.6-0.4
			c-0.2,0-0.5-0.1-0.7-0.1c-0.3,0-0.8,0.3-0.8,0.7c0,0.1,0,0.2,0,0.3c0,0.4-0.3,0.8-0.4,1.1c0,0.1-0.1,0.2-0.1,0.3s-0.1,0.3-0.1,0.4
			c-0.1,0.3-0.2,0.6-0.2,0.8c-0.1,0.2-0.1,0.4-0.2,0.6c-0.1,0.2-0.1,0.5-0.2,0.7s-0.2,0.5-0.3,0.7c-0.1,0.2-0.2,0.2-0.2,0.4
			c0.1,0,0.2,0,0.3,0c0.1,0,0.2-0.2,0.2-0.3c0.2-0.3,0.3-0.7,0.5-1c0.1-0.2,0.1-0.4,0.3-0.5c0.1-0.1,0.3-0.3,0.5-0.3
			s0.3,0.2,0.4,0.3c0.2,0.2,0.3,0.4,0.4,0.6c0.1,0.1,0.1,0.3,0.3,0.5c0.1,0.1,0.2,0.1,0.3,0.2c0.1,0.1,0.2,0.3,0.3,0.5
			c0.1,0.2,0.3,0.3,0.4,0.4c0.2,0.2,0.4,0.4,0.6,0.6c0.4,0.5,0.8,0.9,1.1,1.5c0.5,1,0.8,2.2,0.9,3.4c0,0.3,0,0.4-0.2,0.6
			c-0.1,0.1-0.2,0.2-0.2,0.3c-0.1,0.1-0.2,0.3-0.3,0.4c-0.4,0.3-1,0.2-1.5,0.3c-0.2,0.1-0.4,0.2-0.7,0.1c-0.3,0-0.5-0.1-0.7,0
			c-0.3,0-0.4-0.1-0.7-0.1c-0.3,0-0.6-0.2-0.8-0.1c-0.1,0.3-0.1,0.2,0.1,0.4c0.2,0.1,0.5,0.1,0.8,0.2c0.4,0.2,0.9,0.2,1.3,0.3
			c0.7,0.2,1.5,0.2,2.3,0c0.6-0.2,1.1-0.3,1.7-0.6c1-0.6,1.5-1.6,1.6-2.7C104.4,25.3,103.6,23.7,102.5,22.3z"/>
		<path class="st0" d="M122.8,27.3L122.8,27.3c-0.1,0-0.2,0-0.2,0c-0.2,0-0.4,0-0.6,0.1c-0.1,0-0.1,0.1-0.1,0.1
			c-0.2,0.2-0.5,0.4-0.7,0.6c-0.1,0.1-0.2,0.2-0.3,0.2c-0.3,0.1-0.6,0.1-0.9,0.1c-0.5,0-1,0.3-1.5,0.4c-0.8,0.2-1.6,0.2-2.3,0.1
			c-2.5-0.3-3.9-2.4-4.3-4.7c0-0.2,0.2-0.3,0.3-0.2c2.6,1.3,6-0.9,5.5-3.8v-0.1c-0.2-1.1-1-1.9-2-2.1c-0.5-0.1-1.1-0.1-1.6-0.1
			c-0.5,0.1-1.2,0.2-1.6,0.5c-0.1,0-0.2,0.1-0.2,0.1c-0.2,0.1-0.5,0.2-0.6,0.4c-0.1,0.1-0.2,0.2-0.3,0.3c-0.1,0.1-0.1,0.2-0.2,0.3
			h-0.1c0,0-0.1,0.1-0.1,0.2c-0.1,0.1-0.2,0.2-0.3,0.2c-0.1,0.1-0.2,0.2-0.3,0.4c-0.1,0.1-0.2,0.2-0.4,0.3c-0.1,0.1-0.1,0.2-0.2,0.3
			c0,0.1-0.1,0.1-0.2,0.2c-0.1,0.1-0.1,0.2-0.1,0.3c-0.1,0.1-0.1,0.2-0.2,0.3c-0.1,0.2-0.2,0.4-0.2,0.6c0,0.2,0,0.3,0,0.5
			c-0.2,0.7-0.1,1.6,0.1,2.3c0.1,0.4,0.2,0.8,0.5,1.2c0.1,0.1,0.2,0.2,0.3,0.3c0.1,0.2,0.1,0.4,0.4,0.5c0.2,0.1,0.4,0.2,0.6,0.3
			c0.1,0.1,0.2,0.1,0.4,0.2c0.2,0.1,0.4,0.2,0.6,0.4c0.2,0.1,0.1,0.2,0.2,0.4c0.3,0,0.3,0.3,0.5,0.5c0.1,0.2,0.3,0.3,0.4,0.4
			c0.4,0.3,0.5,0.8,0.9,0.9c0.2,0.1,0.3,0.1,0.5,0.1s0.4,0,0.7,0.1c0.2,0,0.4,0,0.7,0c0.2,0,0.4,0.1,0.6,0.1c0.5,0.1,1,0,1.5-0.1
			c0.3,0,0.6-0.1,0.9-0.2c1.1-0.3,2.1-0.8,3.1-1.5c0.2-0.2,0.4-0.3,0.6-0.5c0.1-0.1,0.2-0.2,0.3-0.2s0.2-0.1,0.2-0.2
			C122.9,27.5,122.9,27.4,122.8,27.3L122.8,27.3z M111.7,22c0-0.2,0-0.3,0.1-0.5c0.1-0.1,0.1-0.2,0.2-0.4c0.1-0.1,0.2-0.2,0.3-0.3
			c0.1-0.1,0.2-0.3,0.2-0.5c0-0.1,0.1-0.2,0.2-0.3s0.1-0.1,0.1-0.2c0-0.1,0-0.1,0-0.2c0.1-0.2,0.2-0.5,0.4-0.7
			c0.1-0.1,0.4-0.2,0.5-0.2s0.2,0,0.4,0c0.1,0,0.3,0,0.4,0c0.2,0,0.5-0.1,0.6,0c1.4,0.6,1.9,2.4,1.1,3.7c-0.9,1.4-2.9,1.8-4.4,1.2
			c-0.1,0-0.1-0.1-0.1-0.2C111.7,23,111.8,22.5,111.7,22z"/>
		<path class="st0" d="M163,15.3h-0.1c-0.1,0-0.2,0.1-0.4,0.1c-0.3,0-0.6,0-0.9,0c-0.4,0-0.8,0-1.1,0c-0.4,0-0.7,0-1.1-0.1
			c-0.7,0-1.3,0-2,0c-0.2,0-0.5,0-0.7,0c-0.1,0-0.2,0-0.3,0c-0.2,0-0.3,0-0.5,0c-0.3,0-0.6,0-0.9,0c-0.2,0-0.3,0-0.5,0
			c-0.1,0-0.1,0-0.2,0c-0.2,0-0.3,0.1-0.5,0.1c-0.3,0.1-0.6,0.1-0.8,0.1c-0.3,0-0.7,0-1,0c-0.1,0-0.2,0-0.3,0s-0.2,0.1-0.3,0.1
			c-0.2,0-0.3,0-0.5,0c-0.1,0-0.3,0-0.4,0c-0.3,0-0.5,0-0.8,0c-0.2,0-0.5,0.1-0.5-0.2c0-0.6,0-1.2,0-1.9c0-0.2,0-0.5,0-0.7
			c0-0.1-0.1-0.3-0.1-0.4c-0.1-0.2-0.1-0.4-0.1-0.6c0-0.3,0-0.5,0-0.8c0-0.2,0-0.5,0-0.7c0-0.1,0.1-0.3,0.1-0.5s0-0.3,0-0.5
			s0-0.3,0-0.5s0-0.4-0.1-0.5c0-0.1-0.1-0.2-0.1-0.3c-0.1-0.1-0.1-0.1-0.2-0.1c-0.1,0-0.1,0-0.2,0c-0.1,0-0.1,0-0.2,0
			c-0.1,0-0.2,0-0.3,0c-0.2,0-0.3,0.4-0.3,0.5s-0.1,0.2-0.1,0.3s-0.1,0.2-0.1,0.3c0,0.2-0.1,0.3-0.1,0.5c0,0.1,0,0.2-0.1,0.3
			c0,0.1-0.1,0.2-0.1,0.3s0,0.2-0.1,0.4s0,0.3-0.1,0.5s-0.1,0.4-0.1,0.6c-0.1,0.3,0,0.7-0.1,1.1c0,0.1,0,0.2,0,0.4
			c0,0.1,0,0.2,0,0.2c0,0.1,0,0.2,0,0.3s0,0.2-0.1,0.2c0,0.1,0,0.2,0,0.3s0,0.2,0,0.3c0,0.3-0.1,0.7-0.3,1c-0.3,0.4-1.8,0.2-2.4,0.2
			c-0.9,0-1.7,0-2.6,0c-0.6,0-2.1-0.3-2.2,0.5c-0.1,1,1.6,0.7,2.2,0.7c0.2,0,0.4,0,0.6,0c0.1,0,0.3-0.1,0.4,0c0.1,0,0.1,0,0.1,0
			c0.1,0,0.2,0,0.3,0c0.2,0,0.3,0,0.5,0s0.4,0,0.7,0c0.2,0,0.4,0,0.5,0c0.2,0.1,0.4,0.2,0.6,0.3c0.2,0.1,0.4,0,0.7,0.1
			c0.2,0,0.5,0.1,0.7,0.1c0.1,0,0.2,0,0.2,0v0.1c0,0.1,0,0.3,0,0.4c0,0.2,0,0.4,0,0.7c-0.1,1.5-0.1,3,0,4.6c0,0.5,0.3,1.1,0.2,1.6
			c0,0.4-0.6,1.1-0.9,1.5c-0.4,0.6-1,1.1-1.5,1.5c-1.1,0.9-2.5,1.7-4,1.8c-2.3,0.1-4.5-0.9-5.5-3c-0.4-0.9-0.7-1.8-0.9-2.8
			s-0.2-2-0.5-2.9s-0.9-1.2-1.7-1.5c-0.6-0.2-1.2-0.4-1.8-0.6c-0.5-0.2-1.2-0.7-1.8-0.6c-0.3,0.1-0.5,0.4-0.6,0.7
			c0,0.1-0.1,0.2-0.2,0.3l-0.1,0.1c-0.1,0.1-0.1,0.2-0.1,0.3c-0.1,0.2,0,0.4,0,0.7s0,0.4-0.2,0.7s0,0.7-0.1,1c0,0.1,0,0.1,0,0.2
			c0,0.1-0.1,0.2-0.1,0.3c0,0.2,0,0.4,0,0.5c0,0.2-0.1,0.4-0.1,0.6c0,0.1,0,0.3,0,0.4c0,0.1,0.1,0.1,0.1,0.1c0.1,0,0.2,0,0.3-0.1
			s0.2-0.2,0.3-0.3s0-0.4,0-0.5c0-0.2,0-0.4,0-0.6c0-0.1,0-0.3,0-0.4c0.1-0.2,0.2-0.5,0.2-0.8c0-0.1,0-0.2,0-0.3v-0.1
			c0,0,0-0.1,0.1-0.1c0.1-0.1,0.1-0.2,0.2-0.2c0-0.1,0.1-0.1,0.1-0.1c0.3-0.1,0.7,0.1,0.9,0.2c0.1,0.1,0.2,0.1,0.3,0.2
			c0.1,0.1,0.2,0.1,0.3,0.2c0.1,0,0.1,0.1,0.1,0.1c0.1,0.1,0.2,0,0.4,0.1c0.2,0,0.3,0,0.4,0.1c0.1,0,0.2,0.1,0.3,0.1
			c0,0,0.1,0.1,0.1,0.2c0.1,0.1,0.1,0.2,0.2,0.3c0.1,0.1,0.1,0.2,0.2,0.2c0.1,0.1,0.3,0.3,0.4,0.4c0.2,0.1,0.3,0.3,0.4,0.5
			c0,0.1,0.1,0.3,0.1,0.4c0,0.2,0,0.5,0,0.7c0,0.1,0.1,0.3,0.1,0.4c0,0.1,0,0.2,0,0.3s0,0.2,0,0.2c0,0.1,0,0.2,0,0.3
			c0,0.2,0.1,0.3,0.1,0.5c0,0.1,0,0.3,0,0.4c0,0.1,0,0.3,0.1,0.4c0.1,0.2,0.1,0.3,0.2,0.5c0.5,1.1,1.2,1.6,2.3,2
			c1.3,0.5,2.2,1.2,3.7,1.2c2.3,0,4.5-0.7,6.3-2.2c0.7-0.6,1.4-1.4,1.7-2.3c0.2-0.5,0.5,0.2,0.6,0.3c0.3,0.4,0.8,0.5,1.1,0.9
			c0.4,0.4,0.6,0.9,0.9,1.3c0.7,0.7,1.7,0.9,2.5,1.3c1.1,0.5,2.3,0.6,3.5,0.5c1.7,0,3.2-0.5,4.5-1.6c0.4-0.3,0.7-0.6,1.1-1
			c0.2-0.2,0.4-0.5,0-0.5c-0.3-0.1-0.7,0.2-0.9,0.4c-0.5,0.6-1,1.2-1.8,1.6c-1,0.5-2.2,0.6-3.4,0.5c-2.1-0.2-4.1-1.4-5.1-3.2
			c-0.6-1.2-0.7-2.5-0.7-3.8s0-2.6,0-3.9c0-0.3,0-0.7,0-1c0-0.2,0-0.4,0-0.5v-0.1c0.1-0.1,0.2-0.1,0.3-0.1c0.3,0,0.6,0,0.9,0
			c0.4,0,0.7,0,1.1,0c0.3,0,0.5,0,0.8,0c0.1,0,0.2-0.1,0.3-0.1c0.1-0.1,0.2-0.1,0.4-0.1c0.3-0.1,0.5-0.2,0.8-0.2
			c0.4-0.1,0.9-0.2,1.3-0.3c0.4,0,0.8,0,1.2,0c0.2,0,0.4,0,0.6,0c0.2,0,0.3,0,0.5,0c0.1,0,0.2,0,0.4,0c0.3,0,0.6-0.2,0.9,0
			c0.1,0,0.3,0.1,0.4,0.1c0.2,0,0.4,0,0.6,0.1c0.2,0.1,0.5,0,0.7,0c0.5,0,1,0,1.5,0c0.4,0,0.7-0.1,1.1,0c0.3,0,0.5,0.1,0.8-0.1
			c0.1-0.1,0.2-0.1,0.4-0.2c0.1,0,0.2,0,0.2-0.1c0.1-0.1,0.2-0.1,0.2-0.2c0-0.1,0-0.2,0-0.3s0-0.1-0.1-0.1c0,0,0-0.1-0.1-0.1
			s-0.2,0-0.3,0c-0.3,0-0.6,0-0.9,0C163.1,15.2,163,15.3,163,15.3z"/>
		<path class="st0" d="M70,20c-0.2-1.6-0.6-2-1.5-3.3c-1.9-2.9-5-5.4-8-7.2c-2.4-1.4-5-2.6-7.7-2.9c-1.3-0.2-2.7-0.3-4,0
			c-1.7,0.3-3,0.9-4.2,2.1c-0.4,0.4-1,0.7-1.2,1.2c-0.3,0.8,0.1,1.8,0,2.7c-0.2,1.9-0.3,3.9-0.3,5.9c0,1.2,0.1,2.2,0.3,3.4
			c0.3,1.6,0.3,3.3,0.2,4.9c0,0.8-0.1,1.7,0,2.5c0.1,0.4,0.4,1.4,1,0.8c0.4-0.4,0.2-1.3,0.1-1.8c-0.1-0.8-0.1-1.5-0.1-2.3
			c0-1.7-0.1-3.5-0.3-5.2c-0.3-2.2-0.6-4.4-0.2-6.6c0.2-1.2,0.7-2.3,1.3-3.4c0.1-0.2,0.2-0.4,0.4-0.4c0.6-0.1,1.2,0,1.8-0.1
			c0.4-0.1,0.9-0.2,1.3-0.3c0.3-0.1,0.5-0.1,0.8-0.2c0.2,0,0.4,0,0.7-0.1c0.4-0.1,0.8-0.2,1.2-0.2c0.3,0,0.6,0,0.8,0
			c0.3,0,0.6,0,1,0s0.7,0.1,1.1,0.2c0.4,0.1,0.8,0.1,1.2,0.3c0.5,0.2,1,0.4,1.5,0.6c0.2,0.1,0.5,0.1,0.7,0.2
			c0.2,0.1,0.5,0.3,0.7,0.4c0.4,0.2,0.8,0.4,1.3,0.7c0.2,0.1,0.4,0.3,0.7,0.4c0.2,0.2,0.3,0.3,0.5,0.5s0.5,0.4,0.6,0.7
			c0.1,0.1,0.1,0.2,0.2,0.3s0.2,0,0.3,0c0.1,0,0.2,0.3,0.2,0.4c0.2,0.3,0.5,0.4,0.7,0.6c0.1,0.1,0.1,0.1,0.2,0.3s0.3,0.4,0.4,0.6
			c0.1,0.1,0.1,0.2,0.2,0.3c0.1,0.1,0.1,0.3,0.2,0.5s0.3,0.2,0.4,0.4s0.2,0.3,0.4,0.5c0.4,0.3,0.3,0.7,0.6,1.1
			c0.2,0.2,0.2,0.4,0.2,0.6c0,0.2,0.2,0.3,0.3,0.5c0.1,0.2,0.2,0.6,0.3,0.8c0.1,0.3,0.2,0.6,0.4,0.9c0.4,0.8,0.6,1.5,0.6,2.4
			c0,1-0.1,2-0.6,2.9c-0.3,0.6-1.1,0.8-1.6,1.2c-0.7,0.5-1.2,1.2-2,1.5c-0.6,0.2-1.2,0.1-1.8,0.4c-1.8,0.7-3,0.8-4.9,0.7
			c-1.7-0.2-3.2,0.4-4.9,0.5c-1,0.1-1.4,0.5-0.2,0.7c0.7,0.1,1.5-0.1,2.2-0.1c1.3,0,2.4-0.2,3.6-0.3c1.2-0.2,2.2,0,3.3-0.3
			c0.7-0.2,1.3-0.2,2-0.3c0.7-0.1,1.3-0.4,2-0.7c1.5-0.6,3-1.3,4.4-2.3C71,25.8,70.2,22,70,20z"/>
	</g>
	<path class="st0" d="M76.4,15.8c0.4,0,0.8,0.1,1.2-0.1c0.2-0.1,0.2-0.2,0.3-0.2c0.1-0.1,0.2,0,0.3,0c0.2,0,0.2-0.2,0.3-0.3
		c0.2-0.2,0.5-0.2,0.7-0.3s0.4-0.3,0.5-0.4c0.1-0.1,0.3-0.3,0.5-0.3c0.1,0,0.2,0,0.2,0c0.2-0.1,0.3-0.2,0.4-0.3s0.2,0,0.2-0.1
		l0.1-0.1c0.2-0.1,0.4-0.2,0.5-0.3c0.2-0.1,0.4-0.4,0.7-0.5c0.2-0.1,0.3-0.1,0.5-0.2c0.3-0.1,0.4-0.2,0.6-0.4
		c0.1-0.1,0.3-0.2,0.4-0.3s0.2-0.3,0.3-0.5c0.1-0.1,0.1-0.3,0.2-0.4c0-0.2,0-0.3,0-0.5c0-0.3,0-0.6-0.3-0.8
		c-0.2-0.1-0.4-0.1-0.7-0.2c-0.1,0-0.3,0-0.4,0c-0.2,0-0.3,0.2-0.5,0.4s-0.3,0.4-0.4,0.6c-0.1,0.1-0.2,0.3-0.3,0.4
		c0,0.1-0.1,0.1-0.2,0.2c0,0,0,0.1-0.1,0.1c0,0.1-0.1,0.2-0.2,0.2c-0.1,0.1-0.1,0.2-0.1,0.4c-0.1,0.2-0.3,0.3-0.4,0.5
		c0,0.1-0.1,0.3-0.2,0.3c-0.1,0.1-0.2,0.2-0.3,0.3c-0.3,0.2-0.5,0.5-0.7,0.7c-0.3,0.3-0.6,0.5-1,0.7c-0.2,0.1-0.4,0.3-0.6,0.4
		c-0.1,0-0.1,0.1-0.2,0.1c-0.1,0.1-0.1,0.1-0.3,0.2C77.5,15.3,76.8,15.4,76.4,15.8z"/>
</g>
</svg>
